<?xml version="1.0" encoding="utf-8"?>
<!-- Generator: Adobe Illustrator 16.0.0, SVG Export Plug-In . SVG Version: 6.00 Build 0)  -->
<!DOCTYPE svg PUBLIC "-//W3C//DTD SVG 1.1//EN" "http://www.w3.org/Graphics/SVG/1.1/DTD/svg11.dtd">
<svg version="1.1" id="Warstwa_1" xmlns="http://www.w3.org/2000/svg" xmlns:xlink="http://www.w3.org/1999/xlink" x="0px" y="0px"
	 width="24.026px" height="53.314px" viewBox="0 0 24.026 53.314" enable-background="new 0 0 24.026 53.314" xml:space="preserve">
<g>
	<path fill="#FFAD3B" d="M20.233,29.396l-6.471-3.991c-0.305-0.397-3.063-0.397-3.367,0l-7.001,4.455v22.859h16.839V29.396z"/>
	<path fill="#231F20" d="M20.83,53.314H2.798V29.528l7.213-4.588c0.186-0.173,0.65-0.438,2.068-0.438
		c1.406,0,1.883,0.265,2.068,0.438l6.683,4.124V53.314z M3.991,52.122h15.646V29.727l-6.284-3.871l-0.014-0.026
		c-0.146-0.054-0.57-0.133-1.26-0.133s-1.114,0.079-1.259,0.133l-0.013,0.013l-6.815,4.336V52.122z"/>
</g>
<g>
	<circle fill="#F2C4B6" cx="3.103" cy="16.746" r="2.506"/>
	<path fill="#231F20" d="M3.103,19.849C1.393,19.849,0,18.457,0,16.746c0-1.71,1.393-3.103,3.103-3.103s3.103,1.393,3.103,3.103
		C6.206,18.457,4.813,19.849,3.103,19.849z M3.103,14.837c-1.048,0-1.91,0.862-1.91,1.909c0,1.048,0.862,1.909,1.91,1.909
		c1.047,0,1.909-0.861,1.909-1.909C5.012,15.699,4.15,14.837,3.103,14.837z"/>
</g>
<g>
	<circle fill="#F2C4B6" cx="20.923" cy="16.746" r="2.506"/>
	<path fill="#231F20" d="M20.923,19.849c-1.71,0-3.103-1.392-3.103-3.103c0-1.71,1.393-3.103,3.103-3.103
		c1.711,0,3.104,1.393,3.104,3.103C24.026,18.457,22.634,19.849,20.923,19.849z M20.923,14.837c-1.047,0-1.909,0.862-1.909,1.909
		c0,1.048,0.862,1.909,1.909,1.909c1.048,0,1.91-0.861,1.91-1.909C22.833,15.699,21.971,14.837,20.923,14.837z"/>
</g>
<g>
	<path fill="#F2C4B6" d="M21.56,16.72c0,5.237-4.243,9.48-9.48,9.48l0,0c-5.237,0-9.48-4.243-9.48-9.48v-3.806
		c0-5.237,4.243-9.48,9.48-9.48l0,0c5.237,0,9.48,4.243,9.48,9.48V16.72z"/>
	<path fill="#231F20" d="M12.079,26.797c-5.555,0-10.077-4.521-10.077-10.077v-3.806c0-5.556,4.521-10.076,10.077-10.076
		c5.556,0,10.077,4.521,10.077,10.076v3.806C22.156,22.275,17.635,26.797,12.079,26.797z M12.079,4.031
		c-4.893,0-8.883,3.99-8.883,8.883v3.806c0,4.893,3.991,8.884,8.883,8.884s8.884-3.991,8.884-8.884v-3.806
		C20.963,8.009,16.985,4.031,12.079,4.031z"/>
</g>
<g>
	<polygon fill="#EAC653" points="12.079,0.597 9.931,0.597 2.135,0.597 2.639,11.841 7.081,20.061 17.104,20.074 21.546,11.841 
		22.05,0.597 	"/>
	<path fill="#231F20" d="M17.462,20.671L6.723,20.658L2.055,12L1.512,0h21.161L22.13,12L17.462,20.671z M7.438,19.465l9.309,0.013
		l4.203-7.796l0.477-10.488H2.758l0.477,10.488L7.438,19.465z"/>
</g>
<polygon fill="#231F20" points="4.521,0.597 5.065,6.219 5.609,0.597 "/>
<polygon fill="#231F20" points="18.895,0.597 19.438,6.219 19.981,0.597 "/>
<g>
	<path fill="#FFFFFF" d="M13.444,37.179c0.398,0.172,0.756,0.411,1.062,0.702c0.305,0.306,0.53,0.65,0.702,1.062
		c0.173,0.397,0.252,0.835,0.252,1.286c0,0.464-0.092,0.888-0.252,1.286c-0.172,0.397-0.41,0.742-0.702,1.047
		c-0.306,0.306-0.649,0.53-1.062,0.703c-0.396,0.172-0.835,0.252-1.285,0.252h-0.518c-0.438,0-0.835-0.08-1.207-0.239
		c-0.371-0.158-0.703-0.384-0.981-0.662c-0.278-0.279-0.504-0.61-0.663-0.981s-0.239-0.782-0.239-1.207h2.068
		c0,0.292,0.106,0.53,0.305,0.729s0.451,0.305,0.729,0.305h0.517c0.345,0,0.637-0.119,0.876-0.357
		c0.238-0.239,0.357-0.53,0.357-0.875s-0.119-0.637-0.357-0.875c-0.239-0.239-0.531-0.358-0.876-0.358h-3.62v-5.781h6.709v3.103
		h-2.069v-1.034h-2.585v1.657h1.552C12.61,36.927,13.048,37.006,13.444,37.179z"/>
</g>
</svg>
