<?xml version="1.0" encoding="utf-8"?>
<!-- Generator: Adobe Illustrator 16.0.0, SVG Export Plug-In . SVG Version: 6.00 Build 0)  -->
<!DOCTYPE svg PUBLIC "-//W3C//DTD SVG 1.1//EN" "http://www.w3.org/Graphics/SVG/1.1/DTD/svg11.dtd">
<svg version="1.1" id="Warstwa_1" xmlns="http://www.w3.org/2000/svg" xmlns:xlink="http://www.w3.org/1999/xlink" x="0px" y="0px"
	 width="50.599px" height="98.913px" viewBox="0 0 50.599 98.913" enable-background="new 0 0 50.599 98.913" xml:space="preserve">
<g>
	<g>
		<path fill="#E0BC75" d="M5.968,92.694c-0.053,0-0.106-0.014-0.159-0.039c-0.199-0.094-0.292-0.332-0.199-0.531l0.637-1.418
			c0.093-0.199,0.332-0.292,0.53-0.199s0.292,0.332,0.199,0.53l-0.636,1.419C6.26,92.602,6.114,92.694,5.968,92.694z"/>
		<path fill="#E0BC75" d="M16.734,93.251c-0.026,0-0.04,0-0.066,0c-0.212-0.039-0.358-0.238-0.331-0.45l0.477-2.903
			c0.04-0.213,0.239-0.358,0.451-0.332c0.212,0.04,0.358,0.238,0.332,0.451l-0.477,2.903C17.092,93.118,16.933,93.251,16.734,93.251
			z"/>
		<path fill="#E0BC75" d="M21.587,90.348h-0.941c-0.226,0-0.398-0.173-0.398-0.397c0-0.226,0.172-0.398,0.398-0.398h0.941
			c0.225,0,0.397,0.173,0.397,0.398C21.985,90.175,21.813,90.348,21.587,90.348z"/>
		<path fill="#E0BC75" d="M19.559,90.348h-2.347c-0.226,0-0.398-0.173-0.398-0.397c0-0.226,0.172-0.398,0.398-0.398h2.347
			c0.226,0,0.398,0.173,0.398,0.398C19.957,90.175,19.784,90.348,19.559,90.348z"/>
		<rect x="3.727" y="93.622" fill="#D3AA4C" width="43.968" height="3.063"/>
		<polygon fill="#D3AA4C" points="43.054,83.161 25.433,83.161 25.181,83.161 8.354,83.161 3.727,93.622 25.181,93.622 
			25.433,93.622 47.695,93.622 		"/>
		<rect x="5.583" y="88.862" fill="#B78E3D" width="10.024" height="1.061"/>
		<path fill="#B78E3D" d="M48.292,93.649l-0.278-0.637l-4.602-10.395H8.023L3.422,93.013l-0.278,0.637v0.49v3.129h45.16V94.14v-0.49
			H48.292z M47.098,96.089H4.324V94.22h42.774V96.089z M8.699,83.691h34.01l4.137,9.335H4.576L8.699,83.691z"/>
		<g>
			<g>
				<polygon fill="#D3AA4C" points="36.305,98.316 14.295,98.316 16.005,88.664 34.382,88.664 				"/>
				<path fill="#B78E3D" d="M37.035,98.913H13.592l1.909-10.846h19.371L37.035,98.913z M15.011,97.72h20.565l-1.697-8.459H16.496
					L15.011,97.72z"/>
			</g>
			<g>
				<path fill="#B78E3D" d="M17.636,96.274l0.132-1.061h0.292l0.411-3.421h-0.278l0.133-1.061h1.657l-0.093,1.061h-0.278
					l-0.332,3.421h0.292l-0.093,1.061H17.636z"/>
				<path fill="#B78E3D" d="M20.301,96.274l0.08-1.061h0.305l0.239-3.421h-0.278l0.08-1.061h1.657l-0.053,1.061h-0.278l-0.172,3.421
					h1.14l0.014-0.609h1.193l-0.014,1.67H20.301z"/>
				<path fill="#B78E3D" d="M28.058,92.376h-1.141l-0.026-0.596h-0.278l0.133,3.42h0.291l0.053,1.061h-1.843L25.234,95.2h0.291
					l-0.053-3.42h-0.278l0.013,0.596h-1.14l0.013-1.657h3.885L28.058,92.376z"/>
				<path fill="#B78E3D" d="M29.132,96.274l-0.08-1.061h0.291l-0.291-3.421h-0.278l-0.079-1.061h3.42l0.226,1.511h-1.14l-0.054-0.45
					h-0.941l0.133,1.181h0.411l-0.04-0.293h1.153l0.226,1.645h-1.193l-0.04-0.291h-0.424l0.133,1.18h0.291l0.119,1.061H29.132
					L29.132,96.274z"/>
			</g>
		</g>
		<rect x="35.072" y="88.862" fill="#B78E3D" width="10.807" height="1.061"/>
		<path fill="#E0BC75" d="M7.97,88.226c-0.053,0-0.106-0.013-0.159-0.039c-0.199-0.093-0.292-0.332-0.199-0.53l1.445-3.222
			c0.066-0.146,0.212-0.239,0.358-0.239h10.899c0.226,0,0.398,0.173,0.398,0.397c0,0.226-0.172,0.398-0.398,0.398H9.681
			l-1.339,2.996C8.262,88.134,8.129,88.226,7.97,88.226z"/>
		<path fill="#E0BC75" d="M26.056,85.005h-3.792c-0.226,0-0.398-0.173-0.398-0.398s0.172-0.397,0.398-0.397h3.792
			c0.225,0,0.397,0.172,0.397,0.397S26.268,85.005,26.056,85.005z"/>
	</g>
	<g>
		<g>
			<path fill="#D3AA4C" d="M17.331,31.822c0,0,0.093-1.525,0.106-1.525l0,0c0,0-0.013,0-0.013-0.013
				c-0.013,0-0.04-0.013-0.053-0.026c-0.093-0.04-0.252-0.106-0.451-0.212c-0.199-0.106-0.464-0.238-0.742-0.424
				c-0.292-0.172-0.61-0.398-0.941-0.663c-0.345-0.252-0.689-0.57-1.047-0.915c-0.358-0.345-0.716-0.729-1.061-1.153
				s-0.689-0.875-1.021-1.353c-0.08-0.119-0.159-0.239-0.239-0.358c-0.079-0.12-0.159-0.252-0.225-0.372
				c-0.159-0.252-0.305-0.517-0.451-0.769c-0.292-0.518-0.557-1.061-0.796-1.591c-0.239-0.543-0.464-1.074-0.663-1.618
				c-0.053-0.133-0.106-0.265-0.146-0.397c-0.04-0.133-0.093-0.266-0.133-0.398c-0.08-0.265-0.186-0.517-0.252-0.769
				c-0.08-0.252-0.146-0.504-0.212-0.729c-0.066-0.238-0.12-0.477-0.186-0.689c-0.053-0.225-0.12-0.438-0.159-0.636
				c-0.04-0.212-0.093-0.398-0.133-0.583c-0.04-0.186-0.08-0.358-0.119-0.517c-0.026-0.159-0.053-0.305-0.08-0.438
				c-0.106-0.53-0.159-0.835-0.159-0.835l-6.47,1.591c0,0,0.106,0.345,0.305,0.941c0.053,0.146,0.106,0.318,0.159,0.503
				c0.066,0.186,0.133,0.372,0.212,0.583c0.079,0.212,0.159,0.424,0.238,0.663s0.186,0.478,0.292,0.729
				c0.106,0.251,0.199,0.517,0.318,0.795c0.12,0.265,0.239,0.543,0.372,0.835c0.119,0.292,0.278,0.583,0.411,0.875
				c0.066,0.146,0.146,0.305,0.225,0.451s0.159,0.305,0.239,0.451c0.318,0.61,0.676,1.233,1.061,1.856
				c0.385,0.623,0.796,1.247,1.247,1.843c0.226,0.305,0.451,0.597,0.689,0.888c0.119,0.146,0.239,0.292,0.358,0.438
				c0.12,0.146,0.252,0.278,0.371,0.424c0.491,0.557,1.008,1.074,1.525,1.564c0.53,0.478,1.061,0.928,1.591,1.313
				c0.53,0.385,1.047,0.743,1.551,1.035c0.504,0.292,0.981,0.543,1.418,0.742c0.438,0.199,0.835,0.358,1.18,0.464
				c0.345,0.119,0.624,0.199,0.822,0.238c0.119,0.027,0.212,0.053,0.265,0.066c0.093,0.013,0.093,0.013,0.093,0.013L17.331,31.822z"
				/>
			<path fill="#B78E3D" d="M16.482,34.699c-0.026,0-0.053-0.013-0.106-0.026l-0.278-0.066c-0.265-0.066-0.557-0.146-0.875-0.252
				c-0.372-0.12-0.783-0.292-1.233-0.491s-0.941-0.464-1.472-0.769c-0.478-0.278-1.008-0.623-1.618-1.074
				c-0.53-0.398-1.074-0.849-1.644-1.366c-0.61-0.57-1.114-1.087-1.564-1.604L7.32,28.626l-0.358-0.451
				c-0.212-0.252-0.411-0.517-0.597-0.769L6.26,27.261c-0.424-0.583-0.849-1.193-1.273-1.883s-0.769-1.299-1.074-1.883l-0.08-0.146
				c-0.053-0.106-0.12-0.212-0.172-0.332l-0.226-0.451c-0.04-0.093-0.093-0.199-0.146-0.292c-0.093-0.199-0.199-0.398-0.278-0.597
				L2.64,20.843c-0.08-0.186-0.159-0.371-0.226-0.543c-0.04-0.093-0.066-0.172-0.106-0.265c-0.026-0.08-0.066-0.159-0.093-0.239
				c-0.066-0.172-0.133-0.345-0.199-0.504l-0.451-1.246L0.89,15.977l7.717-1.882l0.358,1.882l0.238,1.087
				c0.027,0.133,0.066,0.252,0.093,0.385c0.027,0.079,0.04,0.159,0.066,0.225c0.026,0.08,0.04,0.172,0.066,0.252
				c0.04,0.146,0.066,0.292,0.119,0.424l0.226,0.743c0.04,0.146,0.093,0.305,0.146,0.464c0.026,0.093,0.066,0.186,0.093,0.278
				l0.132,0.385c0.027,0.08,0.053,0.159,0.093,0.239l0.053,0.146c0.172,0.478,0.384,0.981,0.65,1.578
				c0.265,0.57,0.517,1.074,0.769,1.551l0.106,0.172c0.106,0.199,0.212,0.384,0.332,0.57l0.225,0.371l0.239,0.358
				c0.265,0.411,0.583,0.822,0.981,1.299c0.345,0.411,0.689,0.782,1.021,1.101c0.398,0.385,0.716,0.65,0.995,0.875
				c0.332,0.252,0.623,0.464,0.888,0.623c0.266,0.159,0.504,0.305,0.703,0.398c0.225,0.106,0.358,0.172,0.411,0.186l0.716,0.292
				l-0.292,0.491c-0.013,0.225-0.053,0.716-0.066,0.968l-0.014,0.292c0,0.093-0.026,0.186-0.04,0.252h0.013l-0.888,2.851
				L16.482,34.699z M16.761,31.384c0.013-0.212,0.026-0.491,0.053-0.703c-0.053-0.026-0.106-0.053-0.159-0.08
				c-0.225-0.106-0.49-0.265-0.795-0.451c-0.292-0.186-0.636-0.411-0.995-0.689c-0.318-0.239-0.663-0.544-1.1-0.955
				c-0.358-0.345-0.729-0.743-1.114-1.193c-0.424-0.517-0.756-0.968-1.048-1.406l-0.199-0.305l-0.278-0.451
				c-0.133-0.212-0.252-0.424-0.372-0.623l-0.106-0.172c-0.278-0.504-0.543-1.034-0.822-1.644c-0.279-0.61-0.491-1.153-0.676-1.644
				l-0.053-0.133c-0.04-0.093-0.066-0.172-0.106-0.278L8.858,20.26c-0.026-0.093-0.053-0.172-0.093-0.265
				c-0.053-0.172-0.119-0.345-0.172-0.517l-0.212-0.729c-0.053-0.159-0.093-0.318-0.133-0.478c-0.026-0.08-0.04-0.159-0.066-0.252
				c-0.013-0.08-0.04-0.159-0.053-0.225c-0.04-0.146-0.08-0.292-0.106-0.424l-0.252-1.101l-0.133-0.676l-5.237,1.286l0.265,0.822
				l0.451,1.233c0.053,0.146,0.12,0.305,0.186,0.464c0.027,0.08,0.066,0.159,0.093,0.239c0.04,0.093,0.079,0.186,0.106,0.278
				c0.066,0.159,0.132,0.332,0.212,0.504l0.372,0.849c0.08,0.172,0.159,0.358,0.265,0.557c0.053,0.106,0.093,0.199,0.146,0.292
				l0.212,0.438c0.053,0.093,0.106,0.199,0.159,0.292l0.08,0.146c0.292,0.557,0.636,1.154,1.034,1.816
				c0.411,0.663,0.809,1.247,1.22,1.804l0.106,0.146c0.186,0.252,0.358,0.491,0.557,0.716l0.238,0.292l0.464,0.543
				c0.424,0.491,0.915,0.981,1.485,1.512c0.53,0.477,1.047,0.915,1.538,1.273c0.57,0.411,1.061,0.742,1.499,0.994
				c0.49,0.292,0.955,0.53,1.366,0.703c0.411,0.186,0.795,0.331,1.127,0.451c0.252,0.08,0.451,0.146,0.597,0.186l0.53-1.697
				C16.734,31.636,16.748,31.517,16.761,31.384z"/>
			<path fill="#D3AA4C" d="M5.106,9.944c0,0,1.578-3.792,2.651-0.649c0.424,1.233-1.551,1.896-2.042,2.228"/>
			<path fill="#B78E3D" d="M5.703,11.986c0.093,0,0.186-0.026,0.266-0.08c0.066-0.053,0.225-0.12,0.371-0.212
				c0.743-0.384,2.307-1.193,1.843-2.559C8.05,8.751,7.665,7.611,6.764,7.571c-0.53-0.013-1.034,0.358-1.551,1.154
				c-0.318,0.504-0.53,1.008-0.544,1.034c-0.093,0.239,0.014,0.504,0.252,0.61c0.239,0.093,0.504-0.013,0.61-0.252l0,0
				c0.345-0.835,0.928-1.604,1.193-1.604l0,0c0.093,0,0.332,0.199,0.57,0.928c0.186,0.557-0.583,1.021-1.392,1.432
				c-0.199,0.106-0.358,0.186-0.478,0.265c-0.212,0.146-0.265,0.438-0.119,0.649C5.411,11.92,5.557,11.986,5.703,11.986z"/>
			<circle fill="#D3AA4C" cx="4.457" cy="13.113" r="3.991"/>
			<path fill="#B78E3D" d="M0.863,15.752c-1.458-1.976-1.021-4.773,0.955-6.232c0.769-0.57,1.684-0.862,2.639-0.862
				c1.418,0,2.758,0.676,3.593,1.816c0.703,0.955,0.994,2.135,0.809,3.315s-0.809,2.214-1.763,2.917
				c-0.769,0.57-1.684,0.862-2.639,0.862C3.038,17.568,1.699,16.892,0.863,15.752z M2.362,10.276
				c-1.565,1.153-1.91,3.368-0.756,4.932c0.663,0.902,1.724,1.445,2.851,1.445c0.756,0,1.472-0.238,2.082-0.689
				c0.756-0.557,1.26-1.379,1.406-2.307c0.146-0.928-0.08-1.87-0.65-2.625C6.631,10.13,5.57,9.586,4.443,9.586
				C3.701,9.586,2.972,9.825,2.362,10.276z"/>
			<path fill="#D3AA4C" d="M3.237,9.759c0,0,1.578-3.792,2.652-0.65c0.424,1.233-1.551,1.896-2.042,2.228"/>
			<path fill="#B78E3D" d="M3.847,11.801c0.093,0,0.186-0.027,0.265-0.08c0.066-0.053,0.226-0.12,0.371-0.212
				c0.809-0.411,2.307-1.193,1.843-2.559C6.193,8.565,5.809,7.425,4.907,7.385c-0.53-0.013-1.034,0.358-1.551,1.154
				c-0.318,0.504-0.53,1.007-0.543,1.034c-0.093,0.238,0.013,0.504,0.252,0.61c0.239,0.093,0.504-0.013,0.61-0.252l0,0
				c0.345-0.835,0.928-1.604,1.193-1.604l0,0c0.093,0,0.332,0.199,0.57,0.928c0.186,0.557-0.583,1.021-1.392,1.432
				c-0.199,0.106-0.358,0.186-0.477,0.265c-0.212,0.146-0.265,0.438-0.12,0.649C3.555,11.734,3.701,11.801,3.847,11.801z"/>
			<path fill="#D3AA4C" d="M1.606,10.408c0,0,1.578-3.792,2.652-0.649c0.424,1.233-1.551,1.896-2.042,2.228"/>
			<path fill="#B78E3D" d="M2.216,12.45c0.093,0,0.186-0.026,0.265-0.08c0.066-0.053,0.226-0.119,0.371-0.212
				c0.743-0.385,2.307-1.193,1.843-2.559C4.563,9.215,4.178,8.075,3.276,8.035c-0.53-0.014-1.034,0.358-1.551,1.153
				c-0.318,0.504-0.53,1.008-0.543,1.034c-0.093,0.239,0.013,0.504,0.252,0.61c0.239,0.093,0.504-0.013,0.61-0.252
				c0.345-0.835,0.928-1.604,1.193-1.604l0,0c0.093,0,0.332,0.199,0.57,0.928c0.186,0.557-0.583,1.021-1.392,1.432
				c-0.199,0.106-0.358,0.186-0.477,0.265c-0.212,0.146-0.265,0.438-0.12,0.65C1.924,12.384,2.07,12.45,2.216,12.45z"/>
			<path fill="#D3AA4C" d="M0.492,12.609c0,0,0.093-4.11,2.228-1.564c0.835,0.994-0.769,2.333-1.101,2.811"/>
			<path fill="#B78E3D" d="M1.632,14.333c0.146,0,0.292-0.066,0.385-0.199c0.053-0.066,0.159-0.199,0.278-0.332
				c0.557-0.636,1.724-1.936,0.795-3.05C2.839,10.448,2.057,9.52,1.195,9.812c-0.504,0.173-0.835,0.716-1.021,1.631
				c-0.119,0.583-0.133,1.141-0.133,1.154c0,0.252,0.199,0.464,0.451,0.477c0.252,0,0.464-0.199,0.477-0.451l0,0
				c0.027-0.901,0.279-1.843,0.544-1.936c0.08-0.027,0.384,0.066,0.875,0.663c0.384,0.451-0.172,1.154-0.769,1.83
				c-0.146,0.172-0.265,0.305-0.345,0.424c-0.146,0.212-0.093,0.504,0.119,0.649C1.447,14.307,1.54,14.333,1.632,14.333z"/>
			<path fill="#D3AA4C" d="M7.122,10.17c-1.087-1.154-2.267,0.04-2.798,0.849c-0.292,0.438-0.583,1.379-0.079,1.79
				c0.438,0.358,1.061,0.013,1.445-0.266"/>
			<path fill="#B78E3D" d="M4.695,13.418c0.332,0,0.756-0.132,1.273-0.517c0.212-0.146,0.252-0.438,0.093-0.65
				C5.915,12.039,5.624,12,5.411,12.159c-0.318,0.225-0.703,0.424-0.888,0.278c-0.212-0.172-0.08-0.795,0.172-1.167
				c0.345-0.518,0.888-1.074,1.379-1.127c0.239-0.026,0.464,0.093,0.703,0.332c0.172,0.186,0.464,0.199,0.65,0.013
				c0.186-0.172,0.199-0.464,0.013-0.649c-0.544-0.57-1.087-0.65-1.445-0.61c-1.008,0.093-1.79,1.101-2.068,1.538
				c-0.424,0.636-0.703,1.816,0.013,2.399C4.099,13.286,4.351,13.418,4.695,13.418z"/>
			<polygon fill="#D3AA4C" points="9.601,18.364 8.792,14.333 1.142,16.295 2.388,20.287 			"/>
			<path fill="#B78E3D" d="M8.845,13.736c0.093,0.013,0.186,0.04,0.265,0.093c0.133,0.093,0.239,0.226,0.265,0.385l0.809,4.031
				c0.066,0.305-0.133,0.61-0.438,0.689l-7.213,1.922c-0.305,0.08-0.623-0.093-0.729-0.397l-1.247-3.991
				c-0.053-0.159-0.026-0.332,0.053-0.464c0.08-0.146,0.212-0.252,0.371-0.292l7.651-1.962C8.713,13.736,8.779,13.736,8.845,13.736z
				 M8.912,17.926l-0.57-2.864l-6.444,1.644l0.888,2.851L8.912,17.926z"/>
			<path fill="#E0BC75" d="M12.73,31.397c-0.079,0-0.159-0.026-0.225-0.08c-2.665-1.922-4.72-4.654-5.967-6.616
				c-0.119-0.186-0.066-0.438,0.12-0.543c0.186-0.119,0.424-0.066,0.543,0.119c1.207,1.896,3.195,4.548,5.768,6.391
				c0.172,0.132,0.226,0.371,0.093,0.557C12.969,31.345,12.85,31.397,12.73,31.397z"/>
			<path fill="#E0BC75" d="M6.061,23.575c-0.133,0-0.279-0.066-0.345-0.199c-0.451-0.796-0.703-1.313-0.703-1.326
				C4.92,21.851,5,21.612,5.199,21.52c0.199-0.093,0.438-0.013,0.53,0.186c0,0,0.239,0.504,0.676,1.273
				c0.106,0.186,0.04,0.438-0.146,0.543C6.193,23.562,6.127,23.575,6.061,23.575z"/>
			<path fill="#E0BC75" d="M3.237,18.895c-0.172,0-0.318-0.106-0.372-0.266L2.401,17.25c-0.066-0.212,0.04-0.438,0.252-0.504
				c0.212-0.066,0.438,0.04,0.504,0.252l0.464,1.379c0.066,0.212-0.04,0.438-0.252,0.504C3.316,18.881,3.276,18.895,3.237,18.895z"
				/>
		</g>
		<g>
			<path fill="#D3AA4C" d="M33.282,31.583c0,0-0.093-1.524-0.106-1.524l0,0c0,0,0.014,0,0.014-0.014c0.014,0,0.04-0.013,0.053-0.026
				c0.094-0.04,0.252-0.106,0.451-0.212c0.199-0.106,0.464-0.239,0.742-0.424c0.292-0.172,0.61-0.398,0.941-0.663
				c0.346-0.252,0.689-0.57,1.048-0.915c0.358-0.345,0.716-0.729,1.061-1.154s0.689-0.875,1.021-1.353
				c0.08-0.119,0.16-0.239,0.239-0.358s0.159-0.252,0.226-0.371c0.159-0.252,0.305-0.517,0.451-0.769
				c0.291-0.517,0.557-1.061,0.795-1.591c0.238-0.543,0.464-1.087,0.663-1.618c0.053-0.132,0.106-0.265,0.146-0.397
				c0.04-0.133,0.093-0.265,0.133-0.398c0.08-0.265,0.186-0.517,0.252-0.769c0.08-0.252,0.146-0.504,0.212-0.729
				c0.066-0.239,0.12-0.478,0.186-0.689c0.054-0.226,0.12-0.438,0.159-0.637c0.04-0.212,0.093-0.398,0.133-0.583
				s0.08-0.358,0.119-0.517c0.026-0.159,0.054-0.305,0.08-0.438c0.105-0.53,0.159-0.835,0.159-0.835l6.47,1.591
				c0,0-0.105,0.345-0.305,0.941c-0.053,0.146-0.105,0.318-0.159,0.504c-0.066,0.186-0.133,0.371-0.212,0.583
				c-0.08,0.212-0.159,0.425-0.238,0.663c-0.08,0.239-0.186,0.478-0.292,0.729s-0.199,0.517-0.318,0.782s-0.238,0.543-0.371,0.835
				c-0.119,0.292-0.278,0.583-0.411,0.875c-0.066,0.146-0.146,0.305-0.226,0.451c-0.079,0.146-0.159,0.305-0.238,0.451
				c-0.318,0.609-0.677,1.233-1.062,1.856c-0.384,0.623-0.795,1.247-1.246,1.843c-0.226,0.305-0.45,0.597-0.689,0.888
				c-0.119,0.146-0.238,0.292-0.357,0.438s-0.252,0.278-0.371,0.424c-0.491,0.557-1.008,1.074-1.525,1.564
				c-0.53,0.478-1.061,0.928-1.591,1.313c-0.53,0.384-1.048,0.742-1.552,1.034c-0.504,0.292-0.98,0.543-1.418,0.742
				c-0.438,0.199-0.836,0.358-1.181,0.464c-0.345,0.119-0.623,0.199-0.821,0.238c-0.12,0.027-0.213,0.053-0.266,0.066
				c-0.093,0.014-0.093,0.014-0.093,0.014L33.282,31.583z"/>
			<path fill="#B78E3D" d="M33.6,34.606l-0.888-2.851h0.013c-0.026-0.066-0.04-0.159-0.04-0.252l-0.014-0.292
				c-0.013-0.265-0.053-0.742-0.066-0.968l-0.291-0.491l0.716-0.292c0.054-0.026,0.199-0.08,0.411-0.186
				c0.199-0.093,0.438-0.226,0.703-0.398c0.265-0.159,0.557-0.371,0.889-0.623c0.277-0.212,0.596-0.491,0.994-0.875
				c0.331-0.318,0.676-0.689,1.021-1.1c0.397-0.478,0.702-0.902,0.981-1.299l0.238-0.358l0.226-0.371
				c0.119-0.186,0.226-0.371,0.331-0.57l0.106-0.172c0.265-0.464,0.518-0.981,0.77-1.551c0.265-0.583,0.477-1.101,0.649-1.578
				l0.053-0.146c0.026-0.08,0.066-0.159,0.093-0.239l0.133-0.384c0.026-0.093,0.066-0.186,0.093-0.278
				c0.053-0.159,0.106-0.318,0.146-0.464l0.226-0.743c0.04-0.146,0.08-0.278,0.119-0.424c0.027-0.093,0.04-0.173,0.066-0.252
				c0.014-0.066,0.04-0.146,0.066-0.226c0.04-0.133,0.066-0.265,0.093-0.385l0.239-1.087l0.357-1.883l7.717,1.883l-0.676,2.068
				l-0.451,1.246c-0.066,0.159-0.133,0.332-0.199,0.504c-0.026,0.08-0.065,0.159-0.093,0.239c-0.039,0.093-0.065,0.172-0.105,0.265
				c-0.066,0.172-0.146,0.358-0.226,0.544l-0.371,0.835c-0.08,0.199-0.186,0.411-0.278,0.597c-0.054,0.093-0.093,0.186-0.146,0.292
				l-0.226,0.451c-0.053,0.119-0.119,0.226-0.172,0.332l-0.08,0.146c-0.305,0.583-0.662,1.207-1.073,1.883
				c-0.425,0.689-0.849,1.3-1.273,1.883l-0.105,0.146c-0.186,0.252-0.385,0.517-0.597,0.769l-0.358,0.451l-0.371,0.424
				c-0.451,0.517-0.968,1.034-1.564,1.604c-0.558,0.517-1.114,0.968-1.645,1.366c-0.61,0.451-1.14,0.795-1.617,1.074
				c-0.53,0.305-1.021,0.57-1.472,0.77c-0.451,0.199-0.862,0.371-1.233,0.49c-0.318,0.106-0.623,0.199-0.875,0.252l-0.278,0.066
				c-0.053,0.013-0.08,0.013-0.106,0.026L33.6,34.606z M33.865,31.464l0.531,1.697c0.146-0.04,0.357-0.106,0.596-0.186
				c0.332-0.106,0.703-0.265,1.127-0.451c0.412-0.186,0.876-0.424,1.366-0.703c0.438-0.252,0.929-0.583,1.499-0.994
				c0.49-0.372,1.007-0.796,1.537-1.273c0.57-0.53,1.062-1.034,1.485-1.512L42.47,27.5l0.239-0.292
				c0.198-0.239,0.371-0.478,0.557-0.716l0.106-0.146c0.41-0.543,0.809-1.14,1.22-1.803c0.397-0.663,0.742-1.246,1.034-1.816
				l0.079-0.146c0.053-0.093,0.106-0.199,0.159-0.292l0.212-0.438c0.04-0.093,0.093-0.199,0.146-0.292
				c0.093-0.199,0.186-0.372,0.265-0.557l0.371-0.849c0.08-0.172,0.146-0.332,0.213-0.504c0.039-0.093,0.079-0.186,0.105-0.278
				c0.026-0.08,0.066-0.159,0.093-0.239c0.066-0.159,0.133-0.318,0.186-0.464l0.451-1.233l0.266-0.822l-5.237-1.286l-0.133,0.676
				l-0.252,1.101c-0.026,0.146-0.066,0.278-0.106,0.424c-0.013,0.08-0.04,0.146-0.053,0.226c-0.026,0.093-0.04,0.172-0.066,0.252
				c-0.04,0.146-0.08,0.305-0.133,0.478l-0.212,0.729c-0.053,0.172-0.106,0.345-0.173,0.517c-0.026,0.08-0.053,0.172-0.093,0.265
				l-0.132,0.398c-0.04,0.106-0.066,0.186-0.106,0.278l-0.053,0.133c-0.186,0.49-0.398,1.034-0.677,1.644s-0.543,1.14-0.822,1.644
				l-0.105,0.172c-0.119,0.212-0.239,0.424-0.371,0.623l-0.278,0.451l-0.199,0.305c-0.292,0.438-0.623,0.889-1.048,1.406
				c-0.384,0.451-0.755,0.849-1.113,1.193c-0.438,0.411-0.782,0.716-1.101,0.955c-0.358,0.278-0.689,0.517-0.994,0.689
				c-0.306,0.186-0.57,0.332-0.796,0.451c-0.054,0.026-0.106,0.053-0.159,0.08c0.014,0.225,0.026,0.491,0.053,0.703
				C33.852,31.278,33.865,31.397,33.865,31.464z"/>
			<path fill="#D3AA4C" d="M45.506,9.706c0,0-1.577-3.792-2.651-0.649c-0.424,1.233,1.551,1.896,2.042,2.228"/>
			<path fill="#B78E3D" d="M44.897,11.748c-0.093,0-0.186-0.026-0.266-0.08c-0.066-0.053-0.225-0.119-0.371-0.212
				c-0.742-0.385-2.307-1.193-1.843-2.559c0.133-0.385,0.517-1.525,1.419-1.565c0.53-0.013,1.034,0.358,1.551,1.154
				c0.318,0.504,0.53,1.008,0.544,1.034c0.093,0.239-0.014,0.504-0.252,0.61c-0.238,0.093-0.504-0.013-0.61-0.252l0,0
				c-0.345-0.835-0.928-1.604-1.193-1.604l0,0c-0.093,0-0.331,0.199-0.569,0.928c-0.186,0.557,0.583,1.021,1.392,1.432
				c0.199,0.106,0.358,0.186,0.478,0.265c0.212,0.146,0.266,0.438,0.119,0.65C45.189,11.681,45.042,11.748,44.897,11.748z"/>
			<circle fill="#D3AA4C" cx="46.157" cy="12.875" r="3.991"/>
			<path fill="#B78E3D" d="M46.143,17.33c-0.954,0-1.869-0.305-2.639-0.862c-0.954-0.703-1.591-1.737-1.763-2.917
				c-0.187-1.18,0.105-2.36,0.809-3.315c0.835-1.14,2.174-1.816,3.593-1.816c0.955,0,1.87,0.305,2.639,0.862
				c1.976,1.458,2.413,4.243,0.955,6.232C48.901,16.653,47.562,17.33,46.143,17.33z M46.157,9.348c-1.127,0-2.188,0.543-2.851,1.445
				c-0.558,0.756-0.782,1.697-0.65,2.625c0.133,0.928,0.637,1.75,1.406,2.308c0.609,0.451,1.325,0.689,2.081,0.689
				c1.127,0,2.188-0.544,2.851-1.445c1.154-1.565,0.81-3.779-0.756-4.933C47.628,9.573,46.913,9.348,46.157,9.348z"/>
			<path fill="#D3AA4C" d="M47.363,9.52c0,0-1.577-3.792-2.651-0.65c-0.425,1.233,1.551,1.896,2.042,2.228"/>
			<path fill="#B78E3D" d="M46.766,11.562c-0.093,0-0.186-0.026-0.265-0.08c-0.066-0.053-0.226-0.119-0.371-0.212
				c-0.81-0.411-2.308-1.18-1.844-2.559c0.133-0.385,0.518-1.525,1.419-1.565c0.53-0.013,1.034,0.358,1.552,1.154
				c0.318,0.504,0.53,1.007,0.543,1.034c0.093,0.239-0.013,0.504-0.252,0.61c-0.238,0.093-0.504-0.013-0.609-0.252l0,0
				c-0.345-0.835-0.929-1.604-1.193-1.604l0,0c-0.093,0-0.332,0.199-0.57,0.928c-0.186,0.557,0.583,1.021,1.393,1.432
				c0.198,0.106,0.357,0.186,0.477,0.265c0.213,0.146,0.266,0.438,0.12,0.65C47.058,11.482,46.913,11.562,46.766,11.562z"/>
			<path fill="#D3AA4C" d="M48.994,10.156c0,0-1.577-3.792-2.651-0.649c-0.425,1.233,1.551,1.896,2.042,2.228"/>
			<path fill="#B78E3D" d="M48.384,12.198c-0.093,0-0.186-0.026-0.266-0.08c-0.066-0.053-0.226-0.119-0.371-0.212
				c-0.742-0.384-2.307-1.18-1.843-2.559c0.133-0.385,0.517-1.525,1.419-1.564c0.53-0.013,1.034,0.358,1.551,1.153
				c0.318,0.504,0.53,1.008,0.544,1.034c0.093,0.239-0.014,0.504-0.252,0.61c-0.239,0.093-0.504-0.014-0.61-0.252
				c-0.345-0.835-0.928-1.604-1.193-1.604l0,0c-0.093,0-0.331,0.199-0.57,0.928c-0.186,0.557,0.584,1.021,1.393,1.432
				c0.199,0.106,0.358,0.186,0.478,0.265c0.212,0.146,0.265,0.438,0.119,0.65C48.675,12.132,48.53,12.198,48.384,12.198z"/>
			<path fill="#D3AA4C" d="M50.108,12.371c0,0-0.093-4.11-2.228-1.564c-0.836,0.995,0.769,2.333,1.101,2.811"/>
			<path fill="#B78E3D" d="M48.981,14.095c-0.146,0-0.292-0.066-0.385-0.199c-0.053-0.066-0.159-0.199-0.278-0.332
				c-0.557-0.636-1.724-1.936-0.796-3.049c0.252-0.305,1.034-1.233,1.896-0.941c0.504,0.172,0.835,0.716,1.021,1.631
				c0.119,0.583,0.133,1.14,0.133,1.153c0,0.252-0.199,0.464-0.451,0.478c-0.252,0-0.464-0.199-0.477-0.451l0,0
				c-0.027-0.901-0.279-1.843-0.544-1.936c-0.08-0.026-0.385,0.066-0.875,0.663c-0.385,0.451,0.172,1.153,0.769,1.83
				c0.146,0.172,0.266,0.305,0.345,0.424c0.146,0.212,0.093,0.504-0.119,0.649C49.153,14.068,49.074,14.095,48.981,14.095z"/>
			<path fill="#D3AA4C" d="M43.478,9.918c1.087-1.154,2.268,0.04,2.798,0.849c0.292,0.438,0.583,1.379,0.079,1.79
				c-0.438,0.358-1.061,0.013-1.445-0.266"/>
			<path fill="#B78E3D" d="M45.917,13.18c-0.331,0-0.756-0.133-1.272-0.517c-0.212-0.146-0.252-0.438-0.093-0.65
				c0.146-0.212,0.438-0.252,0.649-0.093c0.318,0.226,0.703,0.424,0.889,0.278c0.212-0.172,0.079-0.795-0.173-1.167
				c-0.345-0.517-0.888-1.074-1.379-1.127c-0.238-0.026-0.464,0.093-0.702,0.332c-0.173,0.186-0.464,0.199-0.65,0.013
				C43,10.077,42.988,9.785,43.173,9.6c0.543-0.57,1.087-0.65,1.445-0.61c1.008,0.093,1.79,1.101,2.068,1.538
				c0.424,0.636,0.702,1.816-0.014,2.4C46.501,13.047,46.262,13.18,45.917,13.18z"/>
			<polygon fill="#D3AA4C" points="40.999,18.125 41.807,14.095 49.458,16.043 48.225,20.035 			"/>
			<path fill="#B78E3D" d="M41.954,13.511l7.65,1.962c0.159,0.04,0.292,0.146,0.371,0.292s0.093,0.318,0.053,0.464l-1.246,3.991
				c-0.093,0.305-0.411,0.477-0.729,0.398l-7.213-1.923c-0.305-0.08-0.49-0.384-0.438-0.689l0.809-4.031
				c0.027-0.159,0.133-0.305,0.266-0.384c0.079-0.053,0.172-0.08,0.266-0.093C41.821,13.484,41.887,13.498,41.954,13.511z
				 M47.814,19.318l0.889-2.851l-6.444-1.644l-0.57,2.864L47.814,19.318z"/>
			<path fill="#E0BC75" d="M42.629,17.489c-0.026,0-0.053,0-0.079-0.013c-0.213-0.053-0.345-0.265-0.306-0.478l0.318-1.432
				c0.054-0.212,0.266-0.345,0.478-0.305c0.212,0.053,0.345,0.265,0.305,0.478l-0.318,1.432
				C42.974,17.37,42.815,17.489,42.629,17.489z"/>
			<path fill="#E0BC75" d="M39.142,27.526c-0.092,0-0.186-0.04-0.265-0.106c-0.159-0.146-0.173-0.398-0.026-0.557
				c0.968-1.074,2.439-4.124,2.452-4.15c0.093-0.199,0.332-0.278,0.531-0.186c0.198,0.093,0.278,0.332,0.186,0.53
				c-0.066,0.133-1.538,3.182-2.586,4.336C39.355,27.486,39.249,27.526,39.142,27.526z"/>
		</g>
		<path fill="#D3AA4C" d="M22.343,76.624h-3.448c0-14.015,0.889-22.222,0.928-22.566l3.421,0.385
			C23.245,54.509,22.343,62.809,22.343,76.624z"/>
		<path fill="#B78E3D" d="M22.94,77.222h-4.641v-0.598c0-14.041,0.901-22.288,0.928-22.633l0.066-0.597l4.614,0.517l-0.066,0.598
			c-0.014,0.079-0.901,8.379-0.901,22.129V77.222z M19.492,76.028h2.254c0.026-11.403,0.649-18.961,0.849-21.069l-2.241-0.252
			C20.155,56.815,19.519,64.333,19.492,76.028z"/>
		<rect x="16.88" y="81.504" fill="#D3AA4C" width="7.518" height="1.591"/>
		<path fill="#B78E3D" d="M24.398,83.56H16.88c-0.252,0-0.464-0.213-0.464-0.465v-1.591c0-0.252,0.212-0.464,0.464-0.464h7.518
			c0.252,0,0.465,0.212,0.465,0.464v1.591C24.863,83.347,24.65,83.56,24.398,83.56z M17.344,82.631h6.59v-0.663h-6.59V82.631z"/>
		<rect x="16.88" y="76.372" fill="#D3AA4C" width="7.518" height="5.132"/>
		<path fill="#B78E3D" d="M24.398,81.968H16.88c-0.252,0-0.464-0.212-0.464-0.464v-5.132c0-0.252,0.212-0.463,0.464-0.463h7.518
			c0.252,0,0.465,0.211,0.465,0.463v5.132C24.863,81.756,24.65,81.968,24.398,81.968z M17.344,81.04h6.59v-4.203h-6.59V81.04z"/>
		<path fill="#D3AA4C" d="M22.462,78.269V76.81c0-1.021-0.822-1.842-1.843-1.842l0,0c-1.021,0-1.843,0.821-1.843,1.842v1.459"/>
		<path fill="#B78E3D" d="M24.186,81.173l-1.936-0.981c-0.159-0.079-0.252-0.239-0.252-0.411v-3.646h0.928v3.368l1.685,0.849
			L24.186,81.173z"/>
		<path fill="#B78E3D" d="M17.344,81.159l-0.464-0.796l1.445-0.849v-3.381h0.928v3.646c0,0.159-0.093,0.318-0.226,0.397
			L17.344,81.159z"/>
		<rect x="18.776" y="79.315" fill="#B78E3D" width="3.672" height="0.929"/>
		<path fill="#B78E3D" d="M18.313,78.269h0.928V76.81c0-0.756,0.623-1.379,1.379-1.379c0.755,0,1.379,0.623,1.379,1.379v1.459h0.928
			V76.81c0-1.272-1.034-2.307-2.307-2.307c-1.273,0-2.307,1.034-2.307,2.307V78.269z"/>
		<rect x="16.854" y="49.616" fill="#D3AA4C" width="7.306" height="6.231"/>
		<path fill="#B78E3D" d="M24.756,56.431h-8.499v-7.425h8.499V56.431z M17.451,55.237h6.112v-5.038h-6.112V55.237z"/>
		<path fill="#D3AA4C" d="M28.216,76.624h3.447c0-14.015-0.888-22.222-0.928-22.566l-3.42,0.385
			C27.316,54.509,28.216,62.809,28.216,76.624z"/>
		<path fill="#B78E3D" d="M27.621,76.624c0-13.749-0.902-22.049-0.902-22.129l-0.066-0.597l4.615-0.517l0.065,0.596
			c0.04,0.346,0.929,8.592,0.929,22.634v0.597h-4.641V76.624z M30.206,54.707l-2.241,0.252c0.199,2.095,0.836,9.666,0.85,21.069
			h2.254C31.054,64.333,30.405,56.815,30.206,54.707z"/>
		<rect x="26.162" y="81.504" fill="#D3AA4C" width="7.518" height="1.591"/>
		<path fill="#B78E3D" d="M33.679,83.56h-7.518c-0.252,0-0.464-0.213-0.464-0.465v-1.591c0-0.252,0.212-0.464,0.464-0.464h7.518
			c0.252,0,0.465,0.212,0.465,0.464v1.591C34.144,83.347,33.931,83.56,33.679,83.56z M26.626,82.631h6.589v-0.663h-6.589V82.631z"/>
		<rect x="26.162" y="76.372" fill="#D3AA4C" width="7.518" height="5.132"/>
		<path fill="#B78E3D" d="M33.679,81.968h-7.518c-0.252,0-0.464-0.212-0.464-0.464v-5.132c0-0.252,0.212-0.463,0.464-0.463h7.518
			c0.252,0,0.465,0.211,0.465,0.463v5.132C34.144,81.756,33.931,81.968,33.679,81.968z M26.626,81.04h6.589v-4.203h-6.589V81.04z"/>
		<path fill="#D3AA4C" d="M28.111,78.269V76.81c0-1.021,0.822-1.842,1.843-1.842l0,0c1.021,0,1.843,0.821,1.843,1.842v1.459"/>
		<path fill="#B78E3D" d="M26.375,81.173l-0.425-0.822l1.684-0.849v-3.368h0.929v3.646c0,0.172-0.094,0.332-0.252,0.411
			L26.375,81.173z"/>
		<path fill="#B78E3D" d="M33.215,81.159l-1.671-0.981c-0.146-0.079-0.225-0.238-0.225-0.397v-3.646h0.928v3.381l1.445,0.849
			L33.215,81.159z"/>
		<rect x="28.111" y="79.315" fill="#B78E3D" width="3.673" height="0.929"/>
		<path fill="#B78E3D" d="M32.248,78.269H31.32V76.81c0-0.756-0.623-1.379-1.379-1.379s-1.379,0.623-1.379,1.379v1.459h-0.929V76.81
			c0-1.272,1.034-2.307,2.308-2.307c1.272,0,2.307,1.034,2.307,2.307V78.269z"/>
		<rect x="26.4" y="49.616" fill="#FFAD3B" width="7.307" height="6.231"/>
		<path fill="#B78E3D" d="M34.302,56.431h-8.498v-7.425h8.498V56.431z M26.998,55.237h6.111v-5.038h-6.111V55.237z"/>
		<rect x="25.896" y="49.616" fill="#D3AA4C" width="7.307" height="6.231"/>
		<path fill="#B78E3D" d="M33.812,56.431H25.3v-7.425h8.498v7.425H33.812z M26.494,55.237h6.111v-5.038h-6.111V55.237z"/>
		<path fill="#D3AA4C" d="M33.719,29.396l-6.47-3.991c-0.306-0.397-0.822,1.419-1.685,1.578c-0.862-0.146-1.379-1.976-1.684-1.578
			l-7.001,4.455v22.858h16.839V29.396z"/>
		<path fill="#B78E3D" d="M34.33,53.315H16.297V29.528l7.212-4.588c0.133-0.119,0.306-0.186,0.479-0.186
			c0.45,0,0.702,0.384,0.98,0.822c0.133,0.212,0.398,0.624,0.609,0.769c0.199-0.146,0.465-0.557,0.61-0.769
			c0.278-0.438,0.53-0.822,0.981-0.822c0.172,0,0.345,0.066,0.478,0.186l6.696,4.124L34.33,53.315z M17.477,52.122h15.646V29.727
			l-5.873-3.62c-0.027,0.04-0.054,0.079-0.066,0.106c-0.332,0.517-0.783,1.22-1.512,1.353l-0.106,0.013l-0.106-0.013
			c-0.715-0.133-1.166-0.835-1.512-1.353c-0.025-0.027-0.039-0.066-0.065-0.106l-6.417,4.07v21.944H17.477z"/>
		<path fill="#D3AA4C" d="M28.283,25.577c0,4.164-1.246,8.565-2.784,8.565s-2.784-4.402-2.784-8.565
			c0-4.163,1.246-7.531,2.784-7.531S28.283,21.427,28.283,25.577z"/>
		<path fill="#B78E3D" d="M25.499,34.739c-2.307,0-3.381-5.462-3.381-9.162c0-3.938,1.181-8.127,3.381-8.127
			c2.201,0,3.382,4.189,3.382,8.127C28.88,29.276,27.806,34.739,25.499,34.739z M25.499,18.643c-0.888,0-2.188,2.705-2.188,6.934
			c0,1.989,0.292,4.058,0.782,5.662c0.53,1.684,1.127,2.307,1.393,2.307c0.265,0,0.875-0.61,1.392-2.307
			c0.504-1.617,0.782-3.672,0.782-5.662C27.687,21.347,26.387,18.643,25.499,18.643z"/>
		<circle fill="#D3AA4C" cx="16.588" cy="16.746" r="2.506"/>
		<path fill="#B78E3D" d="M16.588,19.849c-1.71,0-3.103-1.392-3.103-3.103s1.393-3.103,3.103-3.103c1.711,0,3.103,1.392,3.103,3.103
			S18.299,19.849,16.588,19.849z M16.588,14.837c-1.047,0-1.909,0.862-1.909,1.909c0,1.048,0.862,1.91,1.909,1.91
			c1.048,0,1.91-0.862,1.91-1.91C18.498,15.699,17.649,14.837,16.588,14.837z"/>
		<circle fill="#D3AA4C" cx="34.409" cy="16.746" r="2.506"/>
		<path fill="#B78E3D" d="M34.409,19.849c-1.71,0-3.103-1.392-3.103-3.103s1.393-3.103,3.103-3.103s3.103,1.392,3.103,3.103
			S36.119,19.849,34.409,19.849z M34.409,14.837c-1.048,0-1.909,0.862-1.909,1.909c0,1.048,0.861,1.91,1.909,1.91
			s1.909-0.862,1.909-1.91C36.318,15.699,35.47,14.837,34.409,14.837z"/>
		<path fill="#D3AA4C" d="M35.045,16.72c0,5.237-4.243,9.48-9.48,9.48l0,0c-5.237,0-9.48-4.243-9.48-9.48v-3.805
			c0-5.237,4.243-9.48,9.48-9.48l0,0c5.237,0,9.48,4.243,9.48,9.48V16.72z"/>
		<path fill="#B78E3D" d="M25.565,26.797c-5.556,0-10.077-4.521-10.077-10.077v-3.805c0-5.556,4.521-10.077,10.077-10.077
			s10.077,4.521,10.077,10.077v3.805C35.642,22.275,31.134,26.797,25.565,26.797z M25.565,4.018c-4.893,0-8.883,3.991-8.883,8.884
			v3.805c0,4.893,3.991,8.883,8.883,8.883s8.884-3.991,8.884-8.883v-3.805C34.449,8.008,30.471,4.018,25.565,4.018z"/>
		<path fill="#B78E3D" d="M25.379,23.469c-0.743,0-1.379-0.716-1.71-1.896c-0.027-0.106-0.014-0.212,0.053-0.292
			s0.159-0.132,0.266-0.132h2.783c0.106,0,0.199,0.053,0.266,0.132s0.08,0.186,0.053,0.292
			C26.758,22.753,26.123,23.469,25.379,23.469z M24.451,21.812c0.239,0.61,0.598,0.994,0.929,0.994s0.689-0.384,0.929-0.994H24.451z
			"/>
		<path fill="#B78E3D" d="M30.06,13.167c-0.305-0.12-0.637-0.093-0.915,0.066c0.054,0,0.106,0.014,0.159,0.04
			c0.318,0.119,0.464,0.477,0.345,0.795s-0.478,0.464-0.796,0.345c-0.079-0.026-0.146-0.08-0.212-0.146
			c0.054,0.358,0.278,0.689,0.649,0.835c0.531,0.212,1.141-0.053,1.353-0.583C30.855,13.988,30.603,13.378,30.06,13.167z"/>
		<path fill="#B78E3D" d="M31.24,11.39c-0.146,0-0.305-0.08-0.385-0.212c-0.371-0.57-1.617-0.755-2.387-0.384
			c-0.225,0.119-0.504,0.026-0.623-0.212c-0.119-0.226-0.025-0.504,0.213-0.624c1.087-0.543,2.891-0.358,3.58,0.703
			c0.146,0.212,0.079,0.504-0.133,0.637C31.425,11.363,31.333,11.39,31.24,11.39z"/>
		<path fill="#B78E3D" d="M21.839,13.167c-0.305-0.12-0.637-0.093-0.915,0.066c0.053,0,0.106,0.014,0.159,0.04
			c0.318,0.119,0.464,0.477,0.345,0.795s-0.478,0.464-0.795,0.345c-0.08-0.026-0.146-0.08-0.212-0.146
			c0.053,0.358,0.278,0.689,0.65,0.835c0.53,0.212,1.14-0.053,1.353-0.583C22.634,13.988,22.37,13.378,21.839,13.167z"/>
		<path fill="#B78E3D" d="M19.89,11.39c-0.093,0-0.172-0.026-0.252-0.08c-0.212-0.146-0.278-0.424-0.133-0.636
			c0.69-1.061,2.493-1.247,3.58-0.703c0.226,0.12,0.318,0.398,0.213,0.623c-0.12,0.226-0.398,0.318-0.624,0.212
			c-0.769-0.384-2.015-0.186-2.386,0.384C20.195,11.31,20.049,11.39,19.89,11.39z"/>
		<path fill="#B78E3D" d="M25.392,19.69c-0.477,0-0.928-0.212-1.232-0.57c-0.172-0.199-0.146-0.491,0.053-0.65
			c0.199-0.172,0.49-0.146,0.65,0.053c0.133,0.159,0.331,0.239,0.529,0.239c0.199,0,0.385-0.08,0.518-0.226
			c0.172-0.186,0.465-0.199,0.65-0.026s0.198,0.464,0.025,0.649C26.281,19.504,25.843,19.69,25.392,19.69z"/>
		<path fill="#D3AA4C" d="M25.565,0.583h-2.147h-7.797l0.517,11.244c0,0,2.002-4.415,4.442-4.747
			c1.485-0.212,5.025,1.114,5.025,1.193c2.028-0.861,3.514-1.392,4.998-1.193c2.427,0.345,4.442,4.747,4.442,4.747l0.517-11.244
			H25.565z"/>
		<path fill="#B78E3D" d="M35.509,14.333l-1.021-2.254c-0.517-1.14-2.254-4.164-3.977-4.402c-0.186-0.027-0.371-0.04-0.558-0.04
			c-1.113,0-2.307,0.411-4.124,1.193l-0.834,0.358V8.671c-0.783-0.305-2.904-0.995-4.071-0.995c-0.106,0-0.186,0-0.265,0.014
			c-1.724,0.238-3.46,3.262-3.978,4.402l-1.021,2.254L15.011,0h21.162L35.509,14.333z M29.954,6.444
			c0.239,0,0.491,0.013,0.729,0.053c1.18,0.159,2.373,1.087,3.54,2.758c0.106,0.159,0.212,0.318,0.318,0.478l0.385-8.526H16.257
			l0.384,8.512c0.875-1.365,2.241-2.983,3.858-3.208c0.133-0.013,0.278-0.026,0.438-0.026c0.928,0,2.214,0.332,3.117,0.61
			c0.596,0.186,1.047,0.345,1.259,0.424c0.12,0.04,0.212,0.08,0.318,0.119C27.169,6.961,28.575,6.444,29.954,6.444z"/>
		<path fill="#E0BC75" d="M20.765,23.058c-0.08,0-0.172-0.026-0.252-0.08c-1.366-1.074-2.36-2.585-2.797-4.27
			c-0.053-0.212,0.066-0.424,0.278-0.491c0.212-0.053,0.424,0.066,0.491,0.279c0.397,1.511,1.299,2.877,2.519,3.845
			c0.172,0.132,0.199,0.384,0.066,0.557C21.004,23.004,20.885,23.058,20.765,23.058z"/>
		<path fill="#E0BC75" d="M17.782,6.603c-0.199,0-0.384-0.159-0.397-0.358L17.04,2.228c-0.013-0.106,0.026-0.226,0.106-0.305
			s0.186-0.132,0.292-0.132h2.811c0.226,0,0.398,0.172,0.398,0.397c0,0.226-0.172,0.398-0.398,0.398h-2.374l0.305,3.58
			c0.013,0.225-0.146,0.411-0.358,0.424C17.809,6.603,17.795,6.603,17.782,6.603z"/>
		<path fill="#E0BC75" d="M18.511,51.021c-0.226,0-0.398-0.172-0.398-0.396v-9.813c0-0.226,0.172-0.397,0.398-0.397
			s0.398,0.172,0.398,0.397v9.813C18.909,50.835,18.737,51.021,18.511,51.021z"/>
		<path fill="#E0BC75" d="M18.511,39.419c-0.226,0-0.398-0.172-0.398-0.398v-2.585c0-0.225,0.172-0.398,0.398-0.398
			s0.398,0.173,0.398,0.398v2.585C18.909,39.247,18.737,39.419,18.511,39.419z"/>
		<path fill="#E0BC75" d="M20.368,70.937c-0.212,0-0.398-0.172-0.398-0.398c-0.04-2.982,0.265-8.552,0.278-8.618
			c0.013-0.226,0.199-0.384,0.424-0.371s0.385,0.199,0.371,0.425c0,0.053-0.305,5.595-0.265,8.564
			C20.778,70.751,20.593,70.937,20.368,70.937C20.381,70.937,20.368,70.937,20.368,70.937z"/>
		<path fill="#E0BC75" d="M19.996,78.667c-0.225,0-0.397-0.173-0.397-0.398v-1.645c0-0.225,0.172-0.397,0.397-0.397
			c0.226,0,0.398,0.173,0.398,0.397v1.645C20.394,78.494,20.208,78.667,19.996,78.667z"/>
		<path fill="#E0BC75" d="M29.211,78.667c-0.226,0-0.397-0.173-0.397-0.398v-1.645c0-0.225,0.172-0.397,0.397-0.397
			s0.397,0.173,0.397,0.397v1.645C29.609,78.494,29.437,78.667,29.211,78.667z"/>
	</g>
</g>
</svg>
