<?xml version="1.0" encoding="utf-8"?>
<!-- Generator: Adobe Illustrator 16.0.0, SVG Export Plug-In . SVG Version: 6.00 Build 0)  -->
<!DOCTYPE svg PUBLIC "-//W3C//DTD SVG 1.1//EN" "http://www.w3.org/Graphics/SVG/1.1/DTD/svg11.dtd">
<svg version="1.1" id="Warstwa_1" xmlns="http://www.w3.org/2000/svg" xmlns:xlink="http://www.w3.org/1999/xlink" x="0px" y="0px"
	 width="27.779px" height="36.185px" viewBox="0 0 27.779 36.185" enable-background="new 0 0 27.779 36.185" xml:space="preserve">
<g>
	<path fill="#F2C4B6" d="M6.623,34.938c0,0,0-0.027-0.014-0.08c-0.013-0.04-0.013-0.119-0.04-0.199
		c-0.026-0.172-0.066-0.438-0.119-0.782c-0.04-0.345-0.106-0.756-0.159-1.246c-0.027-0.238-0.053-0.49-0.08-0.769
		c-0.026-0.266-0.053-0.558-0.08-0.849C6.079,30.417,6.04,29.767,6,29.091c-0.026-0.345-0.026-0.689-0.053-1.048
		c-0.013-0.357-0.04-0.729-0.04-1.101C5.894,26.2,5.88,25.432,5.894,24.649c0-0.385,0.013-0.782,0.013-1.181
		c0.013-0.397,0.027-0.795,0.053-1.18c0.026-0.796,0.093-1.578,0.146-2.347c0.013-0.199,0.026-0.385,0.04-0.584
		c0.013-0.186,0.04-0.384,0.053-0.57c0.04-0.371,0.08-0.755,0.119-1.113c0.066-0.729,0.199-1.432,0.292-2.108
		c0.053-0.331,0.093-0.663,0.146-0.968s0.12-0.609,0.172-0.901c0.12-0.57,0.199-1.101,0.305-1.564s0.199-0.862,0.278-1.193
		c0.159-0.663,0.252-1.034,0.252-1.034L2.897,8.897c0,0-0.053,0.424-0.159,1.153c-0.053,0.371-0.106,0.809-0.172,1.326
		c-0.066,0.517-0.106,1.087-0.159,1.724c-0.026,0.318-0.053,0.649-0.093,0.981c-0.026,0.345-0.04,0.689-0.053,1.047
		c-0.026,0.729-0.08,1.485-0.08,2.268c0,0.397-0.013,0.796-0.013,1.193c0,0.199-0.013,0.411,0,0.61c0,0.198,0.013,0.41,0.013,0.609
		c0.026,0.822,0.026,1.657,0.093,2.493c0.026,0.411,0.053,0.835,0.066,1.246c0.04,0.411,0.066,0.822,0.106,1.233
		c0.066,0.821,0.159,1.617,0.252,2.386c0.04,0.385,0.106,0.77,0.146,1.141c0.053,0.371,0.106,0.729,0.159,1.087
		c0.12,0.703,0.226,1.366,0.345,1.989c0.053,0.305,0.106,0.597,0.172,0.875c0.053,0.278,0.12,0.544,0.172,0.796
		c0.106,0.49,0.212,0.928,0.292,1.286c0.093,0.358,0.159,0.637,0.212,0.835c0.027,0.093,0.04,0.173,0.053,0.226
		s0.026,0.066,0.026,0.066L6.623,34.938z"/>
	<path fill="#231F20" d="M3.878,36.185L3.64,35.336c-0.053-0.212-0.133-0.504-0.212-0.849l-0.013-0.053
		c-0.08-0.345-0.186-0.77-0.292-1.26L2.95,32.379c-0.04-0.186-0.08-0.385-0.106-0.57c-0.013-0.105-0.04-0.212-0.053-0.317
		c-0.093-0.451-0.172-0.915-0.252-1.406c-0.026-0.186-0.066-0.384-0.093-0.583c-0.04-0.239-0.066-0.478-0.106-0.716
		c-0.014-0.133-0.04-0.252-0.053-0.385c-0.013-0.119-0.026-0.226-0.053-0.331c-0.04-0.266-0.08-0.544-0.106-0.822
		c-0.013-0.159-0.04-0.318-0.053-0.491c-0.066-0.623-0.146-1.26-0.199-1.922L1.77,23.588l-0.066-1.246
		c-0.053-0.689-0.066-1.405-0.08-2.082l-0.026-1.047c0-0.133,0-0.278,0-0.411c0-0.066,0-0.133,0-0.212l0.013-1.207
		c0-0.57,0.026-1.127,0.053-1.657c0.013-0.212,0.026-0.424,0.026-0.623c0.013-0.133,0.013-0.266,0.013-0.385
		c0.013-0.226,0.026-0.464,0.04-0.676l0.093-0.995c0.026-0.226,0.04-0.438,0.053-0.636c0.04-0.385,0.066-0.756,0.106-1.101
		l0.424-3.13l6.099,1.26l-0.676,2.838c-0.066,0.278-0.12,0.597-0.186,0.928c-0.04,0.199-0.08,0.398-0.12,0.61l-0.172,0.901
		c-0.026,0.186-0.066,0.385-0.093,0.597c-0.013,0.119-0.04,0.238-0.053,0.358c-0.027,0.186-0.053,0.384-0.093,0.597
		c-0.066,0.477-0.146,0.968-0.199,1.472l-0.119,1.127c0,0.066-0.014,0.133-0.027,0.212c-0.013,0.119-0.026,0.226-0.04,0.345
		l-0.08,1.034c-0.053,0.61-0.093,1.246-0.106,1.87l-0.053,1.18L6.49,24.676c-0.013,0.597,0,1.193,0,1.763
		c0,0.173,0,0.346,0.013,0.504c0,0.252,0.013,0.504,0.026,0.756c0,0.106,0.014,0.226,0.014,0.332c0,0.133,0.013,0.265,0.013,0.397
		c0.013,0.212,0.013,0.438,0.026,0.637c0.013,0.198,0.026,0.397,0.04,0.583c0.026,0.464,0.053,0.901,0.093,1.313
		c0.013,0.106,0.013,0.213,0.026,0.305c0.013,0.187,0.026,0.372,0.053,0.544l0.08,0.77c0.053,0.45,0.106,0.849,0.146,1.166
		l0.013,0.054c0.053,0.331,0.093,0.597,0.12,0.756l0.04,0.265l0.106,0.558L3.878,36.185z M2.95,23.521l0.106,1.221
		c0.053,0.636,0.119,1.272,0.199,1.883c0.013,0.172,0.04,0.331,0.053,0.49c0.026,0.265,0.066,0.53,0.106,0.782
		c0.013,0.119,0.026,0.226,0.053,0.345c0.013,0.119,0.04,0.252,0.053,0.385c0.027,0.238,0.066,0.464,0.106,0.689
		c0.04,0.198,0.066,0.397,0.093,0.583c0.08,0.491,0.159,0.941,0.239,1.379c0.026,0.106,0.04,0.226,0.066,0.318
		c0.04,0.186,0.066,0.371,0.106,0.557l0.159,0.782c0.106,0.465,0.199,0.889,0.279,1.221l0.013,0.039
		c0.053,0.199,0.093,0.385,0.132,0.558l1.22-0.279c-0.027-0.146-0.053-0.317-0.08-0.517l-0.013-0.053
		c-0.04-0.332-0.093-0.743-0.146-1.207l-0.08-0.769c-0.013-0.186-0.04-0.372-0.053-0.558c-0.013-0.093-0.013-0.198-0.026-0.305
		c-0.04-0.424-0.066-0.875-0.106-1.353c-0.013-0.186-0.027-0.385-0.04-0.583c-0.013-0.226-0.026-0.451-0.026-0.677
		c0-0.133-0.013-0.265-0.013-0.397c0-0.119-0.013-0.226-0.013-0.331C5.323,27.474,5.31,27.208,5.31,26.93
		c0-0.159,0-0.332-0.013-0.504c-0.013-0.583-0.026-1.193,0-1.816l0.013-1.193l0.053-1.18C5.376,21.6,5.43,20.95,5.482,20.313
		l0.08-1.034c0.013-0.133,0.027-0.266,0.04-0.385c0.013-0.066,0.013-0.133,0.026-0.199l0.12-1.127
		c0.053-0.53,0.132-1.034,0.199-1.538c0.026-0.198,0.066-0.397,0.093-0.583c0.013-0.119,0.04-0.238,0.053-0.358
		c0.026-0.212,0.066-0.424,0.093-0.636l0.172-0.915c0.04-0.212,0.08-0.411,0.119-0.61c0.066-0.345,0.132-0.676,0.199-0.98
		l0.385-1.645L3.414,9.547L3.162,11.39c-0.04,0.318-0.066,0.677-0.106,1.048c-0.013,0.212-0.04,0.424-0.053,0.649L2.91,14.068
		c-0.013,0.199-0.026,0.424-0.04,0.649c0,0.133-0.013,0.252-0.013,0.385c-0.013,0.199-0.013,0.411-0.027,0.623
		c-0.026,0.518-0.053,1.061-0.053,1.604l-0.013,1.206c0,0.066,0,0.146,0,0.213c0,0.119,0,0.252,0,0.371l0.026,1.047
		c0.013,0.677,0.026,1.366,0.08,2.042L2.95,23.521z"/>
</g>
<g>
	<path fill="#F2C4B6" d="M4.806,2.758C4.78,2.812,4.422,3.779,4.661,4.919c-1.299,0.889-1.91,2.572-1.393,4.15
		c0.624,1.909,2.692,2.957,4.601,2.334c0.371-0.119,0.703-0.292,1.008-0.518c0.597,0.159,1.326,0.212,2.148-0.066
		c0.477-0.159,0.743-0.689,0.583-1.166V9.64c-0.172-0.49-0.689-0.742-1.18-0.584c-0.08,0.027-0.159,0.04-0.239,0.066
		c0.093-0.252,0.146-0.517,0.186-0.795c0.583-0.385,1.233-0.305,1.286-0.305c0.504,0.079,0.969-0.266,1.061-0.77
		c0-0.04,0.014-0.079,0.014-0.119c0.014-0.464-0.318-0.875-0.782-0.955C11.9,6.166,11.038,6.046,10.07,6.404
		c-0.04-0.079-0.08-0.159-0.12-0.226c0.424-0.915,1.406-1.061,1.458-1.061c0.464-0.053,0.809-0.424,0.822-0.875
		c0-0.053,0-0.093,0-0.146c-0.053-0.504-0.504-0.889-1.008-0.836c-0.08,0.014-1.631,0.173-2.612,1.525
		c-0.066-0.04-0.133-0.08-0.186-0.106c0.212-0.583,0.663-0.901,0.703-0.928C9.434,3.554,9.58,3.209,9.54,2.878
		C9.526,2.745,9.474,2.599,9.394,2.479C9.116,2.056,8.545,1.923,8.108,2.201C8.055,2.241,6.994,2.943,6.596,4.27
		c-0.053,0-0.106,0-0.146,0.014c-0.04-0.451,0.08-0.822,0.093-0.849c0.132-0.332,0.053-0.703-0.172-0.955
		C6.278,2.374,6.159,2.294,6.026,2.241C5.536,2.056,5.005,2.281,4.806,2.758z"/>
	<path fill="#231F20" d="M6.742,12.039c-1.777,0-3.354-1.14-3.912-2.823C2.3,7.585,2.844,5.781,4.157,4.721
		C3.998,3.594,4.329,2.691,4.369,2.586c0.212-0.53,0.716-0.875,1.299-0.875c0.173,0,0.345,0.026,0.518,0.093
		C6.384,1.883,6.57,2.002,6.702,2.161c0.12,0.133,0.212,0.292,0.279,0.451c0.411-0.49,0.809-0.756,0.875-0.809
		c0.226-0.146,0.491-0.226,0.756-0.226c0.477,0,0.915,0.238,1.167,0.637C9.898,2.4,9.964,2.599,9.991,2.812
		c0.013,0.105,0.013,0.198,0,0.305c0.636-0.266,1.14-0.318,1.18-0.332c0.782-0.079,1.445,0.491,1.524,1.247
		c0.014,0.066,0.014,0.146,0,0.212c-0.04,0.689-0.557,1.233-1.246,1.313c-0.013,0-0.199,0.026-0.424,0.133
		c0.543-0.053,0.902,0,0.981,0.013c0.689,0.106,1.193,0.729,1.167,1.419c0,0.066-0.014,0.119-0.014,0.173
		C13.054,7.969,12.47,8.46,11.781,8.46c-0.066,0-0.146,0-0.212-0.014c0,0-0.04,0-0.119,0c-0.119,0-0.318,0.014-0.517,0.079
		c0.504,0.08,0.928,0.425,1.101,0.929l0.013,0.026c0.238,0.716-0.159,1.498-0.875,1.75c-0.716,0.252-1.472,0.292-2.201,0.133
		c-0.292,0.186-0.61,0.345-0.941,0.451C7.604,11.974,7.18,12.039,6.742,12.039z M5.668,2.639c-0.186,0-0.358,0.119-0.438,0.292
		c0,0.013-0.345,0.875-0.119,1.883l0.066,0.305L4.926,5.291c-1.154,0.795-1.658,2.28-1.22,3.619
		c0.424,1.313,1.644,2.188,3.023,2.188c0.332,0,0.676-0.053,0.994-0.159c0.318-0.105,0.61-0.252,0.875-0.45l0.186-0.133l0.212,0.053
		c0.623,0.173,1.26,0.146,1.87-0.065c0.239-0.08,0.371-0.346,0.292-0.584C11.091,9.56,10.919,9.44,10.72,9.44
		c-0.053,0-0.106,0.014-0.146,0.026c-0.093,0.027-0.186,0.054-0.292,0.08L9.487,9.706l0.265-0.77c0.08-0.225,0.133-0.45,0.159-0.689
		l0.026-0.212l0.186-0.119c0.517-0.331,1.061-0.385,1.353-0.385c0.133,0,0.226,0.014,0.252,0.014s0.053,0.013,0.08,0.013
		c0.226,0,0.424-0.159,0.451-0.384c0-0.026,0-0.04,0-0.054c0.013-0.238-0.159-0.438-0.384-0.477c0,0-0.146-0.027-0.385-0.027
		c-0.305,0-0.769,0.04-1.259,0.226L9.818,6.988L9.646,6.59C9.619,6.523,9.593,6.471,9.553,6.392L9.447,6.192L9.54,5.98
		c0.53-1.141,1.697-1.313,1.83-1.326c0.239-0.026,0.411-0.212,0.424-0.438c0-0.026,0-0.053,0-0.066
		c-0.026-0.252-0.252-0.438-0.504-0.424c-0.013,0-1.419,0.146-2.281,1.339L8.757,5.41L8.386,5.198
		C8.333,5.171,8.28,5.132,8.214,5.105L7.856,4.919l0.146-0.384c0.252-0.689,0.769-1.074,0.875-1.141
		c0.159-0.106,0.239-0.278,0.212-0.45C9.076,2.878,9.063,2.812,9.022,2.745C8.93,2.612,8.784,2.533,8.638,2.533
		c-0.093,0-0.172,0.026-0.252,0.079c-0.013,0-0.968,0.637-1.313,1.816L6.981,4.747L6.649,4.761c-0.04,0-0.093,0-0.133,0.013
		l-0.451,0.04l-0.04-0.451C5.973,3.806,6.132,3.354,6.146,3.302c0.066-0.172,0.026-0.357-0.08-0.49
		C6.013,2.758,5.96,2.719,5.894,2.692C5.788,2.652,5.734,2.639,5.668,2.639z"/>
</g>
<g>
	<path fill="#F2C4B6" d="M18.225,30.987c0,0,0.013-0.027,0.026-0.066c0.014-0.04,0.04-0.106,0.066-0.199
		c0.053-0.159,0.133-0.425,0.226-0.756s0.212-0.742,0.331-1.207c0.053-0.238,0.119-0.49,0.186-0.742
		c0.066-0.265,0.119-0.544,0.199-0.835c0.146-0.584,0.266-1.22,0.398-1.883c0.065-0.332,0.119-0.677,0.186-1.034
		c0.066-0.358,0.132-0.716,0.186-1.088c0.105-0.742,0.238-1.498,0.331-2.267c0.053-0.385,0.093-0.782,0.146-1.167
		c0.04-0.397,0.08-0.782,0.119-1.18c0.094-0.783,0.133-1.578,0.173-2.348c0.013-0.198,0.026-0.384,0.04-0.583
		c0.014-0.186,0.014-0.385,0.026-0.57c0.013-0.385,0.026-0.756,0.026-1.127c0.04-0.742,0.014-1.445,0-2.121
		c0-0.332,0-0.663-0.014-0.981c-0.013-0.318-0.025-0.623-0.039-0.915c-0.027-0.583-0.053-1.127-0.094-1.591
		c-0.039-0.478-0.079-0.889-0.119-1.22c-0.066-0.677-0.105-1.062-0.105-1.062l4.959-0.331c0,0,0,0.425,0,1.167
		c0,0.371,0,0.822-0.014,1.339c-0.014,0.518-0.053,1.101-0.079,1.724c-0.014,0.318-0.026,0.65-0.054,0.981
		c-0.025,0.345-0.066,0.689-0.092,1.048c-0.066,0.716-0.12,1.484-0.239,2.254c-0.054,0.384-0.106,0.782-0.159,1.193
		c-0.026,0.198-0.053,0.397-0.08,0.609c-0.025,0.199-0.065,0.398-0.105,0.61c-0.133,0.809-0.266,1.644-0.438,2.453
		c-0.08,0.411-0.159,0.821-0.238,1.22c-0.094,0.411-0.186,0.809-0.279,1.206c-0.172,0.796-0.385,1.578-0.583,2.334
		c-0.093,0.385-0.212,0.742-0.305,1.101c-0.106,0.357-0.199,0.716-0.306,1.061c-0.212,0.676-0.41,1.326-0.609,1.923
		c-0.106,0.291-0.199,0.583-0.292,0.849c-0.093,0.265-0.186,0.517-0.278,0.756c-0.172,0.477-0.332,0.888-0.464,1.232
		c-0.133,0.345-0.239,0.61-0.331,0.796c-0.041,0.093-0.066,0.159-0.094,0.212c-0.013,0.04-0.026,0.066-0.026,0.066L18.225,30.987z"
		/>
	<path fill="#231F20" d="M20.757,32.604l-3.288-1.26l0.252-0.796c0.054-0.159,0.133-0.438,0.226-0.742l0.014-0.053
		c0.092-0.332,0.198-0.689,0.305-1.127l0.186-0.743c0.039-0.159,0.079-0.331,0.119-0.504c0.026-0.105,0.053-0.212,0.08-0.317
		c0.092-0.398,0.186-0.836,0.277-1.286c0.041-0.186,0.08-0.385,0.12-0.584c0.04-0.212,0.079-0.424,0.119-0.649
		c0.026-0.119,0.04-0.252,0.066-0.371c0.013-0.106,0.04-0.212,0.053-0.318c0.04-0.238,0.093-0.49,0.12-0.742
		c0.025-0.173,0.053-0.345,0.079-0.518c0.093-0.57,0.186-1.153,0.252-1.737l0.146-1.166l0.119-1.167
		c0.066-0.623,0.106-1.273,0.146-1.883l0.066-1.021c0.013-0.119,0.013-0.238,0.013-0.345c0-0.066,0-0.132,0-0.212l0.026-1.113
		c0.027-0.518,0.014-1.021,0.014-1.499c0-0.198,0-0.41,0-0.609c0-0.119,0-0.238,0-0.345c0-0.212,0-0.411-0.014-0.61l-0.039-0.901
		C20.2,9.772,20.187,9.56,20.187,9.361c-0.013-0.345-0.026-0.663-0.053-0.955l-0.278-2.891l6.219-0.411l-0.014,3.143
		c0,0.358-0.026,0.729-0.04,1.114c-0.013,0.198-0.025,0.411-0.025,0.637l-0.054,0.994c-0.013,0.238-0.04,0.464-0.054,0.689
		c-0.013,0.119-0.025,0.252-0.039,0.385c-0.026,0.212-0.04,0.411-0.053,0.623c-0.053,0.543-0.094,1.101-0.186,1.671l-0.146,1.18
		c-0.014,0.066-0.014,0.146-0.026,0.212c-0.013,0.133-0.04,0.278-0.053,0.411l-0.173,1.034c-0.105,0.677-0.225,1.366-0.371,2.056
		l-0.252,1.232l-0.278,1.207c-0.133,0.636-0.306,1.246-0.45,1.856c-0.041,0.172-0.094,0.331-0.133,0.49
		c-0.066,0.278-0.146,0.544-0.226,0.809c-0.026,0.106-0.066,0.212-0.093,0.318c-0.04,0.133-0.066,0.252-0.106,0.371
		c-0.066,0.239-0.132,0.478-0.198,0.703c-0.066,0.198-0.12,0.384-0.173,0.57c-0.146,0.477-0.292,0.941-0.438,1.365
		c-0.026,0.093-0.066,0.199-0.093,0.292c-0.066,0.186-0.133,0.371-0.186,0.557l-0.279,0.77c-0.158,0.45-0.317,0.861-0.45,1.18
		L21.46,31.04c-0.133,0.318-0.238,0.609-0.332,0.822l-0.119,0.278L20.757,32.604z M18.954,30.629l1.166,0.45
		c0.066-0.158,0.133-0.344,0.213-0.53l0.026-0.053c0.132-0.331,0.278-0.716,0.438-1.153l0.278-0.756
		c0.066-0.173,0.119-0.345,0.186-0.53c0.04-0.106,0.066-0.199,0.106-0.305c0.146-0.411,0.278-0.862,0.425-1.34
		c0.053-0.186,0.119-0.371,0.172-0.57c0.066-0.212,0.133-0.438,0.199-0.676c0.039-0.119,0.066-0.252,0.105-0.371
		c0.026-0.106,0.066-0.212,0.093-0.318c0.066-0.252,0.146-0.504,0.212-0.769c0.04-0.173,0.094-0.332,0.133-0.504
		c0.159-0.584,0.318-1.193,0.451-1.816l0.278-1.207l0.239-1.22c0.145-0.663,0.251-1.353,0.357-2.016l0.172-1.034
		c0.027-0.119,0.04-0.252,0.053-0.371c0.014-0.08,0.014-0.146,0.027-0.226l0.159-1.18c0.079-0.558,0.132-1.088,0.172-1.618
		c0.014-0.212,0.04-0.424,0.054-0.623c0.013-0.119,0.026-0.252,0.039-0.385c0.027-0.225,0.04-0.438,0.053-0.649l0.054-0.968
		c0.013-0.212,0.026-0.438,0.026-0.637c0.026-0.385,0.04-0.742,0.04-1.074l0.013-1.855l-3.712,0.252l0.159,1.67
		c0.026,0.318,0.039,0.65,0.053,1.008c0.014,0.199,0.014,0.398,0.026,0.61l0.04,0.915c0,0.225,0.014,0.438,0.014,0.649
		c0,0.119,0,0.226,0,0.345c0,0.199,0,0.397,0,0.597c0,0.504,0.013,1.021-0.014,1.564l-0.026,1.114c0,0.065,0,0.132,0,0.198
		c0,0.133-0.014,0.266-0.014,0.397l-0.066,1.021c-0.04,0.637-0.079,1.286-0.159,1.936l-0.119,1.193l-0.146,1.167
		c-0.066,0.61-0.159,1.207-0.252,1.776c-0.026,0.173-0.054,0.345-0.079,0.504c-0.041,0.266-0.08,0.53-0.133,0.782
		c-0.014,0.106-0.04,0.213-0.053,0.318c-0.027,0.133-0.041,0.252-0.066,0.371c-0.041,0.226-0.08,0.464-0.133,0.677
		c-0.04,0.198-0.08,0.385-0.119,0.57c-0.094,0.464-0.186,0.901-0.292,1.325c-0.026,0.106-0.054,0.213-0.066,0.306
		c-0.04,0.186-0.079,0.357-0.12,0.53l-0.186,0.756c-0.119,0.45-0.225,0.835-0.305,1.153l-0.014,0.066
		C19.047,30.311,18.993,30.483,18.954,30.629z"/>
</g>
<g>
	<path fill="#F2C4B6" d="M26.433,2.798c0,0.066-0.066,1.087-0.783,2.016c0.809,1.353,0.663,3.129-0.464,4.349
		c-1.379,1.472-3.687,1.552-5.157,0.186c-0.279-0.265-0.518-0.557-0.689-0.888c-0.61-0.106-1.3-0.372-1.91-0.955
		c-0.371-0.345-0.385-0.928-0.039-1.3c0,0,0,0,0.013-0.013c0.358-0.371,0.941-0.385,1.313-0.026
		c0.065,0.053,0.119,0.105,0.186,0.159c0.025-0.266,0.079-0.544,0.172-0.796c-0.371-0.597-0.994-0.796-1.047-0.809
		c-0.491-0.146-0.77-0.65-0.637-1.141c0.013-0.04,0.026-0.079,0.039-0.106c0.173-0.424,0.65-0.662,1.101-0.53
		c0.054,0.014,0.889,0.266,1.618,0.995c0.066-0.054,0.133-0.106,0.199-0.159c0-1.021-0.836-1.552-0.876-1.578
		c-0.397-0.238-0.557-0.716-0.384-1.141c0.013-0.039,0.039-0.079,0.066-0.132c0.265-0.438,0.821-0.597,1.272-0.332
		c0.065,0.04,1.405,0.849,1.724,2.479c0.08-0.013,0.146-0.013,0.225-0.013c0.054-0.61-0.225-1.101-0.252-1.141
		c-0.186-0.305-0.186-0.677,0-0.968c0.066-0.119,0.173-0.226,0.293-0.306c0.438-0.278,1.007-0.146,1.285,0.292
		c0.04,0.053,0.703,1.141,0.504,2.52c0.04,0.026,0.094,0.053,0.133,0.066c0.238-0.398,0.266-0.77,0.278-0.81
		c0.026-0.357,0.252-0.662,0.558-0.795c0.132-0.053,0.265-0.08,0.41-0.08C26.061,1.856,26.458,2.294,26.433,2.798z"/>
	<path fill="#231F20" d="M22.507,10.793c-1.047,0-2.041-0.397-2.797-1.101c-0.252-0.238-0.478-0.517-0.677-0.809
		c-0.742-0.159-1.392-0.517-1.948-1.034c-0.545-0.517-0.57-1.393-0.066-1.949l0.013-0.013c0.265-0.279,0.623-0.425,1.008-0.425
		c0.132,0,0.252,0.014,0.384,0.053c-0.265-0.252-0.557-0.345-0.557-0.345c-0.716-0.212-1.153-0.98-0.941-1.71
		c0.014-0.053,0.027-0.106,0.054-0.159c0.212-0.518,0.716-0.862,1.286-0.862c0.133,0,0.252,0.014,0.371,0.054
		c0.066,0.013,0.438,0.132,0.901,0.397c-0.159-0.199-0.317-0.305-0.331-0.305c-0.584-0.345-0.822-1.061-0.57-1.711
		c0.026-0.066,0.053-0.132,0.093-0.186C18.98,0.266,19.431,0,19.935,0c0.252,0,0.491,0.066,0.703,0.186
		c0.08,0.054,0.504,0.306,0.928,0.782c0.027-0.093,0.08-0.186,0.133-0.265c0.106-0.186,0.266-0.345,0.451-0.451
		c0.225-0.146,0.477-0.212,0.742-0.212c0.478,0,0.915,0.238,1.18,0.649c0.054,0.08,0.293,0.478,0.465,1.101
		c0.119-0.119,0.266-0.226,0.438-0.292c0.199-0.079,0.411-0.119,0.623-0.105c0.371,0.026,0.716,0.186,0.955,0.464
		c0.252,0.278,0.371,0.637,0.357,1.008c0,0.105-0.08,1.061-0.703,2.028c0.756,1.512,0.491,3.381-0.676,4.628
		C24.748,10.315,23.647,10.793,22.507,10.793z M18.052,6.378c-0.133,0-0.252,0.053-0.331,0.146c-0.173,0.186-0.173,0.478,0.013,0.65
		c0.479,0.45,1.035,0.729,1.672,0.835l0.225,0.04l0.106,0.198c0.159,0.292,0.371,0.544,0.61,0.77
		c0.596,0.557,1.365,0.849,2.174,0.849c0.875,0,1.736-0.371,2.334-1.021c0.954-1.021,1.127-2.585,0.41-3.792l-0.158-0.266
		l0.186-0.251c0.623-0.822,0.689-1.751,0.689-1.764c0.014-0.119-0.04-0.239-0.119-0.332c-0.08-0.093-0.199-0.146-0.318-0.159
		c-0.08,0-0.146,0.014-0.213,0.04c-0.158,0.066-0.265,0.226-0.277,0.397C25.04,2.812,25,3.262,24.722,3.739l-0.226,0.397
		l-0.397-0.226c-0.04-0.026-0.08-0.039-0.119-0.066l-0.292-0.146l0.053-0.331c0.173-1.207-0.425-2.188-0.438-2.201
		c-0.079-0.133-0.239-0.212-0.397-0.212c-0.093,0-0.173,0.026-0.252,0.065c-0.066,0.04-0.106,0.094-0.146,0.146
		c-0.092,0.146-0.092,0.331,0,0.49c0.066,0.119,0.371,0.677,0.318,1.419l-0.026,0.411l-0.411,0.014
		c-0.066,0-0.133,0.013-0.186,0.013l-0.424,0.04l-0.08-0.425c-0.278-1.432-1.458-2.135-1.512-2.161
		c-0.066-0.039-0.146-0.066-0.238-0.066c-0.159,0-0.318,0.093-0.397,0.226c-0.014,0.026-0.026,0.04-0.026,0.066
		c-0.08,0.212,0,0.451,0.198,0.57c0.12,0.079,1.101,0.716,1.101,1.976v0.238l-0.186,0.146c-0.066,0.039-0.119,0.093-0.172,0.132
		l-0.332,0.278l-0.305-0.305C19.192,3.58,18.45,3.368,18.41,3.354c-0.04-0.013-0.079-0.013-0.119-0.013
		c-0.186,0-0.358,0.119-0.425,0.278c-0.013,0.013-0.013,0.039-0.013,0.053c-0.066,0.252,0.079,0.504,0.317,0.57
		c0.146,0.039,0.862,0.291,1.3,1.008l0.12,0.186l-0.066,0.212c-0.08,0.226-0.119,0.464-0.146,0.689l-0.079,0.809l-0.649-0.478
		c-0.094-0.065-0.16-0.132-0.227-0.186C18.291,6.418,18.171,6.378,18.052,6.378z"/>
</g>
<g>
	<polygon fill="#F1F2F2" points="19.882,12.689 18.795,8.725 26.512,7.041 27.188,11.164 	"/>
	
		<rect x="22.6" y="6.229" transform="matrix(-0.2173 -0.9761 0.9761 -0.2173 18.3308 34.8322)" fill="#7261C6" width="1.061" height="7.677"/>
	<path fill="#231F20" d="M18.662,8.142l7.717-1.685c0.159-0.039,0.331,0,0.464,0.093c0.133,0.094,0.226,0.239,0.252,0.398
		l0.676,4.123c0.054,0.318-0.158,0.61-0.463,0.677l-7.307,1.524c-0.305,0.066-0.609-0.119-0.702-0.424l-1.087-3.965
		c-0.041-0.159-0.027-0.331,0.066-0.464c0.053-0.08,0.119-0.146,0.198-0.199C18.543,8.181,18.596,8.154,18.662,8.142z M26.512,10.7
		l-0.478-2.943l-6.497,1.419L20.306,12L26.512,10.7z"/>
</g>
<g>
	<polygon fill="#F1F2F2" points="7.524,14.691 9.275,10.966 1.956,7.995 0.577,11.946 	"/>
	<g>
		<line fill="none" x1="8.32" y1="12.994" x2="1.227" y2="10.063"/>
		
			<rect x="0.933" y="11.022" transform="matrix(-0.9246 -0.381 0.381 -0.9246 4.7823 24.0511)" fill="#7261C6" width="7.678" height="1.061"/>
	</g>
	<path fill="#231F20" d="M9.672,10.515c0.066,0.066,0.133,0.146,0.159,0.226c0.066,0.146,0.053,0.318-0.013,0.464L8.082,14.93
		c-0.133,0.292-0.464,0.425-0.756,0.306L0.378,12.49c-0.292-0.119-0.451-0.451-0.345-0.756l1.366-3.951
		c0.053-0.159,0.172-0.278,0.318-0.345c0.146-0.066,0.318-0.066,0.478-0.014l7.319,2.971C9.566,10.436,9.62,10.475,9.672,10.515z
		 M7.233,13.936l1.233-2.651L2.313,8.791l-0.981,2.812L7.233,13.936z"/>
</g>
</svg>
