<?xml version="1.0" encoding="utf-8"?>
<!-- Generator: Adobe Illustrator 16.0.0, SVG Export Plug-In . SVG Version: 6.00 Build 0)  -->
<!DOCTYPE svg PUBLIC "-//W3C//DTD SVG 1.1//EN" "http://www.w3.org/Graphics/SVG/1.1/DTD/svg11.dtd">
<svg version="1.1" id="Warstwa_1" xmlns="http://www.w3.org/2000/svg" xmlns:xlink="http://www.w3.org/1999/xlink" x="0px" y="0px"
	 width="21.189px" height="34.54px" viewBox="0 0 21.189 34.54" enable-background="new 0 0 21.189 34.54" xml:space="preserve">
<g>
	<g>
		<path fill="#F2C4B6" d="M5.927,27.606H2.479c0-14.016,0.889-22.223,0.928-22.567l3.421,0.385
			C6.828,5.489,5.927,13.79,5.927,27.606z"/>
		<polygon fill="#FFFFFF" points="2.36,17.224 1.936,27.354 2.36,27.792 6.311,27.792 6.311,22.236 6.311,17.224 		"/>
		<path fill="#231F20" d="M6.523,28.202H1.882v-0.596c0-14.042,0.902-22.289,0.928-22.634l0.066-0.597l4.614,0.518L7.425,5.489
			c-0.013,0.08-0.901,8.38-0.901,22.13V28.202z M3.076,27.009H5.33C5.356,15.606,5.979,8.049,6.179,5.94L3.938,5.688
			C3.739,7.797,3.089,15.314,3.076,27.009z"/>
	</g>
	<g>
		<g>
			<rect x="0.464" y="32.485" fill="#EFEDF2" width="7.518" height="1.591"/>
			<path fill="#231F20" d="M7.982,34.54H0.464C0.212,34.54,0,34.328,0,34.076v-1.591c0-0.252,0.212-0.464,0.464-0.464h7.518
				c0.252,0,0.464,0.212,0.464,0.464v1.591C8.446,34.328,8.234,34.54,7.982,34.54z M0.928,33.612h6.59v-0.663h-6.59V33.612z"/>
		</g>
		<g>
			<rect x="0.464" y="27.354" fill="#7261C6" width="7.518" height="5.131"/>
			<path fill="#231F20" d="M7.982,32.949H0.464C0.212,32.949,0,32.737,0,32.485v-5.131c0-0.252,0.212-0.465,0.464-0.465h7.518
				c0.252,0,0.464,0.213,0.464,0.465v5.131C8.446,32.737,8.234,32.949,7.982,32.949z M0.928,32.021h6.59v-4.203h-6.59V32.021z"/>
		</g>
		<rect x="1.882" y="27.234" fill="#231F20" width="0.928" height="5.37"/>
		<rect x="5.582" y="27.234" fill="#231F20" width="0.928" height="5.37"/>
	</g>
	<g>
		<rect x="2.161" y="0.597" fill="#FFAD3B" width="7.306" height="6.232"/>
		<path fill="#231F20" d="M10.063,7.426H1.564V0h8.499V7.426z M2.758,6.232H8.87V1.193H2.758V6.232z"/>
	</g>
</g>
<g>
	<g>
		<path fill="#F2C4B6" d="M15.261,27.606h3.447c0-14.016-0.889-22.223-0.928-22.567l-3.422,0.385
			C14.359,5.489,15.261,13.79,15.261,27.606z"/>
		<polygon fill="#FFFFFF" points="18.828,17.224 19.251,27.354 18.828,27.792 14.876,27.792 14.876,22.236 14.876,17.224 		"/>
		<path fill="#231F20" d="M14.666,27.606c0-13.75-0.902-22.051-0.902-22.13L13.697,4.88l4.613-0.518l0.066,0.597
			c0.041,0.345,0.93,8.593,0.93,22.634v0.597h-4.641V27.606z M17.25,5.688l-2.24,0.252c0.199,2.095,0.836,9.666,0.848,21.068h2.256
			C18.099,15.314,17.449,7.797,17.25,5.688z"/>
	</g>
	<g>
		<g>
			<rect x="13.22" y="32.485" fill="#EFEDF2" width="7.518" height="1.591"/>
			<path fill="#231F20" d="M20.724,34.54h-7.518c-0.252,0-0.465-0.212-0.465-0.464v-1.591c0-0.252,0.213-0.464,0.465-0.464h7.518
				c0.252,0,0.465,0.212,0.465,0.464v1.591C21.189,34.328,20.99,34.54,20.724,34.54z M13.683,33.612h6.59v-0.663h-6.59V33.612z"/>
		</g>
		<g>
			<rect x="13.22" y="27.354" fill="#7261C6" width="7.518" height="5.131"/>
			<path fill="#231F20" d="M20.724,32.949h-7.518c-0.252,0-0.465-0.212-0.465-0.464v-5.131c0-0.252,0.213-0.465,0.465-0.465h7.518
				c0.252,0,0.465,0.213,0.465,0.465v5.131C21.189,32.737,20.99,32.949,20.724,32.949z M13.683,32.021h6.59v-4.203h-6.59V32.021z"/>
		</g>
		<rect x="14.691" y="27.234" fill="#231F20" width="0.928" height="5.37"/>
		<rect x="18.365" y="27.234" fill="#231F20" width="0.928" height="5.37"/>
	</g>
	<g>
		<rect x="11.708" y="0.597" fill="#FFAD3B" width="7.305" height="6.232"/>
		<path fill="#231F20" d="M19.611,7.426h-8.5V0h8.5V7.426z M12.304,6.232h6.113V1.193h-6.113V6.232z"/>
	</g>
</g>
<g>
	<rect x="11.204" y="0.597" fill="#FFAD3B" width="7.305" height="6.232"/>
	<path fill="#231F20" d="M19.107,7.426h-8.5V0h8.5V7.426z M11.8,6.232h6.113V1.193H11.8V6.232z"/>
</g>
</svg>
