<?xml version="1.0" encoding="utf-8"?>
<!-- Generator: Adobe Illustrator 16.0.0, SVG Export Plug-In . SVG Version: 6.00 Build 0)  -->
<!DOCTYPE svg PUBLIC "-//W3C//DTD SVG 1.1//EN" "http://www.w3.org/Graphics/SVG/1.1/DTD/svg11.dtd">
<svg version="1.1" id="Warstwa_1" xmlns="http://www.w3.org/2000/svg" xmlns:xlink="http://www.w3.org/1999/xlink" x="0px" y="0px"
	 width="154.714px" height="218.856px" viewBox="0 0 154.714 218.856" enable-background="new 0 0 154.714 218.856"
	 xml:space="preserve">
<g>
	<polygon fill="#D9B779" points="56.089,99.609 29.224,175.152 94.167,182.807 85.585,107.194 	"/>
	<g>
		<path fill="#D9B779" d="M97.479,91.261c-1.137,13.532-13.026,23.583-26.561,22.446l0,0c-13.533-1.136-23.583-13.027-22.448-26.561
			l1.077-12.823C50.683,60.79,62.574,50.74,76.108,51.876l0,0c13.533,1.137,23.583,13.027,22.446,26.561L97.479,91.261z"/>
		<polygon fill="#D9B779" points="49.825,72.19 43.284,51.388 53.962,55.374 63.28,37.649 67.618,52.64 84.703,44.831 
			87.208,55.607 106.368,52.034 97.891,70.356 109.656,74.09 84.623,86.59 		"/>
		<circle fill="#FFFFFF" cx="60.026" cy="77.877" r="4.511"/>
		<circle fill="#FFFFFF" cx="90.693" cy="82.642" r="4.255"/>
		<path fill="#FFFFFF" d="M60.753,96.789c1.219,4.938,5.46,8.78,10.81,9.229c5.349,0.449,10.173-2.632,12.198-7.297L60.753,96.789z"
			/>
	</g>
	<polygon fill="#D9B779" points="57.473,108.291 35.199,83.964 27.507,102.319 54.602,117.326 	"/>
	<path fill="#D9B779" d="M34.442,99.231c-5.157-3.229-8.066-7.429-8.646-12.483c-1.264-11.015,9.357-21.829,9.812-22.284
		l3.561,3.543l-1.78-1.771l1.783,1.77c-0.095,0.095-9.378,9.576-8.382,18.183c0.406,3.504,2.474,6.379,6.32,8.788L34.442,99.231z"/>
	<polygon fill="#D9B779" points="84.904,107.276 107.234,86.694 110.826,105.996 85.909,116.636 	"/>
	<path fill="#D9B779" d="M105.851,101.822l-2.241-4.496c6.105-3.043,10.973-12.824,14.075-28.284
		c2.426-12.078,2.849-23.28,2.853-23.393l5.02,0.18C125.488,47.749,123.673,92.937,105.851,101.822z"/>
	<circle fill="#D9B779" cx="36.849" cy="64.854" r="6.992"/>
	<circle fill="#D9B779" cx="122.458" cy="42.617" r="8.413"/>
</g>
</svg>
