<?xml version="1.0" encoding="utf-8"?>
<!-- Generator: Adobe Illustrator 16.0.0, SVG Export Plug-In . SVG Version: 6.00 Build 0)  -->
<!DOCTYPE svg PUBLIC "-//W3C//DTD SVG 1.1//EN" "http://www.w3.org/Graphics/SVG/1.1/DTD/svg11.dtd">
<svg version="1.1" id="Warstwa_1" xmlns="http://www.w3.org/2000/svg" xmlns:xlink="http://www.w3.org/1999/xlink" x="0px" y="0px"
	 width="154.714px" height="218.855px" viewBox="0 0 154.714 218.855" enable-background="new 0 0 154.714 218.855"
	 xml:space="preserve">
<g>
	<polygon fill="#FDAD78" points="104.284,173.353 59.005,184.203 48.813,120.91 86.43,111.894 	"/>
	<g>
		<path fill="#FDAD78" d="M88.645,95.484c3.421,14.271-5.375,28.611-19.646,32.031l0,0c-14.271,3.42-28.61-5.376-32.032-19.646
			l-4.042-16.868c-3.42-14.271,5.374-28.61,19.646-32.031l0,0c14.27-3.42,28.609,5.376,32.03,19.646L88.645,95.484z"/>
		<path fill="#FDAD78" d="M45.583,94.951c-5.516,1.754-11.648,3.564-17.451,1.916c-1.301-0.37-6.46-3.623-2.598-4.664
			c-4.533,1.653-6.709-4.068-2.837-5.178c-1.146-2.046-6.189-6.316-5.354-8.843c0.584-1.765,6.158-2.408,7.744-2.776
			c-8.623,3.405-1.723-10.772,1.921-5.907c-1.062-2.984-0.076-7.287,2.187-9.455c0.342,0.274,0.867,0.382,1.198,0.745
			c-0.875-3.202-0.189-8.753,3.045-10.544c2.638-1.461,8.93-0.351,9.204,3.225c-1.229-6.878,11.147-20.532,12.415-9.382
			c1.864-2.283,4.437-4.333,6.897-5.881c1.055-0.661,6.481-4.123,8.356-3.335c3.463,1.458,3.381,8.336,2.7,11.272
			c4.229-3.328,20.728-5.959,14.543,2.959c2.183,2.317,4.572,7.035,4.683,10.216c0.087,2.565-1.202,2.28-2.606,4.417
			c2.645,2.103,8.207,6.331,7.59,10.188c-0.209,1.302-1.869,2.146-2.18,3.383c-0.23,0.924,0.625,2.273,0.631,3.244
			c0.031,5.745-10.24,12.983-14.932,14.354c-3.164,0.926-7.385-0.112-10.714,0.271c-3.324,0.382-6.648,1.516-9.849,2.461
			c-4.594,1.357-9.04-0.182-13.701-0.038"/>
		<circle fill="#FFFFFF" cx="47.811" cy="102.073" r="3.416"/>
		<circle fill="#FFFFFF" cx="75.124" cy="95.527" r="3.417"/>
		<path fill="#FFFFFF" d="M55.934,116.394c1.167,4.558,5.772,7.351,10.362,6.249c4.587-1.101,7.428-5.679,6.404-10.269
			L55.934,116.394z"/>
	</g>
	<polygon fill="#FDAD78" points="83.124,114.244 94.098,96.111 103.358,114.121 86.937,130.15 	"/>
	<path fill="none" stroke="#FDAD78" stroke-width="7" stroke-miterlimit="10" d="M110.495,78.13c0,0-7.672,32.167-21.564,41.553"/>
	<polygon fill="#FDAD78" points="55.374,119.394 35.241,112.771 39.93,132.471 62.831,133.955 	"/>
	<path fill="none" stroke="#FDAD78" stroke-width="7" stroke-miterlimit="10" d="M11.089,109.789c0,0,26.757,19.43,43.414,17.516"/>
	<circle fill="#FDAD78" cx="10.803" cy="109.635" r="7.882"/>
	<circle fill="#FDAD78" cx="110.493" cy="78.13" r="7.882"/>
</g>
</svg>
