<?xml version="1.0" encoding="utf-8"?>
<!-- Generator: Adobe Illustrator 16.0.0, SVG Export Plug-In . SVG Version: 6.00 Build 0)  -->
<!DOCTYPE svg PUBLIC "-//W3C//DTD SVG 1.1//EN" "http://www.w3.org/Graphics/SVG/1.1/DTD/svg11.dtd">
<svg version="1.1" id="Warstwa_1" xmlns="http://www.w3.org/2000/svg" xmlns:xlink="http://www.w3.org/1999/xlink" x="0px" y="0px"
	 width="154.714px" height="218.856px" viewBox="0 0 154.714 218.856" enable-background="new 0 0 154.714 218.856"
	 xml:space="preserve">
<g>
	<polygon fill="#E0C595" points="94.608,214.128 49.813,218.856 44.392,125.544 85.47,127.538 	"/>
	<path fill="#E0C595" d="M92.86,105.167c1.664,15.769-9.77,29.898-25.537,31.563l-0.397,0.042
		c-15.767,1.665-29.897-9.769-31.563-25.536l-1.417-13.417c-1.664-15.768,9.77-29.897,25.537-31.563l0.397-0.042
		c15.769-1.664,29.899,9.77,31.563,25.537L92.86,105.167z"/>
	<g>
		<path fill="#E0C595" d="M119.25,65.149c-0.767,3.168-3.957,5.115-7.125,4.348l0,0c-3.17-0.766-5.116-3.957-4.351-7.125
			l12.329-50.948c0.767-3.167,3.956-5.114,7.125-4.349l0,0c3.169,0.768,5.115,3.957,4.35,7.126L119.25,65.149z"/>
		<path fill="#E0C595" d="M130.656,68.212c-0.767,3.169-3.958,5.116-7.125,4.35l0,0c-3.168-0.767-5.116-3.957-4.351-7.126
			l6.233-25.761c0.768-3.169,3.957-5.115,7.126-4.35l0,0c3.169,0.768,5.116,3.957,4.348,7.127L130.656,68.212z"/>
		<path fill="#E0C595" d="M139.746,74.542c-0.766,3.168-3.956,5.115-7.126,4.35l0,0c-3.167-0.768-5.114-3.958-4.349-7.127
			l6.232-25.76c0.768-3.17,3.958-5.117,7.126-4.35l0,0c3.169,0.767,5.116,3.957,4.351,7.125L139.746,74.542z"/>
		<path fill="#E0C595" d="M148.315,82.444c-0.769,3.17-3.958,5.116-7.126,4.35l0,0c-3.17-0.767-5.116-3.957-4.349-7.125
			l6.231-25.762c0.767-3.168,3.957-5.115,7.127-4.349l0,0c3.167,0.767,5.115,3.958,4.348,7.126L148.315,82.444z"/>
		<path fill="#E0C595" d="M113.165,79.266c0.273,3.552-2.385,6.652-5.938,6.924l0,0c-3.55,0.272-6.65-2.387-6.923-5.938
			L98.09,51.377c-0.271-3.551,2.388-6.65,5.938-6.924l0,0c3.552-0.271,6.652,2.387,6.924,5.938L113.165,79.266z"/>
		<circle fill="#E0C595" cx="124.608" cy="75.642" r="24.642"/>
		<path fill="#E0C595" d="M127.996,104.674c-0.298,1.232-1.54,1.99-2.772,1.691l-15.209-3.68c-1.232-0.298-1.99-1.539-1.691-2.771
			l2.196-9.076c0.297-1.232,1.539-1.99,2.771-1.691l15.21,3.68c1.232,0.298,1.99,1.539,1.691,2.771L127.996,104.674z"/>
	</g>
	<path fill="#E0C595" d="M101.708,140.814c-10.066,1.063-20.116-4.276-20.674-4.578l2.778-5.136
		c0.113,0.062,9.035,4.776,17.262,3.909c2.435-0.256,4.807-1.002,6.875-2.502c4.078-2.963,6.651-10.095,7.441-20.627
		c0.626-8.363-0.142-15.784-0.149-15.857l5.806-0.614c0.034,0.322,0.833,8.023,0.167,16.908
		c-0.936,12.474-4.243,20.856-9.834,24.915C108.384,139.407,105.046,140.462,101.708,140.814z"/>
	<polygon fill="#E0C595" points="83.199,124.833 97.929,128.41 97.295,147.19 79.835,146.316 	"/>
	<path fill="#E0C595" d="M46.65,133.772c-0.479-0.166-11.821-4.208-22.071-16.369C7.604,97.26,7.116,70.897,9.697,52.327
		l5.784,0.803c-3.468,24.945,1.224,45.868,13.564,60.51c9.228,10.949,19.42,14.582,19.521,14.617L46.65,133.772z"/>
	<polygon fill="#E0C595" points="49.927,122.454 34.866,120.737 28.991,138.585 45.682,143.78 	"/>
	<circle fill="#FFFFFF" cx="52.809" cy="84.8" r="2.844"/>
	<circle fill="#FFFFFF" cx="69.679" cy="83.02" r="2.843"/>
	<path fill="#FFFFFF" d="M52.182,112.134l22.683-6.948c0,0,2.229,13.685-7.732,14.051C57.168,119.603,52.182,112.134,52.182,112.134
		z"/>
	<circle fill="#E0C595" cx="15.813" cy="50.251" r="8.338"/>
	
		<rect x="13.886" y="-1.634" transform="matrix(-0.9575 -0.2883 0.2883 -0.9575 16.5635 95.9345)" fill="#E0C595" width="2.92" height="96.762"/>
	<path fill="#E0C595" d="M27.968,4.887c0,0,38.689-2.91,41.568,6.65c2.877,9.561-4.745,25.16-4.745,25.16
		s-35.13-12.858-44.729-5.535C10.462,38.485,27.968,4.887,27.968,4.887z"/>
	<path fill="#E0C595" d="M49.299,20.484l45.377,6.484L82.908,36.43l3.213,15.863c0,0-35.13-12.857-44.729-5.534
		C31.793,54.082,49.299,20.484,49.299,20.484z"/>
</g>
</svg>
