<?xml version="1.0" encoding="utf-8"?>
<!-- Generator: Adobe Illustrator 16.0.0, SVG Export Plug-In . SVG Version: 6.00 Build 0)  -->
<!DOCTYPE svg PUBLIC "-//W3C//DTD SVG 1.1//EN" "http://www.w3.org/Graphics/SVG/1.1/DTD/svg11.dtd">
<svg version="1.1" id="Layer_1" xmlns="http://www.w3.org/2000/svg" xmlns:xlink="http://www.w3.org/1999/xlink" x="0px" y="0px"
	 width="1980px" height="442.71px" viewBox="0 247.29 1980 442.71" enable-background="new 0 247.29 1980 442.71"
	 xml:space="preserve">
<rect x="-17.618" y="247.29" fill="#D3AF75" width="2014.772" height="89.154"/>
<g>
	<g>
		<path fill="#F2DDBD" d="M303.179,305.058c0,0.299,0.037,0.509,0.112,0.628c0.074,0.119,0.187,0.239,0.335,0.357
			c0.239,0.18,0.478,0.434,0.717,0.762c0.239,0.329,0.359,0.747,0.359,1.254v1.881h-8.331v-1.881c0-0.507,0.119-0.925,0.358-1.254
			c0.239-0.328,0.477-0.582,0.717-0.762c0.119-0.118,0.216-0.238,0.292-0.357c0.073-0.119,0.127-0.298,0.156-0.538v-0.09v-23.691
			c0-0.297-0.044-0.507-0.134-0.627c-0.09-0.119-0.195-0.238-0.313-0.358c-0.24-0.18-0.478-0.433-0.717-0.761
			c-0.24-0.328-0.358-0.746-0.358-1.255v-1.926h8.331v1.926c0,0.509-0.12,0.927-0.359,1.255c-0.238,0.328-0.478,0.581-0.717,0.761
			c-0.149,0.12-0.262,0.239-0.335,0.358c-0.075,0.12-0.112,0.33-0.112,0.627L303.179,305.058L303.179,305.058z"/>
		<path fill="#F2DDBD" d="M333.633,303.49v5.284c0,0.359-0.121,0.643-0.358,0.852c-0.24,0.21-0.479,0.313-0.717,0.313H317.42v-1.881
			c0-0.656,0.09-1.156,0.27-1.5c0.179-0.343,0.417-0.59,0.717-0.739c0.148-0.06,0.283-0.164,0.402-0.313
			c0.119-0.15,0.18-0.33,0.18-0.539v-23.691c0-0.269-0.045-0.463-0.134-0.582c-0.091-0.119-0.195-0.224-0.313-0.313
			c-0.239-0.18-0.478-0.433-0.717-0.761c-0.239-0.328-0.358-0.746-0.358-1.255v-1.926h8.286v1.926c0,0.509-0.12,0.927-0.357,1.255
			c-0.24,0.328-0.479,0.581-0.717,0.761c-0.149,0.09-0.262,0.194-0.336,0.313c-0.074,0.119-0.111,0.329-0.111,0.627v23.826
			c0,0.419,0.209,0.627,0.627,0.627h3.538c0.418,0,0.731-0.193,0.939-0.582c0.148-0.299,0.404-0.656,0.761-1.075
			c0.359-0.417,0.866-0.627,1.523-0.627L333.633,303.49L333.633,303.49z"/>
		<path fill="#F2DDBD" d="M344.023,310.298c-1.105,0-2.144-0.134-3.113-0.403c-0.971-0.269-1.822-0.687-2.553-1.254
			c-0.732-0.566-1.314-1.275-1.747-2.127c-0.434-0.851-0.649-1.843-0.649-2.978v-20.781c0-1.135,0.216-2.127,0.649-2.979
			c0.433-0.851,1.015-1.553,1.747-2.104c0.73-0.553,1.582-0.97,2.553-1.255c0.97-0.283,2.008-0.425,3.113-0.425
			c1.104,0,2.149,0.142,3.135,0.425c0.984,0.285,1.843,0.702,2.575,1.255c0.731,0.552,1.313,1.254,1.747,2.104
			c0.433,0.852,0.649,1.844,0.649,2.979v20.781c0,1.135-0.217,2.127-0.649,2.978c-0.435,0.852-1.016,1.561-1.747,2.127
			c-0.731,0.567-1.589,0.985-2.575,1.254C346.173,310.164,345.127,310.298,344.023,310.298z M346.889,283.292
			c0-1.165-0.269-1.948-0.806-2.351s-1.225-0.605-2.06-0.605c-0.808,0-1.479,0.202-2.017,0.605
			c-0.538,0.402-0.807,1.186-0.807,2.351v19.706c0,1.164,0.269,1.956,0.807,2.374c0.537,0.418,1.209,0.626,2.017,0.626
			c0.835,0,1.521-0.23,2.06-0.694c0.537-0.462,0.806-1.291,0.806-2.485V283.292z"/>
		<path fill="#F2DDBD" d="M374.208,276.395v1.926c0,0.509-0.112,0.927-0.336,1.255c-0.223,0.329-0.456,0.582-0.694,0.761
			c-0.149,0.09-0.275,0.21-0.38,0.358c-0.104,0.15-0.188,0.344-0.247,0.582c-0.925,5.105-1.746,9.689-2.463,13.749
			c-0.329,1.732-0.634,3.427-0.918,5.084c-0.285,1.656-0.545,3.135-0.784,4.435c-0.239,1.298-0.433,2.343-0.583,3.134
			c-0.147,0.792-0.223,1.202-0.223,1.231c-0.15,0.27-0.292,0.501-0.426,0.694c-0.136,0.195-0.336,0.291-0.604,0.291h-5.24
			c-0.299,0-0.522-0.09-0.671-0.269c-0.149-0.179-0.299-0.507-0.448-0.985l-4.657-27.364c-0.061-0.297-0.143-0.507-0.247-0.626
			c-0.105-0.119-0.246-0.225-0.425-0.314c-0.24-0.118-0.472-0.358-0.694-0.716c-0.224-0.359-0.336-0.791-0.336-1.3v-1.926h8.151
			v1.926c0,0.538-0.098,0.972-0.292,1.3c-0.195,0.328-0.41,0.567-0.649,0.716c-0.268,0.15-0.343,0.464-0.223,0.94l3.135,23.514
			l3.403-23.514c0-0.477-0.135-0.79-0.403-0.94c-0.239-0.148-0.462-0.388-0.671-0.716s-0.314-0.762-0.314-1.3v-1.926H374.208
			L374.208,276.395z"/>
		<path fill="#F2DDBD" d="M382.717,280.986c-0.119,0.134-0.18,0.276-0.18,0.425v8.465c0,0.419,0.209,0.627,0.627,0.627h5.195
			c0.148,0,0.305,0.053,0.471,0.156c0.164,0.105,0.247,0.276,0.247,0.515v3.136c0,0.419-0.224,0.626-0.672,0.626h-5.24
			c-0.418,0-0.627,0.21-0.627,0.628v9.494c0,0.209,0.074,0.375,0.224,0.493c0.149,0.12,0.3,0.179,0.449,0.179h3.896
			c0.297,0,0.492-0.179,0.582-0.537c0.147-0.656,0.439-1.104,0.874-1.344c0.432-0.238,0.99-0.358,1.68-0.358h1.566v5.329
			c0,0.33-0.111,0.598-0.336,0.807c-0.224,0.21-0.5,0.313-0.829,0.313h-2.775h-9.405h-2.688v-1.791c0-0.656,0.082-1.157,0.247-1.501
			c0.162-0.342,0.395-0.589,0.693-0.738c0.149-0.06,0.283-0.18,0.403-0.358c0.119-0.179,0.179-0.374,0.179-0.583v-23.512
			c0-0.477-0.208-0.82-0.627-1.03c-0.268-0.148-0.486-0.381-0.648-0.694c-0.165-0.313-0.247-0.769-0.247-1.366v-1.926h14.601
			c0.329,0,0.649,0.128,0.963,0.381c0.313,0.254,0.471,0.501,0.471,0.739v5.061h-1.793c-0.627,0-1.119-0.148-1.479-0.448
			c-0.358-0.297-0.612-0.581-0.761-0.851c-0.15-0.358-0.463-0.537-0.94-0.537h-3.717
			C382.97,280.784,382.836,280.852,382.717,280.986z"/>
		<g>
			<path fill="#F2DDBD" d="M434.68,286.442c1.442,0,3.145-1.157,3.781-2.6c0.638-1.441,0-2.623-1.465-2.623
				c-1.441,0-3.119,1.182-3.781,2.623C432.577,285.285,433.239,286.442,434.68,286.442z"/>
			<path fill="#F2DDBD" d="M450.728,290.484c-3.45,4.489-6.522,6.617-9.004,7.728c0.143-0.52,0.283-1.087,0.378-1.678
				c0.355-1.771,0.945-4.727,0.945-4.727s4.35-3.711,0.213-3.428c-2.077,0.143-3.169,1.377-3.828,3.039
				c-2.204,2.145-7.246,6.923-7.989,7.549c-0.614,0.521-1.182,1.04-1.371,0.827c-0.189-0.188,0.448-1.488,0.804-2.127
				c1.016-1.913,4.396-8.2,4.396-8.2l-3.759,0.023c0,0-0.756,1.416-1.757,3.286c-2.451,2.357-5.959,5.677-6.587,6.19
				c-0.59,0.521-1.158,1.04-1.346,0.827c-0.19-0.188,0.425-1.488,0.779-2.127c1.016-1.913,1.536-2.883,2.15-3.993
				c1.607-3.002,0.165-4.207-1.654-4.207c-1.135,0-4.562,1.017-9.288,7.208l7.94-14.817h-3.734l-6.12,11.408
				c-2.749,2.304-6.31,5.222-6.88,5.701c-0.614,0.521-1.182,1.04-1.37,0.827c-0.189-0.188,0.447-1.488,0.803-2.127
				c0.401-0.756,1.819-3.403,3.38-6.333h2.812c0.402-0.757,0.639-1.205,0.639-1.205l-2.813,0.023
				c2.174-4.112,3.072-5.648,3.072-5.648h-3.758c0,0-0.733,1.276-3.072,5.648h-2.717c0,0-0.237,0.425-0.64,1.182h2.741
				c-2.48,4.608-5.01,9.358-5.481,10.233c-1.348,2.457-0.639,3.592,0.921,3.592c0.992,0,2.268-0.566,4.325-2.505
				c0.894-0.849,3.363-3.048,5.793-5.204l-4.138,7.709h3.734c3.072-5.672,9.382-11.58,10.729-11.58c0.805,0,0.521,1.04-0.472,2.859
				c-1.063,1.985-1.772,3.355-2.742,5.129c-1.323,2.457-0.638,3.592,0.922,3.592c0.969,0,2.292-0.566,4.324-2.505
				c0.896-0.841,3.077-3.008,5.212-5.146c-0.991,1.849-1.854,3.452-2.185,4.059c-1.348,2.457-0.638,3.592,0.922,3.592
				c0.993,0,2.268-0.566,4.325-2.505c1.357-1.291,5.771-5.709,8.391-8.346c-0.163,0.896-0.295,1.81-0.449,2.674
				c-0.213,1.11-0.401,1.961-0.638,2.67c-3.024,0.804-5.813,1.348-6.098,2.979c-0.377,2.056,1.702,2.528,3.167,2.528
				c2.411,0,4.822-0.779,6.428-4.915c3.073-1.489,7.729-4.964,9.855-8.154C451.129,291.784,451.296,290.011,450.728,290.484z
				 M435.72,303.01c-0.59,0.804-1.772,0.993-1.605,0.118c0.094-0.496,1.134-0.875,2.504-1.3
				C436.313,302.301,436.004,302.632,435.72,303.01z"/>
		</g>
		<path fill="#F2DDBD" d="M478.074,278.587v11.646h-6.765l-0.716-4.838h-6.896v5.375h5.017v6.809h-5.017v5.285l3,0.358v6.718
			h-12.766v-6.629l3.001-0.402v-17.245l-3.001-0.357v-6.719L478.074,278.587L478.074,278.587z"/>
		<path fill="#F2DDBD" d="M478.967,309.939v-6.763l2.688-0.313l6.495-18.051l-2.822-0.18v-6.001h15.229l8.601,24.276l2.508,0.269
			v6.763H498.99v-6.763l2.285-0.269l-0.672-1.971h-10.48l-0.717,2.016l2.24,0.224v6.763H478.967z M498.182,294.174l-2.775-7.928
			l-2.867,7.928H498.182z"/>
		<path fill="#F2DDBD" d="M533.204,289.382l4.749-10.75h13.257v6.674l-2.956,0.313v17.335l2.956,0.402v6.584h-12.675v-6.674
			l2.957-0.357v-16.08l-5.868,12.721h-4.792l-5.868-12.676v16.035l2.956,0.357v6.674h-12.676v-6.584l2.957-0.402v-17.335
			l-2.957-0.313v-6.674h13.259L533.204,289.382z"/>
		<path fill="#F2DDBD" d="M554.789,309.939v-6.629l3.001-0.402v-17.245l-3.001-0.313v-6.764h24.232v11.69h-6.765l-0.716-4.883
			h-6.987v5.375h5.106v6.809h-5.106v5.599h6.987l0.716-4.883h6.765v11.646H554.789z"/>
	</g>
	<g>
		<path fill="#F2DDBD" d="M707.349,305.058c0,0.299,0.037,0.509,0.112,0.628c0.074,0.119,0.186,0.239,0.336,0.357
			c0.238,0.18,0.478,0.434,0.717,0.762c0.238,0.329,0.359,0.747,0.359,1.254v1.881h-8.332v-1.881c0-0.507,0.119-0.925,0.358-1.254
			c0.239-0.328,0.478-0.582,0.718-0.762c0.118-0.118,0.216-0.238,0.291-0.357c0.073-0.119,0.126-0.298,0.156-0.538v-0.09v-23.691
			c0-0.297-0.045-0.507-0.135-0.627c-0.089-0.119-0.194-0.238-0.313-0.358c-0.24-0.18-0.479-0.433-0.718-0.761
			s-0.358-0.746-0.358-1.255v-1.926h8.332v1.926c0,0.509-0.121,0.927-0.359,1.255c-0.239,0.328-0.479,0.581-0.717,0.761
			c-0.149,0.12-0.262,0.239-0.336,0.358c-0.075,0.12-0.112,0.33-0.112,0.627V305.058L707.349,305.058z"/>
		<path fill="#F2DDBD" d="M737.802,303.49v5.284c0,0.359-0.12,0.643-0.357,0.852c-0.24,0.21-0.479,0.313-0.718,0.313H721.59v-1.881
			c0-0.656,0.089-1.156,0.269-1.5c0.18-0.343,0.418-0.59,0.716-0.739c0.149-0.06,0.285-0.164,0.404-0.313
			c0.117-0.15,0.179-0.33,0.179-0.539v-23.691c0-0.269-0.045-0.463-0.134-0.582c-0.091-0.119-0.194-0.224-0.313-0.313
			c-0.24-0.18-0.479-0.433-0.717-0.761c-0.24-0.328-0.358-0.746-0.358-1.255v-1.926h8.286v1.926c0,0.509-0.12,0.927-0.358,1.255
			c-0.24,0.328-0.479,0.581-0.717,0.761c-0.149,0.09-0.262,0.194-0.336,0.313c-0.074,0.119-0.111,0.329-0.111,0.627v23.826
			c0,0.419,0.208,0.627,0.627,0.627h3.538c0.418,0,0.731-0.193,0.94-0.582c0.148-0.299,0.403-0.656,0.762-1.075
			c0.357-0.417,0.865-0.627,1.522-0.627L737.802,303.49L737.802,303.49z"/>
		<path fill="#F2DDBD" d="M748.192,310.298c-1.104,0-2.144-0.134-3.113-0.403s-1.821-0.687-2.552-1.254
			c-0.732-0.566-1.314-1.275-1.747-2.127c-0.434-0.851-0.649-1.843-0.649-2.978v-20.781c0-1.135,0.216-2.127,0.649-2.979
			c0.433-0.851,1.015-1.553,1.747-2.104c0.729-0.553,1.582-0.97,2.552-1.255c0.971-0.283,2.009-0.425,3.113-0.425
			c1.104,0,2.148,0.142,3.135,0.425c0.983,0.285,1.843,0.702,2.574,1.255c0.731,0.552,1.313,1.254,1.747,2.104
			c0.433,0.852,0.649,1.844,0.649,2.979v20.781c0,1.135-0.217,2.127-0.649,2.978c-0.434,0.852-1.016,1.561-1.747,2.127
			c-0.731,0.567-1.591,0.985-2.574,1.254C750.341,310.164,749.296,310.298,748.192,310.298z M751.057,283.292
			c0-1.165-0.269-1.948-0.806-2.351s-1.225-0.605-2.06-0.605c-0.807,0-1.479,0.202-2.016,0.605
			c-0.538,0.402-0.806,1.186-0.806,2.351v19.706c0,1.164,0.268,1.956,0.806,2.374c0.537,0.418,1.209,0.626,2.016,0.626
			c0.835,0,1.521-0.23,2.06-0.694c0.537-0.462,0.806-1.291,0.806-2.485V283.292z"/>
		<path fill="#F2DDBD" d="M778.377,276.395v1.926c0,0.509-0.112,0.927-0.336,1.255c-0.224,0.329-0.456,0.582-0.694,0.761
			c-0.149,0.09-0.275,0.21-0.38,0.358c-0.104,0.15-0.188,0.344-0.248,0.582c-0.925,5.105-1.746,9.689-2.462,13.749
			c-0.329,1.732-0.634,3.427-0.918,5.084c-0.285,1.656-0.544,3.135-0.784,4.435c-0.238,1.298-0.433,2.343-0.582,3.134
			c-0.15,0.792-0.224,1.202-0.224,1.231c-0.149,0.27-0.292,0.501-0.426,0.694c-0.134,0.195-0.335,0.291-0.604,0.291h-5.239
			c-0.3,0-0.523-0.09-0.673-0.269s-0.299-0.507-0.448-0.985l-4.657-27.364c-0.061-0.297-0.143-0.507-0.246-0.626
			c-0.104-0.119-0.246-0.225-0.424-0.314c-0.241-0.118-0.471-0.358-0.695-0.716c-0.224-0.359-0.336-0.791-0.336-1.3v-1.926h8.151
			v1.926c0,0.538-0.098,0.972-0.292,1.3c-0.195,0.328-0.411,0.567-0.649,0.716c-0.269,0.15-0.343,0.464-0.224,0.94l3.136,23.514
			l3.404-23.514c0-0.477-0.136-0.79-0.404-0.94c-0.24-0.148-0.463-0.388-0.671-0.716c-0.209-0.328-0.314-0.762-0.314-1.3v-1.926
			H778.377L778.377,276.395z"/>
		<path fill="#F2DDBD" d="M786.886,280.986c-0.12,0.134-0.179,0.276-0.179,0.425v8.465c0,0.419,0.208,0.627,0.627,0.627h5.195
			c0.147,0,0.306,0.053,0.47,0.156c0.165,0.105,0.247,0.276,0.247,0.515v3.136c0,0.419-0.223,0.626-0.672,0.626h-5.24
			c-0.418,0-0.627,0.21-0.627,0.628v9.494c0,0.209,0.074,0.375,0.224,0.493c0.149,0.12,0.298,0.179,0.448,0.179h3.896
			c0.298,0,0.492-0.179,0.582-0.537c0.148-0.656,0.439-1.104,0.873-1.344c0.434-0.238,0.992-0.358,1.681-0.358h1.566v5.329
			c0,0.33-0.111,0.598-0.336,0.807c-0.224,0.21-0.5,0.313-0.827,0.313h-2.776h-9.406h-2.687v-1.791c0-0.656,0.082-1.157,0.247-1.501
			c0.163-0.342,0.396-0.589,0.694-0.738c0.148-0.06,0.282-0.18,0.402-0.358c0.119-0.179,0.18-0.374,0.18-0.583v-23.512
			c0-0.477-0.209-0.82-0.627-1.03c-0.268-0.148-0.486-0.381-0.648-0.694c-0.165-0.313-0.247-0.769-0.247-1.366v-1.926h14.601
			c0.328,0,0.649,0.128,0.962,0.381c0.314,0.254,0.471,0.501,0.471,0.739v5.061h-1.791c-0.627,0-1.119-0.148-1.479-0.448
			c-0.358-0.297-0.612-0.581-0.762-0.851c-0.149-0.358-0.464-0.537-0.94-0.537h-3.718
			C787.139,280.784,787.005,280.852,786.886,280.986z"/>
		<g>
			<path fill="#F2DDBD" d="M838.849,286.442c1.442,0,3.144-1.157,3.781-2.6c0.639-1.441,0-2.623-1.464-2.623
				c-1.441,0-3.119,1.182-3.781,2.623C836.746,285.285,837.408,286.442,838.849,286.442z"/>
			<path fill="#F2DDBD" d="M854.896,290.484c-3.449,4.489-6.521,6.617-9.003,7.728c0.143-0.52,0.283-1.087,0.378-1.678
				c0.354-1.771,0.944-4.727,0.944-4.727s4.351-3.711,0.214-3.428c-2.077,0.143-3.17,1.377-3.828,3.039
				c-2.203,2.145-7.245,6.923-7.989,7.549c-0.615,0.521-1.183,1.04-1.371,0.827c-0.189-0.188,0.448-1.488,0.803-2.127
				c1.017-1.913,4.396-8.2,4.396-8.2l-3.759,0.023c0,0-0.756,1.416-1.757,3.286c-2.452,2.357-5.96,5.677-6.587,6.19
				c-0.591,0.521-1.158,1.04-1.347,0.827c-0.189-0.188,0.425-1.488,0.78-2.127c1.016-1.913,1.535-2.883,2.149-3.993
				c1.607-3.002,0.165-4.207-1.653-4.207c-1.135,0-4.561,1.017-9.288,7.208l7.94-14.817h-3.734l-6.12,11.408
				c-2.749,2.304-6.311,5.222-6.878,5.701c-0.616,0.521-1.184,1.04-1.372,0.827c-0.188-0.188,0.448-1.488,0.804-2.127
				c0.401-0.756,1.82-3.403,3.38-6.333h2.813c0.401-0.757,0.639-1.205,0.639-1.205l-2.813,0.023
				c2.175-4.112,3.072-5.648,3.072-5.648h-3.758c0,0-0.732,1.276-3.072,5.648h-2.717c0,0-0.236,0.425-0.639,1.182h2.742
				c-2.481,4.608-5.012,9.358-5.483,10.233c-1.348,2.457-0.638,3.592,0.921,3.592c0.993,0,2.27-0.566,4.325-2.505
				c0.894-0.849,3.364-3.048,5.793-5.204l-4.137,7.709h3.733c3.072-5.672,9.382-11.58,10.729-11.58c0.804,0,0.521,1.04-0.473,2.859
				c-1.063,1.985-1.771,3.355-2.74,5.129c-1.324,2.457-0.64,3.592,0.921,3.592c0.969,0,2.292-0.566,4.325-2.505
				c0.896-0.841,3.075-3.008,5.211-5.146c-0.991,1.849-1.854,3.452-2.186,4.059c-1.348,2.457-0.638,3.592,0.922,3.592
				c0.994,0,2.27-0.566,4.325-2.505c1.359-1.291,5.772-5.709,8.393-8.346c-0.163,0.896-0.295,1.81-0.449,2.674
				c-0.213,1.11-0.403,1.961-0.639,2.67c-3.025,0.804-5.814,1.348-6.099,2.979c-0.378,2.056,1.701,2.528,3.167,2.528
				c2.41,0,4.821-0.779,6.428-4.915c3.072-1.489,7.729-4.964,9.854-8.154C855.299,291.784,855.465,290.011,854.896,290.484z
				 M839.89,303.01c-0.59,0.804-1.772,0.993-1.606,0.118c0.095-0.496,1.134-0.875,2.504-1.3
				C840.481,302.301,840.173,302.632,839.89,303.01z"/>
		</g>
		<path fill="#F2DDBD" d="M882.243,278.587v11.646h-6.763l-0.718-4.838h-6.896v5.375h5.017v6.809h-5.017v5.285l3.001,0.358v6.718
			h-12.767v-6.629l3.001-0.402v-17.245l-3.001-0.357v-6.719L882.243,278.587L882.243,278.587z"/>
		<path fill="#F2DDBD" d="M883.136,309.939v-6.763l2.688-0.313l6.494-18.051l-2.821-0.18v-6.001h15.228l8.6,24.276l2.509,0.269
			v6.763h-12.675v-6.763l2.284-0.269l-0.671-1.971H894.29l-0.717,2.016l2.239,0.224v6.763H883.136z M902.352,294.174l-2.776-7.928
			l-2.867,7.928H902.352z"/>
		<path fill="#F2DDBD" d="M937.373,289.382l4.748-10.75h13.258v6.674l-2.956,0.313v17.335l2.956,0.402v6.584h-12.676v-6.674
			l2.957-0.357v-16.08l-5.867,12.721H935l-5.867-12.676v16.035l2.956,0.357v6.674h-12.675v-6.584l2.957-0.402v-17.335l-2.957-0.313
			v-6.674h13.258L937.373,289.382z"/>
		<path fill="#F2DDBD" d="M958.958,309.939v-6.629l3-0.402v-17.245l-3-0.313v-6.764h24.231v11.69h-6.765l-0.716-4.883h-6.987v5.375
			h5.106v6.809h-5.106v5.599h6.987l0.716-4.883h6.765v11.646H958.958z"/>
	</g>
	<path fill="#F2DDBD" d="M643.515,269.801c-12.873,0-23.345,10.472-23.345,23.344c0,12.873,10.472,23.345,23.345,23.345
		c12.872,0,23.345-10.472,23.345-23.345S656.387,269.801,643.515,269.801z M659.134,303.363c-1.896-2.315-3.108-5.014-3.542-7.884
		h6.446C661.676,298.362,660.658,301.042,659.134,303.363z M624.992,295.479h6.38c-0.423,2.856-1.617,5.546-3.492,7.858
		C626.365,301.022,625.354,298.353,624.992,295.479z M627.881,282.95c1.875,2.313,3.068,5.003,3.491,7.859h-6.38
		C625.354,287.938,626.365,285.267,627.881,282.95z M645.85,290.81v-16.188c3.887,0.487,7.404,2.168,10.172,4.669
		c-2.901,3.297-4.68,7.272-5.15,11.519H645.85L645.85,290.81z M641.179,290.81h-5.097c-0.477-4.227-2.25-8.181-5.136-11.464
		c2.776-2.532,6.318-4.233,10.231-4.724L641.179,290.81L641.179,290.81z M636.082,295.479h5.097v16.188
		c-3.913-0.491-7.455-2.191-10.231-4.723C633.834,303.66,635.604,299.705,636.082,295.479z M645.85,295.479h5.031
		c0.488,4.237,2.274,8.199,5.184,11.483c-2.774,2.521-6.311,4.216-10.215,4.705V295.479z M655.581,290.81
		c0.42-2.884,1.625-5.599,3.522-7.929c1.54,2.331,2.57,5.027,2.935,7.929H655.581z"/>
	<path fill="#F2DDBD" d="M237.793,269.801c-12.872,0-23.344,10.472-23.344,23.344c0,12.873,10.472,23.345,23.344,23.345
		s23.345-10.472,23.345-23.345S250.666,269.801,237.793,269.801z M253.412,303.363c-1.897-2.315-3.109-5.014-3.541-7.884h6.445
		C255.955,298.362,254.937,301.042,253.412,303.363z M219.271,295.479h6.38c-0.423,2.856-1.618,5.546-3.492,7.858
		C220.644,301.022,219.63,298.353,219.271,295.479z M222.159,282.95c1.875,2.313,3.068,5.003,3.492,7.859h-6.38
		C219.63,287.938,220.644,285.267,222.159,282.95z M240.129,290.81v-16.188c3.885,0.487,7.404,2.168,10.171,4.669
		c-2.902,3.297-4.68,7.272-5.151,11.519H240.129L240.129,290.81z M235.458,290.81h-5.097c-0.478-4.227-2.25-8.181-5.136-11.464
		c2.777-2.532,6.32-4.233,10.233-4.724V290.81z M230.361,295.479h5.097v16.188c-3.913-0.491-7.455-2.191-10.232-4.723
		C228.112,303.66,229.883,299.705,230.361,295.479z M240.129,295.479h5.031c0.488,4.237,2.274,8.199,5.183,11.483
		c-2.774,2.521-6.31,4.216-10.213,4.705L240.129,295.479L240.129,295.479z M249.86,290.81c0.419-2.884,1.625-5.599,3.523-7.929
		c1.54,2.331,2.57,5.027,2.933,7.929H249.86z"/>
</g>
<g>
	<g>
		<path fill="#F2DDBD" d="M1105.547,305.058c0,0.299,0.037,0.509,0.111,0.628s0.186,0.239,0.336,0.357
			c0.239,0.18,0.477,0.434,0.717,0.762c0.238,0.329,0.358,0.747,0.358,1.254v1.881h-8.331v-1.881c0-0.507,0.119-0.925,0.358-1.254
			c0.238-0.328,0.478-0.582,0.716-0.762c0.12-0.118,0.218-0.238,0.291-0.357c0.075-0.119,0.129-0.298,0.157-0.538v-0.09v-23.691
			c0-0.297-0.045-0.507-0.135-0.627c-0.09-0.119-0.193-0.238-0.313-0.358c-0.238-0.18-0.478-0.433-0.716-0.761
			c-0.239-0.328-0.358-0.746-0.358-1.255v-1.926h8.331v1.926c0,0.509-0.12,0.927-0.358,1.255c-0.24,0.328-0.478,0.581-0.717,0.761
			c-0.15,0.12-0.262,0.239-0.336,0.358c-0.074,0.12-0.111,0.33-0.111,0.627V305.058z"/>
		<path fill="#F2DDBD" d="M1136,303.49v5.284c0,0.359-0.12,0.643-0.358,0.852c-0.238,0.21-0.478,0.313-0.717,0.313h-15.138v-1.881
			c0-0.656,0.09-1.156,0.27-1.5c0.18-0.343,0.418-0.59,0.717-0.739c0.148-0.06,0.282-0.164,0.402-0.313
			c0.119-0.15,0.18-0.33,0.18-0.539v-23.691c0-0.269-0.046-0.463-0.135-0.582c-0.091-0.119-0.194-0.224-0.313-0.313
			c-0.239-0.18-0.479-0.433-0.716-0.761c-0.24-0.328-0.359-0.746-0.359-1.255v-1.926h8.285v1.926c0,0.509-0.119,0.927-0.357,1.255
			c-0.239,0.328-0.479,0.581-0.717,0.761c-0.149,0.09-0.263,0.194-0.336,0.313c-0.075,0.119-0.113,0.329-0.113,0.627v23.826
			c0,0.419,0.209,0.627,0.628,0.627h3.538c0.418,0,0.731-0.193,0.941-0.582c0.147-0.299,0.401-0.656,0.76-1.075
			c0.359-0.417,0.867-0.627,1.522-0.627L1136,303.49L1136,303.49z"/>
		<path fill="#F2DDBD" d="M1146.39,310.298c-1.104,0-2.143-0.134-3.112-0.403c-0.971-0.269-1.82-0.687-2.554-1.254
			c-0.73-0.566-1.313-1.275-1.745-2.127c-0.434-0.851-0.649-1.843-0.649-2.978v-20.781c0-1.135,0.217-2.127,0.649-2.979
			c0.433-0.851,1.015-1.553,1.745-2.104c0.732-0.553,1.583-0.97,2.554-1.255c0.971-0.283,2.009-0.425,3.112-0.425
			c1.104,0,2.149,0.142,3.136,0.425c0.984,0.285,1.844,0.702,2.574,1.255c0.731,0.552,1.314,1.254,1.748,2.104
			c0.433,0.852,0.648,1.844,0.648,2.979v20.781c0,1.135-0.217,2.127-0.648,2.978c-0.434,0.852-1.017,1.561-1.748,2.127
			c-0.73,0.567-1.59,0.985-2.574,1.254C1148.54,310.164,1147.495,310.298,1146.39,310.298z M1149.256,283.292
			c0-1.165-0.269-1.948-0.807-2.351c-0.537-0.403-1.226-0.605-2.061-0.605c-0.807,0-1.478,0.202-2.016,0.605
			c-0.537,0.402-0.807,1.186-0.807,2.351v19.706c0,1.164,0.27,1.956,0.807,2.374c0.538,0.418,1.209,0.626,2.016,0.626
			c0.835,0,1.522-0.23,2.061-0.694c0.538-0.462,0.807-1.291,0.807-2.485V283.292z"/>
		<path fill="#F2DDBD" d="M1176.575,276.395v1.926c0,0.509-0.111,0.927-0.335,1.255c-0.225,0.329-0.456,0.582-0.694,0.761
			c-0.149,0.09-0.276,0.21-0.38,0.358c-0.105,0.15-0.188,0.344-0.247,0.582c-0.927,5.105-1.747,9.689-2.464,13.749
			c-0.328,1.732-0.634,3.427-0.917,5.084c-0.285,1.656-0.546,3.135-0.784,4.435c-0.239,1.298-0.433,2.343-0.583,3.134
			c-0.147,0.792-0.223,1.202-0.223,1.231c-0.15,0.27-0.291,0.501-0.427,0.694c-0.135,0.195-0.336,0.291-0.604,0.291h-5.24
			c-0.299,0-0.521-0.09-0.672-0.269s-0.299-0.507-0.448-0.985l-4.656-27.364c-0.061-0.297-0.143-0.507-0.247-0.626
			c-0.104-0.119-0.245-0.225-0.426-0.314c-0.238-0.118-0.471-0.358-0.692-0.716c-0.226-0.359-0.337-0.791-0.337-1.3v-1.926h8.15
			v1.926c0,0.538-0.098,0.972-0.291,1.3c-0.194,0.328-0.41,0.567-0.648,0.716c-0.27,0.15-0.344,0.464-0.225,0.94l3.136,23.514
			l3.403-23.514c0-0.477-0.135-0.79-0.403-0.94c-0.238-0.148-0.464-0.388-0.673-0.716s-0.313-0.762-0.313-1.3v-1.926H1176.575
			L1176.575,276.395z"/>
		<path fill="#F2DDBD" d="M1185.084,280.986c-0.119,0.134-0.18,0.276-0.18,0.425v8.465c0,0.419,0.21,0.627,0.627,0.627h5.194
			c0.148,0,0.307,0.053,0.472,0.156c0.163,0.105,0.245,0.276,0.245,0.515v3.136c0,0.419-0.224,0.626-0.671,0.626h-5.24
			c-0.418,0-0.627,0.21-0.627,0.628v9.494c0,0.209,0.073,0.375,0.224,0.493c0.149,0.12,0.3,0.179,0.448,0.179h3.896
			c0.298,0,0.493-0.179,0.581-0.537c0.149-0.656,0.44-1.104,0.874-1.344c0.434-0.238,0.992-0.358,1.68-0.358h1.567v5.329
			c0,0.33-0.112,0.598-0.336,0.807c-0.225,0.21-0.501,0.313-0.828,0.313h-2.776h-9.404h-2.688v-1.791
			c0-0.656,0.083-1.157,0.247-1.501c0.164-0.342,0.396-0.589,0.694-0.738c0.148-0.06,0.282-0.18,0.401-0.358
			c0.119-0.178,0.18-0.374,0.18-0.583v-23.512c0-0.477-0.208-0.82-0.626-1.03c-0.27-0.148-0.485-0.381-0.649-0.694
			s-0.247-0.769-0.247-1.366v-1.926h14.603c0.328,0,0.647,0.128,0.962,0.381c0.313,0.254,0.471,0.501,0.471,0.739v5.061h-1.791
			c-0.627,0-1.12-0.148-1.479-0.448c-0.357-0.297-0.611-0.581-0.762-0.851c-0.148-0.358-0.463-0.537-0.939-0.537h-3.717
			C1185.337,280.784,1185.204,280.852,1185.084,280.986z"/>
		<g>
			<path fill="#F2DDBD" d="M1237.047,286.442c1.441,0,3.145-1.157,3.781-2.6c0.639-1.441,0-2.623-1.465-2.623
				c-1.441,0-3.119,1.182-3.781,2.623C1234.944,285.285,1235.607,286.442,1237.047,286.442z"/>
			<path fill="#F2DDBD" d="M1253.095,290.484c-3.45,4.489-6.521,6.617-9.003,7.728c0.143-0.52,0.283-1.087,0.377-1.678
				c0.355-1.771,0.945-4.727,0.945-4.727s4.35-3.711,0.214-3.428c-2.077,0.143-3.171,1.377-3.828,3.039
				c-2.204,2.145-7.246,6.923-7.99,7.549c-0.614,0.521-1.183,1.04-1.37,0.827c-0.188-0.188,0.448-1.488,0.804-2.127
				c1.017-1.913,4.396-8.2,4.396-8.2l-3.758,0.023c0,0-0.756,1.416-1.758,3.286c-2.451,2.357-5.959,5.677-6.588,6.19
				c-0.59,0.521-1.157,1.04-1.347,0.827c-0.188-0.188,0.426-1.488,0.78-2.127c1.016-1.913,1.536-2.883,2.15-3.993
				c1.606-3.002,0.164-4.207-1.653-4.207c-1.136,0-4.563,1.017-9.289,7.208l7.941-14.817h-3.733l-6.122,11.408
				c-2.749,2.304-6.309,5.222-6.879,5.701c-0.615,0.521-1.183,1.04-1.371,0.827c-0.188-0.188,0.449-1.488,0.804-2.127
				c0.401-0.756,1.82-3.403,3.381-6.333h2.813c0.401-0.757,0.639-1.205,0.639-1.205l-2.813,0.023
				c2.175-4.112,3.072-5.648,3.072-5.648h-3.759c0,0-0.731,1.276-3.071,5.648h-2.718c0,0-0.235,0.425-0.639,1.182h2.741
				c-2.481,4.608-5.012,9.358-5.482,10.233c-1.348,2.457-0.638,3.592,0.921,3.592c0.992,0,2.27-0.566,4.324-2.505
				c0.896-0.849,3.365-3.048,5.794-5.204l-4.138,7.709h3.733c3.072-5.672,9.384-11.58,10.729-11.58c0.805,0,0.521,1.04-0.472,2.859
				c-1.064,1.985-1.772,3.355-2.742,5.129c-1.323,2.457-0.639,3.592,0.922,3.592c0.969,0,2.292-0.566,4.324-2.505
				c0.896-0.841,3.076-3.008,5.213-5.146c-0.992,1.849-1.854,3.452-2.187,4.059c-1.348,2.457-0.638,3.592,0.922,3.592
				c0.993,0,2.271-0.566,4.325-2.505c1.359-1.291,5.772-5.709,8.393-8.346c-0.162,0.896-0.296,1.81-0.449,2.674
				c-0.214,1.11-0.402,1.961-0.64,2.67c-3.024,0.804-5.813,1.348-6.098,2.979c-0.377,2.056,1.701,2.528,3.167,2.528
				c2.41,0,4.821-0.779,6.428-4.915c3.073-1.489,7.729-4.964,9.855-8.154C1253.498,291.784,1253.663,290.011,1253.095,290.484z
				 M1238.088,303.01c-0.59,0.804-1.772,0.993-1.605,0.118c0.094-0.496,1.134-0.875,2.504-1.3
				C1238.679,302.301,1238.373,302.632,1238.088,303.01z"/>
		</g>
		<path fill="#F2DDBD" d="M1280.442,278.587v11.646h-6.765l-0.716-4.838h-6.897v5.375h5.018v6.809h-5.018v5.285l3.001,0.358v6.718
			H1256.3v-6.629l3.001-0.402v-17.245l-3.001-0.357v-6.719L1280.442,278.587L1280.442,278.587z"/>
		<path fill="#F2DDBD" d="M1281.335,309.939v-6.763l2.688-0.313l6.493-18.051l-2.82-0.18v-6.001h15.228l8.6,24.276l2.51,0.269v6.763
			h-12.676v-6.763l2.283-0.269l-0.671-1.971h-10.481l-0.718,2.016l2.24,0.224v6.763H1281.335z M1300.549,294.174l-2.775-7.928
			l-2.866,7.928H1300.549z"/>
		<path fill="#F2DDBD" d="M1335.572,289.382l4.747-10.75h13.258v6.674l-2.956,0.313v17.335l2.956,0.402v6.584h-12.675v-6.674
			l2.956-0.357v-16.08l-5.867,12.721h-4.793l-5.867-12.676v16.035l2.956,0.357v6.674h-12.676v-6.584l2.956-0.402v-17.335
			l-2.956-0.313v-6.674h13.258L1335.572,289.382z"/>
		<path fill="#F2DDBD" d="M1357.157,309.939v-6.629l3.002-0.402v-17.245l-3.002-0.313v-6.764h24.23v11.69h-6.763l-0.718-4.883
			h-6.987v5.375h5.105v6.809h-5.105v5.599h6.987l0.718-4.883h6.763v11.646H1357.157z"/>
	</g>
	<g>
		<path fill="#F2DDBD" d="M1509.715,305.058c0,0.299,0.038,0.509,0.112,0.628s0.187,0.239,0.336,0.357
			c0.239,0.18,0.478,0.434,0.717,0.762c0.239,0.329,0.359,0.747,0.359,1.254v1.881h-8.331v-1.881c0-0.507,0.119-0.925,0.357-1.254
			c0.238-0.328,0.479-0.582,0.718-0.762c0.119-0.118,0.216-0.238,0.29-0.357s0.127-0.298,0.156-0.538v-0.09v-23.691
			c0-0.297-0.043-0.507-0.134-0.627c-0.09-0.119-0.193-0.238-0.313-0.358c-0.239-0.18-0.479-0.433-0.718-0.761
			s-0.357-0.746-0.357-1.255v-1.926h8.331v1.926c0,0.509-0.12,0.927-0.359,1.255s-0.478,0.581-0.717,0.761
			c-0.149,0.12-0.262,0.239-0.336,0.358c-0.074,0.12-0.112,0.33-0.112,0.627V305.058z"/>
		<path fill="#F2DDBD" d="M1540.169,303.49v5.284c0,0.359-0.119,0.643-0.358,0.852c-0.237,0.21-0.478,0.313-0.717,0.313h-15.137
			v-1.881c0-0.656,0.089-1.156,0.269-1.5c0.181-0.343,0.417-0.59,0.716-0.739c0.149-0.06,0.285-0.164,0.404-0.313
			c0.118-0.15,0.18-0.33,0.18-0.539v-23.691c0-0.269-0.045-0.463-0.135-0.582c-0.09-0.119-0.194-0.224-0.313-0.313
			c-0.239-0.18-0.479-0.433-0.719-0.761c-0.238-0.328-0.357-0.746-0.357-1.255v-1.926h8.286v1.926c0,0.509-0.119,0.927-0.358,1.255
			s-0.479,0.581-0.717,0.761c-0.149,0.09-0.262,0.194-0.336,0.313c-0.074,0.119-0.111,0.329-0.111,0.627v23.826
			c0,0.419,0.208,0.627,0.626,0.627h3.539c0.417,0,0.731-0.193,0.938-0.582c0.149-0.299,0.404-0.656,0.763-1.075
			c0.357-0.417,0.864-0.627,1.522-0.627L1540.169,303.49L1540.169,303.49z"/>
		<path fill="#F2DDBD" d="M1550.561,310.298c-1.105,0-2.145-0.134-3.113-0.403c-0.971-0.269-1.822-0.687-2.553-1.254
			c-0.731-0.566-1.313-1.275-1.746-2.127c-0.435-0.851-0.649-1.843-0.649-2.978v-20.781c0-1.135,0.216-2.127,0.649-2.979
			c0.433-0.851,1.015-1.553,1.746-2.104c0.729-0.553,1.582-0.97,2.553-1.255c0.97-0.283,2.008-0.425,3.113-0.425
			c1.104,0,2.148,0.142,3.135,0.425c0.983,0.285,1.843,0.702,2.574,1.255c0.731,0.552,1.313,1.254,1.746,2.104
			c0.435,0.852,0.65,1.844,0.65,2.979v20.781c0,1.135-0.217,2.127-0.65,2.978c-0.434,0.852-1.015,1.561-1.746,2.127
			c-0.731,0.567-1.591,0.985-2.574,1.254C1552.709,310.164,1551.665,310.298,1550.561,310.298z M1553.425,283.292
			c0-1.165-0.269-1.948-0.806-2.351s-1.225-0.605-2.061-0.605c-0.806,0-1.479,0.202-2.016,0.605
			c-0.538,0.402-0.807,1.186-0.807,2.351v19.706c0,1.164,0.269,1.956,0.807,2.374c0.537,0.418,1.21,0.626,2.016,0.626
			c0.835,0,1.522-0.23,2.061-0.694c0.537-0.462,0.806-1.291,0.806-2.485V283.292z"/>
		<path fill="#F2DDBD" d="M1580.745,276.395v1.926c0,0.509-0.112,0.927-0.336,1.255c-0.224,0.329-0.455,0.582-0.694,0.761
			c-0.148,0.09-0.275,0.21-0.38,0.358c-0.104,0.15-0.188,0.344-0.248,0.582c-0.924,5.105-1.745,9.689-2.461,13.749
			c-0.33,1.732-0.636,3.427-0.918,5.084c-0.285,1.656-0.546,3.135-0.785,4.435c-0.239,1.298-0.433,2.343-0.582,3.134
			c-0.149,0.792-0.224,1.202-0.224,1.231c-0.149,0.27-0.291,0.501-0.427,0.694c-0.135,0.195-0.337,0.291-0.604,0.291h-5.24
			c-0.299,0-0.521-0.09-0.671-0.269c-0.15-0.179-0.3-0.507-0.448-0.985l-4.657-27.364c-0.061-0.297-0.143-0.507-0.246-0.626
			c-0.105-0.119-0.246-0.225-0.426-0.314c-0.238-0.118-0.47-0.358-0.694-0.716c-0.225-0.359-0.336-0.791-0.336-1.3v-1.926h8.15
			v1.926c0,0.538-0.097,0.972-0.291,1.3c-0.193,0.328-0.411,0.567-0.648,0.716c-0.269,0.15-0.345,0.464-0.225,0.94l3.136,23.514
			l3.403-23.514c0-0.477-0.134-0.79-0.402-0.94c-0.24-0.148-0.464-0.388-0.673-0.716s-0.313-0.762-0.313-1.3v-1.926H1580.745
			L1580.745,276.395z"/>
		<path fill="#F2DDBD" d="M1589.253,280.986c-0.119,0.134-0.179,0.276-0.179,0.425v8.465c0,0.419,0.208,0.627,0.627,0.627h5.195
			c0.147,0,0.306,0.053,0.471,0.156c0.164,0.105,0.246,0.276,0.246,0.515v3.136c0,0.419-0.226,0.626-0.672,0.626h-5.24
			c-0.419,0-0.627,0.21-0.627,0.628v9.494c0,0.209,0.074,0.375,0.225,0.493c0.148,0.12,0.298,0.179,0.447,0.179h3.896
			c0.298,0,0.493-0.179,0.582-0.537c0.148-0.656,0.44-1.104,0.874-1.344c0.434-0.238,0.991-0.358,1.681-0.358h1.565v5.329
			c0,0.33-0.11,0.598-0.336,0.807c-0.224,0.21-0.501,0.313-0.828,0.313h-2.775H1585h-2.688v-1.791c0-0.656,0.082-1.157,0.245-1.501
			c0.164-0.342,0.396-0.589,0.694-0.738c0.149-0.06,0.283-0.18,0.403-0.358c0.118-0.179,0.18-0.374,0.18-0.583v-23.512
			c0-0.477-0.21-0.82-0.627-1.03c-0.269-0.148-0.486-0.381-0.65-0.694s-0.245-0.769-0.245-1.366v-1.926h14.601
			c0.328,0,0.649,0.128,0.963,0.381c0.313,0.254,0.47,0.501,0.47,0.739v5.061h-1.791c-0.627,0-1.119-0.148-1.478-0.448
			c-0.358-0.297-0.613-0.581-0.763-0.851c-0.148-0.358-0.464-0.537-0.939-0.537h-3.717
			C1589.507,280.784,1589.373,280.852,1589.253,280.986z"/>
		<g>
			<path fill="#F2DDBD" d="M1641.216,286.442c1.442,0,3.145-1.157,3.782-2.6c0.637-1.441,0-2.623-1.466-2.623
				c-1.441,0-3.119,1.182-3.78,2.623C1639.114,285.285,1639.776,286.442,1641.216,286.442z"/>
			<path fill="#F2DDBD" d="M1657.265,290.484c-3.449,4.489-6.521,6.617-9.004,7.728c0.143-0.52,0.282-1.087,0.378-1.678
				c0.354-1.771,0.945-4.727,0.945-4.727s4.349-3.711,0.213-3.428c-2.077,0.143-3.17,1.377-3.828,3.039
				c-2.204,2.145-7.246,6.923-7.99,7.549c-0.613,0.521-1.182,1.04-1.37,0.827c-0.188-0.188,0.448-1.488,0.805-2.127
				c1.016-1.913,4.396-8.2,4.396-8.2l-3.758,0.023c0,0-0.757,1.416-1.758,3.286c-2.451,2.357-5.96,5.677-6.587,6.19
				c-0.591,0.521-1.158,1.04-1.347,0.827c-0.189-0.188,0.426-1.488,0.779-2.127c1.017-1.913,1.536-2.883,2.149-3.993
				c1.607-3.002,0.166-4.207-1.653-4.207c-1.135,0-4.562,1.017-9.287,7.208l7.939-14.817h-3.734l-6.121,11.408
				c-2.748,2.304-6.309,5.222-6.879,5.701c-0.614,0.521-1.182,1.04-1.369,0.827c-0.189-0.188,0.447-1.488,0.804-2.127
				c0.4-0.756,1.819-3.403,3.38-6.333h2.812c0.402-0.757,0.64-1.205,0.64-1.205l-2.813,0.023c2.174-4.112,3.072-5.648,3.072-5.648
				h-3.758c0,0-0.732,1.276-3.072,5.648h-2.718c0,0-0.236,0.425-0.639,1.182h2.74c-2.48,4.608-5.01,9.358-5.481,10.233
				c-1.349,2.457-0.639,3.592,0.921,3.592c0.992,0,2.27-0.566,4.324-2.505c0.895-0.849,3.364-3.048,5.795-5.204l-4.139,7.709h3.734
				c3.072-5.672,9.382-11.58,10.729-11.58c0.805,0,0.521,1.04-0.473,2.859c-1.063,1.985-1.771,3.355-2.741,5.129
				c-1.323,2.457-0.639,3.592,0.922,3.592c0.97,0,2.292-0.566,4.324-2.505c0.896-0.841,3.077-3.008,5.212-5.146
				c-0.992,1.849-1.854,3.452-2.185,4.059c-1.349,2.457-0.638,3.592,0.922,3.592c0.992,0,2.268-0.566,4.325-2.505
				c1.358-1.291,5.771-5.709,8.391-8.346c-0.162,0.896-0.295,1.81-0.449,2.674c-0.213,1.11-0.401,1.961-0.639,2.67
				c-3.024,0.804-5.813,1.348-6.098,2.979c-0.378,2.056,1.701,2.528,3.166,2.528c2.411,0,4.822-0.779,6.43-4.915
				c3.072-1.489,7.728-4.964,9.854-8.154C1657.667,291.784,1657.833,290.011,1657.265,290.484z M1642.257,303.01
				c-0.59,0.804-1.771,0.993-1.605,0.118c0.094-0.496,1.134-0.875,2.505-1.3C1642.849,302.301,1642.542,302.632,1642.257,303.01z"/>
		</g>
		<path fill="#F2DDBD" d="M1684.612,278.587v11.646h-6.766l-0.716-4.838h-6.896v5.375h5.017v6.809h-5.017v5.285l3.001,0.358v6.718
			h-12.767v-6.629l3.001-0.402v-17.245l-3.001-0.357v-6.719L1684.612,278.587L1684.612,278.587z"/>
		<path fill="#F2DDBD" d="M1685.504,309.939v-6.763l2.688-0.313l6.493-18.051l-2.82-0.18v-6.001h15.229l8.6,24.276l2.508,0.269
			v6.763h-12.675v-6.763l2.284-0.269l-0.672-1.971h-10.48l-0.717,2.016l2.239,0.224v6.763H1685.504z M1704.719,294.174l-2.776-7.928
			l-2.866,7.928H1704.719z"/>
		<path fill="#F2DDBD" d="M1739.741,289.382l4.748-10.75h13.258v6.674l-2.956,0.313v17.335l2.956,0.402v6.584h-12.676v-6.674
			l2.956-0.357v-16.08l-5.867,12.721h-4.793l-5.867-12.676v16.035l2.956,0.357v6.674h-12.676v-6.584l2.957-0.402v-17.335
			l-2.957-0.313v-6.674h13.259L1739.741,289.382z"/>
		<path fill="#F2DDBD" d="M1761.326,309.939v-6.629l3.001-0.402v-17.245l-3.001-0.313v-6.764h24.23v11.69h-6.764l-0.716-4.883
			h-6.987v5.375h5.105v6.809h-5.105v5.599h6.987l0.716-4.883h6.764v11.646H1761.326z"/>
	</g>
	<path fill="#F2DDBD" d="M1445.882,269.801c-12.872,0-23.344,10.472-23.344,23.344c0,12.873,10.472,23.345,23.344,23.345
		s23.345-10.472,23.345-23.345S1458.754,269.801,1445.882,269.801z M1461.501,303.363c-1.897-2.315-3.109-5.014-3.541-7.884h6.444
		C1464.044,298.362,1463.026,301.042,1461.501,303.363z M1427.36,295.479h6.38c-0.423,2.856-1.618,5.546-3.491,7.858
		C1428.733,301.022,1427.719,298.353,1427.36,295.479z M1430.249,282.95c1.875,2.313,3.068,5.003,3.491,7.859h-6.38
		C1427.719,287.938,1428.733,285.267,1430.249,282.95z M1448.218,290.81v-16.188c3.886,0.487,7.404,2.168,10.172,4.669
		c-2.902,3.297-4.68,7.272-5.15,11.519H1448.218L1448.218,290.81z M1443.547,290.81h-5.097c-0.479-4.227-2.249-8.181-5.138-11.464
		c2.777-2.532,6.32-4.233,10.233-4.724L1443.547,290.81L1443.547,290.81z M1438.45,295.479h5.098v16.188
		c-3.913-0.491-7.455-2.191-10.231-4.723C1436.202,303.66,1437.972,299.705,1438.45,295.479z M1448.218,295.479h5.03
		c0.488,4.237,2.273,8.199,5.183,11.483c-2.772,2.521-6.31,4.216-10.213,4.705V295.479z M1457.949,290.81
		c0.419-2.884,1.625-5.599,3.522-7.929c1.54,2.331,2.57,5.027,2.934,7.929H1457.949z"/>
	<path fill="#F2DDBD" d="M1040.162,269.801c-12.872,0-23.345,10.472-23.345,23.344c0,12.873,10.473,23.345,23.345,23.345
		s23.345-10.472,23.345-23.345C1063.506,280.272,1053.034,269.801,1040.162,269.801z M1055.78,303.363
		c-1.897-2.315-3.109-5.014-3.541-7.884h6.444C1058.323,298.362,1057.304,301.042,1055.78,303.363z M1021.638,295.479h6.38
		c-0.423,2.856-1.616,5.546-3.491,7.858C1023.012,301.022,1021.999,298.353,1021.638,295.479z M1024.527,282.95
		c1.875,2.313,3.067,5.003,3.49,7.859h-6.38C1021.999,287.938,1023.012,285.267,1024.527,282.95z M1042.497,290.81v-16.188
		c3.886,0.487,7.404,2.168,10.171,4.669c-2.901,3.297-4.679,7.272-5.151,11.519H1042.497L1042.497,290.81z M1037.827,290.81h-5.097
		c-0.479-4.227-2.252-8.181-5.138-11.464c2.776-2.532,6.319-4.233,10.233-4.724L1037.827,290.81L1037.827,290.81z M1032.729,295.479
		h5.099v16.188c-3.914-0.491-7.456-2.191-10.233-4.723C1030.48,303.66,1032.25,299.705,1032.729,295.479z M1042.497,295.479h5.031
		c0.486,4.237,2.272,8.199,5.183,11.483c-2.774,2.521-6.311,4.216-10.214,4.705V295.479z M1052.227,290.81
		c0.421-2.884,1.625-5.599,3.523-7.929c1.54,2.331,2.57,5.027,2.934,7.929H1052.227z"/>
</g>
<polyline fill="#E0C595" points="357.128,336.444 -17.618,336.444 -363.563,689.836 532.851,689.836 549.482,689.836 
	2341.921,689.836 1995.975,336.444 549.482,336.444 532.851,336.444 357.128,336.444 "/>
<path fill="#FFFFFF" d="M1243.192,531.604l-112.334-195.161h-18.096l69.99,142.043c-46.291-25.92-110.55-43.277-176.012-43.307
	c-65.462-0.028-129.555,17.265-175.599,43.122l68.625-141.859H881.67L771.213,531.316l0.625,0.001
	c-16.447,46.438,86.342,83.279,235.761,83.386c149.421,0.105,251.857-36.61,234.966-83.1L1243.192,531.604z M1006.803,448.219
	c84.206,0.039,168.063,31.027,194.975,70.32l-389.274-0.23C839.04,479.069,922.599,448.181,1006.803,448.219z M1007.537,601.666
	c-123.371-0.086-210.67-31.078-201.313-70.327l401.958,0.245C1217.913,570.866,1130.91,601.752,1007.537,601.666z"/>
<path fill="#FFFFFF" d="M1335.753,336.444h-14.803l158.399,176.84c25.511,28.48,36.521,56.104,30.908,82.098
	c-7.707,25.106-32.264,47.65-73.679,67c-44.573,19.35-103.833,34.527-175.444,45.117c-76.498,10.959-161.187,16.497-249.896,16.458
	c-88.711-0.038-173.485-5.647-250.156-16.671c-71.775-10.646-131.271-25.87-176.147-45.248
	c-41.716-19.374-66.625-41.924-74.723-67.023c-6.016-25.979,4.563-53.575,29.633-82.02L695.44,336.444h-14.809L517.607,512.987
	c-27.505,29.785-39.734,58.687-34.357,85.902c7.701,26.288,33.334,49.904,76.938,70.193c47.07,20.291,109.834,36.234,185.793,47.387
	c81.245,11.548,171.188,17.427,265.337,17.467c94.148,0.041,184.001-5.759,265.065-17.238
	c75.784-11.091,138.299-26.987,185.055-47.248c43.288-20.264,68.555-43.873,75.845-70.17c4.953-27.231-7.728-56.162-35.695-85.989
	L1335.753,336.444z"/>
</svg>
