<?xml version="1.0" encoding="utf-8"?>
<!-- Generator: Adobe Illustrator 16.0.0, SVG Export Plug-In . SVG Version: 6.00 Build 0)  -->
<!DOCTYPE svg PUBLIC "-//W3C//DTD SVG 1.1//EN" "http://www.w3.org/Graphics/SVG/1.1/DTD/svg11.dtd">
<svg version="1.1" id="Warstwa_1" xmlns="http://www.w3.org/2000/svg" xmlns:xlink="http://www.w3.org/1999/xlink" x="0px" y="0px"
	 width="24.82px" height="48.833px" viewBox="0 0 24.82 48.833" enable-background="new 0 0 24.82 48.833" xml:space="preserve">
<g>
	<path fill="#FFAD3B" d="M3.381,36.051L3.248,25.086l7.797-3.991c0.305-0.397,0.822,1.419,1.684,1.578
		c0.861-0.146,1.379-1.976,1.684-1.578l7.797,4.455l-0.504,10.501c0,0,2.506,8.128,2.506,12.186c-3.951,0-19.65,0-23.615,0
		C0.609,44.179,3.381,36.051,3.381,36.051z"/>
	<path fill="#231F20" d="M24.808,48.833H0v-0.597c0-3.925,2.439-11.297,2.771-12.278l-0.133-11.23l8.048-4.123
		c0.133-0.106,0.278-0.159,0.45-0.159c0.451,0,0.703,0.384,0.982,0.822c0.132,0.212,0.397,0.623,0.609,0.769
		c0.199-0.146,0.464-0.557,0.609-0.769c0.279-0.438,0.531-0.822,0.982-0.822c0.172,0,0.33,0.066,0.463,0.172l8.049,4.588
		l-0.518,10.767c0.305,0.994,2.506,8.354,2.506,12.265v0.597H24.808z M1.22,47.64h22.382c-0.213-4.084-2.44-11.337-2.467-11.416
		l-0.026-0.106l0.49-10.249l-7.187-4.097c-0.026,0.039-0.053,0.079-0.079,0.119c-0.331,0.517-0.782,1.22-1.512,1.353l-0.106,0.013
		l-0.105-0.013c-0.717-0.133-1.167-0.836-1.512-1.353c-0.026-0.04-0.053-0.093-0.08-0.133l-7.186,3.673l0.133,10.7l-0.041,0.093
		C3.924,36.316,1.458,43.569,1.22,47.64z"/>
</g>
<g>
	<path fill="#FFFFFF" d="M16.029,32.577c0,0.397-0.065,0.782-0.211,1.127c-0.133,0.345-0.332,0.663-0.598,0.941
		c0.252,0.278,0.451,0.584,0.598,0.941c0.133,0.345,0.211,0.729,0.211,1.127c0,0.438-0.078,0.836-0.238,1.207
		c-0.158,0.371-0.385,0.702-0.662,0.981c-0.279,0.278-0.61,0.503-0.995,0.662c-0.384,0.159-0.782,0.239-1.206,0.239h-1.035
		c-0.438,0-0.835-0.08-1.206-0.239s-0.702-0.384-0.981-0.662c-0.278-0.279-0.504-0.61-0.662-0.981
		c-0.16-0.371-0.239-0.782-0.239-1.207h2.068c0,0.292,0.106,0.53,0.306,0.729c0.198,0.199,0.45,0.305,0.729,0.305h1.034
		c0.292,0,0.53-0.105,0.729-0.305s0.305-0.451,0.305-0.729c0-0.291-0.105-0.53-0.305-0.729c-0.199-0.199-0.451-0.306-0.729-0.306
		h-1.034v-2.068h1.034c0.292,0,0.53-0.105,0.729-0.305s0.305-0.451,0.305-0.729c0-0.292-0.105-0.53-0.305-0.729
		c-0.199-0.198-0.451-0.305-0.729-0.305h-1.034c-0.291,0-0.53,0.106-0.729,0.305c-0.199,0.199-0.306,0.451-0.306,0.729H8.804
		c0-0.424,0.079-0.822,0.239-1.206c0.158-0.385,0.384-0.703,0.662-0.995c0.279-0.278,0.61-0.504,0.981-0.663
		s0.782-0.238,1.206-0.238h1.035c0.424,0,0.822,0.08,1.206,0.238c0.385,0.159,0.703,0.385,0.995,0.663
		c0.291,0.279,0.504,0.61,0.662,0.995C15.938,31.742,16.029,32.153,16.029,32.577z"/>
</g>
<g>
	<circle fill="#E3AD92" cx="21.678" cy="16.878" r="2.506"/>
	<path fill="#231F20" d="M21.678,19.981c-1.71,0-3.102-1.393-3.102-3.103c0-1.711,1.392-3.103,3.102-3.103
		c1.711,0,3.104,1.392,3.104,3.103C24.781,18.589,23.389,19.981,21.678,19.981z M21.678,14.969c-1.047,0-1.908,0.862-1.908,1.91
		c0,1.047,0.861,1.909,1.908,1.909c1.049,0,1.91-0.862,1.91-1.909C23.588,15.831,22.727,14.969,21.678,14.969z"/>
</g>
<g>
	<circle fill="#E3AD92" cx="3.857" cy="16.878" r="2.506"/>
	<path fill="#231F20" d="M3.857,19.981c-1.71,0-3.102-1.393-3.102-3.103c0-1.711,1.392-3.103,3.102-3.103
		c1.711,0,3.104,1.392,3.104,3.103C6.961,18.589,5.568,19.981,3.857,19.981z M3.857,14.969c-1.047,0-1.908,0.862-1.908,1.91
		c0,1.047,0.861,1.909,1.908,1.909c1.049,0,1.91-0.862,1.91-1.909C5.768,15.831,4.906,14.969,3.857,14.969z"/>
</g>
<g>
	<path fill="#E3AD92" d="M3.222,16.852c0,5.237,4.243,9.48,9.48,9.48l0,0c5.237,0,9.479-4.243,9.479-9.48v-3.805
		c0-5.237-4.242-9.48-9.479-9.48l0,0c-5.237,0-9.48,4.243-9.48,9.48v0.928v1.405V16.852z"/>
	<path fill="#231F20" d="M12.702,26.929c-5.556,0-10.077-4.521-10.077-10.077v-3.805c0-5.556,4.521-10.077,10.077-10.077
		s10.077,4.521,10.077,10.077v3.805C22.779,22.407,18.258,26.929,12.702,26.929z M12.702,4.163c-4.893,0-8.884,3.991-8.884,8.884
		v3.805c0,4.894,3.991,8.884,8.884,8.884s8.884-3.99,8.884-8.884v-3.805C21.586,8.141,17.595,4.163,12.702,4.163z"/>
</g>
<g>
	<path fill="#85531C" d="M12.702,3.566L12.702,3.566L12.702,3.566c-0.146,0-0.292,0-0.438,0.013c-0.026,0-0.066,0-0.106,0
		c-0.146,0.014-0.278,0.014-0.424,0.027c-0.014,0-0.027,0-0.053,0c-0.133,0.013-0.252,0.026-0.385,0.053
		c-0.027,0-0.066,0.014-0.094,0.014c-0.132,0.026-0.277,0.039-0.41,0.065c-0.027,0-0.053,0.014-0.066,0.014
		c-0.119,0.026-0.238,0.053-0.358,0.079c-0.026,0-0.053,0.014-0.079,0.014c-0.133,0.04-0.266,0.066-0.398,0.106
		C9.865,3.964,9.838,3.964,9.812,3.978c-0.119,0.04-0.239,0.079-0.358,0.119C9.44,4.097,9.427,4.11,9.4,4.11
		C9.268,4.163,9.148,4.203,9.016,4.256C8.989,4.27,8.963,4.282,8.937,4.296c-0.12,0.053-0.252,0.105-0.372,0.159c0,0,0,0-0.013,0
		C8.433,4.508,8.313,4.574,8.193,4.641C8.168,4.653,8.141,4.667,8.114,4.68C8.088,4.693,8.062,4.707,8.035,4.72
		c0,0-0.014,0.014-0.053,0.026c-0.041,0.026-0.066,0.04-0.107,0.066C7.16,5.211,4.057,6.523,1.326,1.896
		C1.087,4.839,2.359,7.199,4.229,8.671c-0.663,1.3-1.048,2.771-1.048,4.322v0.929v0.544c0,5.237,5.993,4.72,9.48,9.572
		c3.235-5.012,9.48-4.349,9.48-9.572v-1.473C22.182,7.81,17.939,3.566,12.702,3.566z"/>
	<path fill="#231F20" d="M12.729,25.152l-0.518-0.716c-1.405-1.963-3.301-3.037-4.984-3.979c-2.374-1.339-4.615-2.599-4.615-5.953
		v-1.472c0-1.458,0.305-2.851,0.902-4.163C1.537,7.133,0.53,4.614,0.756,1.883L0.901,0l0.954,1.617
		C3.049,3.646,4.481,4.72,6.006,4.72c0.77,0,1.365-0.278,1.592-0.397c0.025-0.014,0.066-0.04,0.092-0.054l0.066-0.039
		C7.77,4.216,7.796,4.203,7.81,4.203l0.119-0.066c0.146-0.08,0.265-0.146,0.384-0.199h0.014c0.119-0.053,0.238-0.119,0.385-0.172
		l0.093-0.04c0.146-0.066,0.278-0.106,0.397-0.159l0.053-0.014c0.12-0.039,0.252-0.093,0.372-0.132l0.093-0.027
		c0.146-0.039,0.278-0.079,0.424-0.119l0.08-0.013c0.133-0.027,0.252-0.066,0.385-0.093l0.079-0.014
		c0.146-0.026,0.292-0.053,0.438-0.08l0.093-0.013c0.133-0.014,0.266-0.04,0.411-0.053h0.054c0.132-0.014,0.291-0.027,0.45-0.04
		h0.106c0.172-0.014,0.318-0.014,0.464-0.014c5.556,0,10.077,4.521,10.077,10.077v1.472c0,3.288-2.215,4.508-4.562,5.808
		c-1.804,0.994-3.673,2.028-5.013,4.097L12.729,25.152z M2.028,3.911C2.32,5.635,3.222,7.159,4.627,8.247l0.385,0.305L4.786,8.989
		c-0.649,1.26-0.981,2.625-0.981,4.044v1.472c0,2.652,1.684,3.606,4.005,4.906c1.591,0.901,3.381,1.896,4.853,3.673
		c1.445-1.883,3.302-2.904,4.959-3.818c2.294-1.26,3.951-2.175,3.951-4.761v-1.472c0-4.893-3.99-8.884-8.884-8.884
		c-0.119,0-0.251,0-0.411,0.014h-0.092c-0.146,0.014-0.279,0.014-0.398,0.026h-0.039c-0.12,0.014-0.239,0.026-0.359,0.04
		L11.31,4.242c-0.132,0.027-0.265,0.04-0.384,0.066l-0.066,0.014c-0.119,0.026-0.226,0.053-0.332,0.079l-0.066,0.014
		c-0.119,0.026-0.252,0.066-0.371,0.106l-0.08,0.026C9.904,4.587,9.785,4.614,9.679,4.653l-0.04,0.014
		C9.533,4.707,9.414,4.76,9.281,4.813L9.215,4.839C9.082,4.893,8.977,4.945,8.857,4.998H8.844C8.751,5.052,8.631,5.104,8.512,5.171
		L8.366,5.25C8.354,5.264,8.34,5.264,8.326,5.277L8.313,5.29C8.273,5.304,8.247,5.33,8.207,5.343L8.193,5.356
		C7.822,5.556,7.041,5.9,6.02,5.9C4.945,5.939,3.474,5.542,2.028,3.911z"/>
</g>
<path fill="#231F20" d="M0.98,3.235c0,0,2.785,4.958,6.59,5.343c-3.115-1.339-4.76-4.813-4.76-4.813L0.98,3.235z"/>
</svg>
