<?xml version="1.0" encoding="utf-8"?>
<!-- Generator: Adobe Illustrator 16.0.0, SVG Export Plug-In . SVG Version: 6.00 Build 0)  -->
<!DOCTYPE svg PUBLIC "-//W3C//DTD SVG 1.1//EN" "http://www.w3.org/Graphics/SVG/1.1/DTD/svg11.dtd">
<svg version="1.1" id="Warstwa_1" xmlns="http://www.w3.org/2000/svg" xmlns:xlink="http://www.w3.org/1999/xlink" x="0px" y="0px"
	 width="25.537px" height="31.676px" viewBox="0 0 25.537 31.676" enable-background="new 0 0 25.537 31.676" xml:space="preserve">
<g>
	<g>
		<path fill="#E3AD92" d="M4.389,3.328C4.375,3.395,4.243,4.402,4.747,5.463C3.686,6.63,3.475,8.406,4.336,9.812
			c1.047,1.724,3.288,2.268,5.012,1.22c0.332-0.198,0.623-0.45,0.862-0.729c0.61,0.026,1.339-0.093,2.068-0.558
			c0.438-0.265,0.569-0.835,0.305-1.272V8.459c-0.278-0.438-0.849-0.57-1.272-0.292c-0.066,0.04-0.146,0.08-0.213,0.12
			c0.027-0.266,0.027-0.544-0.013-0.81c0.49-0.503,1.14-0.583,1.18-0.583c0.504-0.04,0.889-0.478,0.849-0.994
			c0-0.04-0.014-0.08-0.014-0.119c-0.092-0.451-0.504-0.782-0.98-0.743c-0.053,0-0.928,0.08-1.777,0.65
			c-0.053-0.066-0.105-0.133-0.158-0.199c0.212-0.994,1.127-1.353,1.18-1.366c0.438-0.146,0.689-0.597,0.609-1.034
			c-0.013-0.039-0.025-0.093-0.039-0.132c-0.159-0.491-0.689-0.743-1.18-0.584c-0.066,0.026-1.552,0.544-2.188,2.082
			C8.5,4.429,8.42,4.415,8.354,4.389c0.08-0.61,0.451-1.034,0.477-1.061c0.252-0.266,0.318-0.637,0.199-0.955
			C8.977,2.241,8.91,2.121,8.805,2.016C8.434,1.657,7.85,1.671,7.492,2.042c-0.054,0.053-0.916,0.981-0.995,2.36
			C6.444,4.415,6.404,4.429,6.352,4.441C6.205,4.004,6.245,3.633,6.245,3.593c0.054-0.357-0.106-0.689-0.384-0.888
			c-0.12-0.08-0.252-0.133-0.398-0.159C4.933,2.479,4.469,2.824,4.389,3.328z"/>
		<path fill="#231F20" d="M7.451,12.039c-1.445,0-2.758-0.742-3.514-1.976C3.05,8.605,3.169,6.723,4.217,5.396
			C3.806,4.336,3.925,3.381,3.938,3.275c0.107-0.677,0.689-1.193,1.379-1.193c0.066,0,0.133,0,0.199,0.013
			c0.213,0.026,0.411,0.106,0.598,0.239c0.145,0.105,0.277,0.225,0.371,0.371C6.775,2.135,7.094,1.79,7.16,1.724
			C7.426,1.445,7.783,1.3,8.168,1.3c0.357,0,0.703,0.132,0.968,0.384C9.295,1.83,9.414,2.016,9.48,2.214
			C9.52,2.307,9.533,2.413,9.547,2.506c0.557-0.411,1.034-0.57,1.074-0.583c0.146-0.054,0.291-0.08,0.451-0.08
			c0.596,0,1.127,0.385,1.313,0.941c0.025,0.066,0.039,0.133,0.053,0.199c0.119,0.676-0.266,1.326-0.915,1.551
			c-0.013,0-0.186,0.066-0.385,0.226c0.504-0.172,0.901-0.212,0.954-0.212c0.041,0,0.066,0,0.094,0c0.662,0,1.232,0.478,1.365,1.127
			c0.014,0.053,0.014,0.119,0.027,0.173c0.053,0.755-0.518,1.418-1.273,1.484l0,0c0,0-0.305,0.04-0.609,0.226
			c0.039,0,0.066,0,0.105,0c0.478,0,0.928,0.238,1.18,0.649l0.014,0.027c0.385,0.636,0.186,1.498-0.451,1.896
			c-0.649,0.411-1.365,0.623-2.107,0.623c-0.239,0.252-0.518,0.478-0.822,0.65C8.938,11.827,8.194,12.039,7.451,12.039z
			 M5.304,2.996c-0.226,0-0.425,0.173-0.464,0.398c0,0.013-0.133,0.928,0.318,1.869l0.133,0.278L5.078,5.768
			C4.137,6.802,3.991,8.366,4.721,9.573c0.583,0.954,1.604,1.524,2.718,1.524c0.583,0,1.153-0.159,1.657-0.464
			c0.279-0.172,0.531-0.385,0.756-0.637l0.146-0.172l0.225,0.014c0.04,0,0.08,0,0.133,0c0.597,0,1.167-0.159,1.671-0.491
			c0.212-0.133,0.278-0.424,0.146-0.637c-0.093-0.146-0.238-0.225-0.397-0.225c-0.093,0-0.173,0.026-0.252,0.065
			c-0.079,0.054-0.159,0.094-0.265,0.146l-0.743,0.331l0.079-0.809c0.027-0.238,0.027-0.478,0-0.716l-0.025-0.212l0.145-0.159
			c0.598-0.623,1.393-0.717,1.473-0.729c0.266-0.026,0.451-0.238,0.438-0.491c0-0.013,0-0.039-0.014-0.053
			c-0.039-0.226-0.252-0.385-0.49-0.371c-0.027,0-0.796,0.066-1.564,0.57l-0.358,0.238L9.932,5.953
			C9.892,5.9,9.838,5.848,9.785,5.781L9.627,5.608L9.68,5.383c0.252-1.232,1.352-1.67,1.472-1.71
			c0.226-0.08,0.345-0.292,0.305-0.518c0-0.026-0.013-0.039-0.013-0.065c-0.066-0.187-0.239-0.318-0.438-0.318
			c-0.054,0-0.106,0.013-0.146,0.026c-0.014,0-1.353,0.464-1.909,1.816L8.791,5.012L8.38,4.88C8.313,4.866,8.261,4.84,8.194,4.826
			L7.797,4.721L7.85,4.31C7.942,3.58,8.354,3.09,8.434,2.997C8.565,2.864,8.605,2.679,8.539,2.52
			C8.513,2.453,8.473,2.387,8.42,2.347C8.248,2.175,7.93,2.175,7.77,2.36C7.757,2.374,6.975,3.209,6.895,4.429L6.882,4.76
			L6.563,4.853c-0.04,0.014-0.079,0.027-0.133,0.04L5.993,5.025L5.848,4.601C5.662,4.058,5.715,3.594,5.729,3.54
			c0.026-0.186-0.053-0.345-0.199-0.45C5.477,3.05,5.41,3.023,5.33,3.01C5.357,3.01,5.33,2.996,5.304,2.996z"/>
	</g>
	<g>
		<path fill="#E3AD92" d="M5.503,29.581l1.073-1.087l0,0c0,0,0-0.014-0.013-0.014c-0.013-0.014-0.013-0.04-0.026-0.053
			c-0.04-0.093-0.119-0.239-0.213-0.451c-0.092-0.212-0.186-0.49-0.291-0.809s-0.199-0.703-0.278-1.114
			c-0.093-0.41-0.146-0.875-0.199-1.365c-0.04-0.49-0.066-1.021-0.053-1.564c0.013-0.544,0.04-1.114,0.119-1.697
			c0.013-0.146,0.04-0.292,0.054-0.438c0.025-0.146,0.053-0.292,0.065-0.438c0.04-0.292,0.106-0.583,0.159-0.875
			c0.119-0.584,0.278-1.167,0.438-1.737c0.172-0.57,0.358-1.127,0.557-1.657c0.053-0.133,0.094-0.266,0.146-0.397
			c0.053-0.133,0.105-0.266,0.158-0.385c0.107-0.252,0.199-0.504,0.318-0.742c0.106-0.239,0.213-0.478,0.318-0.703
			c0.106-0.226,0.213-0.438,0.318-0.649c0.106-0.213,0.199-0.411,0.292-0.597c0.106-0.186,0.198-0.358,0.278-0.53
			c0.093-0.159,0.172-0.318,0.252-0.465c0.08-0.146,0.159-0.265,0.226-0.384c0.265-0.464,0.425-0.743,0.425-0.743L3.686,7.65
			c0,0-0.145,0.332-0.384,0.915C3.235,8.711,3.169,8.87,3.104,9.043C3.037,9.229,2.957,9.414,2.877,9.626
			c-0.079,0.213-0.158,0.425-0.252,0.663c-0.092,0.238-0.172,0.478-0.252,0.742c-0.092,0.266-0.186,0.531-0.265,0.81
			s-0.173,0.57-0.265,0.875c-0.094,0.291-0.173,0.623-0.252,0.941c-0.041,0.159-0.08,0.318-0.133,0.49
			c-0.04,0.159-0.08,0.332-0.119,0.504c-0.16,0.677-0.292,1.379-0.412,2.095c-0.119,0.716-0.198,1.459-0.265,2.201
			c-0.026,0.371-0.054,0.743-0.066,1.127c0,0.186-0.013,0.371-0.013,0.558c0,0.186,0,0.371,0,0.557c0,0.742,0.066,1.472,0.133,2.188
			c0.079,0.703,0.198,1.393,0.344,2.028c0.146,0.65,0.318,1.247,0.504,1.804s0.385,1.047,0.598,1.485
			c0.198,0.438,0.396,0.809,0.582,1.127c0.187,0.305,0.346,0.557,0.465,0.729c0.066,0.093,0.133,0.173,0.159,0.226
			c0.053,0.08,0.053,0.08,0.065,0.08L5.503,29.581z"/>
		<path fill="#231F20" d="M3.262,31.676l-0.291-0.464c-0.014-0.014-0.027-0.04-0.054-0.066c-0.026-0.039-0.079-0.105-0.132-0.172
			L2.744,30.92c-0.158-0.225-0.33-0.49-0.503-0.769c-0.199-0.332-0.397-0.729-0.61-1.167c-0.212-0.438-0.41-0.968-0.609-1.538
			c-0.186-0.517-0.358-1.127-0.518-1.856c-0.146-0.649-0.266-1.353-0.357-2.095C0.053,22.673,0.014,21.931,0,21.241v-0.57
			l0.014-0.57c0-0.317,0.026-0.649,0.053-0.954l0.014-0.186c0.053-0.729,0.146-1.459,0.265-2.254
			c0.133-0.796,0.266-1.499,0.425-2.148l0.039-0.159c0.027-0.119,0.053-0.238,0.08-0.345l0.133-0.49
			c0.026-0.106,0.053-0.213,0.079-0.318c0.054-0.212,0.12-0.438,0.186-0.649l0.265-0.862c0.066-0.199,0.12-0.385,0.187-0.557
			c0.026-0.093,0.065-0.173,0.093-0.266c0.026-0.093,0.053-0.159,0.08-0.238c0.065-0.186,0.119-0.358,0.186-0.518l0.517-1.353
			l0.796-1.896l7.066,3.606l-0.968,1.657l-0.53,0.981c-0.053,0.105-0.119,0.226-0.172,0.345c-0.04,0.079-0.08,0.146-0.119,0.226
			c-0.027,0.066-0.066,0.146-0.107,0.225c-0.065,0.133-0.132,0.266-0.186,0.398l-0.317,0.702c-0.066,0.146-0.133,0.306-0.199,0.465
			c-0.04,0.093-0.066,0.186-0.106,0.265l-0.158,0.385c-0.027,0.066-0.054,0.146-0.08,0.238l-0.053,0.146
			c-0.186,0.477-0.358,0.994-0.544,1.617c-0.173,0.597-0.318,1.153-0.425,1.684l-0.039,0.186c-0.04,0.226-0.093,0.438-0.119,0.65
			c-0.027,0.159-0.053,0.291-0.066,0.438l-0.053,0.424c-0.066,0.491-0.094,1.008-0.106,1.631c0,0.53,0.013,1.048,0.053,1.498
			c0.054,0.544,0.12,0.955,0.187,1.3c0.079,0.411,0.172,0.77,0.265,1.061c0.093,0.306,0.186,0.558,0.265,0.756
			c0.094,0.226,0.16,0.371,0.186,0.411l0.358,0.689l-0.544,0.173c-0.158,0.159-0.504,0.504-0.689,0.689S5.9,30.059,5.82,30.125l0,0
			H5.808c-0.026,0.013-0.04,0.026-0.054,0.04L3.262,31.676z M1.193,20.657v0.544c0,0.649,0.053,1.339,0.133,2.122
			c0.08,0.702,0.199,1.365,0.332,1.962c0.158,0.689,0.317,1.246,0.49,1.737c0.186,0.543,0.385,1.021,0.57,1.432
			s0.385,0.769,0.557,1.074c0.133,0.226,0.252,0.397,0.331,0.53l1.512-0.941c0.054-0.054,0.133-0.133,0.226-0.239
			c0.212-0.212,0.371-0.371,0.504-0.504c-0.027-0.053-0.053-0.105-0.08-0.172c-0.092-0.226-0.199-0.517-0.305-0.861
			c-0.105-0.332-0.199-0.729-0.291-1.181c-0.08-0.385-0.146-0.835-0.213-1.432c-0.039-0.504-0.066-1.048-0.053-1.631
			c0.014-0.677,0.053-1.233,0.119-1.764l0.053-0.451c0.027-0.146,0.053-0.291,0.066-0.438c0.027-0.238,0.08-0.477,0.133-0.702
			l0.039-0.186c0.12-0.57,0.266-1.153,0.451-1.777c0.199-0.649,0.385-1.206,0.57-1.696l0.053-0.133
			c0.027-0.093,0.066-0.186,0.106-0.266l0.159-0.397c0.04-0.093,0.066-0.173,0.105-0.252c0.066-0.172,0.133-0.345,0.227-0.518
			l0.305-0.689c0.066-0.159,0.146-0.305,0.212-0.438c0.04-0.079,0.079-0.146,0.106-0.225c0.039-0.08,0.079-0.159,0.105-0.226
			c0.066-0.133,0.133-0.266,0.199-0.385l0.543-1.008l0.332-0.583l-4.8-2.453L3.66,9.308l-0.465,1.233
			c-0.053,0.146-0.105,0.318-0.172,0.478c-0.027,0.079-0.053,0.159-0.08,0.238c-0.026,0.08-0.066,0.173-0.092,0.266
			c-0.054,0.172-0.12,0.345-0.173,0.517l-0.265,0.876c-0.066,0.186-0.107,0.384-0.173,0.596c-0.026,0.106-0.054,0.213-0.079,0.318
			l-0.133,0.478c-0.027,0.093-0.054,0.199-0.066,0.318l-0.04,0.172c-0.146,0.624-0.278,1.3-0.397,2.056
			c-0.119,0.769-0.199,1.472-0.252,2.161L1.26,19.199c-0.026,0.305-0.039,0.61-0.053,0.901L1.193,20.657z"/>
	</g>
	<g>
		<polygon fill="#F1F2F2" points="8.446,14.347 10.475,10.767 3.395,7.253 1.737,11.085 		"/>
		
			<rect x="2.097" y="10.378" transform="matrix(-0.8927 -0.4506 0.4506 -0.8927 6.2899 23.4455)" fill="#99D2E4" width="7.677" height="1.193"/>
		<path fill="#231F20" d="M10.899,10.355c0.065,0.066,0.119,0.146,0.146,0.238c0.053,0.159,0.026,0.332-0.053,0.464l-2.029,3.58
			c-0.158,0.278-0.49,0.385-0.781,0.239l-6.723-3.262c-0.292-0.146-0.411-0.478-0.292-0.77l1.671-3.832
			c0.066-0.146,0.186-0.265,0.344-0.317c0.16-0.054,0.318-0.04,0.465,0.026l7.08,3.526C10.807,10.263,10.859,10.303,10.899,10.355z
			 M8.207,13.564l1.433-2.546L3.686,8.062l-1.193,2.731L8.207,13.564z"/>
	</g>
</g>
<g>
	<g>
		<path fill="#E3AD92" d="M23.761,2.731c0,0.066-0.054,1.087-0.743,2.028c0.822,1.339,0.717,3.129-0.397,4.35
			c-1.353,1.498-3.659,1.617-5.157,0.265c-0.292-0.265-0.531-0.557-0.717-0.875c-0.609-0.093-1.299-0.345-1.936-0.928
			c-0.371-0.346-0.397-0.929-0.053-1.3c0,0,0,0,0.014-0.014c0.344-0.371,0.941-0.397,1.313-0.053
			c0.066,0.053,0.119,0.106,0.186,0.146c0.025-0.265,0.079-0.543,0.158-0.795c-0.384-0.584-1.008-0.782-1.061-0.796
			c-0.49-0.133-0.782-0.636-0.649-1.127c0.013-0.04,0.026-0.079,0.04-0.106c0.172-0.424,0.637-0.676,1.1-0.557
			c0.054,0.014,0.902,0.239,1.631,0.968c0.066-0.053,0.133-0.105,0.199-0.159c-0.013-1.008-0.861-1.538-0.901-1.564
			c-0.397-0.225-0.569-0.716-0.411-1.127c0.014-0.039,0.04-0.079,0.066-0.133c0.252-0.45,0.822-0.609,1.26-0.357
			c0.066,0.04,1.418,0.822,1.764,2.453c0.066-0.014,0.146-0.014,0.225-0.027c0.041-0.609-0.252-1.087-0.265-1.127
			c-0.198-0.305-0.186-0.676-0.026-0.968c0.066-0.119,0.172-0.226,0.291-0.305c0.425-0.278,1.008-0.159,1.287,0.266
			c0.039,0.053,0.729,1.127,0.543,2.506c0.04,0.026,0.093,0.039,0.133,0.066c0.226-0.398,0.252-0.782,0.266-0.81
			c0.013-0.357,0.238-0.662,0.543-0.795c0.133-0.054,0.266-0.08,0.411-0.08C23.389,1.79,23.787,2.214,23.761,2.731z"/>
		<path fill="#231F20" d="M19.902,10.779c-1.021,0-2.002-0.371-2.758-1.061c-0.266-0.238-0.49-0.504-0.689-0.796
			c-0.742-0.146-1.393-0.49-1.963-1.007c-0.557-0.518-0.597-1.393-0.093-1.949l0.014-0.014c0.265-0.278,0.636-0.45,1.021-0.45
			c0.119,0,0.238,0.013,0.358,0.039c-0.266-0.238-0.558-0.331-0.57-0.331c-0.729-0.199-1.167-0.955-0.968-1.697
			c0.014-0.053,0.026-0.106,0.053-0.159c0.213-0.518,0.729-0.875,1.286-0.875c0.12,0,0.239,0.013,0.358,0.04
			c0.066,0.013,0.438,0.119,0.901,0.384c-0.159-0.198-0.331-0.291-0.345-0.305c-0.584-0.345-0.849-1.048-0.597-1.697
			c0.026-0.066,0.054-0.133,0.093-0.186c0.252-0.438,0.716-0.703,1.22-0.703c0.239,0,0.478,0.066,0.689,0.187
			c0.04,0.013,0.478,0.278,0.941,0.769c0.026-0.093,0.066-0.186,0.12-0.278c0.105-0.186,0.252-0.345,0.438-0.464
			C19.637,0.079,19.902,0,20.181,0c0.478,0,0.901,0.238,1.167,0.623c0.053,0.066,0.305,0.478,0.477,1.087
			c0.119-0.119,0.266-0.225,0.438-0.305c0.199-0.093,0.412-0.133,0.623-0.119c0.372,0.014,0.717,0.172,0.969,0.451
			c0.252,0.278,0.385,0.623,0.371,0.994c0,0.04-0.04,1.047-0.663,2.028c0.769,1.498,0.544,3.368-0.597,4.641
			C22.183,10.289,21.068,10.779,19.902,10.779z M15.447,6.431c-0.133,0-0.252,0.053-0.345,0.146
			c-0.173,0.186-0.159,0.491,0.026,0.65c0.477,0.438,1.047,0.716,1.684,0.809l0.226,0.026l0.106,0.199
			c0.158,0.278,0.371,0.543,0.623,0.756c0.583,0.53,1.339,0.821,2.135,0.821c0.901,0,1.764-0.384,2.373-1.047
			c0.941-1.048,1.088-2.612,0.345-3.806l-0.159-0.265l0.186-0.252c0.61-0.836,0.65-1.764,0.65-1.777c0-0.119-0.04-0.238-0.119-0.331
			c-0.08-0.093-0.199-0.146-0.318-0.146h-0.027c-0.066,0-0.133,0.014-0.186,0.04c-0.158,0.066-0.266,0.226-0.278,0.397
			c0,0.054-0.04,0.531-0.317,1.021L21.824,4.07l-0.397-0.212c-0.04-0.026-0.079-0.04-0.119-0.066l-0.306-0.146l0.041-0.332
			c0.158-1.22-0.465-2.188-0.479-2.188c-0.092-0.133-0.225-0.212-0.384-0.212c-0.093,0-0.173,0.026-0.252,0.079
			c-0.066,0.04-0.106,0.093-0.146,0.159c-0.094,0.146-0.08,0.332,0.013,0.491c0.066,0.119,0.385,0.676,0.345,1.405l-0.026,0.411
			l-0.411,0.026c-0.066,0-0.133,0.014-0.186,0.014l-0.424,0.053L19,3.143c-0.305-1.432-1.524-2.135-1.537-2.135
			c-0.066-0.04-0.146-0.066-0.226-0.066c-0.173,0-0.318,0.093-0.411,0.238c-0.014,0.027-0.027,0.04-0.027,0.066
			c-0.079,0.213,0,0.451,0.199,0.57c0.119,0.066,1.114,0.703,1.141,1.963v0.238l-0.186,0.146c-0.066,0.054-0.119,0.093-0.172,0.146
			l-0.318,0.291l-0.305-0.305c-0.65-0.637-1.393-0.835-1.433-0.849c-0.04-0.013-0.079-0.013-0.12-0.013
			c-0.186,0-0.357,0.119-0.424,0.291c-0.014,0.014-0.014,0.04-0.014,0.054c-0.065,0.238,0.08,0.503,0.332,0.569
			c0.093,0.027,0.849,0.266,1.326,0.995l0.119,0.186l-0.066,0.212c-0.066,0.226-0.119,0.464-0.133,0.703L16.68,7.253l-0.662-0.464
			c-0.094-0.066-0.173-0.12-0.239-0.186C15.686,6.471,15.566,6.431,15.447,6.431z"/>
	</g>
	<g>
		<path fill="#E3AD92" d="M17.794,28.321c0,0-0.849-1.272-0.862-1.26l0,0l0.014-0.013c0.014-0.014,0.026-0.026,0.04-0.054
			c0.065-0.079,0.159-0.212,0.292-0.41c0.132-0.187,0.277-0.438,0.438-0.743c0.158-0.292,0.318-0.649,0.477-1.047
			c0.159-0.398,0.305-0.836,0.451-1.313c0.133-0.477,0.252-0.994,0.345-1.524c0.093-0.544,0.159-1.101,0.198-1.684
			c0.014-0.146,0.014-0.292,0.027-0.438c0-0.146,0.014-0.292,0.014-0.438c0.013-0.292,0-0.597,0-0.889
			c-0.014-0.597-0.054-1.193-0.107-1.776c-0.065-0.584-0.132-1.167-0.238-1.725c-0.026-0.146-0.039-0.278-0.066-0.41
			c-0.025-0.133-0.053-0.279-0.079-0.411c-0.054-0.266-0.106-0.53-0.173-0.782s-0.119-0.504-0.186-0.743
			c-0.053-0.238-0.133-0.478-0.186-0.689c-0.066-0.226-0.119-0.438-0.186-0.636c-0.066-0.199-0.119-0.398-0.186-0.57
			c-0.053-0.186-0.105-0.345-0.159-0.504c-0.053-0.159-0.106-0.292-0.146-0.425c-0.186-0.517-0.279-0.809-0.279-0.809l6.392-1.883
			c0,0,0.079,0.358,0.212,0.968c0.027,0.159,0.066,0.332,0.106,0.518s0.065,0.397,0.106,0.609c0.039,0.213,0.079,0.451,0.119,0.689
			c0.039,0.239,0.079,0.504,0.119,0.782c0.039,0.266,0.08,0.544,0.119,0.849c0.026,0.292,0.066,0.597,0.093,0.915
			c0.04,0.305,0.054,0.637,0.079,0.968c0.014,0.159,0.027,0.332,0.041,0.504c0.013,0.173,0.013,0.345,0.025,0.518
			c0.027,0.689,0.027,1.405,0.014,2.135c-0.026,0.729-0.066,1.472-0.159,2.214c-0.04,0.371-0.079,0.742-0.146,1.114
			c-0.027,0.186-0.053,0.371-0.094,0.557c-0.039,0.186-0.065,0.371-0.105,0.544c-0.146,0.729-0.332,1.444-0.543,2.121
			c-0.213,0.676-0.451,1.326-0.717,1.936c-0.266,0.61-0.543,1.167-0.835,1.671s-0.57,0.955-0.862,1.353
			c-0.278,0.397-0.543,0.729-0.781,0.994c-0.239,0.266-0.438,0.478-0.598,0.623c-0.093,0.08-0.158,0.146-0.199,0.186
			c-0.065,0.066-0.065,0.066-0.079,0.066L17.794,28.321z"/>
		<path fill="#231F20" d="M19.598,30.788l-2.201-2.029l0,0c-0.094-0.093-0.186-0.238-0.318-0.438
			c-0.146-0.212-0.411-0.609-0.544-0.795l-0.517-0.279l0.49-0.623c0.039-0.053,0.133-0.172,0.266-0.371
			c0.119-0.172,0.265-0.411,0.41-0.689c0.146-0.265,0.305-0.597,0.451-0.981c0.133-0.331,0.278-0.729,0.424-1.259
			c0.119-0.438,0.239-0.929,0.332-1.459c0.105-0.61,0.159-1.127,0.186-1.617l0.026-0.425c0-0.146,0.014-0.292,0.014-0.424
			c0.013-0.226,0.013-0.438,0-0.663v-0.199c-0.014-0.53-0.04-1.101-0.106-1.724c-0.066-0.637-0.146-1.193-0.225-1.684l-0.027-0.159
			c-0.014-0.08-0.026-0.173-0.039-0.252l-0.08-0.398c-0.014-0.093-0.04-0.186-0.053-0.278c-0.027-0.172-0.066-0.331-0.106-0.478
			l-0.186-0.755c-0.04-0.146-0.079-0.292-0.119-0.425c-0.026-0.079-0.054-0.172-0.066-0.252c-0.026-0.079-0.04-0.159-0.066-0.238
			c-0.04-0.133-0.066-0.252-0.106-0.371l-0.331-1.062l-0.637-1.816l7.624-2.24l0.451,2.135l0.238,1.299
			c0.027,0.173,0.053,0.358,0.08,0.544c0.013,0.079,0.026,0.159,0.039,0.252c0.014,0.093,0.027,0.186,0.04,0.278
			c0.026,0.186,0.054,0.385,0.079,0.583l0.094,0.915c0.026,0.212,0.039,0.438,0.053,0.663c0.014,0.106,0.014,0.212,0.026,0.318
			l0.04,0.504c0.014,0.133,0.014,0.252,0.014,0.371v0.159c0.025,0.649,0.039,1.365,0.013,2.175
			c-0.026,0.809-0.079,1.551-0.159,2.267l-0.026,0.186c-0.04,0.318-0.079,0.637-0.133,0.969l-0.093,0.569l-0.105,0.544
			c-0.133,0.677-0.318,1.379-0.557,2.175c-0.227,0.729-0.479,1.392-0.743,2.002c-0.306,0.689-0.583,1.26-0.862,1.736
			c-0.305,0.531-0.609,1.008-0.889,1.406c-0.291,0.397-0.557,0.742-0.821,1.034c-0.212,0.252-0.438,0.478-0.623,0.663l-0.212,0.198
			c-0.027,0.026-0.053,0.054-0.066,0.066L19.598,30.788z M18.244,27.924l1.313,1.206c0.106-0.105,0.252-0.265,0.424-0.464
			c0.226-0.265,0.478-0.583,0.743-0.941c0.265-0.371,0.543-0.795,0.822-1.299c0.252-0.438,0.517-0.968,0.795-1.618
			c0.238-0.57,0.478-1.193,0.689-1.869c0.226-0.743,0.398-1.419,0.518-2.056l0.105-0.543l0.093-0.544
			c0.054-0.305,0.093-0.597,0.12-0.901l0.025-0.186c0.08-0.677,0.12-1.393,0.146-2.161c0.014-0.77,0.014-1.459-0.014-2.096V14.28
			c0-0.106-0.013-0.226-0.013-0.332l-0.04-0.49c-0.014-0.106-0.014-0.212-0.026-0.331c-0.013-0.213-0.026-0.411-0.054-0.61
			l-0.105-0.915c-0.014-0.186-0.053-0.357-0.066-0.544c-0.014-0.093-0.026-0.198-0.039-0.291c-0.014-0.08-0.027-0.159-0.041-0.252
			c-0.025-0.173-0.053-0.345-0.079-0.504l-0.265-1.432L23.15,7.862l-5.171,1.525l0.226,0.649l0.345,1.074
			c0.04,0.133,0.079,0.278,0.119,0.411c0.026,0.079,0.04,0.159,0.066,0.238c0.026,0.093,0.04,0.173,0.066,0.252
			c0.04,0.146,0.093,0.305,0.132,0.478l0.186,0.742c0.041,0.173,0.08,0.358,0.12,0.53c0.013,0.093,0.04,0.173,0.053,0.266
			l0.079,0.411c0.014,0.105,0.041,0.198,0.054,0.292l0.026,0.146c0.093,0.517,0.172,1.087,0.238,1.764
			c0.066,0.663,0.106,1.259,0.106,1.829v0.199c0,0.238,0.013,0.478,0,0.729c0,0.132-0.013,0.278-0.013,0.424v0.026l-0.027,0.438
			c-0.025,0.518-0.092,1.074-0.212,1.737c-0.106,0.583-0.226,1.114-0.358,1.591c-0.172,0.57-0.317,1.008-0.477,1.379
			c-0.172,0.425-0.345,0.796-0.504,1.101c-0.172,0.306-0.318,0.57-0.465,0.782c-0.039,0.054-0.065,0.106-0.105,0.146
			c0.119,0.186,0.278,0.411,0.398,0.583C18.139,27.765,18.219,27.871,18.244,27.924z"/>
	</g>
	<g>
		<polygon fill="#F1F2F2" points="17.728,12.809 16.402,8.91 23.999,6.762 24.928,10.846 		"/>
		
			<rect x="20.196" y="6.111" transform="matrix(-0.2767 -0.961 0.961 -0.2767 16.9844 32.6838)" fill="#99D2E4" width="1.193" height="7.677"/>
		<path fill="#231F20" d="M16.242,8.34l7.611-2.147c0.159-0.04,0.332-0.027,0.464,0.066c0.146,0.079,0.239,0.225,0.278,0.384
			l0.928,4.084c0.066,0.318-0.119,0.623-0.424,0.703l-7.213,1.962c-0.305,0.079-0.623-0.08-0.716-0.385l-1.326-3.897
			c-0.053-0.159-0.04-0.318,0.04-0.465c0.039-0.079,0.105-0.159,0.186-0.212C16.109,8.38,16.176,8.354,16.242,8.34z M24.225,10.408
			l-0.663-2.903l-6.391,1.803l0.941,2.771L24.225,10.408z"/>
	</g>
</g>
</svg>
