<?xml version="1.0" encoding="utf-8"?>
<!-- Generator: Adobe Illustrator 16.0.0, SVG Export Plug-In . SVG Version: 6.00 Build 0)  -->
<!DOCTYPE svg PUBLIC "-//W3C//DTD SVG 1.1//EN" "http://www.w3.org/Graphics/SVG/1.1/DTD/svg11.dtd">
<svg version="1.1" id="Warstwa_1" xmlns="http://www.w3.org/2000/svg" xmlns:xlink="http://www.w3.org/1999/xlink" x="0px" y="0px"
	 width="23.973px" height="22.195px" viewBox="0 0 23.973 22.195" enable-background="new 0 0 23.973 22.195" xml:space="preserve">
<g>
	<g>
		<path fill="#E3AD92" d="M7.73,18.351H1.631c0-9.188,1.644-13.524,1.71-13.869l5.967,1.233L6.325,5.092l2.983,0.609
			C9.308,5.794,7.73,9.812,7.73,18.351z"/>
		<rect x="1.79" y="12.158" fill="#FFFFFF" width="6.125" height="3.646"/>
		<path fill="#231F20" d="M1.034,18.351c0-9.241,1.657-13.644,1.724-13.988l0.12-0.583l7.146,1.472L9.905,5.834
			c-0.014,0.08-1.578,4.07-1.578,12.517v0.597H1.034V18.351z M8.619,6.179L3.805,5.185C3.434,7.173,2.281,10.156,2.228,17.74h4.906
			C7.2,10.767,8.274,8.102,8.619,6.179z"/>
		<g>
			<path fill="#FFAD3B" d="M12.438,0.597h-1.287L2.599,1.074c0,0-1.485,2.439-1.485,8.273c2.4,0,9.136,0,9.136,0L10.7,4.919
				l1.26,0.385l0.146-0.04C11.973,2.453,12.092,3.381,12.438,0.597z"/>
			<path fill="#231F20" d="M12.079,4.627l-0.119,0.04L10.223,4.15L9.759,8.737H1.671C1.75,4.097,2.718,3.063,3.036,1.645
				l8.128-0.451h1.193C12.397,0.796,12.45,0.397,12.504,0h-1.353L2.174,0.49L2.068,0.915C2.002,1.167,0.57,3.487,0.57,9.334v0.597
				H10.74l0.424-4.269c0,0,0.385,0.119,0.796,0.119c0.065,0,0.119,0,0.186-0.014C12.119,5.396,12.105,5.012,12.079,4.627z"/>
		</g>
		<g>
			<rect x="0.464" y="20.141" fill="#EFEDF2" width="8.313" height="1.591"/>
			<path fill="#231F20" d="M8.764,22.195h-8.3C0.212,22.195,0,21.983,0,21.731v-1.591c0-0.252,0.212-0.464,0.464-0.464h8.313
				c0.252,0,0.464,0.212,0.464,0.464v1.591C9.229,21.983,9.029,22.195,8.764,22.195z M0.928,21.268h7.385v-0.663H0.928V21.268z"/>
		</g>
		<g>
			<rect x="0.464" y="15.01" fill="#99D2E4" width="8.313" height="5.131"/>
			<path fill="#231F20" d="M8.764,20.604h-8.3C0.212,20.604,0,20.393,0,20.141V15.01c0-0.252,0.212-0.465,0.464-0.465h8.313
				c0.252,0,0.464,0.213,0.464,0.465v5.131C9.229,20.393,9.029,20.604,8.764,20.604z M0.928,19.677h7.385v-4.203H0.928V19.677z"/>
		</g>
		<rect x="6.099" y="14.771" fill="#231F20" width="0.928" height="5.37"/>
		<rect x="2.426" y="14.771" fill="#231F20" width="0.928" height="5.37"/>
	</g>
</g>
<g>
	<g>
		<path fill="#E3AD92" d="M16.242,18.351h6.1c0-9.188-1.645-13.524-1.711-13.869l-5.967,1.233l2.984-0.623l-2.984,0.609
			C14.664,5.794,16.242,9.812,16.242,18.351z"/>
		<rect x="16.057" y="12.158" fill="#FFFFFF" width="6.126" height="3.646"/>
		<path fill="#231F20" d="M22.938,18.947h-7.292v-0.597c0-8.446-1.565-12.437-1.578-12.517l-0.119-0.583l7.146-1.472l0.119,0.583
			c0.066,0.345,1.724,4.747,1.724,13.988V18.947z M16.839,17.754h4.906c-0.054-7.584-1.206-10.581-1.578-12.557l-4.813,0.995
			C15.699,8.102,16.773,10.767,16.839,17.754z"/>
		<g>
			<path fill="#FFAD3B" d="M11.536,0.597h1.287l8.551,0.478c0,0,1.486,2.439,1.486,8.273c-2.4,0-9.137,0-9.137,0l-0.45-4.429
				l-1.26,0.385l-0.146-0.04C12,2.453,11.88,3.381,11.536,0.597z"/>
			<path fill="#231F20" d="M11.894,4.627l0.119,0.04L13.75,4.15l0.464,4.587h8.088c-0.079-4.641-1.048-5.675-1.366-7.093
				l-8.127-0.451h-1.194C11.575,0.796,11.522,0.397,11.469,0h1.353l8.976,0.49l0.106,0.425c0.066,0.252,1.498,2.572,1.498,8.419
				v0.597h-10.17l-0.424-4.269c0,0-0.385,0.119-0.796,0.119c-0.066,0-0.119,0-0.186-0.014C11.854,5.396,11.867,5.012,11.894,4.627z"
				/>
		</g>
		<g>
			<rect x="15.208" y="20.141" fill="#EFEDF2" width="8.313" height="1.591"/>
			<path fill="#231F20" d="M23.508,22.195h-8.313c-0.252,0-0.465-0.212-0.465-0.464v-1.591c0-0.252,0.213-0.464,0.465-0.464h8.313
				c0.252,0,0.465,0.212,0.465,0.464v1.591C23.973,21.983,23.773,22.195,23.508,22.195z M15.672,21.268h7.386v-0.663h-7.386V21.268z
				"/>
		</g>
		<g>
			<rect x="15.208" y="15.01" fill="#99D2E4" width="8.313" height="5.131"/>
			<path fill="#231F20" d="M23.508,20.604h-8.313c-0.252,0-0.465-0.212-0.465-0.464V15.01c0-0.252,0.213-0.465,0.465-0.465h8.313
				c0.252,0,0.465,0.213,0.465,0.465v5.131C23.973,20.393,23.773,20.604,23.508,20.604z M15.672,19.677h7.386v-4.203h-7.386V19.677z
				"/>
		</g>
		<rect x="16.945" y="14.771" fill="#231F20" width="0.928" height="5.37"/>
		<rect x="20.618" y="14.771" fill="#231F20" width="0.928" height="5.37"/>
	</g>
</g>
</svg>
