<?xml version="1.0" encoding="utf-8"?>
<!-- Generator: Adobe Illustrator 16.0.0, SVG Export Plug-In . SVG Version: 6.00 Build 0)  -->
<!DOCTYPE svg PUBLIC "-//W3C//DTD SVG 1.1//EN" "http://www.w3.org/Graphics/SVG/1.1/DTD/svg11.dtd">
<svg version="1.1" id="Warstwa_1" xmlns="http://www.w3.org/2000/svg" xmlns:xlink="http://www.w3.org/1999/xlink" x="0px" y="0px"
	 width="26.531px" height="53.368px" viewBox="0 0 26.531 53.368" enable-background="new 0 0 26.531 53.368" xml:space="preserve">
<g>
	<path fill="#FFAD3B" d="M3.62,40.586L3.487,29.621l7.796-3.991c0.306-0.397,0.822,1.419,1.685,1.578
		c0.861-0.146,1.379-1.976,1.684-1.578l7.796,4.455l-0.503,10.501c0,0,2.506,8.128,2.506,12.186c-3.951,0-19.65,0-23.615,0
		C0.849,48.714,3.62,40.586,3.62,40.586z"/>
	<path fill="#231F20" d="M25.06,53.368H0.252v-0.597c0-3.925,2.439-11.297,2.771-12.278l-0.133-11.23l8.048-4.123
		c0.133-0.106,0.278-0.159,0.451-0.159c0.451,0,0.703,0.384,0.981,0.822c0.132,0.212,0.397,0.623,0.609,0.769
		c0.199-0.146,0.464-0.557,0.61-0.769c0.278-0.438,0.53-0.822,0.98-0.822c0.173,0,0.332,0.066,0.465,0.172l8.048,4.588
		l-0.517,10.767c0.305,0.994,2.506,8.354,2.506,12.265v0.597H25.06z M1.458,52.175H23.84c-0.212-4.084-2.439-11.337-2.466-11.416
		l-0.027-0.106l0.491-10.249l-7.187-4.097c-0.026,0.039-0.053,0.079-0.08,0.119c-0.331,0.517-0.782,1.22-1.511,1.353l-0.106,0.013
		l-0.106-0.013c-0.716-0.133-1.166-0.836-1.511-1.353c-0.027-0.04-0.054-0.093-0.08-0.133L4.07,29.966l0.133,10.7l-0.04,0.093
		C4.163,40.852,1.697,48.104,1.458,52.175z"/>
</g>
<g>
	<path fill="#FFFFFF" d="M15.115,40.162v1.034h1.034v2.068h-4.137v-2.068h1.034v-1.034H8.91V38.08l2.691-5.145h2.334l-2.705,5.158
		h1.816v-2.068h2.068v2.068h1.034v2.068H15.115z"/>
</g>
<g>
	<g>
		<circle fill="#FFD1AE" cx="4.31" cy="19.637" r="2.506"/>
		<path fill="#231F20" d="M4.31,22.739c-1.711,0-3.104-1.392-3.104-3.103c0-1.71,1.393-3.103,3.104-3.103
			c1.71,0,3.103,1.393,3.103,3.103C7.412,21.348,6.02,22.739,4.31,22.739z M4.31,17.741c-1.048,0-1.91,0.861-1.91,1.909
			c0,1.047,0.862,1.909,1.91,1.909c1.047,0,1.909-0.862,1.909-1.909C6.219,18.59,5.356,17.741,4.31,17.741z"/>
	</g>
	<g>
		<circle fill="#FFD1AE" cx="22.13" cy="19.637" r="2.506"/>
		<path fill="#231F20" d="M22.13,22.739c-1.711,0-3.104-1.392-3.104-3.103c0-1.71,1.393-3.103,3.104-3.103
			c1.71,0,3.103,1.393,3.103,3.103C25.232,21.348,23.84,22.739,22.13,22.739z M22.13,17.741c-1.048,0-1.91,0.861-1.91,1.909
			c0,1.047,0.862,1.909,1.91,1.909c1.047,0,1.909-0.862,1.909-1.909C24.039,18.59,23.177,17.741,22.13,17.741z"/>
	</g>
	<g>
		<path fill="#FFD1AE" d="M22.766,20.512c0,5.237-4.243,9.48-9.48,9.48l0,0c-5.237,0-9.479-4.243-9.479-9.48v-3.805
			c0-5.237,4.242-9.48,9.479-9.48l0,0c5.237,0,9.48,4.243,9.48,9.48v0.928v1.405V20.512z"/>
		<path fill="#231F20" d="M13.285,30.589c-5.555,0-10.076-4.521-10.076-10.077v-3.805c0-5.556,4.521-10.077,10.076-10.077
			c5.556,0,10.077,4.521,10.077,10.077v3.805C23.362,26.067,18.841,30.589,13.285,30.589z M13.285,7.81
			c-4.893,0-8.883,3.991-8.883,8.884v3.806c0,4.893,3.99,8.884,8.883,8.884c4.894,0,8.884-3.991,8.884-8.884v-3.806
			C22.169,11.801,18.191,7.81,13.285,7.81z"/>
	</g>
	<g>
		<path fill="#D9B779" d="M22.143,9.745l-0.994-5.197l-3.209,2.016l-4.773-5.635L8.592,6.563L5.383,4.548L4.389,9.745l-3.54-1.166
			c0,0,3.036,12.132,3.036,8.91c3.858,4.415,7.956,9.321,9.388,9.321c1.671,0,5.927-5.211,9.388-9.321
			c0,3.222,3.036-8.91,3.036-8.91L22.143,9.745z"/>
		<path fill="#231F20" d="M13.272,27.394c-1.405,0-3.832-2.612-8.658-8.168C4.429,19,4.229,18.788,4.044,18.563
			c-0.079,0.027-0.172,0.054-0.278,0.054c-0.53,0-0.782-0.465-1.26-1.883c-0.265-0.796-0.597-1.896-0.981-3.275
			c-0.649-2.347-1.246-4.721-1.26-4.747L0,7.664l3.925,1.299L4.959,3.58l3.5,2.201L13.153,0l4.905,5.781l3.514-2.201l1.034,5.383
			l3.925-1.299l-0.265,1.047c0,0.027-0.597,2.4-1.26,4.747c-0.385,1.379-0.716,2.493-0.981,3.275
			c-0.478,1.418-0.729,1.883-1.26,1.883c-0.093,0-0.186-0.014-0.252-0.04c-0.039,0.04-0.079,0.093-0.105,0.133
			C17.992,23.959,14.982,27.394,13.272,27.394z M3.606,16.27l0.716,0.821c0.397,0.451,0.782,0.902,1.181,1.353
			c1.696,1.963,3.46,3.978,4.905,5.463c2.135,2.188,2.758,2.308,2.851,2.308c0.239,0,1.021-0.252,3.249-2.572
			c1.551-1.618,3.288-3.687,4.972-5.688c0.239-0.278,0.478-0.57,0.716-0.849l0.743-0.889c0.504-1.551,1.232-4.149,1.896-6.735
			l-3.155,1.048l-0.955-5.013l-2.917,1.83L13.166,1.87L8.711,7.359l-2.917-1.83L4.84,10.541L1.684,9.494
			C2.36,12.093,3.089,14.731,3.606,16.27z"/>
	</g>
</g>
</svg>
