<?xml version="1.0" encoding="utf-8"?>
<!-- Generator: Adobe Illustrator 16.0.0, SVG Export Plug-In . SVG Version: 6.00 Build 0)  -->
<!DOCTYPE svg PUBLIC "-//W3C//DTD SVG 1.1//EN" "http://www.w3.org/Graphics/SVG/1.1/DTD/svg11.dtd">
<svg version="1.1" id="Warstwa_1" xmlns="http://www.w3.org/2000/svg" xmlns:xlink="http://www.w3.org/1999/xlink" x="0px" y="0px"
	 width="47.483px" height="83.161px" viewBox="0 0 47.483 83.161" enable-background="new 0 0 47.483 83.161" xml:space="preserve">
<g>
	<path fill="#E0BC75" d="M4.616,76.942c-0.054,0-0.106-0.014-0.159-0.039c-0.199-0.094-0.292-0.332-0.199-0.531l0.637-1.418
		c0.093-0.199,0.331-0.292,0.53-0.199s0.292,0.332,0.199,0.53l-0.637,1.419C4.92,76.85,4.775,76.942,4.616,76.942z"/>
	<path fill="#E0BC75" d="M15.395,77.499c-0.026,0-0.04,0-0.066,0c-0.212-0.039-0.357-0.238-0.331-0.45l0.478-2.903
		c0.039-0.213,0.238-0.358,0.45-0.332c0.212,0.04,0.358,0.238,0.331,0.451l-0.477,2.903C15.753,77.366,15.581,77.499,15.395,77.499z
		"/>
	<path fill="#E0BC75" d="M20.248,74.596h-0.941c-0.226,0-0.397-0.173-0.397-0.397c0-0.226,0.172-0.398,0.397-0.398h0.941
		c0.226,0,0.398,0.173,0.398,0.398C20.646,74.423,20.473,74.596,20.248,74.596z"/>
	<path fill="#E0BC75" d="M18.219,74.596h-2.347c-0.226,0-0.397-0.173-0.397-0.397c0-0.226,0.172-0.398,0.397-0.398h2.347
		c0.226,0,0.397,0.173,0.397,0.398C18.617,74.423,18.431,74.596,18.219,74.596z"/>
	<path fill="#D3AA4C" d="M17.318,32.763c0,0,0.093-1.525,0.105-1.525l0,0c0,0-0.013,0-0.013-0.013c-0.014,0-0.04-0.013-0.054-0.026
		c-0.093-0.04-0.251-0.106-0.45-0.212c-0.199-0.106-0.464-0.238-0.742-0.424c-0.292-0.172-0.61-0.397-0.941-0.663
		c-0.346-0.252-0.689-0.57-1.048-0.915s-0.716-0.729-1.061-1.153c-0.345-0.425-0.689-0.875-1.021-1.353
		c-0.079-0.12-0.159-0.239-0.238-0.358c-0.08-0.12-0.159-0.252-0.226-0.372c-0.159-0.252-0.305-0.517-0.451-0.769
		c-0.291-0.517-0.557-1.061-0.795-1.591c-0.239-0.544-0.464-1.074-0.663-1.618c-0.053-0.133-0.106-0.265-0.146-0.398
		c-0.04-0.132-0.094-0.265-0.133-0.398c-0.08-0.265-0.186-0.517-0.252-0.769c-0.08-0.252-0.146-0.504-0.212-0.729
		C8.912,19.239,8.858,19,8.792,18.788c-0.053-0.226-0.119-0.438-0.158-0.636c-0.04-0.212-0.093-0.398-0.133-0.583
		s-0.08-0.358-0.119-0.517c-0.027-0.159-0.054-0.305-0.08-0.438c-0.105-0.531-0.159-0.835-0.159-0.835l-6.47,1.591
		c0,0,0.105,0.345,0.305,0.941c0.053,0.146,0.105,0.318,0.159,0.504C2.203,19,2.268,19.186,2.348,19.398
		c0.079,0.212,0.159,0.424,0.238,0.663c0.08,0.239,0.186,0.477,0.292,0.729s0.199,0.517,0.318,0.782
		c0.119,0.266,0.238,0.544,0.371,0.835c0.119,0.292,0.278,0.583,0.411,0.875c0.066,0.146,0.146,0.305,0.226,0.451
		c0.079,0.146,0.159,0.305,0.238,0.451c0.318,0.61,0.677,1.233,1.061,1.856c0.385,0.623,0.796,1.246,1.247,1.843
		c0.225,0.305,0.45,0.597,0.689,0.889c0.119,0.146,0.238,0.292,0.357,0.438c0.119,0.146,0.252,0.278,0.371,0.424
		c0.491,0.557,1.008,1.074,1.525,1.565c0.53,0.477,1.061,0.928,1.591,1.313c0.53,0.385,1.048,0.743,1.552,1.034
		c0.504,0.292,0.98,0.543,1.418,0.743c0.438,0.199,0.836,0.358,1.181,0.464c0.345,0.12,0.623,0.199,0.821,0.239
		c0.12,0.026,0.213,0.053,0.266,0.066c0.093,0.013,0.093,0.013,0.093,0.013L17.318,32.763z"/>
	<path fill="#B78E3D" d="M16.482,35.641c-0.026,0-0.053-0.014-0.105-0.027l-0.278-0.066c-0.266-0.066-0.558-0.146-0.876-0.252
		c-0.371-0.12-0.782-0.292-1.232-0.491c-0.451-0.199-0.941-0.464-1.472-0.769c-0.478-0.278-1.008-0.623-1.618-1.074
		c-0.53-0.397-1.074-0.849-1.644-1.366c-0.61-0.57-1.114-1.087-1.564-1.604L7.32,29.568l-0.357-0.451
		c-0.212-0.252-0.411-0.518-0.597-0.77l-0.106-0.146c-0.424-0.583-0.849-1.193-1.272-1.883c-0.425-0.689-0.77-1.299-1.074-1.883
		l-0.08-0.146c-0.053-0.106-0.119-0.212-0.172-0.332l-0.226-0.451c-0.04-0.093-0.093-0.199-0.146-0.292
		c-0.093-0.199-0.199-0.398-0.278-0.597l-0.372-0.835c-0.079-0.186-0.158-0.371-0.225-0.543c-0.04-0.093-0.066-0.172-0.106-0.266
		c-0.026-0.079-0.066-0.159-0.093-0.238c-0.066-0.172-0.133-0.345-0.199-0.504l-0.45-1.247l-0.677-2.068l7.717-1.883l0.358,1.883
		l0.238,1.087c0.026,0.132,0.066,0.252,0.093,0.384c0.026,0.08,0.04,0.159,0.066,0.226c0.026,0.08,0.04,0.172,0.066,0.252
		c0.04,0.146,0.066,0.292,0.119,0.424l0.226,0.742c0.04,0.146,0.093,0.305,0.146,0.464c0.027,0.093,0.066,0.186,0.093,0.278
		l0.133,0.385c0.026,0.08,0.054,0.159,0.093,0.239l0.054,0.146c0.172,0.478,0.384,0.981,0.649,1.578
		c0.265,0.57,0.517,1.074,0.769,1.551l0.106,0.172c0.106,0.199,0.212,0.384,0.331,0.57l0.226,0.372l0.239,0.358
		c0.265,0.411,0.583,0.822,0.98,1.299c0.345,0.411,0.689,0.782,1.021,1.101c0.397,0.384,0.716,0.649,0.994,0.875
		c0.331,0.252,0.623,0.464,0.889,0.623c0.265,0.159,0.504,0.305,0.702,0.398c0.226,0.106,0.358,0.172,0.411,0.186l0.716,0.292
		l-0.291,0.491c-0.014,0.226-0.054,0.716-0.066,0.968l-0.014,0.292c0,0.093-0.026,0.186-0.039,0.252h0.013l-0.889,2.851
		L16.482,35.641z M16.76,32.313c0.014-0.212,0.027-0.491,0.054-0.703c-0.054-0.026-0.106-0.053-0.159-0.079
		c-0.226-0.106-0.49-0.266-0.796-0.451c-0.292-0.186-0.636-0.411-0.994-0.689c-0.318-0.238-0.663-0.543-1.101-0.955
		c-0.358-0.345-0.729-0.743-1.113-1.193c-0.425-0.517-0.756-0.968-1.048-1.405l-0.199-0.305l-0.278-0.451
		c-0.133-0.212-0.252-0.424-0.371-0.623l-0.106-0.172c-0.278-0.504-0.543-1.034-0.821-1.644c-0.279-0.61-0.491-1.154-0.677-1.645
		l-0.053-0.132c-0.04-0.093-0.066-0.172-0.106-0.278l-0.133-0.398c-0.026-0.093-0.053-0.172-0.093-0.265
		c-0.053-0.172-0.119-0.345-0.172-0.517l-0.212-0.729c-0.054-0.159-0.094-0.318-0.133-0.477c-0.026-0.08-0.04-0.159-0.066-0.252
		c-0.014-0.08-0.04-0.159-0.053-0.226c-0.04-0.146-0.08-0.292-0.106-0.424l-0.252-1.1l-0.133-0.677l-5.237,1.286l0.266,0.822
		l0.45,1.233c0.054,0.146,0.12,0.305,0.186,0.464c0.027,0.08,0.066,0.159,0.093,0.239c0.04,0.093,0.08,0.186,0.106,0.278
		c0.066,0.159,0.133,0.332,0.212,0.504l0.371,0.849c0.08,0.172,0.159,0.358,0.266,0.557c0.053,0.106,0.093,0.199,0.146,0.292
		l0.213,0.438c0.053,0.093,0.105,0.199,0.159,0.292l0.079,0.146c0.292,0.557,0.637,1.153,1.034,1.816
		c0.411,0.663,0.809,1.247,1.22,1.803l0.106,0.146c0.186,0.252,0.357,0.491,0.557,0.716l0.238,0.292l0.465,0.544
		c0.424,0.49,0.914,0.981,1.484,1.512c0.53,0.477,1.048,0.915,1.538,1.272c0.57,0.411,1.062,0.743,1.499,0.995
		c0.49,0.292,0.954,0.53,1.365,0.703c0.411,0.186,0.796,0.332,1.127,0.451c0.252,0.08,0.451,0.146,0.597,0.186l0.53-1.697
		C16.734,32.578,16.748,32.458,16.76,32.313z"/>
	<path fill="#D3AA4C" d="M5.092,10.886c0,0,1.578-3.792,2.652-0.65c0.424,1.233-1.552,1.896-2.042,2.228"/>
	<path fill="#B78E3D" d="M5.703,12.928c0.093,0,0.186-0.027,0.265-0.08c0.066-0.053,0.226-0.12,0.372-0.212
		c0.742-0.384,2.307-1.193,1.843-2.559C8.049,9.692,7.665,8.552,6.763,8.512C6.233,8.499,5.729,8.87,5.212,9.666
		c-0.318,0.503-0.53,1.007-0.544,1.034c-0.093,0.238,0.014,0.504,0.252,0.61c0.238,0.093,0.504-0.013,0.609-0.252l0,0
		c0.345-0.835,0.929-1.604,1.193-1.604l0,0c0.093,0,0.332,0.199,0.57,0.928c0.186,0.557-0.583,1.021-1.392,1.432
		C5.703,11.92,5.543,12,5.424,12.079c-0.212,0.146-0.266,0.438-0.119,0.649C5.411,12.861,5.557,12.928,5.703,12.928z"/>
	<circle fill="#D3AA4C" cx="4.457" cy="14.054" r="3.991"/>
	<path fill="#B78E3D" d="M0.863,16.693c-1.458-1.976-1.021-4.773,0.955-6.232C2.586,9.891,3.501,9.6,4.457,9.6
		c1.418,0,2.758,0.676,3.593,1.816c0.703,0.955,0.994,2.135,0.809,3.315c-0.186,1.18-0.809,2.214-1.763,2.917
		c-0.77,0.57-1.685,0.862-2.639,0.862C3.038,18.51,1.699,17.833,0.863,16.693z M2.361,11.204c-1.564,1.153-1.909,3.368-0.755,4.932
		c0.662,0.902,1.724,1.445,2.851,1.445c0.756,0,1.472-0.239,2.081-0.689c0.756-0.557,1.26-1.379,1.406-2.307
		c0.146-0.928-0.08-1.87-0.65-2.625c-0.663-0.901-1.724-1.445-2.851-1.445C3.687,10.528,2.971,10.766,2.361,11.204z"/>
	<path fill="#D3AA4C" d="M3.237,10.7c0,0,1.577-3.792,2.651-0.65c0.425,1.233-1.552,1.896-2.042,2.228"/>
	<path fill="#B78E3D" d="M3.846,12.742c0.093,0,0.186-0.026,0.266-0.08c0.066-0.053,0.225-0.119,0.371-0.212
		c0.809-0.411,2.307-1.193,1.843-2.559C6.193,9.507,5.809,8.366,4.907,8.327C4.376,8.313,3.873,8.685,3.356,9.48
		c-0.318,0.504-0.53,1.008-0.544,1.034c-0.093,0.239,0.014,0.504,0.252,0.61c0.238,0.093,0.504-0.013,0.61-0.251l0,0
		c0.345-0.835,0.928-1.604,1.193-1.604l0,0c0.093,0,0.331,0.199,0.569,0.928c0.187,0.557-0.583,1.021-1.392,1.432
		c-0.199,0.106-0.358,0.186-0.478,0.266c-0.212,0.146-0.266,0.438-0.119,0.649C3.554,12.676,3.687,12.742,3.846,12.742z"/>
	<path fill="#D3AA4C" d="M1.606,11.336c0,0,1.577-3.792,2.651-0.65c0.425,1.233-1.552,1.896-2.042,2.228"/>
	<path fill="#B78E3D" d="M2.215,13.392c0.093,0,0.186-0.026,0.266-0.08c0.066-0.053,0.225-0.119,0.371-0.212
		c0.742-0.385,2.307-1.18,1.843-2.559c-0.133-0.385-0.517-1.525-1.419-1.564c-0.53-0.014-1.034,0.358-1.551,1.153
		c-0.318,0.504-0.53,1.008-0.544,1.034c-0.093,0.239,0.014,0.504,0.252,0.61c0.238,0.093,0.504-0.013,0.61-0.252
		c0.345-0.835,0.928-1.604,1.193-1.604l0,0c0.093,0,0.331,0.199,0.569,0.928c0.186,0.557-0.583,1.021-1.392,1.432
		c-0.199,0.106-0.358,0.186-0.478,0.265c-0.212,0.146-0.266,0.438-0.119,0.65C1.923,13.312,2.07,13.392,2.215,13.392z"/>
	<path fill="#D3AA4C" d="M0.492,13.551c0,0,0.093-4.11,2.228-1.564c0.835,0.994-0.769,2.333-1.101,2.811"/>
	<path fill="#B78E3D" d="M1.619,15.274c0.146,0,0.292-0.066,0.385-0.199c0.053-0.066,0.159-0.199,0.278-0.332
		c0.557-0.637,1.724-1.936,0.796-3.05c-0.252-0.305-1.034-1.233-1.896-0.941c-0.504,0.172-0.835,0.716-1.021,1.631
		c-0.12,0.583-0.133,1.141-0.133,1.154c0,0.252,0.199,0.464,0.45,0.477c0.252,0,0.465-0.199,0.478-0.451l0,0
		c0.026-0.902,0.278-1.843,0.544-1.936c0.079-0.026,0.385,0.066,0.875,0.663c0.385,0.451-0.172,1.154-0.769,1.83
		c-0.146,0.172-0.266,0.305-0.345,0.424c-0.146,0.212-0.093,0.504,0.119,0.65C1.447,15.248,1.54,15.274,1.619,15.274z"/>
	<path fill="#D3AA4C" d="M7.122,11.098c-1.088-1.153-2.268,0.04-2.798,0.849c-0.292,0.438-0.583,1.379-0.08,1.79
		c0.438,0.358,1.062,0.013,1.445-0.265"/>
	<path fill="#B78E3D" d="M4.695,14.359c0.331,0,0.756-0.132,1.272-0.517c0.213-0.146,0.252-0.438,0.094-0.649
		c-0.146-0.212-0.438-0.252-0.65-0.093c-0.318,0.225-0.702,0.424-0.888,0.278c-0.213-0.172-0.08-0.795,0.172-1.167
		c0.345-0.517,0.889-1.074,1.379-1.114c0.239-0.026,0.464,0.093,0.703,0.332c0.172,0.186,0.464,0.199,0.649,0.013
		c0.186-0.172,0.199-0.464,0.014-0.649c-0.544-0.57-1.088-0.65-1.445-0.61c-1.008,0.093-1.79,1.101-2.068,1.538
		c-0.425,0.637-0.703,1.817,0.013,2.4C4.098,14.227,4.35,14.359,4.695,14.359z"/>
	<polygon fill="#D3AA4C" points="9.601,19.305 8.792,15.274 1.141,17.224 2.388,21.214 	"/>
	<path fill="#B78E3D" d="M8.845,14.678c0.093,0.013,0.186,0.04,0.265,0.093c0.133,0.093,0.239,0.226,0.266,0.385l0.809,4.031
		c0.066,0.305-0.133,0.61-0.438,0.689l-7.213,1.922c-0.305,0.08-0.623-0.093-0.729-0.397l-1.246-3.991
		c-0.053-0.159-0.026-0.332,0.053-0.464c0.08-0.133,0.212-0.252,0.371-0.292l7.651-1.962C8.712,14.678,8.779,14.665,8.845,14.678z
		 M8.912,18.868l-0.57-2.864l-6.444,1.644l0.889,2.851L8.912,18.868z"/>
	<path fill="#D3AA4C" d="M28.535,64.015h6.1c0-9.188-1.645-13.523-1.711-13.869l-5.967,1.233l2.983-0.623l-2.983,0.61
		C26.957,51.472,28.535,55.489,28.535,64.015z"/>
	<path fill="#B78E3D" d="M35.231,64.611h-7.293v-0.597c0-8.445-1.564-12.437-1.578-12.517l-0.119-0.583l7.146-1.472l0.12,0.583
		c0.065,0.345,1.724,4.747,1.724,13.988V64.611z M29.131,63.419h4.906c-0.054-7.585-1.207-10.582-1.578-12.557l-4.813,0.994
		C27.991,53.778,29.065,56.444,29.131,63.419z"/>
	<path fill="#D3AA4C" d="M23.828,46.261h1.286l8.553,0.478c0,0,1.484,2.439,1.484,8.274c-2.399,0-9.136,0-9.136,0l-0.45-4.43
		l-1.26,0.385l-0.146-0.039C24.292,48.13,24.172,49.059,23.828,46.261z"/>
	<path fill="#B78E3D" d="M24.172,50.306l0.119,0.039l1.737-0.518l0.464,4.588h8.088c-0.079-4.641-1.047-5.675-1.365-7.094
		l-8.128-0.45h-1.193c-0.04-0.397-0.093-0.796-0.146-1.193h1.353l8.976,0.49l0.106,0.425c0.066,0.252,1.498,2.572,1.498,8.419v0.597
		H25.512l-0.425-4.27c0,0-0.385,0.119-0.796,0.119c-0.066,0-0.119,0-0.186-0.013C24.146,51.074,24.16,50.689,24.172,50.306z"/>
	<rect x="27.5" y="65.818" fill="#D3AA4C" width="8.313" height="1.591"/>
	<path fill="#B78E3D" d="M35.801,67.874h-8.313c-0.252,0-0.465-0.213-0.465-0.465v-1.591c0-0.252,0.213-0.464,0.465-0.464h8.313
		c0.252,0,0.464,0.212,0.464,0.464v1.591C36.265,67.661,36.066,67.874,35.801,67.874z M27.964,66.945h7.386v-0.663h-7.386V66.945z"
		/>
	<rect x="27.5" y="60.687" fill="#D3AA4C" width="8.313" height="5.132"/>
	<path fill="#B78E3D" d="M35.801,66.282h-8.313c-0.252,0-0.465-0.212-0.465-0.464v-5.132c0-0.252,0.213-0.464,0.465-0.464h8.313
		c0.252,0,0.464,0.212,0.464,0.464v5.132C36.265,66.07,36.066,66.282,35.801,66.282z M27.964,65.354h7.386v-4.203h-7.386V65.354z"/>
	<path fill="#D3AA4C" d="M29.702,62.583v-1.459c0-1.021,0.822-1.843,1.843-1.843l0,0c1.021,0,1.843,0.822,1.843,1.843v1.459"/>
	<path fill="#B78E3D" d="M27.686,65.5l-0.371-0.849l1.923-0.861v-3.342h0.928v3.646c0,0.186-0.106,0.345-0.278,0.424L27.686,65.5z"
		/>
	<path fill="#B78E3D" d="M35.39,65.5l-2.201-0.981c-0.173-0.079-0.278-0.238-0.278-0.424v-3.646h0.928v3.354l1.923,0.862L35.39,65.5
		z"/>
	<rect x="29.702" y="63.63" fill="#B78E3D" width="3.673" height="0.929"/>
	<path fill="#B78E3D" d="M33.838,62.583h-0.928v-1.459c0-0.756-0.623-1.379-1.379-1.379s-1.379,0.623-1.379,1.379v1.459h-0.929
		v-1.459c0-1.272,1.034-2.307,2.308-2.307c1.272,0,2.307,1.034,2.307,2.307V62.583z"/>
	<path fill="#D3AA4C" d="M20.022,64.015h-6.099c0-9.188,1.644-13.523,1.71-13.869l5.967,1.233l-2.983-0.623l2.983,0.61
		C21.6,51.472,20.022,55.489,20.022,64.015z"/>
	<path fill="#B78E3D" d="M13.327,64.015c0-9.241,1.657-13.644,1.724-13.988l0.119-0.583l7.146,1.472l-0.119,0.583
		c-0.013,0.08-1.578,4.071-1.578,12.517v0.597h-7.292V64.015z M20.911,51.856l-4.813-0.994c-0.372,1.988-1.525,4.972-1.578,12.557
		h4.906C19.492,56.444,20.566,53.778,20.911,51.856z"/>
	<path fill="#D3AA4C" d="M24.729,46.261h-1.286l-8.552,0.478c0,0-1.485,2.439-1.485,8.274c2.4,0,9.136,0,9.136,0l0.451-4.43
		l1.26,0.385l0.146-0.039C24.265,48.13,24.384,49.059,24.729,46.261z"/>
	<path fill="#B78E3D" d="M24.372,50.306l-0.119,0.039l-1.737-0.518l-0.464,4.588h-8.088c0.079-4.641,1.047-5.675,1.365-7.094
		l8.128-0.45h1.193c0.04-0.397,0.093-0.796,0.146-1.193h-1.352l-8.977,0.49l-0.106,0.425c-0.066,0.252-1.498,2.572-1.498,8.419
		v0.597h10.17l0.424-4.27c0,0,0.385,0.119,0.796,0.119c0.066,0,0.119,0,0.186-0.013C24.412,51.074,24.384,50.689,24.372,50.306z"/>
	<rect x="12.744" y="65.818" fill="#D3AA4C" width="8.313" height="1.591"/>
	<path fill="#B78E3D" d="M21.057,67.874h-8.313c-0.252,0-0.465-0.213-0.465-0.465v-1.591c0-0.252,0.213-0.464,0.465-0.464h8.313
		c0.252,0,0.464,0.212,0.464,0.464v1.591C21.521,67.661,21.309,67.874,21.057,67.874z M13.208,66.945h7.385v-0.663h-7.385V66.945z"
		/>
	<rect x="12.744" y="60.687" fill="#D3AA4C" width="8.313" height="5.132"/>
	<path fill="#B78E3D" d="M21.057,66.282h-8.313c-0.252,0-0.465-0.212-0.465-0.464v-5.132c0-0.252,0.213-0.464,0.465-0.464h8.313
		c0.252,0,0.464,0.212,0.464,0.464v5.132C21.521,66.07,21.309,66.282,21.057,66.282z M13.208,65.354h7.385v-4.203h-7.385V65.354z"/>
	<path fill="#D3AA4C" d="M18.856,62.583v-1.459c0-1.021-0.822-1.843-1.844-1.843l0,0c-1.021,0-1.843,0.822-1.843,1.843v1.459"/>
	<path fill="#B78E3D" d="M20.871,65.5l-2.2-0.981c-0.173-0.079-0.279-0.238-0.279-0.424v-3.646h0.929v3.354l1.923,0.862L20.871,65.5
		z"/>
	<path fill="#B78E3D" d="M13.167,65.5l-0.371-0.849l1.923-0.861v-3.342h0.928v3.646c0,0.186-0.106,0.345-0.278,0.424L13.167,65.5z"
		/>
	<rect x="15.183" y="63.63" fill="#B78E3D" width="3.673" height="0.929"/>
	<path fill="#B78E3D" d="M14.719,62.583h0.928v-1.459c0-0.756,0.623-1.379,1.379-1.379s1.379,0.623,1.379,1.379v1.459h0.928v-1.459
		c0-1.272-1.034-2.307-2.307-2.307s-2.307,1.034-2.307,2.307V62.583z"/>
	<path fill="#D3AA4C" d="M30.166,32.763c0,0-0.093-1.525-0.106-1.525l0,0c0,0,0.014,0,0.014-0.013c0.014,0,0.04-0.013,0.053-0.026
		c0.093-0.04,0.252-0.106,0.451-0.212c0.199-0.106,0.464-0.238,0.742-0.424c0.292-0.172,0.61-0.397,0.941-0.663
		c0.345-0.252,0.689-0.57,1.048-0.915s0.716-0.729,1.061-1.153c0.345-0.425,0.689-0.875,1.021-1.353
		c0.079-0.12,0.159-0.239,0.238-0.358c0.079-0.12,0.159-0.252,0.226-0.372c0.159-0.252,0.305-0.517,0.45-0.769
		c0.292-0.517,0.558-1.061,0.796-1.591c0.238-0.544,0.464-1.074,0.663-1.618c0.053-0.133,0.106-0.265,0.146-0.398
		c0.04-0.132,0.093-0.265,0.133-0.398c0.08-0.265,0.186-0.517,0.252-0.769c0.08-0.252,0.146-0.504,0.212-0.729
		c0.066-0.239,0.12-0.478,0.186-0.689c0.054-0.226,0.12-0.438,0.159-0.636c0.04-0.212,0.093-0.398,0.133-0.583
		s0.08-0.358,0.119-0.517c0.026-0.159,0.054-0.305,0.08-0.438c0.105-0.531,0.159-0.835,0.159-0.835l6.47,1.591
		c0,0-0.105,0.345-0.305,0.941c-0.053,0.146-0.105,0.318-0.159,0.504c-0.066,0.186-0.133,0.372-0.212,0.583
		c-0.08,0.212-0.159,0.424-0.238,0.663c-0.08,0.239-0.187,0.477-0.292,0.729c-0.106,0.252-0.199,0.517-0.318,0.782
		c-0.119,0.266-0.238,0.544-0.371,0.835c-0.119,0.292-0.278,0.583-0.411,0.875c-0.066,0.146-0.146,0.305-0.226,0.451
		c-0.079,0.146-0.159,0.305-0.238,0.451c-0.318,0.61-0.677,1.233-1.062,1.856c-0.384,0.623-0.795,1.246-1.246,1.843
		c-0.226,0.305-0.45,0.597-0.689,0.889c-0.119,0.146-0.238,0.292-0.357,0.438c-0.119,0.146-0.252,0.278-0.371,0.424
		c-0.491,0.557-1.008,1.074-1.525,1.565c-0.53,0.477-1.061,0.928-1.591,1.313c-0.53,0.385-1.048,0.743-1.552,1.034
		c-0.504,0.292-0.98,0.543-1.418,0.743c-0.438,0.199-0.836,0.358-1.181,0.464c-0.345,0.12-0.623,0.199-0.822,0.239
		c-0.119,0.026-0.212,0.053-0.265,0.066c-0.093,0.013-0.093,0.013-0.093,0.013L30.166,32.763z"/>
	<path fill="#B78E3D" d="M30.47,35.786l-0.888-2.851h0.013c-0.026-0.066-0.039-0.159-0.039-0.252l-0.014-0.292
		c-0.014-0.265-0.053-0.743-0.066-0.968l-0.292-0.49l0.717-0.292c0.053-0.026,0.198-0.08,0.41-0.186
		c0.199-0.093,0.438-0.226,0.703-0.397c0.266-0.159,0.557-0.372,0.889-0.624c0.278-0.212,0.597-0.491,0.994-0.875
		c0.332-0.318,0.677-0.689,1.021-1.101c0.397-0.477,0.702-0.901,0.98-1.299l0.239-0.358l0.225-0.372
		c0.12-0.186,0.226-0.371,0.332-0.57l0.106-0.172c0.265-0.464,0.517-0.981,0.769-1.551c0.266-0.583,0.478-1.101,0.649-1.578
		l0.054-0.146c0.026-0.08,0.065-0.159,0.093-0.239l0.132-0.385c0.027-0.093,0.066-0.186,0.093-0.278
		c0.054-0.159,0.106-0.318,0.146-0.464l0.226-0.743c0.039-0.146,0.079-0.278,0.119-0.424c0.026-0.093,0.04-0.172,0.066-0.252
		c0.013-0.066,0.039-0.146,0.066-0.226c0.039-0.132,0.065-0.265,0.093-0.384l0.238-1.087l0.358-1.883l7.717,1.883L45.944,19
		l-0.451,1.247c-0.065,0.159-0.132,0.332-0.198,0.504c-0.026,0.08-0.066,0.159-0.093,0.239c-0.04,0.093-0.066,0.172-0.106,0.265
		c-0.066,0.172-0.146,0.358-0.226,0.543l-0.371,0.835c-0.079,0.199-0.186,0.398-0.278,0.597c-0.053,0.093-0.093,0.186-0.146,0.292
		l-0.226,0.451c-0.053,0.119-0.119,0.225-0.173,0.331l-0.079,0.146c-0.305,0.583-0.663,1.207-1.074,1.883
		c-0.424,0.689-0.849,1.299-1.272,1.883l-0.106,0.146c-0.186,0.252-0.385,0.517-0.597,0.769l-0.357,0.451l-0.372,0.424
		c-0.45,0.517-0.968,1.034-1.564,1.604c-0.557,0.518-1.113,0.968-1.644,1.366c-0.61,0.451-1.141,0.795-1.618,1.074
		c-0.53,0.305-1.021,0.57-1.472,0.769s-0.861,0.371-1.233,0.491c-0.317,0.106-0.623,0.199-0.875,0.252l-0.278,0.066
		c-0.053,0.014-0.079,0.014-0.105,0.027L30.47,35.786z M30.75,32.644l0.53,1.697c0.146-0.04,0.357-0.106,0.597-0.186
		c0.331-0.106,0.702-0.265,1.127-0.451c0.411-0.186,0.875-0.424,1.365-0.703c0.438-0.252,0.929-0.583,1.498-0.995
		c0.491-0.371,1.008-0.795,1.538-1.273c0.57-0.53,1.062-1.034,1.485-1.511l0.464-0.544l0.239-0.292
		c0.198-0.239,0.371-0.478,0.557-0.716l0.106-0.146c0.41-0.543,0.809-1.14,1.22-1.803c0.397-0.663,0.742-1.247,1.034-1.816
		l0.079-0.146c0.054-0.093,0.106-0.199,0.159-0.292l0.212-0.438c0.04-0.093,0.093-0.199,0.146-0.292
		c0.093-0.199,0.186-0.371,0.265-0.557l0.371-0.849c0.08-0.172,0.146-0.332,0.213-0.504c0.039-0.093,0.079-0.186,0.105-0.278
		c0.027-0.08,0.066-0.159,0.093-0.239c0.066-0.159,0.133-0.318,0.186-0.464l0.451-1.233l0.266-0.822l-5.237-1.286l-0.133,0.676
		l-0.252,1.101c-0.026,0.146-0.066,0.278-0.106,0.424c-0.013,0.08-0.04,0.146-0.053,0.226c-0.026,0.093-0.04,0.172-0.066,0.252
		c-0.04,0.146-0.079,0.305-0.133,0.477l-0.212,0.729c-0.053,0.172-0.106,0.345-0.173,0.517c-0.026,0.08-0.053,0.172-0.093,0.265
		l-0.132,0.397c-0.04,0.106-0.066,0.186-0.106,0.279l-0.053,0.132c-0.186,0.491-0.398,1.034-0.677,1.645
		c-0.278,0.61-0.543,1.14-0.821,1.644l-0.106,0.172c-0.119,0.212-0.239,0.424-0.371,0.623l-0.278,0.451l-0.199,0.305
		c-0.292,0.438-0.623,0.888-1.048,1.405c-0.384,0.451-0.756,0.849-1.113,1.193c-0.438,0.411-0.782,0.716-1.101,0.955
		c-0.358,0.279-0.689,0.517-0.994,0.689c-0.306,0.186-0.57,0.332-0.796,0.451c-0.053,0.027-0.106,0.053-0.159,0.08
		c0.014,0.225,0.026,0.49,0.053,0.703C30.736,32.458,30.75,32.578,30.75,32.644z"/>
	<path fill="#D3AA4C" d="M33.189,39.923l0.133-10.965l-7.797-3.991c-0.305-0.397-0.822,1.419-1.684,1.578
		c-0.862-0.146-1.379-1.976-1.685-1.578l-7.796,4.455l0.504,10.501c0,0-2.506,8.128-2.506,12.186c3.951,0,19.649,0,23.614,0
		C35.959,48.038,33.189,39.923,33.189,39.923z"/>
	<path fill="#B78E3D" d="M36.556,52.705H11.749v-0.597c0-3.912,2.201-11.271,2.506-12.265l-0.517-10.767l8.048-4.588
		c0.133-0.119,0.292-0.172,0.464-0.172c0.451,0,0.703,0.384,0.981,0.822c0.133,0.212,0.398,0.623,0.61,0.769
		c0.198-0.146,0.464-0.557,0.609-0.769c0.278-0.438,0.53-0.822,0.981-0.822c0.159,0,0.318,0.053,0.451,0.159l8.048,4.124
		l-0.133,11.23c0.332,0.981,2.771,8.366,2.771,12.278v0.597H36.556z M12.968,51.512H35.35c-0.238-4.084-2.705-11.323-2.731-11.403
		l-0.04-0.093V39.91l0.133-10.594l-7.187-3.673c-0.026,0.04-0.053,0.093-0.079,0.132c-0.332,0.518-0.782,1.233-1.512,1.353
		l-0.106,0.013l-0.105-0.013c-0.717-0.132-1.167-0.835-1.512-1.353c-0.026-0.04-0.054-0.079-0.08-0.119l-7.187,4.097l0.491,10.25
		l-0.026,0.106C15.409,40.175,13.181,47.428,12.968,51.512z"/>
	<path fill="#D3AA4C" d="M29.039,25.484c0,4.349-2.36,8.95-5.264,8.95c-2.904,0-5.264-4.601-5.264-8.95s2.359-7.876,5.264-7.876
		C26.678,17.608,29.039,21.135,29.039,25.484z"/>
	<path fill="#B78E3D" d="M23.775,35.03c-1.591,0-3.103-1.113-4.243-3.155c-1.034-1.83-1.617-4.164-1.617-6.404
		c0-2.214,0.583-4.309,1.644-5.9c1.114-1.657,2.612-2.572,4.217-2.572s3.116,0.915,4.216,2.572c1.062,1.578,1.645,3.673,1.645,5.9
		c0,2.241-0.583,4.574-1.617,6.404C26.864,33.917,25.366,35.03,23.775,35.03z M23.775,18.205c-2.572,0-4.667,3.262-4.667,7.279
		c0,2.042,0.53,4.164,1.458,5.821c0.901,1.618,2.068,2.546,3.195,2.546s2.294-0.928,3.196-2.546
		c0.928-1.657,1.458-3.779,1.458-5.821C28.442,21.466,26.347,18.205,23.775,18.205z"/>
	<path fill="#D3AA4C" d="M42.39,10.886c0,0-1.577-3.792-2.651-0.65c-0.424,1.233,1.552,1.896,2.042,2.228"/>
	<path fill="#B78E3D" d="M41.781,12.928c-0.093,0-0.186-0.027-0.266-0.08c-0.065-0.053-0.225-0.12-0.371-0.212
		c-0.742-0.384-2.307-1.193-1.843-2.559c0.133-0.384,0.518-1.525,1.419-1.564c0.53-0.013,1.034,0.358,1.551,1.154
		c0.318,0.503,0.53,1.007,0.544,1.034c0.093,0.238-0.014,0.504-0.252,0.61c-0.238,0.093-0.504-0.013-0.61-0.252l0,0
		c-0.345-0.835-0.928-1.604-1.192-1.604l0,0c-0.094,0-0.332,0.199-0.57,0.928c-0.186,0.557,0.583,1.021,1.392,1.432
		c0.199,0.106,0.358,0.186,0.478,0.265c0.212,0.146,0.266,0.438,0.119,0.649C42.073,12.861,41.926,12.928,41.781,12.928z"/>
	<circle fill="#D3AA4C" cx="43.027" cy="14.054" r="3.991"/>
	<path fill="#B78E3D" d="M43.027,18.51c-0.954,0-1.869-0.305-2.639-0.862c-0.954-0.703-1.591-1.737-1.763-2.917
		c-0.187-1.18,0.105-2.36,0.809-3.315c0.835-1.14,2.174-1.816,3.593-1.816c0.955,0,1.87,0.305,2.639,0.862
		c1.976,1.458,2.413,4.243,0.955,6.232C45.785,17.833,44.446,18.51,43.027,18.51z M43.041,10.528c-1.127,0-2.188,0.543-2.851,1.445
		c-0.558,0.756-0.782,1.697-0.65,2.625c0.146,0.928,0.637,1.75,1.406,2.307c0.609,0.451,1.325,0.689,2.081,0.689
		c1.127,0,2.188-0.543,2.851-1.445c1.154-1.564,0.81-3.779-0.756-4.932C44.512,10.766,43.796,10.528,43.041,10.528z"/>
	<path fill="#D3AA4C" d="M44.247,10.7c0,0-1.577-3.792-2.651-0.65c-0.425,1.233,1.551,1.896,2.042,2.228"/>
	<path fill="#B78E3D" d="M43.637,12.742c-0.093,0-0.186-0.026-0.266-0.08c-0.066-0.053-0.226-0.119-0.371-0.212
		c-0.809-0.411-2.307-1.193-1.843-2.559c0.133-0.384,0.517-1.525,1.419-1.564c0.53-0.013,1.034,0.358,1.551,1.153
		c0.318,0.504,0.53,1.008,0.544,1.034c0.093,0.239-0.014,0.504-0.252,0.61c-0.239,0.093-0.504-0.013-0.61-0.251l0,0
		c-0.345-0.835-0.928-1.604-1.193-1.604l0,0c-0.093,0-0.331,0.199-0.57,0.928c-0.186,0.557,0.584,1.021,1.393,1.432
		c0.199,0.106,0.358,0.186,0.478,0.266c0.212,0.146,0.265,0.438,0.119,0.649C43.928,12.676,43.796,12.742,43.637,12.742z"/>
	<path fill="#D3AA4C" d="M45.877,11.336c0,0-1.577-3.792-2.651-0.65c-0.425,1.233,1.551,1.896,2.042,2.228"/>
	<path fill="#B78E3D" d="M45.268,13.392c-0.093,0-0.186-0.026-0.266-0.08c-0.066-0.053-0.226-0.119-0.371-0.212
		c-0.742-0.385-2.307-1.18-1.843-2.559c0.133-0.385,0.517-1.525,1.419-1.564c0.53-0.014,1.034,0.358,1.551,1.153
		c0.318,0.504,0.53,1.008,0.544,1.034c0.093,0.239-0.014,0.504-0.252,0.61c-0.239,0.093-0.504-0.013-0.61-0.252
		c-0.345-0.835-0.928-1.604-1.193-1.604l0,0c-0.093,0-0.331,0.199-0.57,0.928c-0.186,0.557,0.584,1.021,1.393,1.432
		c0.199,0.106,0.358,0.186,0.478,0.265c0.212,0.146,0.265,0.438,0.119,0.65C45.559,13.312,45.414,13.392,45.268,13.392z"/>
	<path fill="#D3AA4C" d="M46.992,13.551c0,0-0.093-4.11-2.228-1.564c-0.836,0.994,0.769,2.333,1.101,2.811"/>
	<path fill="#B78E3D" d="M45.865,15.274c-0.146,0-0.292-0.066-0.385-0.199c-0.053-0.066-0.159-0.199-0.278-0.332
		c-0.557-0.637-1.724-1.936-0.796-3.05c0.252-0.305,1.034-1.233,1.896-0.941c0.504,0.172,0.835,0.716,1.021,1.631
		c0.119,0.583,0.133,1.141,0.133,1.154c0,0.252-0.199,0.464-0.451,0.477c-0.252,0-0.464-0.199-0.477-0.451l0,0
		c-0.027-0.902-0.279-1.843-0.544-1.936c-0.08-0.026-0.385,0.066-0.875,0.663c-0.385,0.451,0.172,1.154,0.769,1.83
		c0.146,0.172,0.266,0.305,0.345,0.424c0.146,0.212,0.093,0.504-0.119,0.65C46.037,15.248,45.944,15.274,45.865,15.274z"/>
	<path fill="#D3AA4C" d="M40.362,11.098c1.088-1.153,2.268,0.04,2.798,0.849c0.292,0.438,0.583,1.379,0.079,1.79
		c-0.438,0.358-1.061,0.013-1.444-0.265"/>
	<path fill="#B78E3D" d="M42.789,14.359c-0.332,0-0.756-0.132-1.273-0.517c-0.212-0.146-0.252-0.438-0.093-0.649
		c0.146-0.212,0.438-0.252,0.65-0.093c0.317,0.225,0.702,0.424,0.888,0.278c0.212-0.172,0.08-0.795-0.172-1.167
		c-0.345-0.517-0.889-1.074-1.379-1.114c-0.239-0.026-0.464,0.093-0.703,0.332c-0.172,0.186-0.464,0.199-0.649,0.013
		c-0.186-0.172-0.199-0.464-0.014-0.649c0.544-0.57,1.088-0.65,1.445-0.61c1.008,0.093,1.79,1.101,2.068,1.538
		c0.425,0.637,0.703,1.817-0.013,2.4C43.385,14.227,43.133,14.359,42.789,14.359z"/>
	<polygon fill="#D3AA4C" points="37.882,19.305 38.691,15.274 46.342,17.224 45.095,21.214 	"/>
	<path fill="#B78E3D" d="M38.837,14.691l7.65,1.962c0.159,0.04,0.292,0.146,0.371,0.292c0.08,0.146,0.093,0.318,0.053,0.464
		L45.666,21.4c-0.093,0.305-0.411,0.477-0.729,0.397l-7.213-1.922c-0.305-0.08-0.49-0.385-0.438-0.689l0.809-4.031
		c0.027-0.159,0.133-0.305,0.266-0.385c0.08-0.053,0.172-0.08,0.266-0.093C38.705,14.665,38.771,14.678,38.837,14.691z
		 M44.698,20.499l0.889-2.851l-6.444-1.644l-0.57,2.864L44.698,20.499z"/>
	<rect x="2.388" y="77.87" fill="#D3AA4C" width="43.967" height="3.063"/>
	<polygon fill="#D3AA4C" points="41.714,67.409 24.093,67.409 23.841,67.409 7.015,67.409 2.388,77.87 23.841,77.87 24.093,77.87 
		46.342,77.87 	"/>
	<rect x="4.244" y="73.11" fill="#B78E3D" width="10.024" height="1.061"/>
	<path fill="#B78E3D" d="M46.938,77.897l-0.278-0.637l-4.601-10.395H6.67L2.07,77.261l-0.278,0.637v0.49v3.129h45.16v-3.129v-0.49
		H46.938z M45.746,80.337H2.971v-1.869h42.774V80.337z M7.36,67.939h34.01l4.137,9.335H3.223L7.36,67.939z"/>
	<g>
		<g>
			<polygon fill="#D3AA4C" points="34.965,82.564 12.956,82.564 14.653,72.912 33.03,72.912 			"/>
			<path fill="#B78E3D" d="M35.695,83.161H12.24l1.909-10.846H33.52L35.695,83.161z M13.658,81.968h20.565l-1.697-8.459H15.157
				L13.658,81.968z"/>
		</g>
		<g>
			<path fill="#B78E3D" d="M16.296,80.522l0.133-1.061h0.292l0.411-3.421h-0.278l0.132-1.061h1.657l-0.093,1.061h-0.278
				l-0.331,3.421h0.292l-0.094,1.061H16.296z"/>
			<path fill="#B78E3D" d="M18.949,80.522l0.079-1.061h0.305l0.239-3.421h-0.278l0.079-1.061h1.657l-0.053,1.061h-0.278
				l-0.173,3.421h1.141l0.014-0.609h1.193l-0.014,1.67H18.949z"/>
			<path fill="#B78E3D" d="M26.718,76.624h-1.141l-0.026-0.596h-0.278l0.133,3.42h0.292l0.053,1.061h-1.843l-0.014-1.061h0.292
				l-0.054-3.42h-0.278l0.014,0.596h-1.141l0.014-1.657h3.885L26.718,76.624z"/>
			<path fill="#B78E3D" d="M27.779,80.522L27.7,79.462h0.291L27.7,76.041h-0.278l-0.08-1.061h3.421l0.226,1.511h-1.141l-0.053-0.45
				h-0.941l0.133,1.181h0.411l-0.04-0.293h1.153l0.226,1.645h-1.193l-0.04-0.291h-0.424l0.133,1.18h0.291l0.119,1.061H27.779
				L27.779,80.522z"/>
		</g>
	</g>
	<rect x="33.719" y="73.11" fill="#B78E3D" width="10.806" height="1.061"/>
	<path fill="#E0BC75" d="M17.344,50.809h-3.183c-0.105,0-0.212-0.053-0.291-0.132c-0.08-0.08-0.12-0.186-0.106-0.306
		c0.014-0.186,0.385-4.587,1.26-6.722c0.079-0.199,0.318-0.306,0.517-0.226c0.199,0.079,0.306,0.317,0.226,0.517
		c-0.663,1.645-1.034,4.893-1.153,6.06h2.744c0.226,0,0.398,0.173,0.398,0.397C17.755,50.623,17.556,50.809,17.344,50.809z"/>
	<path fill="#E0BC75" d="M12.716,32.339c-0.079,0-0.159-0.026-0.225-0.08c-2.665-1.922-4.721-4.654-5.967-6.616
		c-0.119-0.186-0.066-0.438,0.119-0.543c0.186-0.106,0.438-0.066,0.544,0.119c1.206,1.896,3.195,4.548,5.768,6.391
		c0.172,0.133,0.226,0.372,0.093,0.557C12.968,32.272,12.849,32.339,12.716,32.339z"/>
	<path fill="#E0BC75" d="M6.061,24.516c-0.133,0-0.279-0.066-0.346-0.199c-0.45-0.796-0.702-1.313-0.702-1.326
		C4.92,22.792,5,22.554,5.199,22.461s0.438-0.013,0.53,0.186c0,0,0.238,0.504,0.676,1.273c0.106,0.186,0.04,0.438-0.146,0.543
		C6.193,24.503,6.126,24.516,6.061,24.516z"/>
	<path fill="#E0BC75" d="M3.237,19.835c-0.173,0-0.318-0.106-0.372-0.265l-0.464-1.379c-0.066-0.212,0.04-0.438,0.252-0.504
		s0.438,0.04,0.504,0.252l0.464,1.379c0.066,0.212-0.039,0.438-0.252,0.504C3.316,19.822,3.276,19.835,3.237,19.835z"/>
	<path fill="#E0BC75" d="M39.513,18.669c-0.026,0-0.053,0-0.079-0.014c-0.213-0.053-0.345-0.265-0.306-0.477l0.318-1.432
		c0.054-0.212,0.266-0.345,0.478-0.305c0.212,0.053,0.345,0.265,0.305,0.477l-0.318,1.432
		C39.858,18.549,39.699,18.669,39.513,18.669z"/>
	<path fill="#E0BC75" d="M37.405,26.518c-0.079,0-0.158-0.026-0.238-0.08c-0.172-0.132-0.212-0.384-0.08-0.557
		c0.862-1.154,2.042-4.336,2.056-4.362c0.079-0.212,0.305-0.305,0.517-0.239c0.213,0.08,0.306,0.305,0.239,0.517
		c-0.053,0.133-1.233,3.315-2.161,4.561C37.657,26.465,37.525,26.518,37.405,26.518z"/>
	<path fill="#E0BC75" d="M16.403,38.252c-0.212,0-0.385-0.159-0.397-0.371l-0.239-3.912c-0.013-0.226,0.159-0.411,0.371-0.424
		c0.213-0.013,0.411,0.159,0.425,0.372l0.238,3.911c0.014,0.226-0.159,0.411-0.371,0.424C16.416,38.252,16.403,38.252,16.403,38.252
		z"/>
	<path fill="#E0BC75" d="M15.514,58.857L15.514,58.857c-0.226,0-0.397-0.187-0.397-0.411c0.013-0.465,0.238-2.042,0.252-2.108
		c0.026-0.212,0.238-0.371,0.45-0.331c0.213,0.026,0.372,0.238,0.332,0.45c-0.066,0.438-0.238,1.671-0.238,2.016
		C15.913,58.685,15.726,58.857,15.514,58.857z"/>
	<path fill="#E0BC75" d="M29.595,57.942c-0.198,0-0.357-0.146-0.397-0.345c-0.106-0.703-0.159-0.995-0.186-1.101
		c-0.053-0.212,0.079-0.424,0.292-0.49c0.212-0.054,0.424,0.079,0.49,0.291c0.053,0.186,0.119,0.57,0.212,1.18
		c0.026,0.213-0.119,0.425-0.331,0.451C29.622,57.942,29.609,57.942,29.595,57.942z"/>
	<path fill="#E0BC75" d="M13.923,63.776c-0.226,0-0.397-0.172-0.397-0.398v-1.206c0-0.226,0.172-0.397,0.397-0.397
		s0.397,0.172,0.397,0.397v1.206C14.321,63.604,14.149,63.776,13.923,63.776z"/>
	<path fill="#E0BC75" d="M30.909,63.167c-0.226,0-0.398-0.173-0.398-0.398v-0.822c0-0.225,0.173-0.397,0.398-0.397
		c0.225,0,0.397,0.173,0.397,0.397v0.822C31.306,62.994,31.133,63.167,30.909,63.167z"/>
	<path fill="#E0BC75" d="M6.63,72.474c-0.053,0-0.105-0.013-0.159-0.039c-0.198-0.093-0.291-0.332-0.198-0.53l1.445-3.222
		c0.066-0.146,0.212-0.239,0.357-0.239h10.899c0.226,0,0.397,0.173,0.397,0.397c0,0.226-0.172,0.398-0.397,0.398H8.341l-1.339,2.996
		C6.922,72.382,6.777,72.474,6.63,72.474z"/>
	<path fill="#E0BC75" d="M24.716,69.253h-3.792c-0.226,0-0.398-0.173-0.398-0.398s0.173-0.397,0.398-0.397h3.792
		c0.226,0,0.397,0.172,0.397,0.397S24.928,69.253,24.716,69.253z"/>
	<g>
		<circle fill="#D3AA4C" cx="14.865" cy="19.623" r="2.506"/>
		<path fill="#B78E3D" d="M14.865,22.726c-1.711,0-3.103-1.392-3.103-3.103s1.392-3.103,3.103-3.103c1.71,0,3.103,1.393,3.103,3.103
			S16.575,22.726,14.865,22.726z M14.865,17.714c-1.048,0-1.909,0.862-1.909,1.91s0.861,1.909,1.909,1.909s1.909-0.862,1.909-1.909
			S15.913,17.714,14.865,17.714z"/>
		<circle fill="#D3AA4C" cx="32.685" cy="19.623" r="2.506"/>
		<path fill="#B78E3D" d="M32.685,22.726c-1.711,0-3.103-1.392-3.103-3.103s1.392-3.103,3.103-3.103c1.71,0,3.103,1.393,3.103,3.103
			S34.395,22.726,32.685,22.726z M32.685,17.714c-1.048,0-1.909,0.862-1.909,1.91s0.861,1.909,1.909,1.909
			c1.047,0,1.909-0.862,1.909-1.909S33.733,17.714,32.685,17.714z"/>
		<path fill="#D3AA4C" d="M33.322,20.485c0,5.237-4.243,9.48-9.48,9.48l0,0c-5.237,0-9.48-4.243-9.48-9.48V16.68
			c0-5.237,4.243-9.48,9.48-9.48l0,0c5.237,0,9.48,4.243,9.48,9.48v0.928v1.406V20.485z"/>
		<path fill="#B78E3D" d="M23.841,30.562c-5.556,0-10.077-4.521-10.077-10.077V16.68c0-5.556,4.521-10.077,10.077-10.077
			s10.077,4.521,10.077,10.077v3.806C33.918,26.054,29.397,30.562,23.841,30.562z M23.841,7.796c-4.893,0-8.884,3.991-8.884,8.883
			v3.806c0,4.893,3.991,8.883,8.884,8.883s8.884-3.991,8.884-8.883V16.68C32.725,11.787,28.747,7.796,23.841,7.796z"/>
		<path fill="#B78E3D" d="M19.333,18.112c-0.305-0.119-0.636-0.093-0.914,0.066c0.053,0,0.105,0.013,0.159,0.04
			c0.317,0.12,0.464,0.478,0.345,0.796c-0.12,0.318-0.478,0.464-0.796,0.345c-0.079-0.027-0.146-0.08-0.212-0.146
			c0.053,0.358,0.278,0.689,0.649,0.835c0.53,0.212,1.141-0.053,1.353-0.583S19.876,18.324,19.333,18.112z"/>
		<path fill="#B78E3D" d="M29.224,18.112c-0.305-0.119-0.637-0.093-0.915,0.066c0.054,0,0.106,0.013,0.159,0.04
			c0.318,0.12,0.464,0.478,0.345,0.796c-0.119,0.318-0.477,0.464-0.795,0.345c-0.08-0.027-0.146-0.08-0.213-0.146
			c0.054,0.358,0.279,0.689,0.65,0.835c0.53,0.212,1.14-0.053,1.353-0.583C30.02,18.921,29.754,18.324,29.224,18.112z"/>
		<path fill="none" d="M24.928,24.291c-0.318,0.345-0.769,0.557-1.272,0.557c-0.518,0-0.995-0.239-1.313-0.597"/>
		<path fill="#B78E3D" d="M23.656,25.312c-0.637,0-1.247-0.278-1.657-0.756c-0.173-0.199-0.146-0.49,0.053-0.649
			c0.199-0.172,0.49-0.146,0.649,0.053c0.239,0.278,0.583,0.438,0.955,0.438c0.357,0,0.689-0.146,0.928-0.411
			c0.173-0.186,0.464-0.199,0.649-0.027s0.199,0.464,0.027,0.65C24.849,25.06,24.265,25.312,23.656,25.312z"/>
		<rect x="15.833" y="15.155" fill="#D3AA4C" width="15.924" height="2.93"/>
		<path fill="#B78E3D" d="M31.756,18.536H15.833c-0.252,0-0.464-0.212-0.464-0.464s0.212-0.464,0.464-0.464h15.924
			c0.252,0,0.465,0.212,0.465,0.464C32.221,18.337,32.008,18.536,31.756,18.536z"/>
		<path fill="#B78E3D" d="M23.841,28.282c-1.207,0-2.334-0.65-2.931-1.71c-0.053-0.106-0.053-0.226,0-0.332s0.173-0.159,0.292-0.159
			h5.277c0.119,0,0.225,0.066,0.291,0.159c0.054,0.106,0.066,0.225,0,0.332C26.174,27.632,25.047,28.282,23.841,28.282z
			 M21.852,26.744c0.504,0.557,1.22,0.875,1.989,0.875c0.769,0,1.484-0.332,1.988-0.875H21.852z"/>
		<path fill="#D3AA4C" d="M32.698,9.732l-0.994-5.197L28.495,6.55l-4.772-5.635L19.147,6.55l-3.208-2.015l-0.995,5.197l-3.54-1.167
			c0,0,3.036,12.132,3.036,8.91c0-5.237,4.283-2.983,7.134-3.925c1.445-0.478,2.028-1.313,2.254-2.016
			c0.226,0.703,0.809,1.538,2.254,2.016c2.838,0.941,7.134-1.326,7.134,3.925c0,3.222,3.036-8.91,3.036-8.91L32.698,9.732z"/>
		<path fill="#B78E3D" d="M33.334,18.616c-0.716,0-0.716-0.862-0.716-1.14c0-2.904-1.286-3.063-3.381-3.063
			c-0.119,0-0.252,0-0.371,0c-0.133,0-0.266,0-0.385,0c-0.809,0-1.737-0.026-2.586-0.305c-1.008-0.331-1.657-0.835-2.068-1.339
			c-0.411,0.517-1.061,1.008-2.068,1.339c-0.849,0.279-1.776,0.305-2.585,0.305c-0.133,0-0.266,0-0.385,0c-0.133,0-0.252,0-0.371,0
			c-2.096,0-3.382,0.146-3.382,3.063c0,0.278,0,1.14-0.716,1.14c-0.53,0-0.782-0.464-1.26-1.883
			c-0.265-0.795-0.597-1.896-0.98-3.275c-0.65-2.347-1.247-4.72-1.26-4.747l-0.266-1.047l3.925,1.299l1.034-5.383l3.501,2.201
			L23.708,0l4.906,5.781l3.514-2.201l1.034,5.383l3.925-1.299l-0.266,1.047c0,0.027-0.597,2.4-1.26,4.747
			c-0.385,1.379-0.716,2.493-0.981,3.275C34.104,18.138,33.852,18.616,33.334,18.616z M12.252,9.467
			c0.61,2.374,1.273,4.76,1.764,6.338c0.637-2.585,2.851-2.585,4.389-2.585c0.133,0,0.252,0,0.385,0s0.252,0,0.385,0
			c0.716,0,1.538-0.013,2.214-0.239c1.008-0.332,1.631-0.875,1.883-1.631l0.57-1.776l0.57,1.776
			c0.238,0.756,0.875,1.299,1.883,1.631c0.676,0.226,1.498,0.239,2.214,0.239c0.133,0,0.252,0,0.385,0s0.252,0,0.384,0
			c1.538,0,3.753,0,4.39,2.585c0.504-1.578,1.166-3.964,1.763-6.338l-3.155,1.048l-0.955-5.012l-2.917,1.83l-4.641-5.476
			l-4.455,5.49l-2.917-1.83l-0.954,5.012L12.252,9.467z"/>
	</g>
	<path fill="#E0BC75" d="M18.737,26.956c-0.094,0-0.173-0.026-0.252-0.093c-1.34-1.101-2.308-2.639-2.705-4.322
		c-0.054-0.212,0.079-0.424,0.291-0.478c0.213-0.053,0.425,0.08,0.478,0.292c0.358,1.524,1.233,2.904,2.44,3.898
		c0.172,0.146,0.198,0.385,0.053,0.557C18.961,26.903,18.856,26.956,18.737,26.956z"/>
</g>
</svg>
