<?xml version="1.0" encoding="utf-8"?>
<!-- Generator: Adobe Illustrator 16.0.0, SVG Export Plug-In . SVG Version: 6.00 Build 0)  -->
<!DOCTYPE svg PUBLIC "-//W3C//DTD SVG 1.1//EN" "http://www.w3.org/Graphics/SVG/1.1/DTD/svg11.dtd">
<svg version="1.1" id="Warstwa_1" xmlns="http://www.w3.org/2000/svg" xmlns:xlink="http://www.w3.org/1999/xlink" x="0px" y="0px"
	 width="23.999px" height="22.195px" viewBox="0 0 23.999 22.195" enable-background="new 0 0 23.999 22.195" xml:space="preserve">
<g>
	<path fill="#FFD1AE" d="M7.743,18.351H1.645c0-9.188,1.644-13.524,1.71-13.869l5.967,1.233L6.338,5.092l2.983,0.609
		C9.321,5.794,7.743,9.812,7.743,18.351z"/>
	<rect x="1.804" y="12.158" fill="#FFFFFF" width="6.125" height="3.646"/>
	<path fill="#231F20" d="M1.048,18.351c0-9.241,1.657-13.644,1.724-13.988l0.119-0.583l7.146,1.472L9.918,5.834
		C9.904,5.914,8.34,9.904,8.34,18.351v0.597H1.048V18.351z M8.645,6.179L3.832,5.185C3.461,7.173,2.307,10.156,2.254,17.74H7.16
		C7.213,10.767,8.287,8.102,8.645,6.179z"/>
	<g>
		<path fill="#FFAD3B" d="M12.464,0.597h-1.286L2.625,1.074c0,0-1.484,2.439-1.484,8.273c2.399,0,9.135,0,9.135,0l0.451-4.429
			l1.26,0.385l0.146-0.04C12,2.453,12.105,3.381,12.464,0.597z"/>
		<path fill="#231F20" d="M12.105,4.627l-0.119,0.04L10.249,4.15L9.785,8.737H1.697c0.079-4.641,1.048-5.675,1.365-7.093
			l8.128-0.451h1.193C12.424,0.796,12.477,0.397,12.53,0h-1.353L2.201,0.49L2.095,0.915C2.028,1.167,0.597,3.487,0.597,9.334v0.597
			h10.17l0.424-4.269c0,0,0.385,0.119,0.796,0.119c0.066,0,0.119,0,0.186-0.014C12.132,5.396,12.119,5.012,12.105,4.627z"/>
	</g>
	<g>
		<rect x="0.478" y="20.141" fill="#EFEDF2" width="8.313" height="1.591"/>
		<path fill="#231F20" d="M8.777,22.195H0.464C0.212,22.195,0,21.983,0,21.731v-1.591c0-0.252,0.212-0.464,0.464-0.464h8.313
			c0.252,0,0.464,0.212,0.464,0.464v1.591C9.241,21.983,9.043,22.195,8.777,22.195z M0.941,21.268h7.386v-0.663H0.941V21.268z"/>
	</g>
	<g>
		<rect x="0.478" y="15.01" fill="#F15A29" width="8.313" height="5.131"/>
		<path fill="#231F20" d="M8.777,20.604H0.464C0.212,20.604,0,20.393,0,20.141V15.01c0-0.252,0.212-0.465,0.464-0.465h8.313
			c0.252,0,0.464,0.213,0.464,0.465v5.131C9.241,20.393,9.043,20.604,8.777,20.604z M0.941,19.677h7.386v-4.203H0.941V19.677z"/>
	</g>
	<rect x="6.112" y="14.771" fill="#231F20" width="0.929" height="5.37"/>
	<rect x="2.439" y="14.771" fill="#231F20" width="0.929" height="5.37"/>
</g>
<g>
	<path fill="#FFD1AE" d="M16.256,18.351h6.099c0-9.188-1.644-13.524-1.71-13.869l-5.967,1.233l2.983-0.623l-2.983,0.609
		C14.691,5.794,16.256,9.812,16.256,18.351z"/>
	<rect x="16.083" y="12.158" fill="#FFFFFF" width="6.126" height="3.646"/>
	<path fill="#231F20" d="M22.951,18.947h-7.292v-0.597c0-8.446-1.564-12.437-1.578-12.517l-0.119-0.583l7.146-1.472l0.119,0.583
		c0.066,0.345,1.724,4.747,1.724,13.988V18.947z M16.853,17.754h4.905c-0.053-7.584-1.206-10.581-1.577-12.557l-4.813,0.995
		C15.726,8.102,16.786,10.767,16.853,17.754z"/>
	<g>
		<path fill="#FFAD3B" d="M11.549,0.597h1.286l8.552,0.478c0,0,1.485,2.439,1.485,8.273c-2.4,0-9.136,0-9.136,0l-0.45-4.429
			l-1.26,0.385l-0.146-0.04C12.013,2.453,11.906,3.381,11.549,0.597z"/>
		<path fill="#231F20" d="M11.906,4.627l0.12,0.04l1.736-0.517l0.465,4.587h8.088c-0.08-4.641-1.048-5.675-1.366-7.093l-8.128-0.451
			h-1.193C11.589,0.796,11.535,0.397,11.482,0h1.353l8.977,0.49l0.105,0.425c0.066,0.252,1.499,2.572,1.499,8.419v0.597h-10.17
			l-0.425-4.269c0,0-0.384,0.119-0.795,0.119c-0.066,0-0.12,0-0.186-0.014C11.867,5.396,11.894,5.012,11.906,4.627z"/>
	</g>
	<g>
		<rect x="15.222" y="20.141" fill="#EFEDF2" width="8.313" height="1.591"/>
		<path fill="#231F20" d="M23.535,22.195h-8.313c-0.252,0-0.464-0.212-0.464-0.464v-1.591c0-0.252,0.212-0.464,0.464-0.464h8.313
			c0.252,0,0.464,0.212,0.464,0.464v1.591C23.999,21.983,23.787,22.195,23.535,22.195z M15.686,21.268h7.386v-0.663h-7.386V21.268z"
			/>
	</g>
	<g>
		<rect x="15.222" y="15.01" fill="#F15A29" width="8.313" height="5.131"/>
		<path fill="#231F20" d="M23.535,20.604h-8.313c-0.252,0-0.464-0.212-0.464-0.464V15.01c0-0.252,0.212-0.465,0.464-0.465h8.313
			c0.252,0,0.464,0.213,0.464,0.465v5.131C23.999,20.393,23.787,20.604,23.535,20.604z M15.686,19.677h7.386v-4.203h-7.386V19.677z"
			/>
	</g>
	<rect x="16.959" y="14.771" fill="#231F20" width="0.928" height="5.37"/>
	<rect x="20.645" y="14.771" fill="#231F20" width="0.928" height="5.37"/>
</g>
</svg>
