<?xml version="1.0" encoding="utf-8"?>
<!-- Generator: Adobe Illustrator 16.0.0, SVG Export Plug-In . SVG Version: 6.00 Build 0)  -->
<!DOCTYPE svg PUBLIC "-//W3C//DTD SVG 1.1//EN" "http://www.w3.org/Graphics/SVG/1.1/DTD/svg11.dtd">
<svg version="1.1" id="Warstwa_1" xmlns="http://www.w3.org/2000/svg" xmlns:xlink="http://www.w3.org/1999/xlink" x="0px" y="0px"
	 width="23.999px" height="22.195px" viewBox="0 0 23.999 22.195" enable-background="new 0 0 23.999 22.195" xml:space="preserve">
<g>
	<g>
		<path fill="#FFC7AC" d="M7.744,18.351H1.645c0-9.188,1.644-13.524,1.71-13.869l5.966,1.233L6.338,5.092l2.983,0.609
			C9.321,5.794,7.744,9.812,7.744,18.351z"/>
		<rect x="1.803" y="12.158" fill="#FFFFFF" width="6.126" height="3.646"/>
		<path fill="#231F20" d="M1.048,18.351c0-9.241,1.657-13.644,1.724-13.988l0.119-0.583l7.147,1.472l-0.12,0.583
			C9.905,5.914,8.34,9.904,8.34,18.351v0.597H1.048V18.351z M8.645,6.179L3.832,5.185C3.461,7.173,2.307,10.156,2.254,17.74H7.16
			C7.213,10.767,8.287,8.102,8.645,6.179z"/>
		<g>
			<path fill="#FFAD3B" d="M12.463,0.597h-1.286L2.625,1.074c0,0-1.485,2.439-1.485,8.273c2.4,0,9.135,0,9.135,0l0.451-4.429
				l1.259,0.385l0.146-0.04C12,2.453,12.106,3.381,12.463,0.597z"/>
			<path fill="#231F20" d="M12.106,4.627l-0.12,0.04L10.25,4.15L9.786,8.737H1.697c0.08-4.641,1.047-5.675,1.366-7.093l8.128-0.451
				h1.193C12.424,0.796,12.477,0.397,12.53,0h-1.352L2.201,0.49L2.095,0.915C2.029,1.167,0.597,3.487,0.597,9.334v0.597h10.17
				l0.424-4.269c0,0,0.384,0.119,0.795,0.119c0.067,0,0.12,0,0.186-0.014C12.132,5.396,12.12,5.012,12.106,4.627z"/>
		</g>
		<g>
			<rect x="0.478" y="20.141" fill="#EFEDF2" width="8.313" height="1.591"/>
			<path fill="#231F20" d="M8.778,22.195H0.464C0.212,22.195,0,21.983,0,21.731v-1.591c0-0.252,0.212-0.464,0.464-0.464h8.313
				c0.252,0,0.464,0.212,0.464,0.464v1.591C9.242,21.983,9.043,22.195,8.778,22.195z M0.941,21.268h7.385v-0.663H0.941V21.268z"/>
		</g>
		<g>
			<rect x="0.478" y="15.01" fill="#ED5F70" width="8.313" height="5.131"/>
			<path fill="#231F20" d="M8.778,20.604H0.464C0.212,20.604,0,20.393,0,20.141V15.01c0-0.252,0.212-0.465,0.464-0.465h8.313
				c0.252,0,0.464,0.213,0.464,0.465v5.131C9.242,20.393,9.043,20.604,8.778,20.604z M0.941,19.677h7.385v-4.203H0.941V19.677z"/>
		</g>
		<rect x="6.113" y="14.771" fill="#231F20" width="0.928" height="5.37"/>
		<rect x="2.44" y="14.771" fill="#231F20" width="0.928" height="5.37"/>
	</g>
</g>
<g>
	<g>
		<path fill="#FFC7AC" d="M16.256,18.351h6.099c0-9.188-1.644-13.524-1.71-13.869l-5.967,1.233l2.982-0.623l-2.982,0.609
			C14.692,5.794,16.256,9.812,16.256,18.351z"/>
		<rect x="16.083" y="12.158" fill="#FFFFFF" width="6.126" height="3.646"/>
		<path fill="#231F20" d="M22.952,18.947h-7.293v-0.597c0-8.446-1.564-12.437-1.577-12.517l-0.12-0.583l7.147-1.472l0.119,0.583
			c0.066,0.345,1.724,4.747,1.724,13.988V18.947z M16.852,17.754h4.906C21.706,10.17,20.551,7.173,20.18,5.197l-4.813,0.995
			C15.725,8.102,16.786,10.767,16.852,17.754z"/>
		<g>
			<path fill="#FFAD3B" d="M11.549,0.597h1.286l8.553,0.478c0,0,1.484,2.439,1.484,8.273c-2.399,0-9.135,0-9.135,0l-0.451-4.429
				l-1.259,0.385l-0.146-0.04C12.013,2.453,11.907,3.381,11.549,0.597z"/>
			<path fill="#231F20" d="M11.907,4.627l0.12,0.04l1.737-0.517l0.464,4.587h8.088c-0.079-4.641-1.047-5.675-1.365-7.093
				l-8.128-0.451h-1.193C11.589,0.796,11.536,0.397,11.482,0h1.352l8.977,0.49l0.106,0.425c0.066,0.252,1.499,2.572,1.499,8.419
				v0.597h-10.17l-0.425-4.269c0,0-0.385,0.119-0.795,0.119c-0.066,0-0.12,0-0.186-0.014C11.867,5.396,11.894,5.012,11.907,4.627z"
				/>
		</g>
		<g>
			<rect x="15.221" y="20.141" fill="#EFEDF2" width="8.314" height="1.591"/>
			<path fill="#231F20" d="M23.536,22.195h-8.314c-0.252,0-0.463-0.212-0.463-0.464v-1.591c0-0.252,0.211-0.464,0.463-0.464h8.314
				c0.252,0,0.463,0.212,0.463,0.464v1.591C23.999,21.983,23.788,22.195,23.536,22.195z M15.686,21.268h7.385v-0.663h-7.385V21.268z
				"/>
		</g>
		<g>
			<rect x="15.221" y="15.01" fill="#ED5F70" width="8.314" height="5.131"/>
			<path fill="#231F20" d="M23.536,20.604h-8.314c-0.252,0-0.463-0.212-0.463-0.464V15.01c0-0.252,0.211-0.465,0.463-0.465h8.314
				c0.252,0,0.463,0.213,0.463,0.465v5.131C23.999,20.393,23.788,20.604,23.536,20.604z M15.686,19.677h7.385v-4.203h-7.385V19.677z
				"/>
		</g>
		<rect x="16.958" y="14.771" fill="#231F20" width="0.929" height="5.37"/>
		<rect x="20.645" y="14.771" fill="#231F20" width="0.928" height="5.37"/>
	</g>
</g>
</svg>
