<?xml version="1.0" encoding="utf-8"?>
<!-- Generator: Adobe Illustrator 16.0.0, SVG Export Plug-In . SVG Version: 6.00 Build 0)  -->
<!DOCTYPE svg PUBLIC "-//W3C//DTD SVG 1.1//EN" "http://www.w3.org/Graphics/SVG/1.1/DTD/svg11.dtd">
<svg version="1.1" id="Warstwa_1" xmlns="http://www.w3.org/2000/svg" xmlns:xlink="http://www.w3.org/1999/xlink" x="0px" y="0px"
	 width="24.822px" height="51.141px" viewBox="0 0 24.822 51.141" enable-background="new 0 0 24.822 51.141" xml:space="preserve">
<g>
	<path fill="#FFAD3B" d="M3.368,38.358L3.235,27.394l7.796-3.991c0.305-0.397,0.822,1.419,1.684,1.578
		c0.862-0.146,1.38-1.976,1.685-1.578l7.796,4.455l-0.504,10.501c0,0,2.506,8.128,2.506,12.186c-3.951,0-19.65,0-23.614,0
		C0.597,46.486,3.368,38.358,3.368,38.358z"/>
	<path fill="#231F20" d="M24.808,51.141H0v-0.597c0-3.925,2.44-11.297,2.771-12.278l-0.132-11.23l8.048-4.123
		c0.132-0.106,0.278-0.159,0.451-0.159c0.451,0,0.703,0.384,0.981,0.822c0.132,0.212,0.397,0.623,0.61,0.769
		c0.199-0.146,0.464-0.557,0.61-0.769c0.277-0.438,0.529-0.822,0.98-0.822c0.172,0,0.332,0.066,0.465,0.172l8.048,4.588
		l-0.518,10.767c0.306,0.994,2.507,8.354,2.507,12.265v0.597H24.808z M1.207,49.947h22.381c-0.211-4.084-2.439-11.337-2.465-11.416
		l-0.027-0.106l0.49-10.249L14.4,24.079c-0.027,0.039-0.053,0.079-0.08,0.119c-0.332,0.517-0.782,1.22-1.511,1.353l-0.106,0.013
		l-0.106-0.013c-0.716-0.133-1.167-0.836-1.512-1.353c-0.026-0.04-0.053-0.093-0.079-0.133l-7.187,3.673l0.132,10.7l-0.04,0.093
		C3.912,38.624,1.445,45.877,1.207,49.947z"/>
</g>
<g>
	<circle fill="#FFC7AC" cx="21.705" cy="20.088" r="2.506"/>
	<path fill="#231F20" d="M21.705,23.19c-1.71,0-3.102-1.393-3.102-3.103c0-1.711,1.392-3.103,3.102-3.103
		c1.711,0,3.104,1.392,3.104,3.103C24.808,21.798,23.416,23.19,21.705,23.19z M21.705,18.179c-1.047,0-1.908,0.861-1.908,1.909
		c0,1.047,0.861,1.909,1.908,1.909c1.049,0,1.91-0.862,1.91-1.909C23.615,19.04,22.753,18.179,21.705,18.179z"/>
</g>
<g>
	<circle fill="#FFC7AC" cx="3.885" cy="20.088" r="2.506"/>
	<path fill="#231F20" d="M3.885,23.19c-1.71,0-3.103-1.393-3.103-3.103c0-1.711,1.392-3.103,3.103-3.103s3.103,1.392,3.103,3.103
		C6.988,21.798,5.595,23.19,3.885,23.19z M3.885,18.179c-1.047,0-1.909,0.861-1.909,1.909c0,1.047,0.862,1.909,1.909,1.909
		c1.048,0,1.91-0.862,1.91-1.909C5.794,19.04,4.933,18.179,3.885,18.179z"/>
</g>
<g>
	<path fill="#FFC7AC" d="M3.235,20.062c0,5.237,4.243,9.479,9.48,9.479l0,0c5.237,0,9.48-4.242,9.48-9.479v-3.806
		c0-5.237-4.243-9.48-9.48-9.48l0,0c-5.237,0-9.48,4.243-9.48,9.48v0.928v1.406V20.062z"/>
	<path fill="#231F20" d="M12.715,30.138c-5.555,0-10.077-4.521-10.077-10.076v-3.806c0-5.556,4.521-10.077,10.077-10.077
		c5.556,0,10.077,4.521,10.077,10.077v3.806C22.792,25.617,18.271,30.138,12.715,30.138z M12.715,7.372
		c-4.893,0-8.883,3.991-8.883,8.884v3.806c0,4.893,3.991,8.884,8.883,8.884c4.894,0,8.884-3.991,8.884-8.884v-3.806
		C21.599,11.363,17.622,7.372,12.715,7.372z"/>
</g>
<g>
	<path fill="#FF6B32" d="M3.315,8.194c2.718-4.985,8.658-7.346,9.4-7.624c0-0.014,0,0,0,0s6.763,2.639,9.48,7.624
		c1.499,2.758,0,8.804,0,8.804s-4.455,9.281-9.666,9.281c-5.197,0-9.215-9.281-9.215-9.281S1.816,10.952,3.315,8.194z"/>
	<path fill="#231F20" d="M12.543,26.876c-5.529,0-9.6-9.255-9.772-9.639l-0.013-0.04l-0.013-0.053
		c-0.066-0.252-1.538-6.312,0.053-9.242C5.648,2.665,11.827,0.266,12.517,0l0.212,0.557L12.941,0
		c0.278,0.106,7.001,2.771,9.785,7.89c1.592,2.93,0.119,8.976,0.053,9.241l-0.013,0.053l-0.026,0.054
		C22.554,17.648,18.046,26.876,12.543,26.876z M3.885,16.813c0.305,0.689,4.084,8.884,8.659,8.884c4.574,0,8.724-8.141,9.096-8.884
		c0.146-0.623,1.339-5.939,0.04-8.313c-1.34-2.453-3.753-4.322-5.529-5.449c-1.551-0.981-2.917-1.604-3.434-1.816
		c-1.247,0.49-6.417,2.758-8.871,7.266C2.533,10.873,3.752,16.242,3.885,16.813z"/>
</g>
<g>
	<path fill="#FFFFFF" d="M14.876,41.687v2.068H10.74v-2.068h1.035v-6.191H10.74v-2.068h3.104v8.26H14.876L14.876,41.687z"/>
</g>
</svg>
