<?xml version="1.0" encoding="utf-8"?>
<!-- Generator: Adobe Illustrator 16.0.0, SVG Export Plug-In . SVG Version: 6.00 Build 0)  -->
<!DOCTYPE svg PUBLIC "-//W3C//DTD SVG 1.1//EN" "http://www.w3.org/Graphics/SVG/1.1/DTD/svg11.dtd">
<svg version="1.1" id="Warstwa_1" xmlns="http://www.w3.org/2000/svg" xmlns:xlink="http://www.w3.org/1999/xlink" x="0px" y="0px"
	 width="288.81px" height="232.885px" viewBox="1.584 2.352 288.81 232.885" enable-background="new 1.584 2.352 288.81 232.885"
	 xml:space="preserve">
<path fill="#FFC7AC" d="M75.586,197.667L12.032,184.53C31.806,88.784,58.355,46.98,59.765,43.589l59.601,25.702L89.565,56.44
	l29.801,12.851C119.08,70.139,94.085,108.693,75.586,197.667z"/>
<polygon fill="#FFFFFF" points="82.955,171.768 19.069,158.536 26.938,120.508 90.829,133.729 "/>
<path fill="#231F20" d="M5.817,183.261C25.731,86.802,52.562,44.437,53.977,41.046l2.543-5.789l71.318,30.789l-2.543,5.788
	c-0.281,0.708-25.136,38.98-43.499,127.102l-1.27,6.221L4.408,189.471L5.817,183.261z M111.175,72.682L63.156,51.921
	c-8.191,19.914-26.69,48.581-43.64,127.668l51.123,10.589C86.461,117.45,103.265,92.029,111.175,72.682z"/>
<g>
	<path fill="#FFAD3B" d="M161.872,25.652l-13.418-2.824L58.215,8.989c0,0-20.761,22.171-33.472,82.9
		c24.995,5.227,95.185,19.914,95.185,19.914l14.266-45.195l12.43,6.782l1.685-0.146C152.968,44.156,151.99,54.037,161.872,25.652z"
		/>
	<path fill="#231F20" d="M149.307,67.034l-1.415,0.14l-16.949-9.179l-14.828,46.885l-84.31-17.651
		c11.016-48.159,23.44-56.917,29.795-71.037l85.724,13.132l12.425,2.543c1.269-4.093,2.684-8.051,4.099-12.144l-14.126-2.97
		L54.965,2.352l-1.977,4.239c-1.128,2.538-21.323,23.58-34.033,84.45l-1.274,6.215l106.059,22.171l13.844-43.5
		c0,0,1.836-4.233,2.824-8.472c2.397-11.722,7.058-0.281,7.63-0.14C148.6,63.076,148.6,70.987,149.307,67.034z"/>
</g>
<g>
	<rect x="6.525" y="213.342" fill="#EFEDF2" width="88.548" height="16.944"/>
	<path fill="#231F20" d="M95.073,235.238H6.525c-2.684,0-4.941-2.268-4.941-4.951v-16.944c0-2.684,2.257-4.94,4.941-4.94h88.548
		c2.684,0,4.94,2.257,4.94,4.94v16.944C100.014,232.97,97.757,235.238,95.073,235.238z M11.466,225.346h78.667v-7.063H11.466
		V225.346z"/>
</g>
<g>
	<rect x="6.525" y="158.682" fill="#ED5F70" width="88.548" height="54.66"/>
	<path fill="#231F20" d="M95.073,218.283H6.525c-2.684,0-4.941-2.258-4.941-4.941v-54.66c0-2.684,2.257-4.93,4.941-4.93h88.548
		c2.684,0,4.94,2.246,4.94,4.93v54.66C100.014,216.026,97.757,218.283,95.073,218.283z M11.466,208.402h78.667v-44.769H11.466
		V208.402z"/>
</g>
<path fill="#ED5F70" d="M71.628,178.882v-15.54c0-10.869-8.753-19.617-19.627-19.617l0,0c-10.875,0-19.633,8.748-19.633,19.617
	v15.54"/>
<polygon fill="#FFFFFF" points="33.829,170.197 73.063,187.64 70.192,194.089 30.963,176.656 "/>
<polygon fill="#FFFFFF" points="70.083,170.145 72.954,176.594 33.72,194.037 30.854,187.577 "/>
<polygon fill="#FFFFFF" points="33.865,152.951 73.1,170.395 70.229,176.843 31,159.41 "/>
<polygon fill="#FFFFFF" points="70.083,152.92 72.954,159.368 33.72,176.801 30.854,170.353 "/>
<path fill="#231F20" d="M93.097,209.951l-23.445-10.453c-1.836-0.843-2.964-2.539-2.964-4.515v-38.839h9.887v35.729l20.475,9.185
	L93.097,209.951z"/>
<path fill="#231F20" d="M11.044,209.951l-3.953-9.039l20.476-9.174v-35.74h9.887v38.84c0,1.977-1.129,3.682-2.965,4.524
	L11.044,209.951z"/>
<rect x="32.367" y="190.032" fill="#231F20" width="39.12" height="9.892"/>
<path fill="#231F20" d="M27.427,178.882h9.887v-15.54c0-8.051,6.636-14.688,14.687-14.688s14.687,6.637,14.687,14.688v15.54h9.887
	v-15.54c0-13.553-11.016-24.568-24.574-24.568c-13.559,0-24.574,11.016-24.574,24.568V178.882z"/>
<path fill="#FFC7AC" d="M216.386,197.667l63.554-13.138c-19.773-95.746-46.317-137.549-47.732-140.94l-59.601,25.702l29.8-12.851
	l-29.8,12.851C172.887,70.139,197.882,108.693,216.386,197.667z"/>
<polygon fill="#FFFFFF" points="201.003,133.479 264.889,120.259 272.752,158.287 208.866,171.507 "/>
<path fill="#231F20" d="M287.418,189.471L211.3,205.156l-1.27-6.221c-18.223-88.122-43.072-126.394-43.498-127.102l-2.539-5.788
	l71.313-30.789l2.538,5.789c1.414,3.391,28.25,45.756,48.159,142.215L287.418,189.471z M221.182,190.178l51.134-10.589
	c-16.955-78.947-35.449-107.755-43.645-127.668l-48.014,20.762C188.562,92.029,205.517,117.45,221.182,190.178z"/>
<g>
	<path fill="#FFAD3B" d="M130.095,25.652l13.418-2.824l90.244-13.839c0,0,20.762,22.171,33.472,82.9
		c-24.995,5.227-95.185,19.914-95.185,19.914l-14.271-45.195l-12.425,6.782l-1.695-0.146
		C138.994,44.156,139.841,54.037,130.095,25.652z"/>
	<path fill="#231F20" d="M142.665,67.034l1.415,0.14l16.938-9.179l14.833,46.885l84.314-17.651
		c-11.015-48.159-23.444-56.917-29.8-71.037l-85.725,13.132l-12.425,2.543c-1.274-4.093-2.684-8.051-4.098-12.144l14.125-2.97
		l94.758-14.401l1.987,4.239c1.123,2.538,21.322,23.58,34.033,84.45l1.27,6.215l-106.064,22.171l-13.845-43.5
		c0,0-1.831-4.233-2.819-8.472c-2.402-11.722-7.063-0.281-7.624-0.14C143.373,63.076,143.373,70.987,142.665,67.034z"/>
</g>
<g>
	<rect x="196.904" y="213.342" fill="#EFEDF2" width="88.538" height="16.944"/>
	<path fill="#231F20" d="M285.442,235.238h-88.538c-2.684,0-4.951-2.268-4.951-4.951v-16.944c0-2.684,2.268-4.94,4.951-4.94h88.538
		c2.684,0,4.951,2.257,4.951,4.94v16.944C290.394,232.97,288.126,235.238,285.442,235.238z M201.835,225.346h78.666v-7.063h-78.666
		V225.346z"/>
</g>
<g>
	<rect x="196.904" y="158.682" fill="#ED5F70" width="88.538" height="54.66"/>
	<path fill="#231F20" d="M285.442,218.283h-88.538c-2.684,0-4.951-2.258-4.951-4.941v-54.66c0-2.684,2.268-4.93,4.951-4.93h88.538
		c2.684,0,4.951,2.246,4.951,4.93v54.66C290.394,216.026,288.126,218.283,285.442,218.283z M201.835,208.402h78.666v-44.769h-78.666
		V208.402z"/>
</g>
<path fill="#ED5F70" d="M220.339,178.882v-15.54c0-10.869,8.758-19.617,19.628-19.617l0,0c10.88,0,19.638,8.748,19.638,19.617v15.54
	"/>
<polygon fill="#FFFFFF" points="258.013,170.207 260.874,176.666 221.649,194.11 218.778,187.651 "/>
<polygon fill="#FFFFFF" points="221.806,170.228 261.029,187.66 258.159,194.12 218.935,176.677 "/>
<polygon fill="#FFFFFF" points="258.003,152.983 260.874,159.431 221.649,176.874 218.778,170.415 "/>
<polygon fill="#FFFFFF" points="221.837,152.983 261.061,170.415 258.2,176.864 218.966,159.431 "/>
<path fill="#231F20" d="M198.88,209.951l-3.963-9.039l20.48-9.174v-35.74h9.882v38.84c0,1.977-1.123,3.682-2.964,4.524
	L198.88,209.951z"/>
<path fill="#231F20" d="M280.928,209.951l-23.445-10.453c-1.831-0.843-2.964-2.539-2.964-4.515v-38.839h9.881v35.729l20.48,9.185
	L280.928,209.951z"/>
<rect x="220.339" y="190.032" fill="#231F20" width="39.12" height="9.892"/>
<path fill="#231F20" d="M264.399,178.882h-9.881v-15.54c0-8.051-6.646-14.688-14.688-14.688c-8.051,0-14.687,6.637-14.687,14.688
	v15.54h-9.892v-15.54c0-13.553,11.025-24.568,24.578-24.568c13.554,0,24.568,11.016,24.568,24.568V178.882z"/>
</svg>
