<?xml version="1.0" encoding="utf-8"?>
<!-- Generator: Adobe Illustrator 16.0.0, SVG Export Plug-In . SVG Version: 6.00 Build 0)  -->
<!DOCTYPE svg PUBLIC "-//W3C//DTD SVG 1.1//EN" "http://www.w3.org/Graphics/SVG/1.1/DTD/svg11.dtd">
<svg version="1.1" id="Warstwa_1" xmlns="http://www.w3.org/2000/svg" xmlns:xlink="http://www.w3.org/1999/xlink" x="0px" y="0px"
	 width="267.165px" height="384.329px" viewBox="-0.736 -0.064 267.165 384.329"
	 enable-background="new -0.736 -0.064 267.165 384.329" xml:space="preserve">
<g>
	<path fill="#FFAD3B" d="M229.892,246.693l1.43-118.031L147.41,85.707c-3.29-4.283-8.851,15.268-18.132,16.981
		c-9.276-1.566-14.842-21.265-18.121-16.981L27.24,133.66l5.424,113.033c0,0-26.978,87.475-26.978,131.159
		c42.529,0,211.508,0,254.174,0C259.86,334.031,229.892,246.693,229.892,246.693z"/>
	<path fill="#231F20" d="M266.292,384.265H-0.736v-6.423c0-42.098,23.692-121.311,26.977-132.011l-5.565-115.882l86.624-49.382
		c1.43-1.282,3.143-1.855,4.999-1.855c4.851,0,7.563,4.142,10.559,8.851c1.429,2.281,4.283,6.706,6.564,8.277
		c2.144-1.571,4.999-5.996,6.57-8.277c2.99-4.709,5.702-8.851,10.559-8.851c1.713,0,3.427,0.573,4.856,1.714l86.623,44.384
		l-1.419,120.874c3.553,10.574,29.82,90.061,29.82,132.158v6.423H266.292z M12.25,371.42h240.903
		c-2.565-43.958-29.116-121.879-29.39-122.729l-0.441-0.999v-1.146l1.43-114.026L147.41,92.986
		c-0.294,0.426-0.578,0.999-0.861,1.425c-3.574,5.565-8.42,13.134-16.271,14.558l-1.141,0.142l-1.141-0.142
		c-7.705-1.424-12.561-8.992-16.271-14.558c-0.284-0.426-0.567-0.857-0.856-1.283l-77.353,44.101l5.282,110.316l-0.284,1.146
		C38.513,249.404,14.679,327.462,12.25,371.42z"/>
</g>
<g>
	<path fill="#FFFFFF" d="M73.195,267.526c-1.571-3.427-2.286-5.14-3.857-8.419c0.856-0.432,1.43-0.578,2.286-0.999
		c-4.709-10.995-7.137-16.556-11.846-27.54c-1.14,0.421-1.713,0.715-2.712,1.283c-1.572-3.428-2.281-5.141-3.852-8.431
		c7.137-3.132,10.7-4.562,17.979-6.979c1.146,3.563,1.713,5.277,3.001,8.84c-1.146,0.432-1.714,0.578-2.859,0.999
		c4,11.278,5.997,16.986,9.991,28.254c0.998-0.272,1.43-0.567,2.428-0.851c1.141,3.563,1.714,5.287,2.996,8.85
		C81.184,264.1,78.472,265.098,73.195,267.526z"/>
	<path fill="#FFFFFF" d="M94.312,259.821c-0.998-3.563-1.424-5.424-2.423-8.987c0.999-0.294,1.425-0.441,2.423-0.715
		c-2.996-11.563-4.567-17.417-7.563-28.969c-1.141,0.273-1.714,0.421-2.996,0.852c-0.998-3.563-1.43-5.424-2.428-8.987
		c7.421-1.997,11.131-2.858,18.552-4.142c0.573,3.7,1.004,5.561,1.572,9.124c-1.141,0.147-1.714,0.294-2.854,0.578
		c2.287,11.699,3.427,17.69,5.566,29.4c3.71-0.715,5.707-0.999,9.418-1.43c-0.284-2.145-0.426-3.132-0.715-5.276
		c4.142-0.568,6.28-0.715,10.422-0.999c0.426,5.854,0.567,8.703,0.856,14.558C112.155,255.543,106.017,256.679,94.312,259.821z"/>
	<path fill="#FFFFFF" d="M162.967,223.147c-4.71-0.715-7.001-1.146-11.71-1.576c0.147-2.145,0.284-3.133,0.567-5.276
		c-1.135-0.147-1.703-0.147-2.985-0.295c-1.009,11.993-1.577,17.848-2.575,29.831c0.998,0.147,1.419,0.147,2.428,0.294
		c-0.431,3.7-0.567,5.561-1.009,9.271c-5.697-0.568-8.556-0.715-14.264-0.715c0-3.711,0-5.571,0-9.271c0.999,0,1.425,0,2.423,0
		c0.289-11.993,0.289-17.984,0.572-29.978c-1.14,0-1.713,0-2.995,0c0,2.144,0,3.143,0,5.276c-4.709,0-6.995,0-11.704,0.295
		c-0.426-5.855-0.568-8.704-0.857-14.559c14.701-0.852,29.684-0.137,44.242,2.281C164.533,214.434,163.955,217.293,162.967,223.147z
		"/>
	<path fill="#FFFFFF" d="M165.1,258.108c0.852-3.574,1.293-5.424,1.998-9.135c0.998,0.284,1.429,0.284,2.428,0.567
		c2.859-11.698,4.289-17.406,7-29.105c-1.156-0.294-1.724-0.431-2.858-0.715c0.851-3.573,1.282-5.424,1.997-9.145
		c15.262,3.427,22.83,6.002,37.389,12.571c-2.134,4.846-3.279,7.274-5.424,12.13c-4.426-1.997-6.57-2.858-11.132-4.572
		c0.567-1.43,0.862-2.281,1.43-3.71c-3.847-1.43-5.718-2.145-9.565-3.28c-1.282,3.994-1.85,5.845-3.133,9.839
		c1.566,0.441,2.418,0.715,3.995,1.293c0.283-0.999,0.42-1.43,0.851-2.428c4.426,1.576,6.707,2.28,10.984,4.142
		c-2.133,5.276-3.279,7.988-5.424,13.265c-3.994-1.702-5.991-2.417-10.133-3.847c0.295-0.999,0.441-1.43,0.862-2.429
		c-1.43-0.567-2.28-0.714-3.71-1.146c-1.283,3.994-1.861,5.991-3.144,9.85c1.009,0.283,1.43,0.431,2.429,0.715
		c-1.146,3.563-1.714,5.287-2.849,8.85C173.52,260.105,170.808,259.391,165.1,258.108z"/>
</g>
<g>
	<path fill="#FFC7AC" d="M185.229,91.273c0,46.812-25.416,96.33-56.661,96.33c-31.255,0-56.661-49.519-56.661-96.33
		c0-46.813,25.405-84.774,56.661-84.774C159.813,6.499,185.229,44.461,185.229,91.273z"/>
	<path fill="#231F20" d="M128.568,194.026c-17.128,0-33.399-11.988-45.671-33.968c-11.132-19.692-17.412-44.81-17.412-68.928
		c0-23.834,6.28-46.381,17.696-63.509C95.169,9.784,111.298-0.064,128.568-0.064c17.265,0,33.537,9.849,45.382,27.687
		c11.415,16.98,17.69,39.533,17.69,63.509c0,24.118-6.275,49.235-17.406,68.928C161.958,182.038,145.686,194.026,128.568,194.026z
		 M128.568,12.922c-27.687,0-50.239,35.107-50.239,78.352c0,21.979,5.708,44.81,15.699,62.652
		c9.708,17.412,22.263,27.397,34.393,27.397c12.136,0,24.686-9.985,34.398-27.397c9.985-17.843,15.704-40.674,15.704-62.652
		C178.796,48.029,156.26,12.922,128.568,12.922z"/>
</g>
</svg>
