<?xml version="1.0" encoding="utf-8"?>
<!-- Generator: Adobe Illustrator 16.0.0, SVG Export Plug-In . SVG Version: 6.00 Build 0)  -->
<!DOCTYPE svg PUBLIC "-//W3C//DTD SVG 1.1//EN" "http://www.w3.org/Graphics/SVG/1.1/DTD/svg11.dtd">
<svg version="1.1" id="Warstwa_1" xmlns="http://www.w3.org/2000/svg" xmlns:xlink="http://www.w3.org/1999/xlink" x="0px" y="0px"
	 width="185.198px" height="185.199px" viewBox="0 0 185.198 185.199" enable-background="new 0 0 185.198 185.199"
	 xml:space="preserve">
<g>
	<path fill="#BF4B13" stroke="#231F20" stroke-width="8" stroke-miterlimit="10" d="M175.766,62.12
		c16.832,45.934-6.758,96.814-52.688,113.645c-45.934,16.836-96.814-6.756-113.645-52.689C-7.4,77.147,16.191,26.267,62.12,9.433
		C108.053-7.399,158.934,16.188,175.766,62.12z"/>
	<path fill="#231F20" d="M167.521,51.517c-1.221-2.236-2.557-4.441-3.961-6.547l-0.842-1.268l-0.932,0.775
		c-4.986-0.574-10.648-0.414-16.846,0.477l-0.822,0.125c-6.75,1.016-17.248,3.121-28.936,7.404
		c-3.967,1.455-7.875,3.088-11.586,4.842c-10.77,4.865-19.655,10.492-26.363,16.684c-9.017,7.539-12.629,17.422-13.955,22.455
		c-4.646-1.141-9.227-2.344-13.65-3.596c0.285-1.281,0.573-2.512,0.858-3.686c3.983-16.305,8.028-28.549,16.915-42.867
		c9.744-15.701,20.261-24.225,27.371-28.613l1.051-0.656c0.979-0.617,2.201-1.389,2.861-1.746c3.07-1.658,5.258-2.699,7.1-3.371
		c1-0.369,1.939-0.645,3.055-0.893c0.416-0.096,0.777-0.168,1.088-0.229l0.051-2.672c-0.781-0.174-1.566-0.344-2.357-0.5
		c-2.557-0.5-5.199-0.896-7.859-1.174l-2.244-0.234l0.439,1.105c-0.23,0.08-0.463,0.16-0.684,0.244
		c-2.406,0.883-4.459,1.861-6.459,3.08c-11.454,6.975-21.63,17.547-30.237,31.422C51.17,57.241,46.753,70.614,42.681,87.274
		c-0.258,1.061-0.518,2.166-0.772,3.311c-3.714-1.145-7.341-2.338-10.883-3.578c1.681-10.133,2.585-21.248,2.914-35.82
		c0.181-7.678,0.94-14.365,2.267-19.873l0.159-0.676c0.205-0.873,0.384-1.629,0.646-2.289c0.135-0.336,0.27-0.633,0.406-0.914
		l-2.096-1.646c-2.665,2.172-5.227,4.537-7.633,7.031l-0.768,0.799l0.475,0.705c-0.845,4.951-1.347,10.561-1.489,16.678
		C25.6,64.429,24.81,74.728,23.352,84.083c-8.188-3.414-13.074-6.508-15.753-8.543c-0.014-0.01-0.064-0.064-0.125-0.146L5.647,72.86
		l-0.618,3.063l-0.152,0.713c-0.345,1.768-0.639,3.563-0.89,5.486l-0.206,1.541l1.398,0.004c4.453,2.975,10.071,5.83,16.702,8.492
		c-1.183,5.674-2.72,11.451-4.684,17.613c-1.555,4.885-3.961,10.33-6.782,15.369l-1.116,0.42l0.541,1.305
		c0.889,2.146,1.854,4.244,2.863,6.238l1.544,3.033l0.984-3.256c0.024-0.086,0.053-0.164,0.075-0.207
		c3.917-6.27,7.399-13.727,9.547-20.461c1.929-6.057,3.455-11.709,4.65-17.23c3.484,1.207,7.107,2.389,10.804,3.516
		c-2.647,14.811-3.188,28.504-1.595,40.703c1.587,12.191,5.285,22.539,10.99,30.766l-0.229,0.736l1.014,0.523
		c4.093,2.117,8.37,3.916,12.707,5.348l1.258-2.383c-0.39-0.299-0.703-0.568-0.952-0.781c-9.141-7.896-14.798-19.754-16.82-35.248
		c-1.455-11.154-0.987-23.729,1.387-37.393c4.57,1.283,9.27,2.514,14.006,3.668c-0.426,7.531,0.377,20.998,9.025,34.092
		c6.169,9.342,18.416,19.318,31.96,26.043c4.783,2.373,12.186,5.541,20.297,7.129c1.094,0.217,2.195,0.402,3.295,0.555l0.32,0.934
		l1.385-0.66c3.473-1.656,6.887-3.572,10.141-5.691l-1.008-2.484c-0.418,0.084-0.775,0.131-0.982,0.152
		c-8.381,0.805-18.986-1.729-29.867-7.131c-12.355-6.133-23.403-15.049-28.834-23.27c-6.86-10.383-7.877-21.328-7.735-27.793
		c4.705,1.059,9.492,2.066,14.239,2.996c26.786,5.266,50.096,7.807,58.874,8.654c14.436,1.393,24.551,0.279,30.533-0.908
		l1.238,0.316l0.35-1.309c0.508-1.932,0.953-3.844,1.318-5.693l0.672-3.377l-2.641,1.57c-0.068,0.035-0.131,0.068-0.182,0.086
		c-4.549,1.154-14.57,2.857-30.516,1.316c-11.355-1.102-40.936-4.42-72.733-11.629c1.285-4.127,4.446-11.918,11.282-18.256
		c6.498-5.398,13.814-10.154,21.722-14.131c4.043-1.938,8.398-3.766,12.941-5.432c9.836-3.602,20.379-6.377,28.924-7.609
		c1.938-0.281,3.857-0.482,5.705-0.607c4.459-0.289,8.443-0.096,11.842,0.578c0.609,0.121,1.164,0.252,1.67,0.381
		c0.117,0.033,0.289,0.084,0.469,0.166l3.666,1.592L167.521,51.517z"/>
</g>
</svg>
