<?xml version="1.0" encoding="utf-8"?>
<!-- Generator: Adobe Illustrator 16.0.0, SVG Export Plug-In . SVG Version: 6.00 Build 0)  -->
<!DOCTYPE svg PUBLIC "-//W3C//DTD SVG 1.1//EN" "http://www.w3.org/Graphics/SVG/1.1/DTD/svg11.dtd">
<svg version="1.1" id="Warstwa_1" xmlns="http://www.w3.org/2000/svg" xmlns:xlink="http://www.w3.org/1999/xlink" x="0px" y="0px"
	 width="271.841px" height="239.201px" viewBox="-0.368 -0.461 271.841 239.201"
	 enable-background="new -0.368 -0.461 271.841 239.201" xml:space="preserve">
<g>
	<path fill="#FFC7AC" d="M7.49,33.068c0,0,4.858,15.722,4.716,15.722l0,0c0,0,0.142,0,0.289,0c0.143,0,0.427,0,0.711,0
		c1.147,0,3.005,0.142,5.432,0.432c2.432,0.284,5.574,0.71,9.147,1.426c3.574,0.716,7.574,1.716,12.006,3.147
		c4.432,1.284,9.148,3.142,14.006,5.143c4.863,2.142,10.006,4.716,15.153,7.574c5.143,3.005,10.29,6.148,15.433,9.864
		c1.29,0.858,2.574,1.858,3.863,2.716c1.284,1,2.568,2,3.716,2.858c2.568,1.858,5,4.005,7.432,6.006
		c4.858,4.142,9.574,8.574,14.148,13.006c4.432,4.574,8.863,9.147,12.864,13.722c1,1.142,2,2.284,3,3.426
		c1,1.142,1.858,2.289,2.858,3.427c1.858,2.295,3.716,4.442,5.432,6.716c1.711,2.295,3.438,4.442,5.006,6.579
		c1.568,2.147,3,4.284,4.432,6.284s2.854,4.012,4.147,5.864c1.284,1.862,2.421,3.716,3.569,5.432
		c1.146,1.716,2.137,3.295,3.146,4.716c0.854,1.568,1.706,2.863,2.569,4.147c3,5,4.716,7.864,4.716,7.864l59.308-40.592
		c0,0-2.421-3.011-6.716-8.432c-0.989-1.29-2.284-2.864-3.568-4.432c-1.284-1.574-2.854-3.29-4.285-5.148
		c-1.578-1.858-3.146-3.716-5.01-5.716c-1.706-2-3.706-4.147-5.706-6.29c-2-2.143-4.011-4.432-6.295-6.716
		c-2.284-2.29-4.568-4.574-6.863-7.005c-2.284-2.427-5.001-4.716-7.579-7.29c-1.285-1.284-2.568-2.426-4-3.716
		c-1.285-1.284-2.717-2.427-4.138-3.716c-5.579-5-11.579-9.858-17.728-14.722c-6.284-4.858-12.716-9.432-19.579-13.864
		c-3.432-2.142-6.716-4.426-10.29-6.284c-1.716-1-3.432-2.005-5.147-3.005c-1.711-1-3.569-1.858-5.285-2.858
		c-7.005-3.716-14.295-7-21.438-10c-7.147-2.863-14.153-5.29-21.012-7.295c-6.863-1.853-13.438-3.426-19.58-4.426
		c-6.148-1-11.864-1.716-17.153-2c-5.142-0.29-9.716-0.432-13.58-0.29c-3.858,0.147-7,0.432-9.29,0.716
		c-1.284,0.143-2.284,0.285-3,0.432c-1,0.142-1,0.142-1,0.142L7.49,33.068z"/>
	<path fill="#231F20" d="M162.987,178.57l-10.717-17.728l-6.568-10c-0.716-1.147-1.579-2.295-2.432-3.579
		c-0.568-0.716-1-1.432-1.568-2.137c-0.432-0.717-1.011-1.432-1.579-2.285c-0.853-1.284-1.853-2.579-2.71-3.863l-5.006-6.579
		c-1-1.432-2.143-2.716-3.285-4.147c-0.716-0.853-1.29-1.568-2-2.421l-2.858-3.432c-0.574-0.569-1.147-1.284-1.716-2.001
		l-1.147-1.289c-3.569-4.142-7.716-8.574-12.574-13.432c-4.716-4.716-9.29-8.864-13.722-12.722l-1.574-1.432
		c-1.857-1.568-3.716-3.142-5.432-4.426l-3.716-2.858c-1.284-0.858-2.568-1.716-3.716-2.716c-4.285-3.005-9.001-6.147-14.864-9.432
		c-5-2.863-9.858-5.29-14.432-7.147c-5.432-2.29-9.58-3.863-13.295-5.005c-4.432-1.285-8.147-2.285-11.432-2.858
		c-3.29-0.716-6.29-1.142-8.574-1.284c-2.716-0.284-4.29-0.284-4.863-0.284l-7.858-0.147l0.716-5.858
		c-0.574-2.142-2.29-7.574-3.147-10.29c-0.858-2.574-1.284-4.29-1.427-5.574l0,0l-1.857-32.16L5.49,0.908
		c0.142,0,0.574-0.142,1-0.142c0.716-0.142,1.716-0.284,3-0.426c2.858-0.284,6.29-0.574,9.864-0.716
		c4-0.142,9.006-0.142,14.29,0.284c5.29,0.29,11.295,1,17.727,2.147c5.858,1,12.432,2.426,20.295,4.574
		c6.858,2,14.148,4.427,21.723,7.432c8.29,3.426,15.438,6.716,22.011,10.29l5.574,3l5.148,3c3,1.716,6,3.574,8.858,5.432l1.574,1
		c6.579,4.29,13.001,8.863,20.011,14.148c6.864,5.29,12.864,10.295,18.148,15.011l1.285,1.142c1.01,0.858,2,1.716,3.01,2.574
		l4,3.716c0.854,0.858,1.706,1.568,2.569,2.432c1.716,1.568,3.579,3.284,5.284,5.142l6.863,7.006c1.579,1.568,3,3.142,4.295,4.716
		c0.705,0.716,1.284,1.426,2,2.142s1.285,1.426,1.854,2.142c1.432,1.432,2.715,2.863,4,4.29l9.432,11.006l14.58,18.148
		L162.987,178.57z M17.07,42.647c0.568,0,1.284,0.142,2,0.142c2.716,0.284,6,0.71,9.716,1.426c3.574,0.716,7.864,1.716,12.722,3.29
		c4,1.142,8.717,3,14.58,5.432c5,2.142,10.29,4.716,15.722,7.858c6.29,3.716,11.432,6.863,16.006,10.147
		c1.284,0.858,2.574,1.858,3.858,2.716l0.289,0.142l3.716,2.858c2,1.432,4,3.147,6,4.863l1.574,1.426
		c4.716,4.006,9.574,8.432,14.58,13.438c5.142,5.143,9.432,9.864,13.148,14.148l1,1.143c0.716,0.716,1.284,1.574,2,2.29l2.858,3.574
		c0.716,0.858,1.284,1.568,1.857,2.284c1.29,1.437,2.574,2.995,3.722,4.722l4.853,6.421c1.147,1.432,2.147,2.863,3,4.295
		c0.568,0.716,1.011,1.432,1.58,2.147c0.568,0.853,0.989,1.432,1.568,2.137c1,1.295,1.863,2.579,2.715,3.863l6.717,10.433
		l3.716,6.147l48.023-32.875l-5.853-7.29l-9.296-10.716c-1.147-1.29-2.432-2.574-3.716-4.005c-0.568-0.716-1.284-1.426-1.853-2.142
		c-0.716-0.716-1.432-1.432-2.147-2.29c-1.284-1.426-2.568-2.858-4-4.285l-6.863-7.005c-1.58-1.574-3.148-3-4.863-4.716
		c-0.854-0.858-1.706-1.574-2.569-2.426l-3.863-3.716c-0.853-0.716-1.716-1.574-2.716-2.432l-1.284-1.142
		c-5.147-4.574-10.864-9.29-17.442-14.438c-6.569-5.148-12.859-9.574-19.148-13.58l-1.569-1c-2.858-1.858-5.574-3.574-8.432-5.143
		l-5.147-3.005l-5.143-2.716c-6.147-3.285-13.011-6.432-20.869-9.716c-7.006-2.858-14.006-5.147-20.296-7.006
		c-7.29-2-13.438-3.426-18.864-4.284c-6.148-1-11.58-1.716-16.438-2.005c-4.858-0.284-9.29-0.426-13.006-0.284
		c-2.858,0.142-5.148,0.284-6.716,0.432l1.143,19.148c0.142,0.716,0.568,1.863,1,3.29C15.638,37.5,16.495,40.358,17.07,42.647z"/>
</g>
<g>
	<path fill="#FFC7AC" d="M262.613,160.558c-0.569-0.432-9.433-7-22.012-7.863c-5.421-16.148-20.864-27.433-38.729-26.864
		c-21.728,0.853-38.591,19.011-37.875,40.738c0.147,4.138,1,8.138,2.284,11.854c-3.432,5.727-6.147,13.158-5.716,22.442
		c0.284,5.433,4.863,9.717,10.432,9.433h0.137c5.579-0.284,9.728-5,9.442-10.433c0-0.852,0-1.715,0-2.578
		c2.432,1.727,5.001,3.147,7.717,4.295c2.147,7.284-0.568,13.716-0.716,14.147c-2.284,5.001-0.147,10.864,4.863,13.285
		c0.421,0.147,0.716,0.295,1.137,0.442c4.716,1.568,10.001-0.579,12.147-5.295c0.295-0.568,4.148-9.148,3.285-20.159
		c0.863-0.137,1.863-0.273,2.716-0.568c8.295,7.147,6.727,17.728,6.727,18.296c-0.853,4.863,2,9.579,6.579,11.147
		c0.421,0.147,0.989,0.284,1.421,0.432c5.433,1,10.728-2.568,11.717-8.001c0.147-0.863,3.011-17.442-8.001-31.59
		c0.568-0.569,1.138-1.148,1.717-1.717c5.295,4,7.295,9.58,7.432,10.001c1.147,3.727,4.284,6.295,7.863,6.863
		c1.432,0.295,3,0.147,4.568-0.284c5.285-1.568,8.295-7.147,6.717-12.432c-0.137-0.717-4.285-13.728-17.012-21.875
		c0.147-0.568,0.295-0.99,0.442-1.568c4.853,0.853,8.284,3.295,8.568,3.432c3.147,2.284,7.147,2.579,10.433,1
		c1.295-0.716,2.578-1.568,3.568-2.863C267.76,170.275,267.044,163.99,262.613,160.558z"/>
	<path fill="#231F20" d="M228.453,238.74c-0.854,0-1.863-0.147-2.717-0.284c-0.705-0.147-1.421-0.284-2.137-0.579
		c-7.011-2.421-11.158-9.432-9.874-16.716c0-0.148,0.295-2.148-0.137-4.864c-1,5.727-2.716,9.433-3.147,10.148
		c-2.422,5.284-7.854,8.579-13.58,8.579c-1.568,0-3.137-0.284-4.716-0.716c-0.568-0.137-1.137-0.432-1.705-0.716
		c-7.433-3.432-10.717-12.432-7.295-19.864c0,0,1.294-3,1.147-6.863c-0.568,1.284-1.432,2.568-2.432,3.716
		c-2.717,3-6.433,4.716-10.433,4.863h-0.295c-0.137,0-0.273,0-0.568,0c-8,0-14.569-6.284-15.011-14.295
		c-0.422-8.285,1.295-16.012,5.158-23.148c-1.147-3.579-1.727-7.432-1.863-11.158c-0.432-11.854,3.716-23.148,11.863-31.865
		c8.148-8.727,19.012-13.717,30.865-14.153c18.737-0.716,35.454,10.29,42.591,27.154c12.158,1.716,20.443,7.863,21.454,8.579
		c3.137,2.432,5.137,6,5.705,10.011c0.568,4.001-0.568,7.854-2.989,11.138c-1.432,1.863-3.295,3.284-5.295,4.295
		c-1.716,0.853-3.569,1.284-5.569,1.432c4.138,6,5.706,11.137,5.706,11.568c1.147,3.863,0.716,7.864-1.138,11.443
		c-1.852,3.568-5.01,6.137-8.863,7.284c-2.284,0.716-4.568,0.863-6.863,0.421c-1.137-0.137-2.147-0.421-3.137-0.853
		c0.853,7.295,0,12.728-0.147,13.148C241.896,233.456,235.601,238.74,228.453,238.74z M213.305,198.15l1.853,1.715
		c10.147,8.854,8.579,21.443,8.295,22.865c-0.432,2.578,1,4.863,3.284,5.716c0.295,0.147,0.432,0.147,0.716,0.147
		c2.716,0.568,5.285-1.285,5.864-4c0-0.148,2.715-15.159-7.001-27.581l-2.863-3.579l3.432-3.147c0.568-0.432,1-1,1.432-1.421
		l2.99-3.147l3.579,2.568c6.432,4.716,8.863,11.147,9.284,12.433c0.579,1.863,2.147,3.284,4.011,3.579
		c0.716,0.147,1.568,0.147,2.284-0.147c1.284-0.421,2.295-1.284,3-2.422c0.579-1.146,0.716-2.578,0.432-3.863
		c0-0.146-3.716-12.011-14.863-19.011l-3.001-2l0.854-3.433c0.147-0.431,0.295-0.852,0.295-1.42l0.989-4.864l4.863,0.853
		c5.853,1,9.863,3.863,10.579,4.285c1,0.716,2,1.01,3.147,1.01l0,0c0.716,0,1.569-0.146,2.138-0.578
		c0.715-0.285,1.295-0.854,1.715-1.422c0.863-1.01,1.138-2.441,1.001-3.727c-0.138-1.284-0.853-2.568-1.863-3.284
		c-0.138,0-8.001-6.147-19.148-6.863l-3.284-0.284l-1-3.147c-4.863-14.433-18.443-24.001-33.875-23.433
		c-9.148,0.284-17.58,4.284-23.875,11.011c-6.274,6.716-9.433,15.433-9.138,24.569c0.147,3.58,0.853,7.012,2,10.443l0.863,2.284
		l-1.295,2c-3.568,6.011-5.295,12.579-5,19.58c0.147,2.716,2.284,4.716,5,4.716h0.284c1.284,0,2.432-0.705,3.432-1.568
		s1.285-2.295,1.285-3.579c0-0.989,0-2.001,0-3.284l0.715-8.717l7.148,5c2.137,1.432,4.284,2.717,6.716,3.717l2.147,0.863
		l0.705,2.283c2.579,8.58-0.273,16.148-0.853,17.717c-1.147,2.579-0.137,5.58,2.432,6.717c0.147,0.146,0.432,0.146,0.568,0.295
		c2.295,0.715,5.011-0.432,6.001-2.569c0-0.147,3.578-7.874,2.863-17.579l-0.422-4.727l4.568-0.705
		c0.717-0.148,1.569-0.295,2.285-0.442L213.305,198.15z"/>
</g>
<polygon fill="#F1F2F2" points="136.554,139.546 159.997,177.138 229.747,128.251 202.02,92.671 "/>
<rect x="174.761" y="91.782" transform="matrix(-0.5688 -0.8225 0.8225 -0.5688 174.7308 357.9308)" fill="#ED5F70" width="12.863" height="82.76"/>
<path fill="#231F20" d="M161.702,183.285c-0.989,0.284-2,0.284-2.989,0.147c-1.727-0.295-3.295-1.432-4.148-2.863l-23.442-37.592
	c-1.858-2.853-1-6.716,1.716-8.579l65.603-46.733c2.863-2,6.716-1.426,8.864,1.29l27.727,35.591
	c1.138,1.432,1.569,3.137,1.285,4.853c-0.285,1.716-1.285,3.295-2.717,4.284l-69.75,48.887
	C162.987,182.717,162.418,183.138,161.702,183.285z M145.133,141.263l16.717,26.727l58.739-41.022l-19.728-25.296L145.133,141.263z"
	/>
</svg>
