<?xml version="1.0" encoding="utf-8"?>
<!-- Generator: Adobe Illustrator 16.0.0, SVG Export Plug-In . SVG Version: 6.00 Build 0)  -->
<!DOCTYPE svg PUBLIC "-//W3C//DTD SVG 1.1//EN" "http://www.w3.org/Graphics/SVG/1.1/DTD/svg11.dtd">
<svg version="1.1" id="Warstwa_1" xmlns="http://www.w3.org/2000/svg" xmlns:xlink="http://www.w3.org/1999/xlink" x="0px" y="0px"
	 width="270.727px" height="237.6px" viewBox="0 0 270.727 237.6" enable-background="new 0 0 270.727 237.6" xml:space="preserve">
<g>
	<path fill="#FFC7AC" d="M263.274,33.305c0,0-4.853,15.688-4.706,15.688l0,0c0,0-0.146,0-0.283,0s-0.431,0-0.715,0
		c-1.145,0-2.993,0.142-5.409,0.431c-2.438,0.284-5.567,0.709-9.139,1.424c-3.561,0.714-7.563,1.712-11.975,3.141
		c-4.422,1.281-9.129,3.136-13.981,5.131c-4.843,2.138-9.979,4.706-15.115,7.558c-5.137,2.999-10.273,6.135-15.399,9.843
		c-1.281,0.856-2.563,1.854-3.854,2.71c-1.282,0.998-2.573,1.996-3.708,2.853c-2.563,1.854-4.99,3.996-7.416,5.992
		c-4.854,4.134-9.559,8.556-14.117,12.978c-4.423,4.564-8.845,9.129-12.837,13.692c-0.997,1.14-1.995,2.279-2.993,3.419
		s-1.859,2.285-2.852,3.419c-1.854,2.29-3.708,4.434-5.421,6.702c-1.712,2.29-3.424,4.433-4.995,6.565
		c-1.565,2.143-2.994,4.275-4.422,6.271c-1.423,1.996-2.852,4.002-4.133,5.851c-1.282,1.859-2.426,3.708-3.566,5.42
		c-1.14,1.713-2.138,3.288-3.136,4.706c-0.856,1.565-1.712,2.857-2.568,4.139c-2.993,4.989-4.706,7.847-4.706,7.847l-59.186-40.504
		c0,0,2.421-3.004,6.702-8.414c0.998-1.286,2.279-2.856,3.566-4.422c1.282-1.57,2.852-3.283,4.275-5.137
		c1.57-1.854,3.141-3.708,4.995-5.704c1.712-1.995,3.708-4.138,5.704-6.275s3.992-4.423,6.276-6.702
		c2.28-2.284,4.564-4.563,6.844-6.99c2.285-2.421,4.995-4.706,7.558-7.274c1.287-1.281,2.568-2.421,3.997-3.708
		c1.281-1.281,2.71-2.421,4.133-3.708c5.562-4.989,11.555-9.837,17.684-14.689c6.276-4.848,12.694-9.412,19.543-13.834
		c3.424-2.138,6.701-4.417,10.272-6.271c1.702-0.998,3.414-2.001,5.127-2.999c1.712-0.998,3.57-1.854,5.272-2.852
		c6.996-3.708,14.265-6.985,21.397-9.979c7.132-2.856,14.128-5.278,20.966-7.279c6.839-1.849,13.403-3.419,19.538-4.417
		s11.838-1.712,17.111-1.995c5.137-0.289,9.705-0.431,13.55-0.289c3.855,0.146,6.996,0.431,9.265,0.714
		c1.292,0.142,2.29,0.284,3.004,0.431c0.998,0.142,0.998,0.142,0.998,0.142L263.274,33.305z"/>
	<path fill="#231F20" d="M108.106,178.493l-70.452-48.215l14.69-18.245l9.27-10.84c1.282-1.429,2.568-2.853,3.992-4.423
		c0.572-0.714,1.286-1.281,1.854-1.996c0.714-0.714,1.429-1.57,2.143-2.284c1.423-1.565,2.852-2.994,4.275-4.564l6.849-6.985
		c1.565-1.712,3.419-3.424,5.132-4.989c0.855-0.714,1.712-1.57,2.426-2.426l3.992-3.708c0.998-0.998,1.996-1.854,2.993-2.711
		l1.287-1.14c5.278-4.711,11.124-9.559,17.967-14.979c6.991-5.273,13.55-9.984,19.968-14.117l1.713-0.998
		c2.852-1.854,5.851-3.708,8.98-5.421l5.273-3.135l5.283-2.853c6.565-3.424,13.688-6.849,21.817-10.268
		c7.563-2.999,14.832-5.567,21.681-7.416c7.847-2.143,14.412-3.708,20.252-4.569c6.418-1.14,12.416-1.849,17.689-2.138
		c5.272-0.283,10.125-0.425,14.264-0.283c3.562,0.142,6.976,0.426,9.832,0.714c1.429,0.143,2.427,0.284,3.141,0.426
		c0.432,0.142,0.852,0.142,0.998,0.142l5.841,0.572l-1.849,32.091l0,0c-0.147,1.281-0.715,2.993-1.429,5.562
		c-0.851,2.71-2.416,8.131-3.13,10.268l0.566,5.846l-7.699,0.143c-0.715,0-2.427,0.146-4.989,0.288
		c-2.29,0.284-5.284,0.709-8.562,1.282c-3.287,0.572-6.984,1.57-11.271,2.852c-3.697,1.145-7.983,2.71-13.403,4.995
		c-4.422,1.995-9.265,4.417-14.412,7.273c-5.84,3.277-10.546,6.418-14.832,9.412c-1.281,0.856-2.563,1.712-3.697,2.71l-3.719,2.852
		c-1.848,1.424-3.697,2.853-5.557,4.417l-1.712,1.429c-4.411,3.708-8.845,7.847-13.687,12.694
		c-4.854,4.848-8.981,9.27-12.405,13.403l-1.146,1.287c-0.578,0.714-1.281,1.429-1.859,2.143l-2.71,3.425
		c-0.567,0.851-1.281,1.564-1.995,2.416c-1.135,1.428-2.279,2.71-3.277,4.139l-4.99,6.701c-0.998,1.281-1.854,2.563-2.71,3.845
		c-0.572,0.861-1.14,1.575-1.57,2.29c-0.425,0.714-0.998,1.428-1.423,2.143c-0.856,1.135-1.712,2.416-2.427,3.561l-6.56,9.99
		L108.106,178.493z M56.336,127.433l47.92,32.805l3.85-6.418l6.707-10.127c0.851-1.281,1.707-2.573,2.705-3.854
		c0.431-0.714,1.003-1.429,1.429-2.133c0.572-0.861,1.14-1.565,1.57-2.279c0.998-1.429,1.996-2.856,2.994-4.285l4.99-6.555
		c1.145-1.576,2.426-3.142,3.708-4.569c0.572-0.715,1.286-1.565,1.854-2.279l2.857-3.566c0.709-0.856,1.423-1.57,2.138-2.427
		l1.003-1.14c3.697-4.275,7.983-8.845,13.109-14.117c5.147-4.995,9.853-9.412,14.559-13.409l1.702-1.423
		c1.995-1.57,3.991-3.282,6.134-4.854l3.855-2.993c1.281-0.856,2.563-1.854,3.854-2.71c4.559-3.277,9.686-6.56,15.819-10.126
		c5.567-3.136,10.841-5.704,15.693-7.842c5.987-2.568,10.546-4.28,14.685-5.42c4.706-1.429,8.992-2.568,12.553-3.282
		c3.708-0.715,6.985-1.282,9.695-1.424c0.715,0,1.281-0.142,1.996-0.142c0.714-2.284,1.575-5.137,2.29-7.416
		c0.42-1.429,0.861-2.568,0.997-3.282l1.146-19.112c-1.723-0.143-3.991-0.284-6.702-0.426c-3.854-0.142-8.13,0-12.982,0.283
		c-4.854,0.284-10.42,0.998-16.408,1.996c-5.42,0.856-11.555,2.285-18.971,4.28c-6.407,1.854-13.256,4.134-20.388,6.985
		c-7.7,3.141-14.549,6.418-20.683,9.701l-5.273,2.71l-5.137,2.993c-2.847,1.57-5.557,3.283-8.414,5.137l-1.564,0.998
		c-6.135,3.991-12.411,8.414-19.112,13.545c-6.56,5.137-12.264,9.843-17.259,14.406l-1.281,1.14
		c-0.998,0.856-1.854,1.571-2.71,2.427l-3.85,3.708c-0.856,0.856-1.712,1.57-2.568,2.427c-1.712,1.565-3.283,3.136-4.706,4.563
		l-6.991,7.128c-1.423,1.428-2.71,2.856-3.992,4.28c-0.714,0.714-1.429,1.57-2.143,2.284c-0.567,0.709-1.281,1.281-1.854,1.996
		c-1.282,1.423-2.563,2.71-3.708,3.991L62.329,120.3L56.336,127.433z"/>
</g>
<g>
	<path fill="#FFC7AC" d="M8.7,160.521c0.573-0.431,9.417-6.985,21.964-7.847c5.42-16.113,20.824-27.374,38.65-26.807
		c21.681,0.851,38.508,18.971,37.794,40.651c-0.142,4.128-0.998,8.119-2.28,11.827c3.419,5.715,6.129,13.13,5.704,22.396
		c-0.283,5.42-4.848,9.695-10.409,9.411h-0.147c-5.562-0.283-9.695-4.989-9.412-10.409c0-0.852,0-1.713,0-2.574
		c-2.421,1.723-4.99,3.142-7.7,4.286c-2.138,7.269,0.573,13.687,0.714,14.118c2.28,4.989,0.142,10.84-4.853,13.256
		c-0.425,0.146-0.709,0.294-1.14,0.441c-4.706,1.564-9.984-0.578-12.122-5.284c-0.284-0.567-4.133-9.128-3.283-20.115
		c-0.851-0.137-1.854-0.273-2.71-0.567c-8.267,7.133-6.702,17.689-6.702,18.256c0.856,4.854-1.996,9.56-6.56,11.125
		c-0.425,0.146-0.998,0.283-1.423,0.43c-5.42,0.998-10.699-2.563-11.697-7.982c-0.142-0.861-2.994-17.406,7.989-31.523
		c-0.573-0.567-1.146-1.145-1.712-1.712c-5.278,3.991-7.274,9.559-7.416,9.979c-1.145,3.719-4.28,6.282-7.846,6.849
		c-1.424,0.295-2.994,0.147-4.564-0.283c-5.273-1.565-8.272-7.133-6.702-12.405c0.142-0.714,4.281-13.697,16.969-21.828
		c-0.142-0.567-0.283-0.987-0.425-1.564c-4.848,0.851-8.272,3.287-8.556,3.424c-3.141,2.279-7.133,2.573-10.415,0.998
		c-1.282-0.714-2.563-1.565-3.566-2.857C3.427,170.216,4.283,163.945,8.7,160.521z"/>
	<path fill="#231F20" d="M42.786,238.535c-7.27,0-13.403-5.137-14.69-12.27c-0.142-0.42-0.998-5.84-0.142-13.119
		c-0.998,0.431-1.996,0.714-3.136,0.851c-2.279,0.441-4.564,0.294-6.844-0.42c-3.854-1.146-6.99-3.708-8.844-7.27
		c-1.854-3.571-2.285-7.563-1.14-11.418c0.142-0.283,1.712-5.409,5.704-11.544c-1.854-0.146-3.85-0.577-5.562-1.429
		c-1.996-1.008-3.85-2.563-5.278-4.285c-2.421-3.131-3.566-7.122-2.994-11.113c0.573-4.002,2.568-7.563,5.704-9.99
		c0.998-0.714,9.27-6.848,21.392-8.561c6.99-16.827,23.818-27.81,42.5-27.096c11.838,0.437,22.678,5.415,30.809,14.123
		c8.13,8.697,12.264,19.969,11.838,31.797c-0.142,3.854-0.714,7.563-1.854,11.134c3.85,7.122,5.562,14.969,5.131,23.099
		c-0.425,8.131-7.274,14.549-15.546,14.265h-0.142c-3.992-0.147-7.7-1.995-10.41-4.853c-0.998-1.146-1.854-2.427-2.426-3.708
		c-0.142,3.854,1.145,6.849,1.145,6.995c3.419,7.27,0.142,16.25-7.274,19.675c-0.572,0.283-1.145,0.431-1.712,0.714
		c-1.57,0.431-3.141,0.715-4.706,0.715c-5.709,0-11.124-3.425-13.55-8.562c-0.284-0.567-1.996-4.411-3.135-10.126
		c-0.431,2.711-0.147,4.706-0.147,4.854c1.287,7.132-2.852,14.265-9.837,16.681c-0.714,0.294-1.429,0.431-2.143,0.577
		C44.64,238.388,43.642,238.535,42.786,238.535z M39.934,185.479l2.999,3.141c0.426,0.42,0.998,0.998,1.424,1.429l3.424,3.13
		l-2.852,3.571c-9.701,12.27-6.99,27.374-6.99,27.521c0.431,2.71,3.141,4.559,5.851,3.991c0.283,0,0.425-0.137,0.709-0.137
		c2.285-0.851,3.708-3.141,3.282-5.567c-0.283-1.564-1.854-14.117,8.272-22.951l1.854-1.723l2.427,0.567
		c0.851,0.146,1.565,0.294,2.279,0.44l4.564,0.715l-0.431,4.706c-0.709,9.832,2.857,17.542,2.857,17.542
		c0.998,2.269,3.708,3.414,5.987,2.563c0.142,0,0.425-0.146,0.573-0.294c2.421-1.134,3.561-4.128,2.421-6.555
		c-0.714-1.565-3.566-9.128-0.998-17.688l0.714-2.279l2.138-0.852c2.426-0.998,4.564-2.143,6.707-3.708l7.127-4.989l0.714,8.697
		c0.142,1.135,0.142,2.279,0,3.277c0,1.281,0.431,2.563,1.281,3.571c0.856,0.987,2.143,1.565,3.425,1.565h0.283
		c2.71,0,4.853-2.143,4.995-4.706c0.283-6.985-1.287-13.55-4.995-19.538l-1.281-2.006l0.856-2.269
		c1.14-3.288,1.854-6.849,1.996-10.421c0.284-9.117-2.852-17.825-9.128-24.526c-6.276-6.702-14.69-10.557-23.818-10.978
		c-15.257-0.577-28.949,8.981-33.797,23.383l-0.998,3.141l-3.282,0.283c-11.124,0.715-19.112,6.702-19.112,6.85
		c-0.998,0.851-1.707,1.995-1.854,3.277c-0.142,1.281,0.147,2.563,0.998,3.707c0.431,0.578,0.998,1.146,1.712,1.429
		c1.712,0.851,3.708,0.567,5.137-0.577c0.856-0.567,4.848-3.277,10.693-4.412l4.853-0.861l0.998,4.854
		c0.142,0.42,0.142,0.851,0.284,1.428l0.855,3.425l-2.993,1.995c-11.124,7.122-14.832,18.824-14.832,18.971
		c-0.431,1.281-0.289,2.7,0.425,3.845c0.573,1.135,1.712,1.996,2.994,2.416c0.714,0.294,1.57,0.294,2.285,0.147
		c1.854-0.284,3.424-1.565,3.992-3.425c0.431-1.429,2.852-7.836,9.27-12.542L39.934,185.479z"/>
</g>
<polygon fill="#F1F2F2" points="134.492,139.554 111.105,177.065 41.363,128.283 69.031,92.78 "/>
<rect x="48.667" y="126.645" transform="matrix(-0.8225 -0.5687 0.5687 -0.8225 88.2654 293.6702)" fill="#ED5F70" width="82.576" height="12.835"/>
<path fill="#231F20" d="M107.392,182.338l-69.595-48.771c-1.429-0.997-2.426-2.573-2.71-4.274c-0.283-1.713,0.142-3.572,1.282-4.854
	l27.668-35.515c2.143-2.705,5.993-3.277,8.844-1.281l65.462,46.639c2.705,1.995,3.566,5.704,1.718,8.561l-23.393,37.5
	c-1.003,1.429-2.427,2.573-4.139,2.857c-0.998,0.146-1.996,0.146-2.994-0.147C108.679,183.052,107.964,182.632,107.392,182.338z
	 M70.312,101.618l-19.68,25.247l58.619,40.935l16.686-26.681L70.312,101.618z"/>
</svg>
