<?xml version="1.0" encoding="utf-8"?>
<!-- Generator: Adobe Illustrator 16.0.0, SVG Export Plug-In . SVG Version: 6.00 Build 0)  -->
<!DOCTYPE svg PUBLIC "-//W3C//DTD SVG 1.1//EN" "http://www.w3.org/Graphics/SVG/1.1/DTD/svg11.dtd">
<svg version="1.1" id="Warstwa_1" xmlns="http://www.w3.org/2000/svg" xmlns:xlink="http://www.w3.org/1999/xlink" x="0px" y="0px"
	 width="259.479px" height="326.353px" viewBox="-1.291 0.979 259.479 326.353"
	 enable-background="new -1.291 0.979 259.479 326.353" xml:space="preserve">
<g>
	<path fill="#FFC7AC" d="M32.221,191.72c14.945,0,27.063,12.118,27.063,27.063c0,14.945-12.118,27.074-27.063,27.074
		c-14.95,0-27.068-12.129-27.068-27.074C5.153,203.838,17.271,191.72,32.221,191.72z"/>
	<path fill="#231F20" d="M32.221,252.29c-18.473,0-33.513-15.029-33.513-33.508c0-18.467,15.04-33.507,33.513-33.507
		s33.508,15.04,33.508,33.507C65.729,237.261,50.694,252.29,32.221,252.29z M32.221,198.163c-11.317,0-20.625,9.303-20.625,20.619
		c0,11.317,9.308,20.619,20.625,20.619c11.312,0,20.619-9.302,20.619-20.619C52.841,207.329,43.533,198.163,32.221,198.163z"/>
</g>
<g>
	<path fill="#FFC7AC" d="M224.681,191.72c14.944,0,27.063,12.118,27.063,27.063c0,14.945-12.119,27.074-27.063,27.074
		c-14.945,0-27.074-12.129-27.074-27.074C197.607,203.838,209.736,191.72,224.681,191.72z"/>
	<path fill="#231F20" d="M224.681,252.29c-18.468,0-33.508-15.029-33.508-33.508c0-18.467,15.04-33.507,33.508-33.507
		s33.507,15.04,33.507,33.507C258.188,237.261,243.149,252.29,224.681,252.29z M224.681,198.163
		c-11.317,0-20.619,9.303-20.619,20.619c0,11.317,9.302,20.619,20.619,20.619c11.316,0,20.619-9.302,20.619-20.619
		C245.301,207.329,235.998,198.163,224.681,198.163z"/>
</g>
<g>
	<path fill="#FFC7AC" d="M231.548,218.498c0,56.563-45.816,102.39-102.385,102.39l0,0c-56.563,0-102.384-45.827-102.384-102.39
		v-41.091c0-56.568,45.821-102.395,102.384-102.395l0,0c56.568,0,102.385,45.826,102.385,102.395v10.02v15.177V218.498z"/>
	<path fill="#231F20" d="M129.163,327.331c-60.001,0-108.828-48.832-108.828-108.833v-41.091
		c0-60.007,48.827-108.839,108.828-108.839c60.007,0,108.839,48.832,108.839,108.839v41.091
		C238.002,278.499,189.17,327.331,129.163,327.331z M129.163,81.314c-52.84,0-95.939,43.105-95.939,95.945v41.091
		c0,52.84,43.1,95.955,95.939,95.955c52.835,0,95.951-43.115,95.951-95.955V177.26C225.114,124.419,182.145,81.314,129.163,81.314z"
		/>
</g>
<g>
	<path fill="#CC987C" d="M94.226,232.525c1.894,0,3.434,1.54,3.434,3.438s-1.54,3.438-3.434,3.438c-1.898,0-3.438-1.539-3.438-3.438
		S92.328,232.525,94.226,232.525z"/>
	<path fill="#CC987C" d="M82.198,247.565c1.893,0,3.433,1.539,3.433,3.438s-1.54,3.438-3.433,3.438c-1.898,0-3.438-1.54-3.438-3.438
		S80.3,247.565,82.198,247.565z"/>
	<path fill="#CC987C" d="M58.14,238.41c1.894,0,3.433,1.529,3.433,3.428s-1.54,3.438-3.433,3.438c-1.898,0-3.438-1.54-3.438-3.438
		S56.242,238.41,58.14,238.41z"/>
</g>
<g>
	<path fill="#CC987C" d="M161.526,232.525c1.898,0,3.438,1.54,3.438,3.438s-1.54,3.438-3.438,3.438s-3.428-1.539-3.428-3.438
		S159.628,232.525,161.526,232.525z"/>
	<path fill="#CC987C" d="M173.698,247.565c1.898,0,3.438,1.539,3.438,3.438s-1.539,3.438-3.438,3.438s-3.428-1.54-3.428-3.438
		S171.8,247.565,173.698,247.565z"/>
	<path fill="#CC987C" d="M197.607,238.41c1.898,0,3.438,1.529,3.438,3.428s-1.54,3.438-3.438,3.438s-3.428-1.54-3.428-3.438
		S195.709,238.41,197.607,238.41z"/>
	<path fill="#CC987C" d="M200.329,259.019c1.898,0,3.438,1.54,3.438,3.438s-1.539,3.438-3.438,3.438s-3.428-1.54-3.428-3.438
		S198.43,259.019,200.329,259.019z"/>
</g>
<path fill="#231F20" d="M127.159,250.286c-7.731,0-15.035-3.291-20.05-9.154c-1.862-2.152-1.572-5.306,0.575-7.024
	c2.146-1.856,5.3-1.582,7.019,0.569c3.148,3.586,7.731,5.737,12.456,5.737s9.023-1.866,12.166-5.305
	c1.867-2.004,5.021-2.142,7.024-0.285s2.151,5.01,0.285,7.014C141.772,247.144,134.6,250.286,127.159,250.286z"/>
<path fill="#FF6B32" d="M230.693,90.195c-29.353-53.842-93.509-79.333-101.53-82.339c0-0.148,0,0,0,0S56.132,36.353,26.779,90.195
	c-16.184,29.785,0,95.081,0,95.081s13.891-65.581,42.673-66.013c35.227-0.57,16.896,29.642,58.852,31.219h0.859
	c41.961-1.577,23.631-31.789,58.857-31.219c28.782,0.432,42.673,66.013,42.673,66.013S247.019,119.979,230.693,90.195z"/>
<path fill="#231F20" d="M27.349,214.058l-6.729-27.2c-0.717-2.722-16.611-68.165,0.575-99.816
	C51.406,31.765,123.869,2.982,126.875,1.838l2.288-0.86l2.295,0.86c7.445,2.721,74.176,28.782,104.962,85.345
	c17.191,31.646,1.287,96.952,0.569,99.811l-6.729,27.211l-5.864-27.348c-3.29-15.757-17.191-60.576-36.513-60.866
	c-0.296,0-0.58,0-0.865,0c-12.74,0-15.462,4.155-20.05,11.169c-5.579,8.596-12.604,19.19-37.657,20.192l0,0c-0.433,0-0.86,0-1.292,0
	l0,0c-25.059-0.859-31.931-11.596-37.663-20.192c-4.583-6.871-7.299-11.169-20.045-11.169c-0.29,0-0.574,0-0.859,0
	c-8.88,0.147-18.33,10.6-26.352,29.357c-6.729,15.604-10.167,31.509-10.167,31.646L27.349,214.058z M129.305,14.869
	c-12.313,5.3-71.74,32.505-96.799,78.474c-6.018,11.027-7.879,29.927-5.3,54.844c0.284,3.296,0.717,6.444,1.144,9.598
	c7.594-20.192,20.767-44.392,41.101-44.824c0.427,0,0.717,0,1.145,0c19.617,0,25.776,9.455,30.786,16.901
	c4.725,7.298,8.881,13.6,27.354,14.317h0.143h0.142c18.331-0.717,22.477-7.019,27.349-14.317
	c5.021-7.736,11.317-17.329,31.937-16.901c20.334,0.29,33.654,24.49,41.101,44.824c0.433-3.011,0.854-6.302,1.149-9.598
	c2.426-24.917,0.718-43.817-5.305-54.844C198.62,44.653,142.763,20.169,129.305,14.869z"/>
<path fill="#231F20" d="M47.541,139.454c0,0,14.323-67.59,35.369-85.778c-11.312,18.615-16.611,59.859-16.611,59.859L47.541,139.454
	z"/>
<path fill="#231F20" d="M208.492,139.454c0,0-14.313-67.59-35.364-85.778c11.317,18.615,16.611,59.859,16.611,59.859
	L208.492,139.454z"/>
<g>
	<path fill="#231F20" d="M183.158,183.419c14.069,0,25.481,11.412,25.481,25.481c0,14.08-11.412,25.491-25.481,25.491
		c-14.091,0-25.502-11.411-25.502-25.491C157.656,194.831,169.067,183.419,183.158,183.419z"/>
	<path fill="#FFFFFF" d="M183.296,192.151c9.249,0,16.759,7.499,16.759,16.749c0,9.26-7.51,16.759-16.759,16.759
		c-9.25,0-16.76-7.499-16.76-16.759C166.536,199.65,174.046,192.151,183.296,192.151z"/>
	<path fill="#231F20" d="M187.303,199.598c-3.291-1.286-6.866-1.002-9.883,0.718c0.569,0,1.149,0.147,1.719,0.422
		c3.438,1.297,5.01,5.168,3.724,8.596c-1.287,3.438-5.147,5.01-8.585,3.723c-0.865-0.285-1.582-0.854-2.3-1.571
		c0.569,3.87,3.017,7.446,7.024,9.018c5.717,2.299,12.309-0.569,14.597-6.297C195.899,208.331,193.03,201.887,187.303,199.598z"/>
	<path fill="#FFC7AC" d="M157.656,173.821l-4.862,30.786l12.171,0.138l18.331-6.297l20.471,1.297l11.454-10.462
		c0,0-7.15-11.739-8.732-13.743c-1.709-2.151-26.347-7.73-26.347-7.73L157.656,173.821z"/>
	<path fill="#231F20" d="M218.522,212.201c-0.854,0-1.867-0.284-2.584-0.864c-20.472-16.042-40.943-7.584-51.258-1.287
		c-2.004,1.287-4.726,0.58-5.875-1.424c-1.149-2.015-0.569-4.735,1.435-5.885c12.308-7.584,36.513-17.466,61.14,1.729
		c1.867,1.435,2.152,4.155,0.718,6.012C221.106,211.621,219.808,212.201,218.522,212.201z"/>
</g>
<g>
	<path fill="#231F20" d="M77.041,183.419c14.074,0,25.491,11.412,25.491,25.481c0,14.08-11.417,25.491-25.491,25.491
		c-14.075,0-25.492-11.411-25.492-25.491C51.549,194.831,62.966,183.419,77.041,183.419z"/>
	<path fill="#FFFFFF" d="M76.898,192.151c9.255,0,16.754,7.499,16.754,16.749c0,9.26-7.499,16.759-16.754,16.759
		S60.144,218.16,60.144,208.9C60.144,199.65,67.643,192.151,76.898,192.151z"/>
	<path fill="#231F20" d="M81.049,199.598c-3.291-1.286-6.872-1.002-9.877,0.718c0.57,0,1.144,0.147,1.719,0.422
		c3.433,1.297,5.01,5.168,3.723,8.596c-1.292,3.438-5.157,5.01-8.596,3.723c-0.859-0.285-1.571-0.854-2.288-1.571
		c0.569,3.87,3.006,7.446,7.014,9.018c5.732,2.299,12.318-0.569,14.607-6.297C89.644,208.331,86.923,201.887,81.049,199.598z"/>
	<path fill="#FFC7AC" d="M102.532,173.821l4.868,30.786l-12.171,0.138l-18.33-6.297l-20.477,1.297l-11.459-10.462
		c0,0,7.162-11.739,8.738-13.743c1.72-2.151,26.347-7.73,26.347-7.73L102.532,173.821z"/>
	<path fill="#231F20" d="M41.672,212.201c-1.292,0-2.579-0.58-3.438-1.719c-1.429-1.856-1.145-4.577,0.717-6.012
		c24.627-19.195,48.832-9.313,61.146-1.729c2.004,1.297,2.579,3.87,1.429,5.885c-1.287,2.004-3.865,2.573-5.869,1.424
		c-10.31-6.444-30.787-14.755-51.264,1.287C43.533,211.917,42.674,212.201,41.672,212.201z"/>
</g>
<path fill="#C67979" d="M100.381,284.226c2.004,0,3.865,0.285,5.875,0.57c-2.722-14.745-15.609-25.777-31.077-25.777
	c-3.438,0-6.729,0.58-9.74,1.582l0.147,0.148c0.859,1.139,1.287,2.141,1.861,3.438c0.143,0.57,0.285,0.992,0.143,1.424
	c11.596,3.438,22.338,10.748,29.784,20.197C97.95,284.943,98.952,284.226,100.381,284.226z"/>
<path fill="#231F20" d="M119.286,293.392c-5.442,0-10.884-0.718-16.184-2.004c-18.757-4.726-34.652-17.329-43.248-34.657
	c-1.287-2.437-0.285-5.432,2.294-6.729c2.431-1.286,5.442-0.284,6.729,2.289c7.446,14.755,20.767,25.492,36.803,29.51
	c5.585,1.424,11.312,1.856,16.896,1.562c2.721-0.138,5.157,2.015,5.3,4.735c0.142,2.711-2.004,5.157-4.725,5.295
	C121.86,293.392,120.573,293.392,119.286,293.392z"/>
</svg>
