<?xml version="1.0" encoding="utf-8"?>
<!-- Generator: Adobe Illustrator 16.0.0, SVG Export Plug-In . SVG Version: 6.00 Build 0)  -->
<!DOCTYPE svg PUBLIC "-//W3C//DTD SVG 1.1//EN" "http://www.w3.org/Graphics/SVG/1.1/DTD/svg11.dtd">
<svg version="1.1" xmlns="http://www.w3.org/2000/svg" xmlns:xlink="http://www.w3.org/1999/xlink" x="0px" y="0px"
	 width="368.111px" height="484.472px" viewBox="0 0 368.111 484.472" enable-background="new 0 0 368.111 484.472"
	 xml:space="preserve">
<g id="Layer_2">
	<path fill="#E3AD92" stroke="#231F20" stroke-width="7" stroke-miterlimit="10" d="M4.43,351.781
		c0.23-0.403,4.158-7.077,12.069-10.973c-0.835-11.872,6.147-23.364,17.869-27.721c14.249-5.296,30.094,1.963,35.391,16.213
		c1.018,2.742,1.568,5.542,1.697,8.315c3.761,2.737,7.482,6.836,9.667,12.951c1.291,3.611-0.566,7.584-4.151,8.915
		c-0.027,0.011-0.058,0.022-0.086,0.032c-3.641,1.3-7.646-0.597-8.946-4.239c-0.212-0.593-0.463-1.138-0.731-1.659
		c-1.093,1.729-2.382,3.337-3.848,4.796c0.51,5.273,4.013,8.743,4.275,8.997c2.815,2.604,3.012,6.997,0.429,9.843
		c-0.198,0.219-0.406,0.42-0.625,0.608c-2.639,2.271-6.62,2.269-9.265-0.133c-0.314-0.285-5.134-4.765-7.548-12.135
		c-0.624,0.157-1.248,0.287-1.873,0.396c-3.418,6.846,0.362,13.25,0.594,13.629c1.868,2.932,1.278,6.738-1.248,8.985
		c-0.261,0.232-0.543,0.447-0.845,0.643c-3.24,2.105-7.575,1.187-9.683-2.057c-0.313-0.483-6.647-10.474-3.268-22.53
		c-0.52-0.194-1.033-0.402-1.538-0.627c-2.405,3.979-2.172,8.164-2.149,8.496c0.245,2.71-1.089,5.205-3.249,6.563
		c-0.887,0.556-1.913,0.923-3.025,1.033c-3.848,0.384-7.277-2.422-7.661-6.27c-0.052-0.515-0.9-10.072,5.106-18.652
		c-0.227-0.308-0.448-0.621-0.662-0.939c-2.903,1.88-4.443,4.309-4.586,4.541c-1.376,2.347-3.911,3.601-6.459,3.448
		c-1.046-0.061-2.093-0.359-3.063-0.917C3.665,359.412,2.506,355.133,4.43,351.781z"/>
	<path fill="#E3AD92" stroke="#231F20" stroke-width="7" stroke-miterlimit="10" d="M361.252,183.299
		c-0.395,0.243-7.052,4.198-15.861,3.802c-4.987,10.805-16.643,17.512-29.013,15.684c-15.038-2.225-25.426-16.217-23.203-31.256
		c0.43-2.895,1.295-5.613,2.519-8.105c-1.977-4.211-3.264-9.595-2.232-16.008c0.608-3.786,4.15-6.372,7.932-5.812
		c0.031,0.004,0.063,0.008,0.092,0.014c3.817,0.615,6.414,4.207,5.798,8.024c-0.1,0.621-0.143,1.221-0.158,1.807
		c1.791-0.988,3.695-1.776,5.683-2.35c2.094-4.865,0.695-9.595,0.587-9.943c-1.212-3.639,0.731-7.583,4.366-8.832
		c0.28-0.097,0.559-0.172,0.842-0.231c3.404-0.719,6.893,1.2,8.054,4.579c0.139,0.401,2.204,6.648,0.769,14.27
		c0.623,0.164,1.231,0.35,1.833,0.556c6.292-4.353,6.064-11.786,6.045-12.229c-0.225-3.469,2.126-6.521,5.422-7.272
		c0.341-0.078,0.691-0.131,1.05-0.156c3.854-0.284,7.211,2.609,7.495,6.466c0.041,0.575,0.779,12.382-7.991,21.318
		c0.362,0.42,0.712,0.851,1.046,1.29c4.024-2.327,5.836-6.107,5.976-6.409c1.092-2.493,3.463-4.037,6.011-4.187
		c1.044-0.061,2.12,0.113,3.147,0.553c3.557,1.517,5.212,5.627,3.693,9.184c-0.201,0.476-4.063,9.261-13.46,13.886
		c0.05,0.378,0.094,0.761,0.128,1.142c3.449-0.248,5.97-1.634,6.206-1.77c2.337-1.393,5.162-1.271,7.321,0.09
		c0.887,0.557,1.661,1.323,2.242,2.279C365.6,176.981,364.554,181.289,361.252,183.299z"/>
	<path fill="#E3AD92" stroke="#231F20" stroke-width="9" stroke-miterlimit="10" d="M344.039,205.893
		c0.021,0.108,0.034,0.204,0.048,0.287c-0.123-1.088-0.32-2.149-0.589-3.179c-14.709,1.234-29.321,3.486-43.937,5.6
		c-0.002,0.73,0.03,1.465,0.101,2.205c0,0,0.057,0.529,0.218,1.55c0.042,0.255,0.092,0.539,0.146,0.854
		c0.041,0.194,0.086,0.405,0.136,0.636c0.048,0.221,0.104,0.458,0.16,0.714c0.059,0.257,0.127,0.546,0.174,0.718
		c0.467,1.818,0.99,3.417,1.526,5.175c0.536,1.742,1.083,3.604,1.528,5.525c0.46,1.925,0.666,3.849,0.854,5.525
		c0.955,8.516-5.515,17.721-19.254,8.453c-2.646-1.786-5.655-3.832-8.383-6.323c-2.738-2.494-5.336-5.244-7.728-8.009
		c-2.392-2.767-4.585-5.552-6.534-8.219c-3.916-5.322-6.915-10.084-8.918-13.413c-0.998-1.668-1.745-2.978-2.238-3.853
		c-0.455-0.814-0.695-1.249-0.695-1.249l-0.34-0.616c-3.68-6.57-11.807-9.426-18.875-6.381c-7.549,3.257-11.03,12.015-7.775,19.563
		c0,0,0.283,0.656,0.813,1.888c0.512,1.161,1.261,2.827,2.246,4.903c1.979,4.148,4.896,9.969,8.959,16.791
		c2.024,3.415,4.359,7.074,7.057,10.894c2.701,3.816,5.761,7.797,9.361,11.805c3.612,4.002,7.752,8.056,12.871,11.829
		c5.105,3.74,11.31,7.288,18.936,9.32c0.961,0.237,1.878,0.526,2.882,0.692c1.002,0.171,2.009,0.327,3.02,0.471l1.516,0.206
		c0.508,0.058,1.036,0.063,1.553,0.091c1.042,0.047,2.087,0.076,3.129,0.09c1.043,0.048,2.088-0.077,3.131-0.157
		c1.045-0.093,2.089-0.199,3.129-0.322c1.028-0.149,2.025-0.393,3.038-0.606l1.508-0.347l0.75-0.181l0.376-0.094l0.187-0.046
		l0.094-0.022l0.643-0.217l1.711-0.517l0.851-0.259c0.317-0.103,0.474-0.125,1.004-0.331c0.902-0.337,1.8-0.684,2.694-1.04
		c0.896-0.355,1.808-0.722,2.56-1.098c1.584-0.757,3.141-1.474,4.713-2.428c0.783-0.463,1.556-0.896,2.327-1.396
		c0.768-0.532,1.533-1.062,2.294-1.589c6.065-4.299,11.477-10.654,14.661-17.345c3.304-6.708,4.557-13.322,5.024-18.892
		c0.413-5.578,0.105-10.33-0.365-14.229c-0.473-3.912-1.089-7.067-1.565-9.439c-0.482-2.355-0.826-3.971-0.851-4.369
		c-0.02-0.104-0.004-0.079,0.006-0.067l0.022,0.028c0.008,0.02,0.004-0.008,0.018,0.051
		C343.992,205.662,344.018,205.785,344.039,205.893z"/>
	<path fill="#E3AD92" stroke="#231F20" stroke-width="9" stroke-miterlimit="10" d="M140.274,205.76
		c0.023-0.006,0.725,11.495,0.816,11.5l0.01,0.017c-0.047,0.019-0.094,0.039-0.146,0.063c-0.123,0.049-0.266,0.107-0.426,0.173
		c-0.699,0.281-1.893,0.802-3.438,1.565c-1.547,0.753-3.467,1.83-5.627,3.166c-2.168,1.323-4.564,3.016-7.102,4.978
		c-2.555,1.938-5.186,4.296-7.887,6.862c-2.688,2.594-5.381,5.517-8.039,8.662c-2.621,3.194-5.238,6.575-7.672,10.227
		c-0.609,0.907-1.225,1.818-1.84,2.73c-0.58,0.944-1.162,1.892-1.746,2.84c-1.201,1.863-2.273,3.853-3.381,5.801
		c-2.18,3.925-4.182,7.98-6.031,12.043c-1.822,4.082-3.523,8.149-4.994,12.188c-0.375,1.005-0.764,1.987-1.117,2.982
		c-0.336,1.005-0.67,2-1,2.984c-0.641,1.979-1.354,3.854-1.883,5.78c-0.564,1.902-1.113,3.751-1.645,5.54
		c-0.533,1.784-0.939,3.567-1.391,5.242c-0.428,1.689-0.877,3.282-1.23,4.836c-0.348,1.555-0.676,3.029-0.986,4.416
		c-0.309,1.384-0.598,2.678-0.867,3.874c-0.229,1.214-0.439,2.328-0.629,3.335c-0.762,4.019-1.197,6.315-1.197,6.315l-48.836-11.964
		c0,0,0.846-2.594,2.33-7.136c0.373-1.132,0.783-2.386,1.232-3.752c0.494-1.357,1.027-2.826,1.598-4.396
		c0.57-1.567,1.18-3.233,1.82-4.99c0.648-1.754,1.422-3.585,2.184-5.498c0.787-1.91,1.537-3.906,2.441-5.95
		c0.906-2.038,1.842-4.146,2.805-6.313c0.924-2.171,2.072-4.356,3.145-6.606c0.549-1.121,1.104-2.255,1.662-3.4
		c0.578-1.137,1.203-2.276,1.813-3.427c2.404-4.615,5.113-9.303,7.994-13.991c2.914-4.679,6.035-9.352,9.391-13.886
		c1.697-2.26,3.355-4.528,5.176-6.701c0.893-1.093,1.779-2.183,2.666-3.271c0.93-1.058,1.859-2.114,2.785-3.164
		c3.686-4.203,7.615-8.127,11.539-11.787c3.977-3.626,7.986-6.966,11.986-9.924c4.021-2.936,7.926-5.578,11.74-7.767
		c3.797-2.208,7.383-4.078,10.705-5.554c3.316-1.489,6.283-2.66,8.859-3.515c2.568-0.865,4.67-1.459,6.246-1.842
		c0.896-0.206,1.584-0.363,2.047-0.468c0.686-0.147,0.703-0.137,0.729-0.144L140.274,205.76z"/>
	<g>
		<polygon fill="#F1F2F2" points="82.04,307.274 75.942,337.676 18.196,322.912 27.595,292.806 		"/>
		
			<line fill="none" stroke="#99D2E4" stroke-width="9" stroke-linejoin="round" stroke-miterlimit="10" x1="79.259" y1="321.144" x2="23.13" y2="307.112"/>
		<path fill="#231F20" d="M74.829,342.036l-57.748-14.765c-1.195-0.306-2.213-1.089-2.814-2.167s-0.732-2.355-0.365-3.533
			l9.398-30.104c0.719-2.302,3.123-3.626,5.451-3.009l54.443,14.467c2.297,0.61,3.725,2.903,3.256,5.234l-6.096,30.402
			c-0.242,1.211-0.971,2.269-2.016,2.925c-0.615,0.386-1.307,0.614-2.016,0.674C75.827,342.203,75.321,342.162,74.829,342.036z
			 M30.606,298.263l-6.701,21.463l48.559,12.416l4.332-21.605L30.606,298.263z"/>
	</g>
	<g>
		<polygon fill="#F1F2F2" points="296.089,222.81 291.813,192.097 351.198,186.98 352.26,218.501 		"/>
		
			<line fill="none" stroke="#99D2E4" stroke-width="9" stroke-linejoin="round" stroke-miterlimit="10" x1="294.14" y1="208.797" x2="351.754" y2="203.524"/>
		<path fill="#231F20" d="M291.428,187.614l59.385-5.115c1.229-0.105,2.448,0.295,3.373,1.116c0.923,0.819,1.469,1.982,1.51,3.215
			l1.062,31.519c0.08,2.411-1.753,4.454-4.153,4.64l-56.167,4.308c-2.372,0.182-4.475-1.512-4.803-3.867l-4.275-30.711
			c-0.172-1.223,0.167-2.462,0.938-3.426c0.453-0.566,1.03-1.012,1.68-1.301C290.43,187.785,290.921,187.658,291.428,187.614z
			 M347.616,214.344l-0.756-22.473l-49.937,4.302l3.039,21.825L347.616,214.344z"/>
	</g>
	<g>
		<g>
			<path fill="#E3AD92" d="M214.065,455.443h46c0-69.271-12.391-102.025-12.918-104.577l-45.047,9.313l22.523-4.656l-22.525,4.647
				C202.218,360.75,214.065,391.055,214.065,455.443z"/>
			<rect x="212.72" y="408.803" fill="#FFFFFF" width="46.199" height="27.517"/>
			<path fill="#231F20" d="M264.565,459.943h-55v-4.5c0-63.694-11.756-93.79-11.875-94.369l-0.904-4.403l53.857-11.123l0.91,4.407
				c0.531,2.571,13.012,35.781,13.012,105.488V459.943z M218.546,450.943h37.002c-0.439-57.218-9.119-79.764-11.943-94.749
				l-36.254,7.494C210.019,378.169,218.101,398.266,218.546,450.943z"/>
			<g>
				<path fill="#FFAD3B" d="M178.558,321.548h9.666l64.518,3.559c0,0,11.197,18.354,11.197,62.352c-18.102,0-68.869,0-68.869,0
					l-3.352-33.4l-9.547,2.859l-1.129-0.339C182.056,335.606,181.228,342.599,178.558,321.548z"/>
				<path fill="#231F20" d="M181.239,351.971l0.932,0.279l13.129-3.933l3.477,34.641h60.988c-0.6-34.988-7.938-42.847-10.297-53.526
					l-61.35-3.384h-9.018c-0.342-2.997-0.709-5.995-1.127-8.995l10.25-0.005l67.746,3.73l0.768,3.184
					c0.463,1.914,11.334,19.424,11.334,63.496v4.5h-76.707l-3.227-32.16c0,0-2.916,0.903-5.967,0.903
					c-0.457,0-0.91-0.022-1.354-0.057C180.989,357.753,181.136,354.863,181.239,351.971z"/>
			</g>
			
				<rect x="206.269" y="468.981" fill="#EFEDF2" stroke="#231F20" stroke-width="7" stroke-linejoin="round" stroke-miterlimit="10" width="62.666" height="11.991"/>
			
				<rect x="206.269" y="430.283" fill="#99D2E4" stroke="#231F20" stroke-width="7" stroke-linejoin="round" stroke-miterlimit="10" width="62.666" height="38.698"/>
			<path fill="#99D2E4" d="M222.872,444.6v-11.006c0-7.661,6.211-13.872,13.871-13.872l0,0c7.662,0,13.873,6.211,13.873,13.872
				V444.6"/>
			
				<line fill="none" stroke="#FFFFFF" stroke-width="5" stroke-miterlimit="10" x1="250.616" y1="440.688" x2="222.872" y2="453.021"/>
			
				<line fill="none" stroke="#FFFFFF" stroke-width="5" stroke-miterlimit="10" x1="222.872" y1="440.688" x2="250.616" y2="453.021"/>
			
				<line fill="none" stroke="#FFFFFF" stroke-width="5" stroke-miterlimit="10" x1="250.616" y1="428.487" x2="222.872" y2="440.82"/>
			
				<line fill="none" stroke="#FFFFFF" stroke-width="5" stroke-miterlimit="10" x1="222.872" y1="428.487" x2="250.616" y2="440.82"/>
			<polyline fill="none" stroke="#231F20" stroke-width="7" stroke-linejoin="round" stroke-miterlimit="10" points="
				206.269,463.412 222.872,456.029 222.872,428.487 			"/>
			<polyline fill="none" stroke="#231F20" stroke-width="7" stroke-linejoin="round" stroke-miterlimit="10" points="
				267.22,463.412 250.616,456.029 250.616,428.487 			"/>
			
				<line fill="none" stroke="#231F20" stroke-width="7" stroke-linejoin="round" stroke-miterlimit="10" x1="222.872" y1="456.029" x2="250.616" y2="456.029"/>
			<path fill="#231F20" d="M254.116,444.6h-7v-11.006c0-5.719-4.654-10.372-10.373-10.372s-10.371,4.653-10.371,10.372V444.6h-7
				v-11.006c0-9.579,7.793-17.372,17.371-17.372c9.58,0,17.373,7.793,17.373,17.372V444.6z"/>
		</g>
	</g>
	<g>
		<g>
			<path fill="#E3AD92" d="M149.907,455.443h-46c0-69.271,12.391-102.025,12.918-104.577l45.047,9.313l-22.523-4.656l22.525,4.647
				C161.755,360.75,149.907,391.055,149.907,455.443z"/>
			<rect x="105.054" y="408.803" fill="#FFFFFF" width="46.199" height="27.517"/>
			<path fill="#231F20" d="M99.407,455.443c0-69.707,12.48-102.917,13.012-105.488l0.91-4.407l53.857,11.123l-0.904,4.403
				c-0.119,0.579-11.875,30.675-11.875,94.369v4.5h-55V455.443z M156.622,363.688l-36.254-7.494
				c-2.824,14.985-11.504,37.531-11.943,94.749h37.002C145.872,398.266,153.954,378.169,156.622,363.688z"/>
			<g>
				<path fill="#FFAD3B" d="M185.415,321.548h-9.666l-64.518,3.559c0,0-11.197,18.354-11.197,62.352c18.102,0,68.869,0,68.869,0
					l3.352-33.4l9.547,2.859l1.129-0.339C181.917,335.606,182.745,342.599,185.415,321.548z"/>
				<path fill="#231F20" d="M182.733,351.971l-0.932,0.279l-13.129-3.933l-3.477,34.641h-60.988
					c0.6-34.988,7.938-42.847,10.297-53.526l61.35-3.384h9.018c0.342-2.997,0.709-5.995,1.127-8.995l-10.25-0.005l-67.746,3.73
					l-0.768,3.184c-0.463,1.914-11.334,19.424-11.334,63.496v4.5h76.707l3.227-32.16c0,0,2.916,0.903,5.967,0.903
					c0.457,0,0.91-0.022,1.354-0.057C182.983,357.753,182.837,354.863,182.733,351.971z"/>
			</g>
			
				<rect x="95.038" y="468.981" fill="#EFEDF2" stroke="#231F20" stroke-width="7" stroke-linejoin="round" stroke-miterlimit="10" width="62.666" height="11.991"/>
			
				<rect x="95.038" y="430.283" fill="#99D2E4" stroke="#231F20" stroke-width="7" stroke-linejoin="round" stroke-miterlimit="10" width="62.666" height="38.698"/>
			<path fill="#99D2E4" d="M141.101,444.6v-11.006c0-7.661-6.211-13.872-13.871-13.872l0,0c-7.662,0-13.873,6.211-13.873,13.872
				V444.6"/>
			
				<line fill="none" stroke="#FFFFFF" stroke-width="5" stroke-miterlimit="10" x1="113.356" y1="440.688" x2="141.101" y2="453.021"/>
			
				<line fill="none" stroke="#FFFFFF" stroke-width="5" stroke-miterlimit="10" x1="141.101" y1="440.688" x2="113.356" y2="453.021"/>
			
				<line fill="none" stroke="#FFFFFF" stroke-width="5" stroke-miterlimit="10" x1="113.356" y1="428.487" x2="141.101" y2="440.82"/>
			
				<line fill="none" stroke="#FFFFFF" stroke-width="5" stroke-miterlimit="10" x1="141.101" y1="428.487" x2="113.356" y2="440.82"/>
			<polyline fill="none" stroke="#231F20" stroke-width="7" stroke-linejoin="round" stroke-miterlimit="10" points="
				157.704,463.412 141.101,456.029 141.101,428.487 			"/>
			<polyline fill="none" stroke="#231F20" stroke-width="7" stroke-linejoin="round" stroke-miterlimit="10" points="
				96.753,463.412 113.356,456.029 113.356,428.487 			"/>
			
				<line fill="none" stroke="#231F20" stroke-width="7" stroke-linejoin="round" stroke-miterlimit="10" x1="141.101" y1="456.029" x2="113.356" y2="456.029"/>
			<path fill="#231F20" d="M109.856,444.6h7v-11.006c0-5.719,4.654-10.372,10.373-10.372s10.371,4.653,10.371,10.372V444.6h7
				v-11.006c0-9.579-7.793-17.372-17.371-17.372c-9.58,0-17.373,7.793-17.373,17.372V444.6z"/>
		</g>
	</g>
	<path fill="#FFAD3B" stroke="#231F20" stroke-width="9" stroke-miterlimit="10" d="M249.175,273.669l1-82.704l-58.813-30.109
		c-2.311-3.046-6.217,10.731-12.688,11.873c-6.469-1.142-10.375-14.919-12.686-11.873l-58.814,33.58l3.779,79.233
		c0,0-18.893,61.274-18.893,91.918c29.828,0,148.24,0,178.068,0C270.13,334.944,249.175,273.669,249.175,273.669z"/>
	<path fill="#E3AD92" stroke="#231F20" stroke-width="9" stroke-miterlimit="10" d="M217.853,164.787
		c0,32.797-17.773,67.528-39.697,67.528s-39.697-34.731-39.697-67.528s17.773-59.385,39.697-59.385S217.853,131.99,217.853,164.787z
		"/>
	<g>
		<g>
			<path fill="#FFFFFF" d="M139.331,288.306c-1.072-2.376-1.607-3.563-2.68-5.939c0.646-0.293,0.973-0.435,1.623-0.716
				c-3.326-7.702-4.994-11.555-8.32-19.257c-0.777,0.336-1.164,0.507-1.938,0.855c-1.072-2.376-1.609-3.563-2.682-5.939
				c4.959-2.238,7.482-3.228,12.588-4.947c0.832,2.471,1.248,3.702,2.08,6.173c-0.797,0.269-1.193,0.407-1.986,0.688
				c2.807,7.907,4.209,11.862,7.016,19.77c0.666-0.236,0.998-0.351,1.666-0.575c0.832,2.471,1.246,3.705,2.078,6.176
				C144.944,285.884,143.052,286.626,139.331,288.306z"/>
			<path fill="#FFFFFF" d="M154.11,282.958c-0.695-2.512-1.043-3.767-1.738-6.278c0.693-0.192,1.041-0.287,1.736-0.468
				c-2.105-8.122-3.16-12.183-5.266-20.305c-0.83,0.216-1.244,0.326-2.072,0.556c-0.697-2.512-1.045-3.769-1.74-6.28
				c5.172-1.433,7.787-2.02,13.045-2.933c0.447,2.568,0.67,3.851,1.117,6.419c-0.82,0.143-1.23,0.217-2.049,0.373
				c1.568,8.242,2.354,12.366,3.924,20.608c2.631-0.501,3.955-0.71,6.607-1.048c-0.188-1.473-0.281-2.213-0.469-3.686
				c2.916-0.371,4.377-0.508,7.307-0.688c0.252,4.084,0.377,6.126,0.627,10.21C166.638,279.96,162.388,280.666,154.11,282.958z"/>
			<path fill="#FFFFFF" d="M202.296,257.165c-3.254-0.547-4.889-0.768-8.164-1.1c0.148-1.46,0.223-2.191,0.371-3.651
				c-0.826-0.084-1.24-0.123-2.068-0.193c-0.713,8.36-1.07,12.543-1.783,20.903c0.693,0.06,1.041,0.092,1.732,0.162
				c-0.262,2.594-0.393,3.89-0.656,6.483c-3.977-0.403-5.975-0.508-9.967-0.521c0.01-2.606,0.012-3.91,0.021-6.517
				c0.695,0.002,1.043,0.008,1.738,0.021c0.162-8.389,0.244-12.585,0.406-20.974c-0.828-0.016-1.242-0.022-2.072-0.025
				c-0.004,1.468-0.008,2.203-0.012,3.671c-3.289-0.012-4.934,0.035-8.217,0.238c-0.252-4.066-0.379-6.099-0.629-10.165
				c10.35-0.638,20.762-0.095,30.986,1.623C203.308,251.138,202.97,253.147,202.296,257.165z"/>
			<path fill="#FFFFFF" d="M203.79,281.725c0.57-2.543,0.857-3.815,1.428-6.358c0.682,0.153,1.021,0.234,1.701,0.398
				c1.967-8.156,2.953-12.237,4.92-20.394c-0.811-0.196-1.219-0.291-2.033-0.474c0.57-2.543,0.857-3.814,1.43-6.357
				c10.74,2.409,16.047,4.164,26.248,8.77c-1.527,3.383-2.291,5.074-3.818,8.457c-3.088-1.394-4.646-2.036-7.799-3.214
				c0.387-1.035,0.578-1.556,0.965-2.591c-2.666-0.996-4.008-1.455-6.713-2.301c-0.859,2.752-1.291,4.13-2.152,6.882
				c1.104,0.345,1.656,0.524,2.752,0.896c0.227-0.67,0.342-1.008,0.568-1.678c3.111,1.054,4.654,1.633,7.707,2.898
				c-1.539,3.716-2.311,5.575-3.85,9.291c-2.807-1.163-4.227-1.695-7.086-2.664c0.227-0.67,0.342-1.006,0.57-1.676
				c-1.039-0.352-1.561-0.523-2.605-0.85c-0.865,2.769-1.299,4.153-2.164,6.922c0.67,0.21,1.008,0.319,1.676,0.54
				c-0.816,2.475-1.225,3.71-2.043,6.185C209.655,283.139,207.708,282.604,203.79,281.725z"/>
		</g>
	</g>
	<g>
		<circle fill="#E3AD92" stroke="#231F20" stroke-width="9" stroke-miterlimit="10" cx="109.356" cy="127.126" r="18.893"/>
		<circle fill="#E3AD92" stroke="#231F20" stroke-width="9" stroke-miterlimit="10" cx="243.756" cy="127.126" r="18.893"/>
		<path fill="#E3AD92" stroke="#231F20" stroke-width="9" stroke-miterlimit="10" d="M248.577,126.919
			c0,39.488-32.012,71.5-71.5,71.5l0,0c-39.488,0-71.5-32.012-71.5-71.5V98.185c0-39.488,32.012-71.5,71.5-71.5l0,0
			c39.488,0,71.5,32.012,71.5,71.5v6.997v10.634V126.919z"/>
		<circle fill="#231F20" cx="140.346" cy="115.467" r="17.784"/>
		<circle fill="#FFFFFF" cx="140.346" cy="115.467" r="11.659"/>
		<circle fill="#231F20" cx="214.761" cy="115.467" r="17.785"/>
		<path fill="#231F20" d="M143.09,108.932c-2.333-0.927-4.844-0.65-6.856,0.524c0.389,0.047,0.778,0.125,1.16,0.277
			c2.361,0.938,3.517,3.615,2.578,5.979c-0.939,2.363-3.617,3.518-5.979,2.578c-0.614-0.244-1.144-0.609-1.579-1.054
			c0.358,2.729,2.141,5.19,4.881,6.278c4.027,1.601,8.589-0.366,10.189-4.395C149.084,115.094,147.116,110.533,143.09,108.932z"/>
		<circle fill="#FFFFFF" cx="214.879" cy="115.467" r="11.659"/>
		<path fill="#231F20" d="M217.624,108.932c-2.334-0.927-4.844-0.65-6.856,0.524c0.389,0.047,0.778,0.125,1.159,0.277
			c2.362,0.938,3.518,3.615,2.578,5.979s-3.617,3.518-5.979,2.578c-0.615-0.244-1.144-0.609-1.579-1.054
			c0.358,2.729,2.141,5.19,4.881,6.278c4.026,1.601,8.589-0.366,10.188-4.395C223.618,115.094,221.649,110.533,217.624,108.932z"/>
		
			<path fill="#C67979" stroke="#231F20" stroke-width="5" stroke-linecap="round" stroke-linejoin="round" stroke-miterlimit="10" d="
			M147.208,162.845c5.889,10.412,17.054,17.443,29.869,17.443s23.98-7.031,29.869-17.443H147.208z"/>
		<path fill="none" stroke="#231F20" stroke-width="7" stroke-linecap="round" stroke-miterlimit="10" d="M151.46,91.279
			c0,0-10.121-4.462-21.299-1.214"/>
		<path fill="none" stroke="#231F20" stroke-width="7" stroke-linecap="round" stroke-miterlimit="10" d="M201.275,91.279
			c0,0,10.121-4.462,21.299-1.214"/>
		<path fill="#E3AD92" stroke="#231F20" stroke-width="7" stroke-linecap="round" stroke-miterlimit="10" d="M186.737,140.986
			c-2.748,2.975-6.68,4.836-11.047,4.836c-4.557,0-8.639-2.027-11.395-5.229"/>
		<path fill="#85531C" stroke="#231F20" stroke-width="9" stroke-miterlimit="10" d="M212.075,35.822
			c0,0,27.111,18.466,50.575-21.308c3.054,37.658-26.565,62.622-55.703,63.468c-32.206,0.935-34.329-24.118-63.102-19.464
			s-38.268,39.667-38.268,39.667c0-39.488,32.012-71.5,71.5-71.5l0,0C189.792,26.686,201.73,30.004,212.075,35.822z"/>
		<path fill="#231F20" d="M265.486,24.97c0,0-21.036,37.448-49.724,40.344c23.503-10.077,35.909-36.298,35.909-36.298L265.486,24.97
			z"/>
	</g>
</g>
<g id="Warstwa_2">
	<circle display="inline" fill="#231F20" cx="140.227" cy="115.467" r="11.931" opacity="0">
            <animate attributeName="opacity" values="0;1;0;0;0;0;0;0;0;0;0;0;0;0;0" dur="2.5s" repeatCount="indefinite" calcMode="discrete"/>
        </circle>
	<circle display="inline" fill="#231F20" cx="214.88" cy="115.467" r="11.931" opacity="0">
            <animate attributeName="opacity" values="0;1;0;0;0;0;0;0;0;0;0;0;0;0;0" dur="2.5s" repeatCount="indefinite" calcMode="discrete"/>
        </circle>
</g>
</svg>
