<?xml version="1.0" encoding="utf-8"?>
<!-- Generator: Adobe Illustrator 16.0.0, SVG Export Plug-In . SVG Version: 6.00 Build 0)  -->
<!DOCTYPE svg PUBLIC "-//W3C//DTD SVG 1.1//EN" "http://www.w3.org/Graphics/SVG/1.1/DTD/svg11.dtd">
<svg version="1.1" xmlns="http://www.w3.org/2000/svg" xmlns:xlink="http://www.w3.org/1999/xlink" x="0px" y="0px"
	 width="315.668px" height="630.228px" viewBox="0 0 315.668 630.228" enable-background="new 0 0 315.668 630.228"
	 xml:space="preserve">
<g id="Layer_2">
	<g>
		<path fill="#F2C4B6" stroke="#231F20" stroke-width="9" stroke-miterlimit="10" d="M163.942,214.234c0,0,0.135,0.136,0.395,0.402
			c0.244,0.256,0.606,0.636,1.081,1.13c0.907,0.943,2.288,2.445,4.049,4.365c1.742,1.938,3.866,4.293,6.241,7.063
			c1.186,1.388,2.446,2.864,3.774,4.421c1.323,1.563,2.674,3.25,4.103,4.983c2.885,3.443,5.839,7.335,9.025,11.378
			c1.579,2.034,3.133,4.184,4.758,6.344c1.604,2.178,3.296,4.356,4.891,6.673c3.229,4.6,6.635,9.289,9.839,14.235
			c1.627,2.451,3.268,4.92,4.914,7.4c1.572,2.525,3.15,5.06,4.729,7.595c3.226,5.02,6.146,10.221,9.088,15.285
			c0.732,1.268,1.464,2.529,2.19,3.784c0.73,1.253,1.372,2.547,2.057,3.807c1.348,2.527,2.678,5.025,3.987,7.481
			c2.701,4.864,4.908,9.766,7.16,14.319c1.1,2.292,2.21,4.499,3.208,6.666c0.951,2.188,1.87,4.302,2.753,6.332
			c1.738,4.064,3.437,7.74,4.755,11.07c1.28,3.342,2.396,6.254,3.313,8.654c1.836,4.785,2.887,7.52,2.887,7.52l34.629-14.422
			c0,0-1.435-2.863-3.948-7.87c-1.256-2.499-2.781-5.533-4.531-9.012c-1.789-3.455-4.004-7.241-6.313-11.422
			c-1.168-2.081-2.381-4.25-3.639-6.494c-1.302-2.216-2.723-4.461-4.141-6.792c-2.89-4.628-5.771-9.602-9.149-14.487
			c-1.648-2.465-3.323-4.971-5.019-7.507c-0.858-1.26-1.677-2.556-2.58-3.806c-0.899-1.25-1.804-2.507-2.713-3.768
			c-3.635-5.04-7.261-10.194-11.171-15.134c-1.921-2.491-3.842-4.982-5.754-7.463c-1.981-2.424-3.956-4.838-5.916-7.233
			c-3.862-4.827-7.906-9.376-11.747-13.824c-1.898-2.241-3.891-4.344-5.786-6.441c-1.916-2.082-3.751-4.147-5.606-6.101
			c-3.739-3.883-7.2-7.602-10.565-10.894c-1.668-1.657-3.241-3.262-4.781-4.754c-1.548-1.484-3.015-2.893-4.396-4.216
			c-2.767-2.641-5.241-4.889-7.281-6.747c-2.057-1.839-3.682-3.286-4.874-4.301c-0.571-0.489-1.01-0.864-1.305-1.116
			c-0.285-0.237-0.433-0.36-0.433-0.36L163.942,214.234z"/>
		<path fill="#F2C4B6" stroke="#231F20" stroke-width="9" stroke-miterlimit="10" d="M131.578,222.877c0,0-0.115,0.153-0.338,0.45
			c-0.209,0.285-0.521,0.709-0.926,1.261c-0.777,1.053-1.951,2.722-3.449,4.854c-1.475,2.147-3.276,4.759-5.271,7.813
			c-0.996,1.53-2.055,3.157-3.171,4.873c-1.108,1.721-2.228,3.569-3.421,5.473c-2.412,3.789-4.837,8.031-7.473,12.452
			c-1.302,2.222-2.564,4.554-3.894,6.908c-1.31,2.367-2.704,4.747-3.985,7.251c-2.604,4.979-5.373,10.07-7.909,15.39
			c-1.295,2.641-2.601,5.303-3.913,7.975c-1.23,2.708-2.467,5.426-3.702,8.145c-2.548,5.395-4.771,10.931-7.029,16.334
			c-0.563,1.352-1.124,2.697-1.681,4.036c-0.562,1.337-1.032,2.703-1.547,4.042c-1.008,2.681-2.003,5.33-2.982,7.936
			c-2.049,5.172-3.6,10.318-5.242,15.127c-0.794,2.415-1.608,4.747-2.316,7.024c-0.66,2.293-1.297,4.51-1.909,6.637
			c-1.196,4.255-2.402,8.119-3.279,11.593c-0.835,3.479-1.563,6.513-2.162,9.01c-1.2,4.984-1.887,7.831-1.887,7.831l-36.208-9.806
			c0,0,1.053-3.026,2.895-8.318c0.921-2.641,2.041-5.847,3.324-9.522c1.325-3.657,3.031-7.7,4.779-12.145
			c0.887-2.216,1.809-4.522,2.764-6.912c1.004-2.366,2.122-4.776,3.226-7.271c2.265-4.964,4.476-10.27,7.193-15.551
			c1.313-2.658,2.649-5.36,4.002-8.095c0.688-1.361,1.332-2.753,2.064-4.108c0.729-1.356,1.464-2.72,2.2-4.088
			c2.951-5.469,5.878-11.05,9.115-16.455c1.582-2.719,3.162-5.438,4.736-8.147c1.651-2.66,3.295-5.31,4.928-7.939
			c3.204-5.286,6.625-10.322,9.855-15.23c1.592-2.468,3.295-4.812,4.903-7.137c1.628-2.313,3.181-4.599,4.767-6.776
			c3.204-4.335,6.153-8.472,9.063-12.172c1.439-1.86,2.791-3.655,4.125-5.334c1.342-1.673,2.614-3.26,3.812-4.751
			c2.401-2.978,4.563-5.527,6.344-7.634c1.802-2.091,3.226-3.736,4.276-4.897c0.503-0.558,0.889-0.986,1.148-1.275
			c0.252-0.273,0.382-0.414,0.382-0.414L131.578,222.877z"/>
		<g>
			<g>
				<path fill="#F2C4B6" d="M131.33,577.917h-26c0-105.745,6.729-167.646,7.016-170.229l25.842,2.863
					C138.119,411.171,131.33,473.768,131.33,577.917z"/>
				<polygon fill="#FFFFFF" points="104.458,499.625 101.274,576.038 104.458,579.35 134.274,579.35 134.274,537.432 
					134.274,499.625 				"/>
				<path fill="#231F20" d="M135.83,582.417h-35v-4.5c0-105.928,6.756-168.129,7.043-170.725l0.495-4.473l34.785,3.854l-0.493,4.471
					c-0.068,0.619-6.83,63.182-6.83,166.873V582.417z M109.834,573.417h17c0.162-85.951,4.936-143.038,6.435-158.884l-16.907-1.873
					C114.822,428.532,109.994,485.231,109.834,573.417z"/>
			</g>
			<g>
				
					<rect x="90.14" y="614.736" fill="#EFEDF2" stroke="#231F20" stroke-width="7" stroke-linejoin="round" stroke-miterlimit="10" width="56.666" height="11.991"/>
				
					<rect x="90.14" y="576.038" fill="#7261C6" stroke="#231F20" stroke-width="7" stroke-linejoin="round" stroke-miterlimit="10" width="56.666" height="38.698"/>
				<path fill="#7261C6" d="M132.202,590.355V579.35c0-7.661-6.211-13.872-13.871-13.872l0,0c-7.662,0-13.873,6.211-13.873,13.872
					v11.006"/>
				
					<line fill="none" stroke="#FFFFFF" stroke-width="5" stroke-miterlimit="10" x1="104.458" y1="586.443" x2="132.202" y2="598.776"/>
				
					<line fill="none" stroke="#FFFFFF" stroke-width="5" stroke-miterlimit="10" x1="132.202" y1="586.443" x2="104.458" y2="598.776"/>
				
					<line fill="none" stroke="#FFFFFF" stroke-width="5" stroke-miterlimit="10" x1="104.458" y1="574.242" x2="132.202" y2="586.575"/>
				
					<line fill="none" stroke="#FFFFFF" stroke-width="5" stroke-miterlimit="10" x1="132.202" y1="574.242" x2="104.458" y2="586.575"/>
				<polyline fill="none" stroke="#231F20" stroke-width="7" stroke-linejoin="round" stroke-miterlimit="10" points="
					146.806,609.167 132.202,601.784 132.202,574.242 				"/>
				<polyline fill="none" stroke="#231F20" stroke-width="7" stroke-linejoin="round" stroke-miterlimit="10" points="
					91.854,609.167 104.458,601.784 104.458,574.242 				"/>
				
					<line fill="none" stroke="#231F20" stroke-width="7" stroke-linejoin="round" stroke-miterlimit="10" x1="132.202" y1="601.784" x2="104.458" y2="601.784"/>
				<path fill="#231F20" d="M100.958,590.355h7V579.35c0-5.719,4.654-10.372,10.373-10.372s10.371,4.653,10.371,10.372v11.006h7
					V579.35c0-9.579-7.793-17.372-17.371-17.372c-9.58,0-17.373,7.793-17.373,17.372V590.355z"/>
			</g>
			
				<rect x="89.911" y="374.213" fill="#FFAD3B" stroke="#231F20" stroke-width="9" stroke-miterlimit="10" width="55.124" height="46.965"/>
		</g>
		<g>
			<g>
				<path fill="#F2C4B6" d="M179.213,577.917h26c0-105.745-6.729-167.646-7.016-170.229l-25.842,2.863
					C172.424,411.171,179.213,473.768,179.213,577.917z"/>
				<polygon fill="#FFFFFF" points="206.085,499.625 209.269,576.038 206.085,579.35 176.269,579.35 176.269,537.432 
					176.269,499.625 				"/>
				<path fill="#231F20" d="M174.713,577.917c0-103.691-6.762-166.254-6.83-166.873l-0.493-4.471l34.785-3.854l0.495,4.473
					c0.287,2.596,7.043,64.797,7.043,170.725v4.5h-35V577.917z M194.182,412.66l-16.907,1.873
					c1.499,15.846,6.272,72.933,6.435,158.884h17C200.549,485.231,195.721,428.532,194.182,412.66z"/>
			</g>
			<g>
				
					<rect x="163.737" y="614.736" fill="#EFEDF2" stroke="#231F20" stroke-width="7" stroke-linejoin="round" stroke-miterlimit="10" width="56.666" height="11.991"/>
				
					<rect x="163.737" y="576.038" fill="#7261C6" stroke="#231F20" stroke-width="7" stroke-linejoin="round" stroke-miterlimit="10" width="56.666" height="38.698"/>
				<path fill="#7261C6" d="M178.341,590.355V579.35c0-7.661,6.211-13.872,13.871-13.872l0,0c7.662,0,13.873,6.211,13.873,13.872
					v11.006"/>
				
					<line fill="none" stroke="#FFFFFF" stroke-width="5" stroke-miterlimit="10" x1="206.085" y1="586.443" x2="178.341" y2="598.776"/>
				
					<line fill="none" stroke="#FFFFFF" stroke-width="5" stroke-miterlimit="10" x1="178.341" y1="586.443" x2="206.085" y2="598.776"/>
				
					<line fill="none" stroke="#FFFFFF" stroke-width="5" stroke-miterlimit="10" x1="206.085" y1="574.242" x2="178.341" y2="586.575"/>
				
					<line fill="none" stroke="#FFFFFF" stroke-width="5" stroke-miterlimit="10" x1="178.341" y1="574.242" x2="206.085" y2="586.575"/>
				<polyline fill="none" stroke="#231F20" stroke-width="7" stroke-linejoin="round" stroke-miterlimit="10" points="
					163.737,609.167 178.341,601.784 178.341,574.242 				"/>
				<polyline fill="none" stroke="#231F20" stroke-width="7" stroke-linejoin="round" stroke-miterlimit="10" points="
					218.688,609.167 206.085,601.784 206.085,574.242 				"/>
				
					<line fill="none" stroke="#231F20" stroke-width="7" stroke-linejoin="round" stroke-miterlimit="10" x1="178.341" y1="601.784" x2="206.085" y2="601.784"/>
				<path fill="#231F20" d="M209.585,590.355h-7V579.35c0-5.719-4.654-10.372-10.373-10.372s-10.371,4.653-10.371,10.372v11.006h-7
					V579.35c0-9.579,7.793-17.372,17.371-17.372c9.58,0,17.373,7.793,17.373,17.372V590.355z"/>
			</g>
			
				<rect x="165.508" y="374.213" fill="#FFAD3B" stroke="#231F20" stroke-width="9" stroke-miterlimit="10" width="55.124" height="46.965"/>
		</g>
		
			<rect x="161.738" y="374.213" fill="#FFAD3B" stroke="#231F20" stroke-width="9" stroke-miterlimit="10" width="55.124" height="46.965"/>
		<path fill="#FFAD3B" stroke="#231F20" stroke-width="9" stroke-miterlimit="10" d="M217.14,221.741l-48.813-30.109
			c-2.311-3.046-6.217,10.731-12.688,11.873c-6.469-1.142-10.375-14.919-12.686-11.873l-52.814,33.58v172.394h127.042
			L217.14,221.741z"/>
		<path fill="#F2C4B6" stroke="#231F20" stroke-width="9" stroke-miterlimit="10" d="M176.096,192.981
			c0,31.371-9.392,64.593-20.976,64.593s-20.976-33.222-20.976-64.593c0-31.372,9.392-56.804,20.976-56.804
			S176.096,161.61,176.096,192.981z"/>
		<g>
			<g>
				<path fill="#FFFFFF" d="M111.583,319.082c-1.072-2.376-1.607-3.563-2.68-5.939c0.646-0.293,0.973-0.435,1.623-0.716
					c-3.326-7.702-4.994-11.555-8.32-19.257c-0.777,0.336-1.164,0.507-1.938,0.855c-1.072-2.376-1.609-3.563-2.682-5.939
					c4.959-2.238,7.482-3.228,12.588-4.947c0.832,2.471,1.248,3.702,2.08,6.173c-0.797,0.269-1.193,0.407-1.986,0.688
					c2.807,7.907,4.209,11.862,7.016,19.77c0.666-0.236,0.998-0.351,1.666-0.575c0.832,2.471,1.246,3.705,2.078,6.176
					C117.196,316.66,115.304,317.402,111.583,319.082z"/>
				<path fill="#FFFFFF" d="M126.362,313.733c-0.695-2.512-1.043-3.767-1.738-6.278c0.693-0.192,1.041-0.287,1.736-0.468
					c-2.105-8.122-3.16-12.183-5.266-20.305c-0.83,0.216-1.244,0.326-2.072,0.556c-0.697-2.512-1.045-3.769-1.74-6.28
					c5.172-1.433,7.787-2.02,13.045-2.933c0.447,2.568,0.67,3.851,1.117,6.419c-0.82,0.143-1.23,0.217-2.049,0.373
					c1.568,8.242,2.354,12.366,3.924,20.608c2.631-0.501,3.955-0.71,6.607-1.048c-0.188-1.473-0.281-2.213-0.469-3.686
					c2.916-0.371,4.377-0.508,7.307-0.688c0.252,4.084,0.377,6.126,0.627,10.21C138.89,310.736,134.64,311.441,126.362,313.733z"/>
				<path fill="#FFFFFF" d="M174.548,287.94c-3.254-0.547-4.889-0.768-8.164-1.1c0.148-1.46,0.223-2.191,0.371-3.651
					c-0.826-0.084-1.24-0.123-2.068-0.193c-0.713,8.36-1.07,12.543-1.783,20.903c0.693,0.06,1.041,0.092,1.732,0.162
					c-0.262,2.594-0.393,3.89-0.656,6.483c-3.977-0.403-5.975-0.508-9.967-0.521c0.01-2.606,0.012-3.91,0.021-6.517
					c0.695,0.002,1.043,0.008,1.738,0.021c0.162-8.389,0.244-12.585,0.406-20.974c-0.828-0.016-1.242-0.022-2.072-0.025
					c-0.004,1.468-0.008,2.203-0.012,3.671c-3.289-0.012-4.934,0.035-8.217,0.238c-0.252-4.066-0.379-6.099-0.629-10.165
					c10.35-0.638,20.762-0.095,30.986,1.623C175.56,281.914,175.222,283.923,174.548,287.94z"/>
				<path fill="#FFFFFF" d="M176.042,312.501c0.57-2.543,0.857-3.815,1.428-6.358c0.682,0.153,1.021,0.234,1.701,0.398
					c1.967-8.156,2.953-12.237,4.92-20.394c-0.811-0.196-1.219-0.291-2.033-0.474c0.57-2.543,0.857-3.814,1.43-6.357
					c10.74,2.409,16.047,4.164,26.248,8.77c-1.527,3.383-2.291,5.074-3.818,8.457c-3.088-1.394-4.646-2.036-7.799-3.214
					c0.387-1.035,0.578-1.556,0.965-2.591c-2.666-0.996-4.008-1.455-6.713-2.301c-0.859,2.752-1.291,4.13-2.152,6.882
					c1.104,0.345,1.656,0.524,2.752,0.896c0.227-0.67,0.342-1.008,0.568-1.678c3.111,1.054,4.654,1.633,7.707,2.898
					c-1.539,3.716-2.311,5.575-3.85,9.291c-2.807-1.163-4.227-1.695-7.086-2.664c0.227-0.67,0.342-1.006,0.57-1.676
					c-1.039-0.352-1.561-0.523-2.605-0.85c-0.865,2.769-1.299,4.153-2.164,6.922c0.67,0.21,1.008,0.319,1.676,0.54
					c-0.816,2.475-1.225,3.71-2.043,6.185C181.907,313.915,179.96,313.38,176.042,312.501z"/>
			</g>
		</g>
		<circle fill="#F2C4B6" stroke="#231F20" stroke-width="9" stroke-miterlimit="10" cx="87.94" cy="126.342" r="18.893"/>
		<circle fill="#F2C4B6" stroke="#231F20" stroke-width="9" stroke-miterlimit="10" cx="222.34" cy="126.342" r="18.893"/>
		<path fill="#F2C4B6" stroke="#231F20" stroke-width="9" stroke-miterlimit="10" d="M227.161,126.135
			c0,39.488-32.012,71.5-71.5,71.5l0,0c-39.488,0-71.5-32.012-71.5-71.5V97.4c0-39.488,32.012-71.5,71.5-71.5l0,0
			c39.488,0,71.5,32.012,71.5,71.5V126.135z"/>
		
			<path fill="#C67979" stroke="#231F20" stroke-width="5" stroke-linecap="round" stroke-linejoin="round" stroke-miterlimit="10" d="
			M143.688,162.061c2.073,7.459,6.003,12.496,10.515,12.496s8.441-5.037,10.515-12.496H143.688z"/>
		<g>
			<g>
				<circle fill="#231F20" cx="186.681" cy="105.88" r="17.785"/>
				<circle fill="#FFFFFF" cx="186.799" cy="105.88" r="11.659"/>
				<path fill="#231F20" d="M189.544,99.345c-2.334-0.927-4.844-0.65-6.856,0.524c0.389,0.047,0.778,0.125,1.159,0.277
					c2.362,0.938,3.518,3.615,2.578,5.979s-3.617,3.518-5.979,2.578c-0.615-0.244-1.144-0.609-1.579-1.054
					c0.358,2.729,2.141,5.19,4.881,6.278c4.026,1.601,8.589-0.366,10.188-4.395C195.538,105.507,193.569,100.945,189.544,99.345z"/>
				<path fill="none" stroke="#231F20" stroke-width="7" stroke-linecap="round" stroke-miterlimit="10" d="M175.993,78.365
					c7.002-3.499,18.5-1.999,22.465,4.068"/>
			</g>
			<g>
				<circle fill="#231F20" cx="124.642" cy="105.88" r="17.785"/>
				<circle fill="#FFFFFF" cx="124.523" cy="105.88" r="11.659"/>
				<path fill="#231F20" d="M127.505,99.345c-2.334-0.927-4.844-0.65-6.856,0.524c0.389,0.047,0.778,0.125,1.159,0.277
					c2.362,0.938,3.518,3.615,2.578,5.979s-3.617,3.518-5.979,2.578c-0.615-0.244-1.144-0.609-1.579-1.054
					c0.358,2.729,2.141,5.19,4.881,6.278c4.026,1.601,8.589-0.366,10.188-4.395C133.499,105.507,131.53,100.945,127.505,99.345z"/>
				<path fill="none" stroke="#231F20" stroke-width="7" stroke-linecap="round" stroke-miterlimit="10" d="M135.329,78.365
					c-7.002-3.499-18.5-1.999-22.465,4.068"/>
			</g>
		</g>
		<path fill="none" stroke="#231F20" stroke-width="7" stroke-linecap="round" stroke-miterlimit="10" d="M160.769,142.233
			c-1.607,1.741-3.908,2.831-6.465,2.831c-2.666,0-5.055-1.187-6.668-3.061"/>
		<path fill="#EAC653" stroke="#231F20" stroke-width="9" stroke-miterlimit="10" d="M155.661,4.5h-16.222H80.641l3.854,84.795
			c0,0,15.122-33.278,33.464-35.843c11.153-1.56,37.876,8.427,37.876,8.984c15.265-6.47,26.55-10.543,37.703-8.984
			c18.342,2.565,33.464,35.843,33.464,35.843L230.854,4.5H155.661z"/>
		<polygon fill="#231F20" points="98.676,4.5 102.755,46.897 106.833,4.5 		"/>
		<polygon fill="#231F20" points="207.051,4.5 211.13,46.897 215.208,4.5 		"/>
		<path fill="#F2C4B6" stroke="#231F20" stroke-width="7" stroke-miterlimit="10" d="M4.018,403.806
			c0.174-0.431,3.172-7.571,10.488-12.493c-2.421-11.652,2.958-23.978,13.989-29.866c13.409-7.16,30.085-2.092,37.245,11.319
			c1.377,2.58,2.298,5.281,2.798,8.012c4.094,2.208,8.332,5.771,11.317,11.537c1.764,3.406,0.455,7.592-2.918,9.392
			c-0.026,0.015-0.055,0.03-0.081,0.044c-3.434,1.776-7.658,0.434-9.434-3.001c-0.291-0.56-0.612-1.065-0.948-1.546
			c-0.851,1.86-1.913,3.626-3.169,5.269c1.212,5.157,5.148,8.126,5.443,8.343c3.139,2.203,3.922,6.529,1.744,9.696
			c-0.166,0.243-0.346,0.47-0.537,0.687c-2.311,2.604-6.256,3.136-9.199,1.111c-0.35-0.241-5.726-4.033-9.106-11.013
			c-0.598,0.239-1.198,0.451-1.804,0.644c-2.469,7.242,2.136,13.082,2.417,13.427c2.244,2.653,2.171,6.506-0.031,9.07
			c-0.228,0.266-0.479,0.517-0.751,0.751c-2.93,2.521-7.348,2.191-9.871-0.739c-0.376-0.438-7.992-9.487-6.261-21.889
			c-0.54-0.123-1.077-0.261-1.607-0.415c-1.85,4.266-1.058,8.382-0.991,8.708c0.606,2.652-0.381,5.304-2.339,6.939
			c-0.804,0.67-1.772,1.172-2.86,1.43c-3.761,0.896-7.535-1.424-8.432-5.185c-0.12-0.503-2.244-9.861,2.559-19.169
			c-0.267-0.274-0.527-0.556-0.783-0.842c-2.624,2.252-3.825,4.865-3.936,5.115c-1.049,2.51-3.393,4.092-5.938,4.283
			c-1.045,0.08-2.122-0.076-3.158-0.498C4.284,411.471,2.561,407.386,4.018,403.806z"/>
		<g>
			<polygon fill="#F1F2F2" points="74.956,349.29 72.991,380.235 13.787,373.351 19.063,342.257 			"/>
			
				<line fill="none" stroke="#7261C6" stroke-width="8" stroke-miterlimit="10" x1="74.062" y1="363.408" x2="16.558" y2="357.032"/>
			<path fill="#231F20" d="M72.473,384.705l-59.206-6.885c-1.226-0.143-2.339-0.782-3.079-1.77
				c-0.741-0.988-1.042-2.236-0.836-3.452l5.275-31.094c0.403-2.377,2.608-4.012,4.998-3.713l55.892,7.033
				c2.358,0.297,4.081,2.377,3.929,4.751l-1.963,30.944c-0.077,1.233-0.657,2.379-1.604,3.169c-0.558,0.465-1.213,0.783-1.908,0.938
				C73.484,384.736,72.978,384.765,72.473,384.705z M22.779,347.261l-3.762,22.168l49.785,5.79l1.395-21.991L22.779,347.261z"/>
		</g>
		<g>
			<circle fill="#BF4B13" stroke="#231F20" stroke-width="8" stroke-miterlimit="10" cx="202.175" cy="358.478" r="61.511"/>
			<path fill="#231F20" d="M255.124,331.693c-0.795-1.581-1.672-3.142-2.6-4.636l-0.555-0.899l-0.662,0.516
				c-3.447-0.514-7.383-0.533-11.704-0.057l-0.575,0.068c-4.707,0.547-12.043,1.768-20.254,4.471
				c-2.786,0.919-5.535,1.963-8.152,3.093c-7.586,3.129-13.884,6.829-18.681,10.973c-6.434,5.023-9.166,11.799-10.204,15.262
				c-3.199-0.897-6.349-1.839-9.394-2.811c0.229-0.882,0.457-1.729,0.681-2.537c3.144-11.226,6.234-19.629,12.732-29.363
				c7.123-10.673,14.618-16.346,19.654-19.228l0.745-0.43c0.695-0.408,1.562-0.913,2.025-1.146c2.17-1.08,3.714-1.753,5.007-2.178
				c0.701-0.231,1.361-0.4,2.141-0.548c0.291-0.058,0.543-0.098,0.76-0.133l0.097-1.854c-0.539-0.138-1.079-0.272-1.624-0.4
				c-1.764-0.406-3.586-0.741-5.429-0.997l-1.552-0.215l0.279,0.777c-0.162,0.051-0.322,0.103-0.479,0.154
				c-1.691,0.557-3.138,1.188-4.555,1.989c-8.111,4.577-15.415,11.679-21.713,21.11c-6.879,10.308-10.251,19.486-13.462,30.958
				c-0.204,0.729-0.408,1.49-0.614,2.279c-2.551-0.881-5.041-1.793-7.469-2.734c1.398-6.996,2.283-14.688,2.85-24.796
				c0.302-5.324,0.984-9.948,2.027-13.74l0.13-0.466c0.163-0.601,0.301-1.122,0.499-1.573c0.104-0.23,0.202-0.433,0.305-0.625
				l-1.419-1.191c-1.897,1.445-3.733,3.028-5.458,4.705l-0.553,0.536l0.316,0.499c-0.703,3.415-1.18,7.299-1.418,11.543
				c-0.524,9.313-1.31,16.442-2.537,22.901c-5.607-2.56-8.924-4.819-10.737-6.292c-0.01-0.009-0.044-0.045-0.085-0.105l-1.209-1.799
				l-0.499,2.109l-0.121,0.49c-0.282,1.221-0.526,2.458-0.747,3.788l-0.176,1.065l0.971,0.034c3.021,2.167,6.854,4.278,11.396,6.28
				c-0.953,3.911-2.152,7.885-3.658,12.116c-1.193,3.354-2.988,7.078-5.062,10.512l-0.783,0.265l0.345,0.918
				c0.566,1.511,1.188,2.988,1.844,4.396l1.002,2.141l0.758-2.236c0.02-0.061,0.039-0.114,0.056-0.143
				c2.864-4.261,5.45-9.355,7.1-13.981c1.478-4.16,2.665-8.046,3.624-11.852c2.391,0.918,4.879,1.821,7.419,2.69
				c-2.182,10.219-2.874,19.708-2.049,28.213c0.822,8.498,3.149,15.765,6.918,21.604l-0.173,0.508l0.691,0.386
				c2.791,1.563,5.716,2.912,8.695,4.004l0.929-1.624c-0.266-0.216-0.478-0.41-0.646-0.564c-6.162-5.69-9.816-14.05-10.859-24.852
				c-0.752-7.776-0.139-16.49,1.825-25.92c3.142,0.995,6.373,1.958,9.637,2.869c-0.473,5.216-0.223,14.581,5.476,23.869
				c4.067,6.625,12.337,13.832,21.583,18.813c3.263,1.757,8.328,4.124,13.923,5.417c0.754,0.174,1.514,0.328,2.273,0.46l0.2,0.654
				l0.978-0.426c2.448-1.07,4.86-2.321,7.169-3.717l-0.644-1.746c-0.291,0.048-0.54,0.072-0.684,0.083
				c-5.835,0.365-13.138-1.638-20.567-5.64c-8.433-4.54-15.896-10.984-19.476-16.815c-4.52-7.364-4.975-14.982-4.728-19.47
				c3.244,0.846,6.541,1.655,9.815,2.41c18.469,4.273,34.59,6.573,40.661,7.364c9.987,1.3,17.034,0.761,21.213,0.075l0.853,0.248
				l0.272-0.899c0.397-1.33,0.751-2.648,1.046-3.922l0.547-2.328l-1.871,1.027c-0.049,0.024-0.093,0.045-0.126,0.056
				c-3.186,0.696-10.181,1.648-21.212,0.211c-7.855-1.026-28.311-4.013-50.212-9.749c0.987-2.835,3.362-8.17,8.252-12.412
				c4.632-3.596,9.821-6.728,15.401-9.305c2.851-1.253,5.914-2.42,9.106-3.471c6.91-2.274,14.292-3.957,20.251-4.617
				c1.352-0.149,2.69-0.245,3.976-0.289c3.1-0.097,5.861,0.129,8.203,0.675c0.423,0.098,0.804,0.202,1.151,0.304
				c0.082,0.025,0.197,0.064,0.322,0.125l2.508,1.189L255.124,331.693z"/>
		</g>
		<path fill="#F2C4B6" stroke="#231F20" stroke-width="7" stroke-miterlimit="10" d="M311.994,406.968
			c-0.101-0.453-1.893-7.987-8.307-14.038c4.292-11.101,0.998-24.139-8.923-31.751c-12.06-9.254-29.34-6.977-38.595,5.085
			c-1.779,2.32-3.129,4.834-4.068,7.446c-4.398,1.511-9.162,4.333-13.049,9.534c-2.297,3.071-1.689,7.416,1.344,9.742
			c0.023,0.018,0.049,0.038,0.073,0.057c3.098,2.313,7.484,1.679,9.798-1.42c0.377-0.505,0.777-0.951,1.188-1.37
			c0.535,1.974,1.295,3.889,2.266,5.715c-2.039,4.89-6.406,7.176-6.733,7.342c-3.456,1.661-4.936,5.801-3.304,9.28
			c0.123,0.268,0.264,0.521,0.418,0.766c1.854,2.945,5.658,4.115,8.894,2.6c0.384-0.182,6.307-3.045,10.783-9.378
			c0.551,0.334,1.108,0.641,1.674,0.93c1.253,7.548-4.243,12.558-4.577,12.853c-2.648,2.25-3.205,6.063-1.451,8.952
			c0.182,0.3,0.389,0.589,0.619,0.864c2.478,2.966,6.891,3.362,9.858,0.883c0.443-0.37,9.435-8.055,9.752-20.572
			c0.553-0.033,1.105-0.081,1.653-0.146c1.129,4.51-0.325,8.441-0.444,8.752c-1.031,2.519-0.49,5.296,1.174,7.229
			c0.684,0.793,1.558,1.446,2.589,1.879c3.563,1.498,7.666-0.175,9.166-3.738c0.2-0.477,3.823-9.362,0.605-19.33
			c0.309-0.227,0.611-0.462,0.91-0.703c2.222,2.65,2.979,5.426,3.047,5.69c0.626,2.647,2.68,4.591,5.159,5.195
			c1.018,0.25,2.105,0.271,3.197,0.025C310.479,414.486,312.848,410.737,311.994,406.968z"/>
		<g>
			<polygon fill="#F1F2F2" points="244.344,344.229 249.314,374.836 307.565,362.215 299.285,331.783 			"/>
			
				<line fill="#7261C6" stroke="#7261C6" stroke-width="8" stroke-linejoin="round" stroke-miterlimit="10" x1="246.609" y1="358.193" x2="303.218" y2="346.244"/>
			<path fill="#231F20" d="M248.769,379.302c-0.707-0.086-1.391-0.339-1.99-0.747c-1.02-0.693-1.709-1.777-1.906-2.997
				l-4.969-30.606c-0.383-2.348,1.129-4.586,3.447-5.11l54.939-12.447c2.35-0.53,4.703,0.882,5.336,3.209l8.281,30.432
				c0.323,1.189,0.146,2.461-0.496,3.517c-0.641,1.055-1.686,1.8-2.892,2.062l-58.253,12.621
				C249.77,379.342,249.263,379.363,248.769,379.302z M249.464,347.685l3.53,21.75l48.983-10.613l-5.903-21.696L249.464,347.685z"/>
		</g>
	</g>
</g>
<g id="Warstwa_2">
	<circle display="inline" fill="#231F20" cx="124.642" cy="106.228" r="12.312" opacity="0">
            <animate attributeName="opacity" values="0;0;0;1;0;0;0;0;0;0;0;0;0;0;0" dur="3s" repeatCount="indefinite" calcMode="discrete"/>
        </circle>
	<circle display="inline" fill="#231F20" cx="187.226" cy="105.88" r="12.312" opacity="0">
            <animate attributeName="opacity" values="0;0;0;1;0;0;0;0;0;0;0;0;0;0;0" dur="3s" repeatCount="indefinite" calcMode="discrete"/>
        </circle>
</g>
</svg>
