<?xml version="1.0" encoding="utf-8"?>
<!-- Generator: Adobe Illustrator 16.0.0, SVG Export Plug-In . SVG Version: 6.00 Build 0)  -->
<!DOCTYPE svg PUBLIC "-//W3C//DTD SVG 1.1//EN" "http://www.w3.org/Graphics/SVG/1.1/DTD/svg11.dtd">
<svg version="1.1" xmlns="http://www.w3.org/2000/svg" xmlns:xlink="http://www.w3.org/1999/xlink" x="0px" y="0px"
	 width="362.51px" height="517.431px" viewBox="0 0 362.51 517.431" enable-background="new 0 0 362.51 517.431"
	 xml:space="preserve">
<g id="Layer_2">
	<g>
		<g>
			<path fill="#6F3F33" stroke="#231F20" stroke-width="7" stroke-miterlimit="10" d="M4.43,343.685
				c0.23-0.403,4.158-7.077,12.069-10.973c-0.835-11.872,6.147-23.364,17.869-27.721c14.249-5.296,30.094,1.963,35.391,16.213
				c1.018,2.742,1.568,5.542,1.697,8.315c3.761,2.737,7.482,6.836,9.667,12.951c1.291,3.611-0.566,7.584-4.151,8.915
				c-0.027,0.011-0.058,0.022-0.086,0.032c-3.641,1.3-7.646-0.597-8.946-4.239c-0.212-0.593-0.463-1.138-0.731-1.659
				c-1.093,1.729-2.382,3.337-3.848,4.796c0.51,5.273,4.013,8.743,4.275,8.997c2.815,2.604,3.012,6.997,0.429,9.843
				c-0.198,0.219-0.406,0.42-0.625,0.608c-2.639,2.271-6.62,2.269-9.265-0.133c-0.314-0.285-5.134-4.765-7.548-12.135
				c-0.624,0.157-1.248,0.287-1.873,0.396c-3.418,6.846,0.362,13.25,0.594,13.629c1.868,2.932,1.278,6.738-1.248,8.985
				c-0.261,0.232-0.543,0.447-0.845,0.643c-3.24,2.105-7.575,1.187-9.683-2.057c-0.313-0.483-6.647-10.474-3.268-22.53
				c-0.52-0.194-1.033-0.402-1.538-0.627c-2.405,3.979-2.172,8.164-2.149,8.496c0.245,2.71-1.089,5.205-3.249,6.563
				c-0.887,0.556-1.913,0.923-3.025,1.033c-3.848,0.384-7.277-2.422-7.661-6.27c-0.052-0.515-0.9-10.072,5.106-18.652
				c-0.227-0.308-0.448-0.621-0.662-0.939c-2.903,1.88-4.443,4.309-4.586,4.541c-1.376,2.347-3.911,3.601-6.459,3.448
				c-1.046-0.061-2.093-0.359-3.063-0.917C3.665,351.316,2.506,347.038,4.43,343.685z"/>
			<path fill="#6F3F33" stroke="#231F20" stroke-width="9" stroke-miterlimit="10" d="M140.274,197.665
				c0.023-0.006,0.725,11.495,0.816,11.5l0.01,0.017c-0.047,0.019-0.094,0.039-0.146,0.063c-0.123,0.049-0.266,0.107-0.426,0.173
				c-0.699,0.281-1.893,0.802-3.438,1.565c-1.547,0.753-3.467,1.83-5.627,3.166c-2.168,1.323-4.564,3.016-7.102,4.978
				c-2.555,1.938-5.186,4.296-7.887,6.862c-2.688,2.594-5.381,5.517-8.039,8.662c-2.621,3.194-5.238,6.575-7.672,10.227
				c-0.609,0.907-1.225,1.818-1.84,2.73c-0.58,0.944-1.162,1.892-1.746,2.84c-1.201,1.863-2.273,3.853-3.381,5.801
				c-2.18,3.925-4.182,7.98-6.031,12.043c-1.822,4.082-3.523,8.149-4.994,12.188c-0.375,1.005-0.764,1.987-1.117,2.982
				c-0.336,1.005-0.67,2-1,2.984c-0.641,1.979-1.354,3.854-1.883,5.78c-0.564,1.902-1.113,3.751-1.645,5.54
				c-0.533,1.784-0.939,3.567-1.391,5.242c-0.428,1.689-0.877,3.282-1.23,4.836c-0.348,1.555-0.676,3.029-0.986,4.416
				c-0.309,1.384-0.598,2.678-0.867,3.874c-0.229,1.214-0.439,2.328-0.629,3.335c-0.762,4.019-1.197,6.315-1.197,6.315
				L21.991,313.82c0,0,0.846-2.594,2.33-7.136c0.373-1.132,0.783-2.386,1.232-3.752c0.494-1.357,1.027-2.826,1.598-4.396
				c0.57-1.567,1.18-3.233,1.82-4.99c0.648-1.754,1.422-3.585,2.184-5.498c0.787-1.91,1.537-3.906,2.441-5.95
				c0.906-2.038,1.842-4.146,2.805-6.313c0.924-2.171,2.072-4.356,3.145-6.606c0.549-1.121,1.104-2.255,1.662-3.4
				c0.578-1.137,1.203-2.276,1.813-3.427c2.404-4.615,5.113-9.303,7.994-13.991c2.914-4.679,6.035-9.352,9.391-13.886
				c1.697-2.26,3.355-4.528,5.176-6.701c0.893-1.093,1.779-2.183,2.666-3.271c0.93-1.058,1.859-2.114,2.785-3.164
				c3.686-4.203,7.615-8.127,11.539-11.787c3.977-3.626,7.986-6.966,11.986-9.924c4.021-2.936,7.926-5.578,11.74-7.767
				c3.797-2.208,7.383-4.078,10.705-5.554c3.316-1.489,6.283-2.66,8.859-3.515c2.568-0.865,4.67-1.459,6.246-1.842
				c0.896-0.206,1.584-0.363,2.047-0.468c0.686-0.147,0.703-0.137,0.729-0.144L140.274,197.665z"/>
			<g>
				<polygon fill="#F1F2F2" points="82.04,299.178 75.942,329.581 18.196,314.816 27.595,284.71 				"/>
				
					<line fill="none" stroke="#5DB279" stroke-width="9" stroke-linejoin="round" stroke-miterlimit="10" x1="79.259" y1="313.048" x2="23.13" y2="299.016"/>
				<path fill="#231F20" d="M74.829,333.94l-57.748-14.765c-1.195-0.306-2.213-1.089-2.814-2.167s-0.732-2.355-0.365-3.533
					l9.398-30.104c0.719-2.302,3.123-3.626,5.451-3.009l54.443,14.467c2.297,0.61,3.725,2.903,3.256,5.234l-6.096,30.402
					c-0.242,1.211-0.971,2.269-2.016,2.925c-0.615,0.386-1.307,0.614-2.016,0.674C75.827,334.107,75.321,334.066,74.829,333.94z
					 M30.606,290.167l-6.701,21.463l48.559,12.416l4.332-21.605L30.606,290.167z"/>
			</g>
		</g>
		<g>
			<path fill="#6F3F33" stroke="#231F20" stroke-width="7" stroke-miterlimit="10" d="M358.08,343.685
				c-0.23-0.403-4.158-7.077-12.069-10.973c0.835-11.872-6.147-23.364-17.869-27.721c-14.249-5.296-30.094,1.963-35.391,16.213
				c-1.018,2.742-1.568,5.542-1.697,8.315c-3.761,2.737-7.482,6.836-9.667,12.951c-1.291,3.611,0.566,7.584,4.151,8.915
				c0.027,0.011,0.058,0.022,0.086,0.032c3.641,1.3,7.646-0.597,8.946-4.239c0.212-0.593,0.463-1.138,0.731-1.659
				c1.093,1.729,2.382,3.337,3.848,4.796c-0.51,5.273-4.013,8.743-4.275,8.997c-2.815,2.604-3.012,6.997-0.429,9.843
				c0.198,0.219,0.406,0.42,0.625,0.608c2.639,2.271,6.62,2.269,9.265-0.133c0.314-0.285,5.134-4.765,7.548-12.135
				c0.624,0.157,1.248,0.287,1.873,0.396c3.418,6.846-0.362,13.25-0.594,13.629c-1.868,2.932-1.278,6.738,1.248,8.985
				c0.261,0.232,0.543,0.447,0.845,0.643c3.24,2.105,7.575,1.187,9.683-2.057c0.313-0.483,6.647-10.474,3.268-22.53
				c0.52-0.194,1.033-0.402,1.538-0.627c2.405,3.979,2.172,8.164,2.149,8.496c-0.245,2.71,1.089,5.205,3.249,6.563
				c0.887,0.556,1.913,0.923,3.025,1.033c3.848,0.384,7.277-2.422,7.661-6.27c0.052-0.515,0.9-10.072-5.106-18.652
				c0.227-0.308,0.448-0.621,0.662-0.939c2.903,1.88,4.443,4.309,4.586,4.541c1.376,2.347,3.911,3.601,6.459,3.448
				c1.046-0.061,2.093-0.359,3.063-0.917C358.845,351.316,360.004,347.038,358.08,343.685z"/>
			<path fill="#6F3F33" stroke="#231F20" stroke-width="9" stroke-miterlimit="10" d="M222.235,197.665
				c-0.023-0.006-0.725,11.495-0.816,11.5l-0.01,0.017c0.047,0.019,0.094,0.039,0.146,0.063c0.123,0.049,0.266,0.107,0.426,0.173
				c0.699,0.281,1.893,0.802,3.438,1.565c1.547,0.753,3.467,1.83,5.627,3.166c2.168,1.323,4.564,3.016,7.102,4.978
				c2.555,1.938,5.186,4.296,7.887,6.862c2.688,2.594,5.381,5.517,8.039,8.662c2.621,3.194,5.238,6.575,7.672,10.227
				c0.609,0.907,1.225,1.818,1.84,2.73c0.58,0.944,1.162,1.892,1.746,2.84c1.201,1.863,2.273,3.853,3.381,5.801
				c2.18,3.925,4.182,7.98,6.031,12.043c1.822,4.082,3.523,8.149,4.994,12.188c0.375,1.005,0.764,1.987,1.117,2.982
				c0.336,1.005,0.67,2,1,2.984c0.641,1.979,1.354,3.854,1.883,5.78c0.564,1.902,1.113,3.751,1.645,5.54
				c0.533,1.784,0.939,3.567,1.391,5.242c0.428,1.689,0.877,3.282,1.23,4.836c0.348,1.555,0.676,3.029,0.986,4.416
				c0.309,1.384,0.598,2.678,0.867,3.874c0.229,1.214,0.439,2.328,0.629,3.335c0.762,4.019,1.197,6.315,1.197,6.315l48.836-11.964
				c0,0-0.846-2.594-2.33-7.136c-0.373-1.132-0.783-2.386-1.232-3.752c-0.494-1.357-1.027-2.826-1.598-4.396
				c-0.57-1.567-1.18-3.233-1.82-4.99c-0.648-1.754-1.422-3.585-2.184-5.498c-0.787-1.91-1.537-3.906-2.441-5.95
				c-0.906-2.038-1.842-4.146-2.805-6.313c-0.924-2.171-2.072-4.356-3.145-6.606c-0.549-1.121-1.104-2.255-1.662-3.4
				c-0.578-1.137-1.203-2.276-1.813-3.427c-2.404-4.615-5.113-9.303-7.994-13.991c-2.914-4.679-6.035-9.352-9.391-13.886
				c-1.697-2.26-3.355-4.528-5.176-6.701c-0.893-1.093-1.779-2.183-2.666-3.271c-0.93-1.058-1.859-2.114-2.785-3.164
				c-3.686-4.203-7.615-8.127-11.539-11.787c-3.977-3.626-7.986-6.966-11.986-9.924c-4.021-2.936-7.926-5.578-11.74-7.767
				c-3.797-2.208-7.383-4.078-10.705-5.554c-3.316-1.489-6.283-2.66-8.859-3.515c-2.568-0.865-4.67-1.459-6.246-1.842
				c-0.896-0.206-1.584-0.363-2.047-0.468c-0.686-0.147-0.703-0.137-0.729-0.144L222.235,197.665z"/>
			<g>
				<polygon fill="#F1F2F2" points="280.47,299.178 286.567,329.581 344.313,314.816 334.915,284.71 				"/>
				
					<line fill="none" stroke="#5DB279" stroke-width="9" stroke-linejoin="round" stroke-miterlimit="10" x1="283.251" y1="313.048" x2="339.38" y2="299.016"/>
				<path fill="#231F20" d="M286.187,334.064c-0.709-0.06-1.4-0.288-2.016-0.674c-1.045-0.656-1.773-1.714-2.016-2.925
					l-6.096-30.402c-0.469-2.331,0.959-4.624,3.256-5.234l54.443-14.467c2.328-0.617,4.732,0.707,5.451,3.009l9.398,30.104
					c0.367,1.178,0.236,2.455-0.365,3.533s-1.619,1.861-2.814,2.167l-57.748,14.765
					C287.188,334.066,286.683,334.107,286.187,334.064z M285.714,302.441l4.332,21.605l48.559-12.416l-6.701-21.463L285.714,302.441
					z"/>
			</g>
		</g>
		<g>
			<g>
				<path fill="#6F3F33" d="M149.907,463.249h-46c0-69.271,12.391-102.025,12.918-104.577l45.047,9.313l-22.523-4.656l22.525,4.647
					C161.755,368.556,149.907,398.861,149.907,463.249z"/>
				<rect x="105.054" y="416.609" fill="#FFFFFF" width="46.199" height="27.517"/>
				<path fill="#231F20" d="M99.407,463.249c0-69.707,12.48-102.917,13.012-105.488l0.91-4.407l53.857,11.123l-0.904,4.403
					c-0.119,0.579-11.875,30.675-11.875,94.369v4.5h-55V463.249z M156.622,371.494L120.368,364
					c-2.824,14.985-11.504,37.531-11.943,94.749h37.002C145.872,406.072,153.954,385.975,156.622,371.494z"/>
				<g>
					<path fill="#FFAD3B" d="M185.415,329.354h-9.666l-64.518,3.559c0,0-11.197,18.354-11.197,62.352c18.102,0,68.869,0,68.869,0
						l3.352-33.4l9.712-4.372h0.981C181.935,336.519,182.745,350.405,185.415,329.354z"/>
					<path fill="#231F20" d="M182.733,359.777l-0.932,0.279l-13.129-3.933l-3.477,34.641h-60.988
						c0.6-34.988,7.938-42.847,10.297-53.526l61.35-3.384h9.018c0.342-2.997,0.709-5.995,1.127-8.995l-10.25-0.005l-67.746,3.73
						l-0.768,3.184c-0.463,1.914-11.334,19.424-11.334,63.496v4.5h76.707l3.227-32.16c0,0,0.274-11.324,3.325-11.324
						c0.457,0,3.064-2.07,3.508-2.104C182.496,351.284,182.837,362.668,182.733,359.777z"/>
				</g>
				
					<rect x="95.038" y="476.787" fill="#EFEDF2" stroke="#231F20" stroke-width="7" stroke-linejoin="round" stroke-miterlimit="10" width="62.666" height="11.991"/>
				
					<rect x="95.038" y="438.088" fill="#5DB279" stroke="#231F20" stroke-width="7" stroke-linejoin="round" stroke-miterlimit="10" width="62.666" height="38.698"/>
				<path fill="#99D2E4" d="M141.101,452.406V441.4c0-7.661-6.211-13.872-13.871-13.872l0,0c-7.662,0-13.873,6.211-13.873,13.872
					v11.006"/>
				
					<line fill="none" stroke="#FFFFFF" stroke-width="5" stroke-miterlimit="10" x1="113.356" y1="448.494" x2="141.101" y2="460.827"/>
				
					<line fill="none" stroke="#FFFFFF" stroke-width="5" stroke-miterlimit="10" x1="141.101" y1="448.494" x2="113.356" y2="460.827"/>
				
					<line fill="none" stroke="#FFFFFF" stroke-width="5" stroke-miterlimit="10" x1="113.356" y1="436.292" x2="141.101" y2="448.625"/>
				
					<line fill="none" stroke="#FFFFFF" stroke-width="5" stroke-miterlimit="10" x1="141.101" y1="436.292" x2="113.356" y2="448.625"/>
				<polyline fill="none" stroke="#231F20" stroke-width="7" stroke-linejoin="round" stroke-miterlimit="10" points="
					157.704,471.217 141.101,463.834 141.101,436.292 				"/>
				<polyline fill="none" stroke="#231F20" stroke-width="7" stroke-linejoin="round" stroke-miterlimit="10" points="
					96.753,471.217 113.356,463.834 113.356,436.292 				"/>
				
					<line fill="none" stroke="#231F20" stroke-width="7" stroke-linejoin="round" stroke-miterlimit="10" x1="141.101" y1="463.834" x2="113.356" y2="463.834"/>
				<path fill="#231F20" d="M109.856,452.406h7V441.4c0-5.719,4.654-10.372,10.373-10.372s10.371,4.653,10.371,10.372v11.006h7
					V441.4c0-9.579-7.793-17.372-17.371-17.372c-9.58,0-17.373,7.793-17.373,17.372V452.406z"/>
			</g>
		</g>
		<path fill="#FFAD3B" stroke="#231F20" stroke-width="9" stroke-miterlimit="10" d="M249.175,265.574l1-82.704l-58.813-30.109
			c-2.311-3.046-6.217,10.731-12.688,11.873c-6.469-1.142-10.375-14.919-12.686-11.873l-58.814,33.58l3.779,79.233
			c0,0-18.893,61.274-18.893,91.918c29.828,0,148.24,0,178.068,0C270.13,326.848,249.175,265.574,249.175,265.574z"/>
		<path fill="#6F3F33" stroke="#231F20" stroke-width="9" stroke-miterlimit="10" d="M217.853,156.691
			c0,32.797-17.773,67.528-39.697,67.528s-39.697-34.731-39.697-67.528s17.773-59.385,39.697-59.385
			S217.853,123.894,217.853,156.691z"/>
		<g>
			<g>
				<path fill="#FFFFFF" d="M139.331,280.21c-1.072-2.376-1.607-3.563-2.68-5.939c0.646-0.293,0.973-0.435,1.623-0.716
					c-3.326-7.702-4.994-11.555-8.32-19.257c-0.777,0.336-1.164,0.507-1.938,0.855c-1.072-2.376-1.609-3.563-2.682-5.939
					c4.959-2.238,7.482-3.228,12.588-4.947c0.832,2.471,1.248,3.702,2.08,6.173c-0.797,0.269-1.193,0.407-1.986,0.688
					c2.807,7.907,4.209,11.862,7.016,19.77c0.666-0.236,0.998-0.351,1.666-0.575c0.832,2.471,1.246,3.705,2.078,6.176
					C144.944,277.789,143.052,278.531,139.331,280.21z"/>
				<path fill="#FFFFFF" d="M154.11,274.862c-0.695-2.512-1.043-3.767-1.738-6.278c0.693-0.192,1.041-0.287,1.736-0.468
					c-2.105-8.122-3.16-12.183-5.266-20.305c-0.83,0.216-1.244,0.326-2.072,0.556c-0.697-2.512-1.045-3.769-1.74-6.28
					c5.172-1.433,7.787-2.02,13.045-2.933c0.447,2.568,0.67,3.851,1.117,6.419c-0.82,0.143-1.23,0.217-2.049,0.373
					c1.568,8.242,2.354,12.366,3.924,20.608c2.631-0.501,3.955-0.71,6.607-1.048c-0.188-1.473-0.281-2.213-0.469-3.686
					c2.916-0.371,4.377-0.508,7.307-0.688c0.252,4.084,0.377,6.126,0.627,10.21C166.638,271.865,162.388,272.57,154.11,274.862z"/>
				<path fill="#FFFFFF" d="M202.296,249.069c-3.254-0.547-4.889-0.768-8.164-1.1c0.148-1.46,0.223-2.191,0.371-3.651
					c-0.826-0.084-1.24-0.123-2.068-0.193c-0.713,8.36-1.07,12.543-1.783,20.903c0.693,0.06,1.041,0.092,1.732,0.162
					c-0.262,2.594-0.393,3.89-0.656,6.483c-3.977-0.403-5.975-0.508-9.967-0.521c0.01-2.606,0.012-3.91,0.021-6.517
					c0.695,0.002,1.043,0.008,1.738,0.021c0.162-8.389,0.244-12.585,0.406-20.974c-0.828-0.016-1.242-0.022-2.072-0.025
					c-0.004,1.468-0.008,2.203-0.012,3.671c-3.289-0.012-4.934,0.035-8.217,0.238c-0.252-4.066-0.379-6.099-0.629-10.165
					c10.35-0.638,20.762-0.095,30.986,1.623C203.308,243.042,202.97,245.051,202.296,249.069z"/>
				<path fill="#FFFFFF" d="M203.79,273.629c0.57-2.543,0.857-3.815,1.428-6.358c0.682,0.153,1.021,0.234,1.701,0.398
					c1.967-8.156,2.953-12.237,4.92-20.394c-0.811-0.196-1.219-0.291-2.033-0.474c0.57-2.543,0.857-3.814,1.43-6.357
					c10.74,2.409,16.047,4.164,26.248,8.77c-1.527,3.383-2.291,5.074-3.818,8.457c-3.088-1.394-4.646-2.036-7.799-3.214
					c0.387-1.035,0.578-1.556,0.965-2.591c-2.666-0.996-4.008-1.455-6.713-2.301c-0.859,2.752-1.291,4.13-2.152,6.882
					c1.104,0.345,1.656,0.524,2.752,0.896c0.227-0.67,0.342-1.008,0.568-1.678c3.111,1.054,4.654,1.633,7.707,2.898
					c-1.539,3.716-2.311,5.575-3.85,9.291c-2.807-1.163-4.227-1.695-7.086-2.664c0.227-0.67,0.342-1.006,0.57-1.676
					c-1.039-0.352-1.561-0.523-2.605-0.85c-0.865,2.769-1.299,4.153-2.164,6.922c0.67,0.21,1.008,0.319,1.676,0.54
					c-0.816,2.475-1.225,3.71-2.043,6.185C209.655,275.043,207.708,274.508,203.79,273.629z"/>
			</g>
		</g>
		<path fill="#6F3F33" stroke="#231F20" stroke-width="9" stroke-miterlimit="10" d="M133.129,99.04
			c0,13.692-11.101,24.794-24.794,24.794c-13.694,0-24.796-11.102-24.796-24.794c0-13.696,11.102-24.798,24.796-24.798
			C122.028,74.242,133.129,85.343,133.129,99.04z"/>
		<path fill="#6F3F33" stroke="#231F20" stroke-width="9" stroke-miterlimit="10" d="M264.868,99.04
			c0,13.692-11.101,24.794-24.794,24.794c-13.694,0-24.796-11.102-24.796-24.794c0-13.696,11.102-24.798,24.796-24.798
			C253.768,74.242,264.868,85.343,264.868,99.04z"/>
		<path fill="#6F3F33" stroke="#231F20" stroke-width="9" stroke-miterlimit="10" d="M245.978,104.734
			c0,39.488-32.012,71.5-71.5,71.5l0,0c-39.488,0-71.5-32.012-71.5-71.5V76c0-39.488,32.012-71.5,71.5-71.5l0,0
			c39.488,0,71.5,32.012,71.5,71.5v6.997V93.63V104.734z"/>
		
			<path fill="#FFFFFF" stroke="#231F20" stroke-width="8" stroke-linecap="round" stroke-linejoin="round" stroke-miterlimit="10" d="
			M144.607,140.659c5.889,7.113,17.055,11.917,29.87,11.917s23.981-4.804,29.87-11.917H144.607z"/>
		<g>
			<circle fill="#231F20" cx="212.161" cy="93.282" r="19.225"/>
			<circle fill="#FFFFFF" cx="212.301" cy="93.282" r="13.799"/>
			<path fill="#231F20" d="M215.55,85.546c-2.762-1.097-5.732-0.77-8.115,0.621c0.46,0.056,0.922,0.147,1.372,0.328
				c2.796,1.109,4.163,4.279,3.052,7.076c-1.112,2.797-4.281,4.164-7.076,3.052c-0.729-0.289-1.354-0.722-1.869-1.247
				c0.424,3.23,2.533,6.144,5.777,7.431c4.766,1.895,10.166-0.434,12.059-5.201C222.646,92.84,220.314,87.441,215.55,85.546z"/>
			<path fill="none" stroke="#231F20" stroke-width="7" stroke-linecap="round" stroke-miterlimit="10" d="M196.456,59.018
				c0,0,16.014-4.025,31.648,3.561"/>
		</g>
		<g>
			<circle fill="#231F20" cx="136.444" cy="93.282" r="19.225"/>
			<circle fill="#FFFFFF" cx="136.304" cy="93.282" r="13.799"/>
			<path fill="#231F20" d="M139.833,85.546c-2.762-1.097-5.732-0.77-8.115,0.621c0.46,0.056,0.922,0.147,1.372,0.328
				c2.796,1.109,4.163,4.279,3.052,7.076c-1.112,2.797-4.281,4.164-7.076,3.052c-0.729-0.289-1.354-0.722-1.869-1.247
				c0.424,3.23,2.533,6.144,5.777,7.431c4.766,1.895,10.166-0.434,12.059-5.201C146.929,92.84,144.598,87.441,139.833,85.546z"/>
			<path fill="none" stroke="#231F20" stroke-width="7" stroke-linecap="round" stroke-miterlimit="10" d="M152.149,59.018
				c0,0-16.014-4.025-31.648,3.561"/>
		</g>
		<path fill="none" stroke="#231F20" stroke-width="7" stroke-linecap="round" stroke-miterlimit="10" d="M190.165,121.402
			c-4.223,3.256-10.268,5.293-16.98,5.293c-7.004,0-13.279-2.22-17.516-5.724"/>
		<path fill="#231F20" d="M153.159,34.316c2.646,3.56,12.243,9.366,21.84,9.366s19.193-5.806,21.839-9.366
			c5.162-6.946,22.569-15.852,41.328,9.093c0.665,0.884,1.3,1.503,1.907,1.896C228.587,21.179,203.987,4.5,175.487,4.5
			c-27.711,0-51.722,15.775-63.59,38.825C130.631,18.489,148.003,27.378,153.159,34.316z"/>
		<g>
			<circle fill="#BF4B13" stroke="#231F20" stroke-width="8" stroke-miterlimit="10" cx="226.033" cy="451.903" r="61.51"/>
			<path fill="#231F20" d="M173.869,480.187c0.84,1.558,1.762,3.092,2.731,4.561l0.58,0.884l0.647-0.535
				c3.461,0.414,7.395,0.321,11.7-0.277l0.574-0.085c4.688-0.682,11.987-2.111,20.116-5.048c2.76-0.996,5.477-2.119,8.062-3.323
				c7.494-3.344,13.683-7.223,18.36-11.502c6.287-5.204,8.826-12.055,9.766-15.545c3.223,0.807,6.397,1.657,9.469,2.541
				c-0.203,0.889-0.407,1.741-0.608,2.556c-2.822,11.311-5.672,19.799-11.89,29.714c-6.815,10.871-14.146,16.757-19.098,19.78
				l-0.732,0.453c-0.683,0.427-1.534,0.955-1.992,1.203c-2.138,1.142-3.662,1.857-4.941,2.318c-0.695,0.253-1.35,0.44-2.125,0.609
				c-0.289,0.064-0.54,0.113-0.756,0.154l-0.043,1.856c0.542,0.122,1.085,0.242,1.634,0.354c1.774,0.355,3.605,0.638,5.455,0.84
				l1.556,0.171l-0.3-0.77c0.16-0.055,0.319-0.11,0.474-0.166c1.676-0.605,3.104-1.278,4.496-2.118
				c7.979-4.808,15.076-12.114,21.102-21.722c6.583-10.5,9.692-19.771,12.574-31.33c0.184-0.734,0.365-1.501,0.549-2.295
				c2.574,0.808,5.09,1.647,7.543,2.52c-1.197,7.032-1.862,14.749-2.141,24.867c-0.149,5.331-0.7,9.972-1.635,13.793l-0.116,0.469
				c-0.146,0.605-0.269,1.13-0.453,1.588c-0.099,0.233-0.19,0.438-0.289,0.633l1.454,1.15c1.854-1.5,3.645-3.134,5.321-4.857
				l0.538-0.553l-0.33-0.49c0.604-3.435,0.971-7.329,1.088-11.578c0.258-9.323,0.84-16.473,1.883-22.964
				c5.678,2.396,9.057,4.561,10.912,5.983c0.009,0.008,0.044,0.043,0.088,0.103l1.26,1.764l0.439-2.125l0.105-0.493
				c0.247-1.227,0.457-2.472,0.639-3.808l0.146-1.069l-0.972-0.006c-3.083-2.081-6.975-4.082-11.571-5.954
				c0.841-3.936,1.927-7.941,3.311-12.215c1.098-3.387,2.785-7.161,4.761-10.65l0.775-0.288l-0.371-0.906
				c-0.608-1.495-1.272-2.956-1.969-4.344l-1.063-2.111l-0.693,2.258c-0.018,0.061-0.037,0.114-0.052,0.145
				c-2.742,4.34-5.182,9.506-6.698,14.177c-1.358,4.2-2.435,8.12-3.284,11.949c-2.416-0.848-4.928-1.679-7.492-2.478
				c1.89-10.275,2.311-19.78,1.242-28.259c-1.063-8.471-3.597-15.668-7.531-21.398l0.158-0.513l-0.701-0.365
				c-2.834-1.484-5.796-2.747-8.807-3.754l-0.881,1.649c0.271,0.208,0.488,0.396,0.66,0.545
				c6.322,5.513,10.213,13.765,11.563,24.531c0.975,7.752,0.609,16.48-1.085,25.963c-3.167-0.906-6.426-1.776-9.714-2.594
				c0.323-5.227-0.193-14.582-6.154-23.704c-4.255-6.506-12.728-13.474-22.111-18.188c-3.312-1.664-8.442-3.885-14.071-5.018
				c-0.759-0.151-1.521-0.284-2.285-0.396l-0.219-0.646l-0.966,0.452c-2.416,1.139-4.793,2.459-7.06,3.92l0.693,1.727
				c0.289-0.056,0.537-0.088,0.681-0.103c5.822-0.53,13.18,1.263,20.721,5.052c8.558,4.298,16.202,10.524,19.947,16.252
				c4.727,7.232,5.399,14.835,5.279,19.327c-3.267-0.753-6.585-1.469-9.88-2.129c-18.583-3.744-34.763-5.584-40.854-6.201
				c-10.02-1.015-17.05-0.275-21.207,0.529l-0.859-0.224l-0.245,0.907c-0.359,1.341-0.676,2.669-0.935,3.949l-0.479,2.345
				l1.842-1.081c0.046-0.025,0.09-0.047,0.123-0.059c3.165-0.787,10.13-1.938,21.197-0.816c7.882,0.803,28.413,3.203,50.47,8.312
				c-0.906,2.862-3.128,8.264-7.894,12.644c-4.529,3.725-9.626,7.005-15.132,9.74c-2.813,1.334-5.843,2.588-9.003,3.729
				c-6.843,2.47-14.173,4.362-20.112,5.19c-1.346,0.188-2.682,0.322-3.964,0.403c-3.097,0.186-5.863,0.039-8.22-0.439
				c-0.425-0.087-0.809-0.179-1.159-0.271c-0.083-0.023-0.199-0.059-0.326-0.115l-2.541-1.119L173.869,480.187z"/>
		</g>
		<g>
			<path fill="#6F3F33" d="M250.568,362.424c0,13.074-10.599,23.673-23.673,23.673l0,0c-13.074,0-23.673-10.599-23.673-23.673
				v-23.72c0-13.074,10.599-23.673,23.673-23.673l0,0c13.074,0,23.673,10.599,23.673,23.673V362.424z"/>
			<rect x="204.147" y="339.458" fill="#FFFFFF" width="46.199" height="27.517"/>
			<path fill="#231F20" d="M226.896,390.597c-15.534,0-28.173-12.639-28.173-28.173v-23.72c0-15.534,12.639-28.173,28.173-28.173
				s28.173,12.639,28.173,28.173v23.72C255.068,377.958,242.43,390.597,226.896,390.597z M226.896,319.532
				c-10.572,0-19.173,8.601-19.173,19.173v23.72c0,10.572,8.601,19.173,19.173,19.173s19.173-8.601,19.173-19.173v-23.72
				C246.068,328.132,237.468,319.532,226.896,319.532z"/>
			
				<rect x="196.771" y="399.635" fill="#EFEDF2" stroke="#231F20" stroke-width="7" stroke-linejoin="round" stroke-miterlimit="10" width="62.666" height="11.991"/>
			
				<rect x="196.771" y="360.937" fill="#5DB279" stroke="#231F20" stroke-width="7" stroke-linejoin="round" stroke-miterlimit="10" width="62.666" height="38.698"/>
			<path fill="#99D2E4" d="M213.375,375.254v-11.006c0-7.661,6.211-13.872,13.871-13.872l0,0c7.662,0,13.873,6.211,13.873,13.872
				v11.006"/>
			
				<line fill="none" stroke="#FFFFFF" stroke-width="5" stroke-miterlimit="10" x1="241.119" y1="371.342" x2="213.375" y2="383.675"/>
			
				<line fill="none" stroke="#FFFFFF" stroke-width="5" stroke-miterlimit="10" x1="213.375" y1="371.342" x2="241.119" y2="383.675"/>
			
				<line fill="none" stroke="#FFFFFF" stroke-width="5" stroke-miterlimit="10" x1="241.119" y1="359.141" x2="213.375" y2="371.474"/>
			
				<line fill="none" stroke="#FFFFFF" stroke-width="5" stroke-miterlimit="10" x1="213.375" y1="359.141" x2="241.119" y2="371.474"/>
			<polyline fill="none" stroke="#231F20" stroke-width="7" stroke-linejoin="round" stroke-miterlimit="10" points="
				196.771,394.066 213.375,386.683 213.375,359.141 			"/>
			<polyline fill="none" stroke="#231F20" stroke-width="7" stroke-linejoin="round" stroke-miterlimit="10" points="
				257.723,394.066 241.119,386.683 241.119,359.141 			"/>
			
				<line fill="none" stroke="#231F20" stroke-width="7" stroke-linejoin="round" stroke-miterlimit="10" x1="213.375" y1="386.683" x2="241.119" y2="386.683"/>
			<path fill="#231F20" d="M244.619,375.254h-7v-11.006c0-5.719-4.654-10.372-10.373-10.372s-10.371,4.653-10.371,10.372v11.006h-7
				v-11.006c0-9.579,7.793-17.372,17.371-17.372c9.58,0,17.373,7.793,17.373,17.372V375.254z"/>
		</g>
	</g>
</g>
<g id="Warstwa_2">
	<circle display="inline" fill="#231F20" cx="136.325" cy="93.026" r="15.824" opacity="0">
            <animate attributeName="opacity" values="0;0;0;0;0;0;0;1;0;0;0;0;0;0;0" dur="2.8s" repeatCount="indefinite" calcMode="discrete"/>
        </circle>
	<circle display="inline" fill="#231F20" cx="212.302" cy="93.026" r="15.824" opacity="0">
            <animate attributeName="opacity" values="0;0;0;0;0;0;0;1;0;0;0;0;0;0;0" dur="2.8s" repeatCount="indefinite" calcMode="discrete"/>
        </circle>
</g>
</svg>
