<?xml version="1.0" encoding="utf-8"?>
<!-- Generator: Adobe Illustrator 16.0.0, SVG Export Plug-In . SVG Version: 6.00 Build 0)  -->
<!DOCTYPE svg PUBLIC "-//W3C//DTD SVG 1.1//EN" "http://www.w3.org/Graphics/SVG/1.1/DTD/svg11.dtd">
<svg version="1.1" xmlns="http://www.w3.org/2000/svg" xmlns:xlink="http://www.w3.org/1999/xlink" x="0px" y="0px"
	 width="269.658px" height="520.545px" viewBox="0 0 269.658 520.545" enable-background="new 0 0 269.658 520.545"
	 xml:space="preserve">
<g id="Layer_2">
	<g>
		<path fill="#FFD1AE" stroke="#231F20" stroke-width="9" stroke-linejoin="round" stroke-miterlimit="10" d="M182.691,254.59
			c0.047,0.013,0.02,0.017,0.209,0.091c0.193,0.078,0.481,0.195,0.855,0.346c0.783,0.32,1.979,0.819,3.505,1.498
			c3.044,1.358,7.425,3.446,12.317,6.289c4.869,2.834,10.299,6.475,14.876,10.715c15.618,13.802,6.997,24.658,6.798,25.25
			c-0.182,0.629-0.427,1.087-0.619,1.616c-0.094,0.274-0.221,0.448-0.321,0.674c-0.11,0.204-0.201,0.451-0.312,0.616
			c-0.42,0.724-0.813,1.227-1.1,1.468c-0.294,0.205-0.465,0.194-0.49,0.051c-0.036-0.176,0.061-0.427,0.135-0.61
			c0.198-0.394-0.033-0.438-1.089-0.379c-1.755,0.114-3.284,0.212-4.545,0.293c-1.847,0.133-3.972,0.359-5.691,0.654
			c-0.786,0.118-1.6,0.295-2.08,0.393c-0.495,0.106-0.753,0.161-0.753,0.161l12.663,46.945c0,0,0.002-0.008,0.006-0.024
			c0.021-0.021-0.054-0.048,0.14-0.119c0.23-0.131,0.992-0.381,2.829-0.793c1.058-0.239,2.229-0.502,3.504-0.789
			c0.754-0.182,1.537-0.373,2.352-0.568c0.442-0.119,0.894-0.239,1.354-0.36c0.452-0.122,0.933-0.258,1.451-0.416
			c1.982-0.581,4.324-1.383,6.857-2.508c2.526-1.118,5.304-2.598,8.041-4.564c2.733-1.949,5.394-4.348,7.709-7.036
			c2.289-2.696,4.19-5.615,5.736-8.569c15.538-23.67,4.557-47.67,1.617-53.724c-2.922-6.094-6.777-11.104-10.754-15.198
			c-3.998-4.105-8.15-7.364-12.199-10.118c-4.053-2.741-8.021-4.973-11.792-6.881c-3.773-1.903-7.359-3.462-10.676-4.794
			c-6.64-2.644-12.218-4.351-16.196-5.468c-1.987-0.555-3.577-0.958-4.696-1.231c-1.217-0.289-1.866-0.443-1.866-0.443
			L182.691,254.59z"/>
		<path fill="#FFD1AE" stroke="#231F20" stroke-width="9" stroke-linejoin="round" stroke-miterlimit="10" d="M86.968,254.59
			c-0.047,0.013-0.02,0.017-0.209,0.091c-0.193,0.078-0.481,0.195-0.855,0.346c-0.783,0.32-1.979,0.819-3.505,1.498
			c-3.044,1.358-7.425,3.446-12.317,6.289c-4.869,2.834-10.299,6.475-14.876,10.715c-15.618,13.802-6.997,24.658-6.798,25.25
			c0.182,0.629,0.427,1.087,0.619,1.616c0.094,0.274,0.221,0.448,0.321,0.674c0.11,0.204,0.201,0.451,0.312,0.616
			c0.42,0.724,0.813,1.227,1.1,1.468c0.294,0.205,0.465,0.194,0.49,0.051c0.036-0.176-0.061-0.427-0.135-0.61
			c-0.198-0.394,0.033-0.438,1.089-0.379c1.755,0.114,3.284,0.212,4.545,0.293c1.847,0.133,3.972,0.359,5.691,0.654
			c0.786,0.118,1.6,0.295,2.08,0.393c0.495,0.106,0.753,0.161,0.753,0.161l-12.663,46.945c0,0-0.002-0.008-0.006-0.024
			c-0.021-0.021,0.054-0.048-0.14-0.119c-0.23-0.131-0.992-0.381-2.829-0.793c-1.058-0.239-2.229-0.502-3.504-0.789
			c-0.754-0.182-1.537-0.373-2.352-0.568c-0.442-0.119-0.894-0.239-1.354-0.36c-0.452-0.122-0.933-0.258-1.451-0.416
			c-1.982-0.581-4.324-1.383-6.857-2.508c-2.526-1.118-5.304-2.598-8.041-4.564c-2.733-1.949-5.394-4.348-7.709-7.036
			c-2.289-2.696-4.19-5.615-5.736-8.569c-15.538-23.67-4.557-47.67-1.617-53.724c2.922-6.094,6.777-11.104,10.754-15.198
			c3.998-4.105,8.15-7.364,12.199-10.118c4.053-2.741,8.021-4.973,11.792-6.881c3.773-1.903,7.359-3.462,10.676-4.794
			c6.64-2.644,12.218-4.351,16.196-5.468c1.987-0.555,3.577-0.958,4.696-1.231c1.217-0.289,1.866-0.443,1.866-0.443L86.968,254.59z"
			/>
		<g>
			<g>
				<path fill="#FFD1AE" d="M171.866,491.516h46c0-69.271-12.391-102.025-12.918-104.577l-45.047,9.313l22.523-4.656l-22.525,4.647
					C160.019,396.824,171.866,427.128,171.866,491.516z"/>
				<rect x="170.521" y="444.876" fill="#FFFFFF" width="46.199" height="27.517"/>
				<path fill="#231F20" d="M222.366,496.016h-55v-4.5c0-63.694-11.756-93.79-11.875-94.369l-0.904-4.403l53.857-11.123l0.91,4.407
					c0.531,2.571,13.012,35.781,13.012,105.488V496.016z M176.347,487.016h37.002c-0.439-57.218-9.119-79.764-11.943-94.749
					l-36.254,7.494C167.819,414.243,175.901,434.339,176.347,487.016z"/>
				<g>
					<path fill="#FFAD3B" d="M136.358,357.622h9.666l64.518,3.559c0,0,11.197,18.354,11.197,62.352c-18.102,0-68.869,0-68.869,0
						l-3.352-33.4l-9.547,2.859l-1.129-0.339C139.856,371.679,139.028,378.672,136.358,357.622z"/>
					<path fill="#231F20" d="M139.04,388.044l0.932,0.279l13.129-3.933l3.477,34.641h60.988c-0.6-34.988-7.938-42.847-10.297-53.526
						l-61.35-3.384h-9.018c-0.342-2.997-0.709-5.995-1.127-8.995l10.25-0.005l67.746,3.73l0.768,3.184
						c0.463,1.914,11.334,19.424,11.334,63.496v4.5h-76.707l-3.227-32.16c0,0-2.916,0.903-5.967,0.903
						c-0.457,0-0.91-0.022-1.354-0.057C138.79,393.827,138.937,390.936,139.04,388.044z"/>
				</g>
				
					<rect x="164.069" y="505.054" fill="#EFEDF2" stroke="#231F20" stroke-width="7" stroke-linejoin="round" stroke-miterlimit="10" width="62.666" height="11.991"/>
				
					<rect x="164.069" y="466.356" fill="#F15A29" stroke="#231F20" stroke-width="7" stroke-linejoin="round" stroke-miterlimit="10" width="62.666" height="38.698"/>
				<path fill="#F15A29" d="M180.673,480.673v-11.006c0-7.661,6.211-13.872,13.871-13.872l0,0c7.662,0,13.873,6.211,13.873,13.872
					v11.006"/>
				
					<line fill="none" stroke="#FFFFFF" stroke-width="5" stroke-miterlimit="10" x1="208.417" y1="476.761" x2="180.673" y2="489.094"/>
				
					<line fill="none" stroke="#FFFFFF" stroke-width="5" stroke-miterlimit="10" x1="180.673" y1="476.761" x2="208.417" y2="489.094"/>
				
					<line fill="none" stroke="#FFFFFF" stroke-width="5" stroke-miterlimit="10" x1="208.417" y1="464.56" x2="180.673" y2="476.893"/>
				
					<line fill="none" stroke="#FFFFFF" stroke-width="5" stroke-miterlimit="10" x1="180.673" y1="464.56" x2="208.417" y2="476.893"/>
				<polyline fill="none" stroke="#231F20" stroke-width="7" stroke-linejoin="round" stroke-miterlimit="10" points="
					164.069,499.485 180.673,492.102 180.673,464.56 				"/>
				<polyline fill="none" stroke="#231F20" stroke-width="7" stroke-linejoin="round" stroke-miterlimit="10" points="
					225.021,499.485 208.417,492.102 208.417,464.56 				"/>
				
					<line fill="none" stroke="#231F20" stroke-width="7" stroke-linejoin="round" stroke-miterlimit="10" x1="180.673" y1="492.102" x2="208.417" y2="492.102"/>
				<path fill="#231F20" d="M211.917,480.673h-7v-11.006c0-5.719-4.654-10.372-10.373-10.372s-10.371,4.653-10.371,10.372v11.006h-7
					v-11.006c0-9.579,7.793-17.372,17.371-17.372c9.58,0,17.373,7.793,17.373,17.372V480.673z"/>
			</g>
		</g>
		<g>
			<g>
				<path fill="#FFD1AE" d="M107.708,491.516h-46c0-69.271,12.391-102.025,12.918-104.577l45.047,9.313l-22.523-4.656l22.525,4.647
					C119.556,396.824,107.708,427.128,107.708,491.516z"/>
				<rect x="62.854" y="444.876" fill="#FFFFFF" width="46.199" height="27.517"/>
				<path fill="#231F20" d="M57.208,491.516c0-69.707,12.48-102.917,13.012-105.488l0.91-4.407l53.857,11.123l-0.904,4.403
					c-0.119,0.579-11.875,30.675-11.875,94.369v4.5h-55V491.516z M114.423,399.761l-36.254-7.494
					c-2.824,14.985-11.504,37.531-11.943,94.749h37.002C103.673,434.339,111.755,414.243,114.423,399.761z"/>
				<g>
					<path fill="#FFAD3B" d="M143.216,357.622h-9.666l-64.518,3.559c0,0-11.197,18.354-11.197,62.352c18.102,0,68.869,0,68.869,0
						l3.352-33.4l9.547,2.859l1.129-0.339C139.718,371.679,140.546,378.672,143.216,357.622z"/>
					<path fill="#231F20" d="M140.534,388.044l-0.932,0.279l-13.129-3.933l-3.477,34.641H62.009
						c0.6-34.988,7.938-42.847,10.297-53.526l61.35-3.384h9.018c0.342-2.997,0.709-5.995,1.127-8.995l-10.25-0.005l-67.746,3.73
						l-0.768,3.184c-0.463,1.914-11.334,19.424-11.334,63.496v4.5h76.707l3.227-32.16c0,0,2.916,0.903,5.967,0.903
						c0.457,0,0.91-0.022,1.354-0.057C140.784,393.827,140.638,390.936,140.534,388.044z"/>
				</g>
				
					<rect x="52.839" y="505.054" fill="#EFEDF2" stroke="#231F20" stroke-width="7" stroke-linejoin="round" stroke-miterlimit="10" width="62.666" height="11.991"/>
				
					<rect x="52.839" y="466.356" fill="#F15A29" stroke="#231F20" stroke-width="7" stroke-linejoin="round" stroke-miterlimit="10" width="62.666" height="38.698"/>
				<path fill="#F15A29" d="M98.901,480.673v-11.006c0-7.661-6.211-13.872-13.871-13.872l0,0c-7.662,0-13.873,6.211-13.873,13.872
					v11.006"/>
				
					<line fill="none" stroke="#FFFFFF" stroke-width="5" stroke-miterlimit="10" x1="71.157" y1="476.761" x2="98.901" y2="489.094"/>
				
					<line fill="none" stroke="#FFFFFF" stroke-width="5" stroke-miterlimit="10" x1="98.901" y1="476.761" x2="71.157" y2="489.094"/>
				
					<line fill="none" stroke="#FFFFFF" stroke-width="5" stroke-miterlimit="10" x1="71.157" y1="464.56" x2="98.901" y2="476.893"/>
				
					<line fill="none" stroke="#FFFFFF" stroke-width="5" stroke-miterlimit="10" x1="98.901" y1="464.56" x2="71.157" y2="476.893"/>
				<polyline fill="none" stroke="#231F20" stroke-width="7" stroke-linejoin="round" stroke-miterlimit="10" points="
					115.505,499.485 98.901,492.102 98.901,464.56 				"/>
				<polyline fill="none" stroke="#231F20" stroke-width="7" stroke-linejoin="round" stroke-miterlimit="10" points="
					54.554,499.485 71.157,492.102 71.157,464.56 				"/>
				
					<line fill="none" stroke="#231F20" stroke-width="7" stroke-linejoin="round" stroke-miterlimit="10" x1="98.901" y1="492.102" x2="71.157" y2="492.102"/>
				<path fill="#231F20" d="M67.657,480.673h7v-11.006c0-5.719,4.654-10.372,10.373-10.372s10.371,4.653,10.371,10.372v11.006h7
					v-11.006c0-9.579-7.793-17.372-17.371-17.372c-9.58,0-17.373,7.793-17.373,17.372V480.673z"/>
			</g>
		</g>
		<path fill="#FFAD3B" stroke="#231F20" stroke-width="9" stroke-miterlimit="10" d="M206.976,309.743l1-82.704l-58.813-30.109
			c-2.311-3.046-6.217,10.731-12.688,11.873c-6.469-1.142-10.375-14.919-12.686-11.873l-58.814,33.58l3.779,79.233
			c0,0-18.893,61.274-18.893,91.918c29.828,0,148.24,0,178.068,0C227.931,371.017,206.976,309.743,206.976,309.743z"/>
		<path fill="#FFD1AE" stroke="#231F20" stroke-width="9" stroke-miterlimit="10" d="M175.653,200.86
			c0,32.797-17.773,67.528-39.697,67.528s-39.697-34.731-39.697-67.528s17.773-59.385,39.697-59.385S175.653,168.063,175.653,200.86
			z"/>
		<g>
			<g>
				<path fill="#FFFFFF" d="M97.132,324.379c-1.072-2.376-1.607-3.563-2.68-5.939c0.646-0.293,0.973-0.435,1.623-0.716
					c-3.326-7.702-4.994-11.555-8.32-19.257c-0.777,0.336-1.164,0.507-1.938,0.855c-1.072-2.376-1.609-3.563-2.682-5.939
					c4.959-2.238,7.482-3.228,12.588-4.947c0.832,2.471,1.248,3.702,2.08,6.173c-0.797,0.269-1.193,0.407-1.986,0.688
					c2.807,7.907,4.209,11.862,7.016,19.77c0.666-0.236,0.998-0.351,1.666-0.575c0.832,2.471,1.246,3.705,2.078,6.176
					C102.745,321.958,100.853,322.7,97.132,324.379z"/>
				<path fill="#FFFFFF" d="M111.911,319.031c-0.695-2.512-1.043-3.767-1.738-6.278c0.693-0.192,1.041-0.287,1.736-0.468
					c-2.105-8.122-3.16-12.183-5.266-20.305c-0.83,0.216-1.244,0.326-2.072,0.556c-0.697-2.512-1.045-3.769-1.74-6.28
					c5.172-1.433,7.787-2.02,13.045-2.933c0.447,2.568,0.67,3.851,1.117,6.419c-0.82,0.143-1.23,0.217-2.049,0.373
					c1.568,8.242,2.354,12.366,3.924,20.608c2.631-0.501,3.955-0.71,6.607-1.048c-0.188-1.473-0.281-2.213-0.469-3.686
					c2.916-0.371,4.377-0.508,7.307-0.688c0.252,4.084,0.377,6.126,0.627,10.21C124.438,316.034,120.188,316.739,111.911,319.031z"
					/>
				<path fill="#FFFFFF" d="M160.097,293.238c-3.254-0.547-4.889-0.768-8.164-1.1c0.148-1.46,0.223-2.191,0.371-3.651
					c-0.826-0.084-1.24-0.123-2.068-0.193c-0.713,8.36-1.07,12.543-1.783,20.903c0.693,0.06,1.041,0.092,1.732,0.162
					c-0.262,2.594-0.393,3.89-0.656,6.483c-3.977-0.403-5.975-0.508-9.967-0.521c0.01-2.606,0.012-3.91,0.021-6.517
					c0.695,0.002,1.043,0.008,1.738,0.021c0.162-8.389,0.244-12.585,0.406-20.974c-0.828-0.016-1.242-0.022-2.072-0.025
					c-0.004,1.468-0.008,2.203-0.012,3.671c-3.289-0.012-4.934,0.035-8.217,0.238c-0.252-4.066-0.379-6.099-0.629-10.165
					c10.35-0.638,20.762-0.095,30.986,1.623C161.108,287.211,160.771,289.22,160.097,293.238z"/>
				<path fill="#FFFFFF" d="M161.591,317.798c0.57-2.543,0.857-3.815,1.428-6.358c0.682,0.153,1.021,0.234,1.701,0.398
					c1.967-8.156,2.953-12.237,4.92-20.394c-0.811-0.196-1.219-0.291-2.033-0.474c0.57-2.543,0.857-3.814,1.43-6.357
					c10.74,2.409,16.047,4.164,26.248,8.77c-1.527,3.383-2.291,5.074-3.818,8.457c-3.088-1.394-4.646-2.036-7.799-3.214
					c0.387-1.035,0.578-1.556,0.965-2.591c-2.666-0.996-4.008-1.455-6.713-2.301c-0.859,2.752-1.291,4.13-2.152,6.882
					c1.104,0.345,1.656,0.524,2.752,0.896c0.227-0.67,0.342-1.008,0.568-1.678c3.111,1.054,4.654,1.633,7.707,2.898
					c-1.539,3.716-2.311,5.575-3.85,9.291c-2.807-1.163-4.227-1.695-7.086-2.664c0.227-0.67,0.342-1.006,0.57-1.676
					c-1.039-0.352-1.561-0.523-2.605-0.85c-0.865,2.769-1.299,4.153-2.164,6.922c0.67,0.21,1.008,0.319,1.676,0.54
					c-0.816,2.475-1.225,3.71-2.043,6.185C167.456,319.212,165.509,318.677,161.591,317.798z"/>
			</g>
		</g>
		<g>
			<circle fill="#BF4B13" stroke="#231F20" stroke-width="8" stroke-miterlimit="10" cx="133.422" cy="349.496" r="61.51"/>
			<path fill="#231F20" d="M96.139,395.659c1.374,1.114,2.814,2.177,4.274,3.16l0.875,0.593l0.393-0.743
				c3.354-0.948,6.949-2.546,10.694-4.754l0.497-0.299c4.066-2.432,10.255-6.557,16.631-12.393c2.164-1.98,4.241-4.062,6.164-6.167
				c5.633-5.968,9.855-11.927,12.528-17.676c3.804-7.221,3.514-14.521,3.04-18.104c3.285-0.494,6.543-0.93,9.718-1.294
				c0.154,0.898,0.294,1.764,0.421,2.593c1.742,11.526,2.375,20.458,0.446,32.002c-2.113,12.655-6.618,20.906-10.027,25.602
				l-0.502,0.699c-0.466,0.657-1.049,1.472-1.376,1.877c-1.535,1.875-2.667,3.122-3.671,4.04c-0.545,0.5-1.077,0.925-1.728,1.379
				c-0.242,0.171-0.455,0.313-0.639,0.433l0.674,1.731c0.548-0.097,1.095-0.194,1.645-0.302c1.775-0.354,3.574-0.797,5.359-1.321
				l1.502-0.44l-0.573-0.595c0.127-0.112,0.253-0.225,0.374-0.336c1.313-1.203,2.373-2.373,3.336-3.684
				c5.518-7.505,9.261-16.979,11.131-28.164c2.041-12.224,1.348-21.978-0.436-33.756c-0.113-0.749-0.239-1.526-0.376-2.33
				c2.688-0.244,5.333-0.436,7.933-0.573c1.598,6.952,3.95,14.331,7.583,23.779c1.911,4.979,3.187,9.475,3.792,13.361l0.073,0.478
				c0.099,0.615,0.187,1.146,0.192,1.64c-0.001,0.254-0.008,0.478-0.023,0.695l1.784,0.503c1.136-2.098,2.16-4.294,3.045-6.529
				l0.284-0.717l-0.493-0.326c-0.762-3.403-1.921-7.139-3.446-11.106c-3.346-8.706-5.557-15.53-7.089-21.923
				c6.163,0.029,10.114,0.729,12.374,1.328c0.011,0.004,0.057,0.023,0.12,0.062l1.841,1.144l-0.411-2.13l-0.092-0.496
				c-0.243-1.228-0.528-2.458-0.874-3.761l-0.276-1.044l-0.899,0.368c-3.646-0.735-8.007-1.087-12.971-1.048
				c-0.736-3.957-1.273-8.072-1.639-12.55c-0.289-3.548-0.182-7.681,0.301-11.662l0.605-0.563l-0.691-0.694
				c-1.137-1.146-2.311-2.239-3.487-3.253l-1.793-1.541l0.229,2.351c0.007,0.063,0.01,0.12,0.008,0.153
				c-0.863,5.061-1.13,10.769-0.734,15.663c0.36,4.399,0.874,8.432,1.562,12.293c-2.556,0.146-5.194,0.345-7.869,0.594
				c-2.205-10.213-5.471-19.149-9.716-26.565c-4.237-7.411-9.343-13.082-15.178-16.859l-0.051-0.534l-0.788-0.067
				c-3.188-0.281-6.407-0.309-9.573-0.08l-0.179,1.86c0.33,0.088,0.603,0.179,0.818,0.25c7.956,2.658,14.72,8.781,20.105,18.201
				c3.879,6.782,6.897,14.979,8.979,24.385c-3.272,0.381-6.615,0.83-9.965,1.34c-1.711-4.949-5.784-13.387-14.793-19.517
				c-6.43-4.371-16.93-7.546-27.404-8.292c-3.697-0.263-9.287-0.341-14.919,0.777c-0.759,0.152-1.515,0.322-2.262,0.514l-0.45-0.514
				l-0.718,0.789c-1.793,1.98-3.479,4.112-5.011,6.333l1.304,1.327c0.245-0.163,0.462-0.288,0.589-0.356
				c5.171-2.728,12.652-3.9,21.07-3.302c9.553,0.678,19.003,3.488,24.662,7.336c7.144,4.859,10.688,11.619,12.304,15.813
				c-3.306,0.561-6.644,1.176-9.939,1.832c-18.595,3.688-34.238,8.208-40.1,9.98c-9.64,2.915-15.845,6.3-19.374,8.641l-0.879,0.124
				l0.122,0.932c0.184,1.376,0.402,2.724,0.655,4.005l0.459,2.349l1.284-1.706c0.033-0.041,0.065-0.077,0.092-0.102
				c2.619-1.943,8.606-5.683,19.255-8.901c7.584-2.289,27.461-7.965,49.786-11.728c0.264,2.99,0.289,8.831-2.427,14.706
				c-2.749,5.18-6.193,10.167-10.225,14.809c-2.084,2.313-4.399,4.635-6.878,6.904c-5.367,4.91-11.407,9.475-16.571,12.522
				c-1.17,0.691-2.352,1.328-3.505,1.896c-2.787,1.362-5.397,2.29-7.757,2.754c-0.426,0.084-0.815,0.146-1.174,0.196
				c-0.086,0.01-0.207,0.022-0.346,0.019l-2.775-0.056L96.139,395.659z"/>
		</g>
		<g>
			<circle fill="#FFD1AE" stroke="#231F20" stroke-width="9" stroke-miterlimit="10" cx="65.366" cy="148.218" r="18.893"/>
			<circle fill="#FFD1AE" stroke="#231F20" stroke-width="9" stroke-miterlimit="10" cx="199.766" cy="148.218" r="18.893"/>
			<path fill="#FFD1AE" stroke="#231F20" stroke-width="9" stroke-miterlimit="10" d="M204.587,154.732
				c0,39.488-32.012,71.5-71.5,71.5l0,0c-39.488,0-71.5-32.012-71.5-71.5V126c0-39.488,32.012-71.5,71.5-71.5l0,0
				c39.488,0,71.5,32.012,71.5,71.5v6.996v10.635V154.732z"/>
			<circle fill="#231F20" cx="96.355" cy="143.281" r="17.784"/>
			<circle fill="#FFFFFF" cx="96.355" cy="143.281" r="11.659"/>
			<circle fill="#231F20" cx="170.771" cy="143.281" r="17.785"/>
			<path fill="#231F20" d="M99.1,136.746c-2.333-0.928-4.844-0.65-6.856,0.525c0.389,0.046,0.778,0.124,1.16,0.275
				c2.361,0.939,3.517,3.615,2.578,5.979c-0.939,2.364-3.617,3.518-5.979,2.579c-0.614-0.244-1.144-0.61-1.579-1.054
				c0.358,2.729,2.141,5.189,4.881,6.279c4.027,1.6,8.589-0.367,10.189-4.395S103.126,138.345,99.1,136.746z"/>
			<circle fill="#FFFFFF" cx="170.889" cy="143.281" r="11.659"/>
			<path fill="#231F20" d="M173.634,136.746c-2.334-0.928-4.844-0.65-6.856,0.525c0.389,0.046,0.778,0.124,1.159,0.275
				c2.362,0.939,3.518,3.615,2.578,5.979c-0.939,2.364-3.617,3.518-5.979,2.579c-0.615-0.244-1.144-0.61-1.579-1.054
				c0.358,2.729,2.141,5.189,4.881,6.279c4.026,1.6,8.589-0.367,10.188-4.395C179.628,142.908,177.659,138.345,173.634,136.746z"/>
			<path fill="#C67979" d="M113.188,199.38c3.923,6.938,11.36,11.621,19.898,11.621s15.976-4.684,19.898-11.621H113.188z"/>
			<path fill="#E3AD92" stroke="#231F20" stroke-width="7" stroke-linecap="round" stroke-miterlimit="10" d="M141.24,183.414
				c-2.379,2.576-5.782,4.188-9.563,4.188c-3.944,0-7.479-1.756-9.864-4.527"/>
			<rect x="72.684" y="114.456" fill="#FFD1AE" width="120.079" height="22.081"/>
			
				<line fill="none" stroke="#231F20" stroke-width="7" stroke-linecap="round" stroke-miterlimit="10" x1="72.684" y1="136.537" x2="192.763" y2="136.537"/>
			<polygon fill="#FFFFFF" points="140.512,210.835 124.757,210.835 119.763,204.91 146.812,204.91 			"/>
			<path fill="#231F20" d="M133.087,213.501c-9.119,0-17.578-4.939-22.074-12.891c-0.438-0.773-0.432-1.721,0.017-2.49
				c0.447-0.768,1.27-1.24,2.159-1.24h39.797c0.89,0,1.712,0.473,2.159,1.24c0.448,0.77,0.455,1.717,0.017,2.49
				C150.665,208.562,142.206,213.501,133.087,213.501z M118.074,201.88c3.813,4.162,9.249,6.621,15.013,6.621
				s11.199-2.459,15.013-6.621H118.074z"/>
			<path fill="#D9B779" stroke="#231F20" stroke-width="9" stroke-linecap="round" stroke-miterlimit="10" d="M199.899,73.562
				l-7.489-39.219l-24.229,15.184L132.182,7.048L97.7,49.527L73.471,34.343l-7.489,39.219L39.256,64.74
				c0,0,22.857,91.476,22.857,67.211c0-39.529,32.348-22.527,53.789-29.578c10.94-3.598,15.344-9.9,17.038-15.213
				c1.694,5.313,6.098,11.615,17.037,15.213c21.442,7.051,53.79-9.951,53.79,29.578c0,24.265,22.857-67.211,22.857-67.211
				L199.899,73.562z"/>
			<circle fill="#F4B3A2" cx="88.424" cy="177.476" r="12.03"/>
			<circle fill="#F4B3A2" cx="178.584" cy="177.476" r="12.03"/>
		</g>
		<path fill="#FFD1AE" stroke="#231F20" stroke-width="7" stroke-miterlimit="10" d="M72.069,378.068
			c-0.348-0.309-6.075-5.519-8.27-14.061c-11.791-1.613-21.61-10.801-23.475-23.166c-2.267-15.031,8.083-29.055,23.115-31.321
			c2.893-0.435,5.746-0.4,8.487,0.041c3.449-3.121,8.223-5.925,14.655-6.811c3.8-0.524,7.309,2.106,7.877,5.888
			c0.005,0.029,0.01,0.062,0.014,0.092c0.526,3.83-2.149,7.362-5.98,7.888c-0.625,0.087-1.209,0.221-1.774,0.377
			c1.469,1.425,2.778,3.015,3.906,4.748c5.267,0.581,9.38-2.138,9.683-2.343c3.125-2.223,7.465-1.515,9.722,1.596
			c0.173,0.238,0.327,0.483,0.468,0.736c1.682,3.048,0.865,6.944-2.026,9.041c-0.344,0.249-5.716,4.05-13.424,4.904
			c0.026,0.642,0.026,1.28,0.004,1.914c6.001,4.747,13.044,2.357,13.463,2.209c3.252-1.229,6.857,0.129,8.539,3.062
			c0.175,0.303,0.326,0.623,0.456,0.958c1.398,3.603-0.39,7.657-3.995,9.057c-0.538,0.208-11.613,4.362-22.722-1.415
			c-0.298,0.47-0.606,0.93-0.93,1.378c3.402,3.169,7.547,3.797,7.876,3.843c2.703,0.315,4.872,2.132,5.76,4.524
			c0.362,0.981,0.513,2.062,0.393,3.173c-0.412,3.845-3.86,6.628-7.706,6.216c-0.514-0.056-10.043-1.182-17.211-8.817
			c-0.348,0.158-0.7,0.312-1.056,0.455c1.246,3.227,3.308,5.232,3.506,5.419c2.015,1.827,2.724,4.565,2.053,7.028
			c-0.273,1.011-0.78,1.975-1.524,2.81C79.382,380.378,74.957,380.637,72.069,378.068z"/>
		<g>
			<polygon fill="#F1F2F2" points="40.487,292.315 69.559,303.1 45.929,357.82 17.666,343.821 			"/>
			
				<line fill="none" stroke="#F15A29" stroke-width="9" stroke-linejoin="round" stroke-miterlimit="10" x1="53.75" y1="297.234" x2="31.097" y2="350.472"/>
			<path fill="#231F20" d="M73.69,304.882L50.06,359.604c-0.489,1.133-1.423,2.017-2.581,2.44c-1.16,0.426-2.442,0.354-3.547-0.193
				l-28.26-13.998c-2.162-1.071-3.092-3.653-2.117-5.855l22.816-51.504c0.964-2.174,3.451-3.225,5.681-2.396l29.072,10.784
				c1.158,0.429,2.089,1.313,2.573,2.449c0.284,0.668,0.401,1.387,0.35,2.096C74.011,303.923,73.892,304.417,73.69,304.882z
				 M23.528,341.701l20.148,9.981l19.871-46.014l-20.659-7.663L23.528,341.701z"/>
		</g>
		<path fill="#FFD1AE" stroke="#231F20" stroke-width="7" stroke-miterlimit="10" d="M197.59,378.068
			c0.348-0.309,6.075-5.519,8.27-14.061c11.791-1.613,21.61-10.801,23.475-23.166c2.267-15.031-8.083-29.055-23.115-31.321
			c-2.893-0.435-5.746-0.4-8.487,0.041c-3.449-3.121-8.223-5.925-14.655-6.811c-3.8-0.524-7.309,2.106-7.877,5.888
			c-0.005,0.029-0.01,0.062-0.014,0.092c-0.526,3.83,2.149,7.362,5.98,7.888c0.625,0.087,1.209,0.221,1.774,0.377
			c-1.469,1.425-2.778,3.015-3.906,4.748c-5.267,0.581-9.38-2.138-9.683-2.343c-3.125-2.223-7.465-1.515-9.722,1.596
			c-0.173,0.238-0.327,0.483-0.468,0.736c-1.682,3.048-0.865,6.944,2.026,9.041c0.344,0.249,5.716,4.05,13.424,4.904
			c-0.026,0.642-0.026,1.28-0.004,1.914c-6.001,4.747-13.044,2.357-13.463,2.209c-3.252-1.229-6.857,0.129-8.539,3.062
			c-0.175,0.303-0.326,0.623-0.456,0.958c-1.398,3.603,0.39,7.657,3.995,9.057c0.538,0.208,11.613,4.362,22.722-1.415
			c0.298,0.47,0.606,0.93,0.93,1.378c-3.402,3.169-7.547,3.797-7.876,3.843c-2.703,0.315-4.872,2.132-5.76,4.524
			c-0.362,0.981-0.513,2.062-0.393,3.173c0.412,3.845,3.86,6.628,7.706,6.216c0.514-0.056,10.043-1.182,17.211-8.817
			c0.348,0.158,0.7,0.312,1.056,0.455c-1.246,3.227-3.308,5.232-3.506,5.419c-2.015,1.827-2.724,4.565-2.053,7.028
			c0.273,1.011,0.78,1.975,1.524,2.81C190.277,380.378,194.702,380.637,197.59,378.068z"/>
		<g>
			<polygon fill="#F1F2F2" points="229.172,292.315 200.101,303.1 223.73,357.82 251.993,343.821 			"/>
			
				<line fill="none" stroke="#F15A29" stroke-width="9" stroke-linejoin="round" stroke-miterlimit="10" x1="215.909" y1="297.234" x2="238.563" y2="350.472"/>
			<path fill="#231F20" d="M195.612,303.426c-0.052-0.709,0.065-1.428,0.35-2.096c0.484-1.136,1.415-2.021,2.573-2.449
				l29.072-10.784c2.229-0.828,4.717,0.223,5.681,2.396l22.816,51.504c0.975,2.202,0.045,4.784-2.117,5.855l-28.26,13.998
				c-1.104,0.548-2.387,0.619-3.547,0.193c-1.158-0.424-2.092-1.308-2.581-2.44l-23.631-54.722
				C195.768,304.417,195.648,303.923,195.612,303.426z M226.771,298.005l-20.659,7.663l19.871,46.014l20.148-9.981L226.771,298.005z
				"/>
		</g>
	</g>
</g>
<g id="Warstwa_2">
	<path display="inline" fill="#231F20" d="M107.307,136.538c1.452,2.139,2.301,4.721,2.301,7.501
		c0,7.385-5.986,13.371-13.371,13.371s-13.371-5.986-13.371-13.371c0-2.769,0.842-5.342,2.283-7.476L107.307,136.538z" opacity="0">
            <animate attributeName="opacity" values="0;0;0;0;0;0;1;0;0;0;0;0;0;0;0" dur="2.7s" repeatCount="indefinite" calcMode="discrete"/>
        </path>
	<path display="inline" fill="#231F20" d="M181.959,135.538c1.452,2.139,2.301,4.721,2.301,7.501
		c0,7.385-5.986,13.371-13.371,13.371s-13.371-5.986-13.371-13.371c0-2.769,0.842-5.342,2.283-7.476L181.959,135.538z" opacity="0">
            <animate attributeName="opacity" values="0;0;0;0;0;0;1;0;0;0;0;0;0;0;0" dur="2.7s" repeatCount="indefinite" calcMode="discrete"/>
        </path>
</g>
</svg>
