<?xml version="1.0" encoding="utf-8"?>
<!-- Generator: Adobe Illustrator 16.0.0, SVG Export Plug-In . SVG Version: 6.00 Build 0)  -->
<!DOCTYPE svg PUBLIC "-//W3C//DTD SVG 1.1//EN" "http://www.w3.org/Graphics/SVG/1.1/DTD/svg11.dtd">
<svg version="1.1" xmlns="http://www.w3.org/2000/svg" xmlns:xlink="http://www.w3.org/1999/xlink" x="0px" y="0px"
	 width="376.616px" height="500.625px" viewBox="0 0 376.616 500.625" enable-background="new 0 0 376.616 500.625"
	 xml:space="preserve">
<g id="Layer_2">
	<g>
		<path fill="#FFC7AC" stroke="#231F20" stroke-width="7" stroke-miterlimit="10" d="M369.398,343.831
			c-0.41-0.219-7.289-3.774-16.06-2.857c-5.617-10.492-17.648-16.498-29.889-13.941c-14.881,3.108-24.424,17.691-21.315,32.572
			c0.599,2.863,1.624,5.526,2.992,7.942c-1.725,4.32-2.69,9.771-1.281,16.11c0.831,3.744,4.519,6.116,8.262,5.334
			c0.029-0.006,0.061-0.013,0.09-0.02c3.773-0.839,6.153-4.578,5.313-8.353c-0.137-0.615-0.214-1.21-0.265-1.794
			c1.846,0.881,3.793,1.555,5.811,2.009c2.377,4.734,1.262,9.537,1.174,9.892c-0.995,3.704,1.179,7.526,4.881,8.559
			c0.284,0.079,0.568,0.14,0.853,0.182c3.443,0.516,6.812-1.605,7.771-5.047c0.114-0.409,1.808-6.768-0.076-14.291
			c0.611-0.199,1.209-0.422,1.797-0.662c6.538,3.973,6.751,11.407,6.758,11.851c-0.02,3.477,2.506,6.384,5.841,6.939
			c0.345,0.058,0.698,0.09,1.058,0.095c3.865,0.056,7.044-3.032,7.1-6.898c0.008-0.577,0.046-12.405-9.236-20.809
			c0.336-0.441,0.66-0.891,0.968-1.351c4.155,2.087,6.188,5.753,6.345,6.046c1.235,2.425,3.693,3.825,6.246,3.823
			c1.047-0.001,2.11-0.237,3.111-0.736c3.46-1.725,4.868-5.927,3.144-9.387c-0.23-0.464-4.604-9.004-14.258-13.065
			c0.027-0.382,0.049-0.765,0.061-1.148c3.458,0.045,6.055,1.279,6.299,1.4c2.415,1.253,5.229,0.964,7.305-0.522
			c0.852-0.608,1.579-1.419,2.103-2.407C374.11,349.88,372.812,345.642,369.398,343.831z"/>
		<g>
			<g>
				<path fill="#FFC7AC" d="M225.781,471.596h46c0-69.271-12.391-102.025-12.918-104.577l-45.047,9.313l22.523-4.656l-22.525,4.647
					C213.933,376.904,225.781,407.208,225.781,471.596z"/>
				<rect x="224.435" y="424.957" fill="#FFFFFF" width="46.199" height="27.517"/>
				<path fill="#231F20" d="M276.281,476.096h-55v-4.5c0-63.694-11.756-93.79-11.875-94.369l-0.904-4.403l53.857-11.123l0.91,4.407
					c0.531,2.571,13.012,35.781,13.012,105.488V476.096z M230.261,467.096h37.002c-0.439-57.218-9.119-79.764-11.943-94.749
					l-36.254,7.494C221.734,394.323,229.816,414.419,230.261,467.096z"/>
				<g>
					<path fill="#FFAD3B" d="M190.273,337.702h9.666l64.518,3.559c0,0,11.197,18.354,11.197,62.352c-18.102,0-68.869,0-68.869,0
						l-3.352-33.4l-9.547,2.859l-1.129-0.339C193.771,351.759,192.943,358.752,190.273,337.702z"/>
					<path fill="#231F20" d="M192.955,368.125l0.932,0.279l13.129-3.933l3.477,34.641h60.988
						c-0.6-34.988-7.938-42.847-10.297-53.526l-61.35-3.384h-9.018c-0.342-2.997-0.709-5.995-1.127-8.995l10.25-0.005l67.746,3.73
						l0.768,3.184c0.463,1.914,11.334,19.424,11.334,63.496v4.5H203.08l-3.227-32.16c0,0-2.916,0.903-5.967,0.903
						c-0.457,0-0.91-0.022-1.354-0.057C192.705,373.907,192.851,371.016,192.955,368.125z"/>
				</g>
				
					<rect x="217.984" y="485.134" fill="#EFEDF2" stroke="#231F20" stroke-width="7" stroke-linejoin="round" stroke-miterlimit="10" width="62.666" height="11.991"/>
				
					<rect x="217.984" y="446.436" fill="#ED5F70" stroke="#231F20" stroke-width="7" stroke-linejoin="round" stroke-miterlimit="10" width="62.666" height="38.698"/>
				<path fill="#ED5F70" d="M234.587,460.753v-11.006c0-7.661,6.211-13.872,13.871-13.872l0,0c7.662,0,13.873,6.211,13.873,13.872
					v11.006"/>
				
					<line fill="none" stroke="#FFFFFF" stroke-width="5" stroke-miterlimit="10" x1="262.332" y1="456.841" x2="234.587" y2="469.174"/>
				
					<line fill="none" stroke="#FFFFFF" stroke-width="5" stroke-miterlimit="10" x1="234.587" y1="456.841" x2="262.332" y2="469.174"/>
				
					<line fill="none" stroke="#FFFFFF" stroke-width="5" stroke-miterlimit="10" x1="262.332" y1="444.64" x2="234.587" y2="456.973"/>
				
					<line fill="none" stroke="#FFFFFF" stroke-width="5" stroke-miterlimit="10" x1="234.587" y1="444.64" x2="262.332" y2="456.973"/>
				<polyline fill="none" stroke="#231F20" stroke-width="7" stroke-linejoin="round" stroke-miterlimit="10" points="
					217.984,479.565 234.587,472.182 234.587,444.64 				"/>
				<polyline fill="none" stroke="#231F20" stroke-width="7" stroke-linejoin="round" stroke-miterlimit="10" points="
					278.935,479.565 262.332,472.182 262.332,444.64 				"/>
				
					<line fill="none" stroke="#231F20" stroke-width="7" stroke-linejoin="round" stroke-miterlimit="10" x1="234.587" y1="472.182" x2="262.332" y2="472.182"/>
				<path fill="#231F20" d="M265.832,460.753h-7v-11.006c0-5.719-4.654-10.372-10.373-10.372s-10.371,4.653-10.371,10.372v11.006h-7
					v-11.006c0-9.579,7.793-17.372,17.371-17.372c9.58,0,17.373,7.793,17.373,17.372V460.753z"/>
			</g>
		</g>
		<g>
			<g>
				<path fill="#FFC7AC" d="M161.623,471.596h-46c0-69.271,12.391-102.025,12.918-104.577l45.047,9.313l-22.523-4.656l22.525,4.647
					C173.47,376.904,161.623,407.208,161.623,471.596z"/>
				<rect x="116.769" y="424.957" fill="#FFFFFF" width="46.199" height="27.517"/>
				<path fill="#231F20" d="M111.123,471.596c0-69.707,12.48-102.917,13.012-105.488l0.91-4.407l53.857,11.123l-0.904,4.403
					c-0.119,0.579-11.875,30.675-11.875,94.369v4.5h-55V471.596z M168.337,379.841l-36.254-7.494
					c-2.824,14.985-11.504,37.531-11.943,94.749h37.002C157.587,414.419,165.669,394.323,168.337,379.841z"/>
				<g>
					<path fill="#FFAD3B" d="M197.13,337.702h-9.666l-64.518,3.559c0,0-11.197,18.354-11.197,62.352c18.102,0,68.869,0,68.869,0
						l3.352-33.4l9.547,2.859l1.129-0.339C193.632,351.759,194.46,358.752,197.13,337.702z"/>
					<path fill="#231F20" d="M194.449,368.125l-0.932,0.279l-13.129-3.933l-3.477,34.641h-60.988
						c0.6-34.988,7.938-42.847,10.297-53.526l61.35-3.384h9.018c0.342-2.997,0.709-5.995,1.127-8.995l-10.25-0.005l-67.746,3.73
						l-0.768,3.184c-0.463,1.914-11.334,19.424-11.334,63.496v4.5h76.707l3.227-32.16c0,0,2.916,0.903,5.967,0.903
						c0.457,0,0.91-0.022,1.354-0.057C194.699,373.907,194.552,371.016,194.449,368.125z"/>
				</g>
				
					<rect x="106.753" y="485.134" fill="#EFEDF2" stroke="#231F20" stroke-width="7" stroke-linejoin="round" stroke-miterlimit="10" width="62.666" height="11.991"/>
				
					<rect x="106.753" y="446.436" fill="#ED5F70" stroke="#231F20" stroke-width="7" stroke-linejoin="round" stroke-miterlimit="10" width="62.666" height="38.698"/>
				<path fill="#ED5F70" d="M152.816,460.753v-11.006c0-7.661-6.211-13.872-13.871-13.872l0,0c-7.662,0-13.873,6.211-13.873,13.872
					v11.006"/>
				
					<line fill="none" stroke="#FFFFFF" stroke-width="5" stroke-miterlimit="10" x1="125.072" y1="456.841" x2="152.816" y2="469.174"/>
				
					<line fill="none" stroke="#FFFFFF" stroke-width="5" stroke-miterlimit="10" x1="152.816" y1="456.841" x2="125.072" y2="469.174"/>
				
					<line fill="none" stroke="#FFFFFF" stroke-width="5" stroke-miterlimit="10" x1="125.072" y1="444.64" x2="152.816" y2="456.973"/>
				
					<line fill="none" stroke="#FFFFFF" stroke-width="5" stroke-miterlimit="10" x1="152.816" y1="444.64" x2="125.072" y2="456.973"/>
				<polyline fill="none" stroke="#231F20" stroke-width="7" stroke-linejoin="round" stroke-miterlimit="10" points="
					169.419,479.565 152.816,472.182 152.816,444.64 				"/>
				<polyline fill="none" stroke="#231F20" stroke-width="7" stroke-linejoin="round" stroke-miterlimit="10" points="
					108.468,479.565 125.072,472.182 125.072,444.64 				"/>
				
					<line fill="none" stroke="#231F20" stroke-width="7" stroke-linejoin="round" stroke-miterlimit="10" x1="152.816" y1="472.182" x2="125.072" y2="472.182"/>
				<path fill="#231F20" d="M121.572,460.753h7v-11.006c0-5.719,4.654-10.372,10.373-10.372s10.371,4.653,10.371,10.372v11.006h7
					v-11.006c0-9.579-7.793-17.372-17.371-17.372c-9.58,0-17.373,7.793-17.373,17.372V460.753z"/>
			</g>
		</g>
		<path fill="#FFC7AC" stroke="#231F20" stroke-width="9" stroke-miterlimit="10" d="M171.468,227.951
			c0.025-0.004-0.27,0.047-0.178,0.06l0.008,0.017c-0.047,0.015-0.098,0.031-0.152,0.05c-0.127,0.039-0.273,0.085-0.438,0.137
			c-0.721,0.221-1.955,0.639-3.557,1.27c-1.607,0.619-3.611,1.529-5.877,2.678c-2.27,1.136-4.803,2.619-7.496,4.359
			c-2.709,1.715-5.529,3.842-8.438,6.171c-2.898,2.357-5.828,5.042-8.744,7.951c-2.881,2.961-5.775,6.108-8.51,9.541
			c-0.684,0.853-1.373,1.708-2.063,2.565c-0.66,0.892-1.32,1.786-1.982,2.682c-1.354,1.755-2.59,3.646-3.857,5.494
			c-2.504,3.727-4.842,7.599-7.027,11.49c-2.162,3.913-4.201,7.822-6.008,11.721c-0.459,0.97-0.93,1.916-1.365,2.878
			c-0.42,0.973-0.838,1.936-1.248,2.889c-0.807,1.918-1.676,3.727-2.367,5.601c-0.723,1.848-1.426,3.644-2.105,5.381
			c-0.684,1.732-1.238,3.476-1.83,5.105c-0.568,1.647-1.152,3.196-1.635,4.715c-0.479,1.52-0.93,2.962-1.355,4.317
			c-0.426,1.353-0.824,2.617-1.191,3.786c-0.332,1.19-0.635,2.283-0.91,3.271c-1.1,3.939-1.727,6.191-1.727,6.191l-47.649-16.052
			c0,0,1.063-2.513,2.924-6.913c0.469-1.096,0.984-2.311,1.547-3.634c0.607-1.312,1.264-2.729,1.963-4.246
			c0.701-1.514,1.449-3.122,2.236-4.818c0.795-1.692,1.721-3.452,2.641-5.294c0.945-1.836,1.861-3.762,2.936-5.722
			c1.076-1.954,2.186-3.976,3.33-6.054c1.104-2.085,2.432-4.166,3.691-6.317c0.641-1.07,1.289-2.153,1.943-3.247
			c0.674-1.084,1.393-2.167,2.096-3.262c2.787-4.396,5.881-8.837,9.15-13.265c3.298-4.416,6.802-8.808,10.53-13.042
			c1.883-2.108,3.727-4.229,5.723-6.239c0.982-1.014,1.959-2.024,2.934-3.033c1.018-0.976,2.033-1.949,3.043-2.917
			c4.027-3.877,8.275-7.454,12.494-10.77c4.27-3.276,8.549-6.266,12.783-8.874c4.256-2.585,8.369-4.888,12.355-6.746
			c3.969-1.879,7.701-3.439,11.137-4.629c3.43-1.203,6.484-2.119,9.123-2.753c2.633-0.645,4.779-1.059,6.381-1.307
			c0.912-0.129,1.609-0.228,2.078-0.293c0.695-0.089,0.713-0.076,0.74-0.081L171.468,227.951z"/>
		<path fill="#FFC7AC" stroke="#231F20" stroke-width="9" stroke-miterlimit="10" d="M231.515,221.914
			c-0.023-0.006-0.725,11.495-0.816,11.5l-0.01,0.017c0.047,0.019,0.094,0.039,0.146,0.063c0.123,0.049,0.266,0.107,0.426,0.173
			c0.699,0.281,1.893,0.802,3.438,1.565c1.547,0.753,3.467,1.83,5.627,3.166c2.168,1.323,4.564,3.016,7.102,4.978
			c2.555,1.938,5.186,4.296,7.887,6.862c2.688,2.594,5.381,5.517,8.039,8.662c2.621,3.194,5.238,6.575,7.672,10.227
			c0.609,0.907,1.225,1.818,1.84,2.73c0.58,0.944,1.162,1.892,1.746,2.84c1.201,1.863,2.273,3.853,3.381,5.801
			c2.18,3.925,4.182,7.98,6.031,12.043c1.822,4.082,3.523,8.149,4.994,12.188c0.375,1.005,0.764,1.987,1.117,2.982
			c0.336,1.005,0.67,2,1,2.984c0.641,1.979,1.354,3.854,1.883,5.78c0.564,1.902,1.113,3.751,1.645,5.54
			c0.533,1.784,0.939,3.567,1.391,5.242c0.428,1.689,0.877,3.282,1.23,4.836c0.348,1.555,0.676,3.029,0.986,4.416
			c0.309,1.384,0.598,2.678,0.867,3.874c0.229,1.214,0.439,2.328,0.629,3.335c0.762,4.019,1.197,6.315,1.197,6.315l48.836-11.964
			c0,0-0.846-2.594-2.33-7.136c-0.373-1.132-0.783-2.386-1.232-3.752c-0.494-1.357-1.027-2.826-1.598-4.396
			c-0.57-1.567-1.18-3.233-1.82-4.99c-0.648-1.754-1.422-3.585-2.184-5.498c-0.787-1.91-1.537-3.906-2.441-5.95
			c-0.906-2.038-1.842-4.146-2.805-6.313c-0.924-2.171-2.072-4.356-3.145-6.606c-0.549-1.121-1.104-2.255-1.662-3.4
			c-0.578-1.137-1.203-2.276-1.813-3.427c-2.404-4.615-5.113-9.303-7.994-13.991c-2.914-4.679-6.035-9.352-9.391-13.886
			c-1.697-2.26-3.355-4.528-5.176-6.701c-0.893-1.093-1.779-2.183-2.666-3.271c-0.93-1.058-1.859-2.114-2.785-3.164
			c-3.686-4.203-7.615-8.127-11.539-11.787c-3.977-3.626-7.986-6.966-11.986-9.924c-4.021-2.936-7.926-5.578-11.74-7.767
			c-3.797-2.208-7.383-4.078-10.705-5.554c-3.316-1.489-6.283-2.66-8.859-3.515c-2.568-0.865-4.67-1.459-6.246-1.842
			c-0.896-0.206-1.584-0.363-2.047-0.468c-0.686-0.147-0.703-0.137-0.729-0.144L231.515,221.914z"/>
		<path fill="#FFAD3B" stroke="#231F20" stroke-width="9" stroke-miterlimit="10" d="M260.89,289.823l1-82.704l-58.813-30.109
			c-2.311-3.046-6.217,10.731-12.688,11.873c-6.469-1.142-10.375-14.919-12.686-11.873l-58.814,33.58l3.779,79.233
			c0,0-18.893,61.274-18.893,91.918c29.828,0,148.24,0,178.068,0C281.845,351.097,260.89,289.823,260.89,289.823z"/>
		<path fill="#FFC7AC" stroke="#231F20" stroke-width="9" stroke-miterlimit="10" d="M229.568,180.94
			c0,32.797-17.773,67.528-39.697,67.528s-39.697-34.731-39.697-67.528s17.773-59.385,39.697-59.385S229.568,148.143,229.568,180.94
			z"/>
		<g>
			<circle fill="#FFC7AC" stroke="#231F20" stroke-width="9" stroke-miterlimit="10" cx="122.669" cy="152.064" r="18.893"/>
			<circle fill="#FFC7AC" stroke="#231F20" stroke-width="9" stroke-miterlimit="10" cx="257.07" cy="152.064" r="18.893"/>
			<path fill="#FFC7AC" stroke="#231F20" stroke-width="9" stroke-miterlimit="10" d="M261.89,151.857
				c0,39.488-32.012,71.5-71.5,71.5l0,0c-39.488,0-71.5-32.012-71.5-71.5v-28.733c0-39.488,32.012-71.5,71.5-71.5l0,0
				c39.488,0,71.5,32.012,71.5,71.5v6.996v10.635V151.857z"/>
			<circle fill="#231F20" cx="153.659" cy="140.405" r="17.784"/>
			<circle fill="#FFFFFF" cx="153.659" cy="140.405" r="11.659"/>
			<circle fill="#231F20" cx="228.074" cy="140.405" r="17.785"/>
			<path fill="#231F20" d="M156.404,133.87c-2.334-0.927-4.844-0.65-6.857,0.525c0.389,0.047,0.779,0.125,1.16,0.276
				c2.361,0.938,3.518,3.615,2.578,5.979c-0.939,2.364-3.617,3.518-5.979,2.579c-0.615-0.244-1.145-0.61-1.58-1.055
				c0.359,2.73,2.141,5.19,4.881,6.279c4.027,1.6,8.59-0.367,10.189-4.395C162.398,140.032,160.429,135.47,156.404,133.87z"/>
			<circle fill="#FFFFFF" cx="228.193" cy="140.405" r="11.658"/>
			<path fill="#231F20" d="M230.937,133.87c-2.334-0.927-4.844-0.65-6.855,0.525c0.389,0.047,0.777,0.125,1.158,0.276
				c2.363,0.938,3.518,3.615,2.578,5.979c-0.939,2.364-3.617,3.518-5.979,2.579c-0.615-0.244-1.143-0.61-1.578-1.055
				c0.357,2.73,2.141,5.19,4.881,6.279c4.025,1.6,8.588-0.367,10.188-4.395C236.931,140.032,234.962,135.47,230.937,133.87z"/>
			<g>
				<circle fill="#CC987C" cx="165.982" cy="164.118" r="2.407"/>
				<circle fill="#CC987C" cx="157.532" cy="174.602" r="2.408"/>
				<circle fill="#CC987C" cx="140.797" cy="168.145" r="2.408"/>
				<circle fill="#CC987C" cx="138.929" cy="182.605" r="2.407"/>
			</g>
			<g>
				<circle fill="#CC987C" cx="212.995" cy="164.118" r="2.408"/>
				<circle fill="#CC987C" cx="221.444" cy="174.602" r="2.408"/>
				<circle fill="#CC987C" cx="238.178" cy="168.145" r="2.408"/>
				<circle fill="#CC987C" cx="240.047" cy="182.605" r="2.408"/>
			</g>
			<path fill="#C67979" d="M169.011,192.132c4.215,7.452,12.207,12.486,21.381,12.486c9.172,0,17.164-5.034,21.379-12.486H169.011z"
				/>
			<path fill="#FFFFFF" d="M175.728,192.132c2.891,3.727,8.373,6.243,14.662,6.243c6.291,0,11.771-2.517,14.662-6.243H175.728z"/>
			<rect x="188.83" y="192.132" fill="#C67979" width="2.902" height="7.619"/>
			<path fill="#231F20" d="M190.392,207.119c-9.732,0-18.758-5.271-23.557-13.756l-2.111-3.73h51.334l-2.111,3.73
				C209.148,201.848,200.123,207.119,190.392,207.119z M173.843,194.632c4.145,4.699,10.16,7.486,16.549,7.486
				c6.387,0,12.402-2.787,16.547-7.486H173.843z"/>
			<path fill="none" stroke="#231F20" stroke-width="7" stroke-linecap="round" stroke-miterlimit="10" d="M132.734,134.647
				c0,0,12.5-16.063,31.99-10.709"/>
			<path fill="none" stroke="#231F20" stroke-width="7" stroke-linecap="round" stroke-miterlimit="10" d="M249.365,134.647
				c0,0-12.5-16.063-31.992-10.709"/>
			<path fill="none" stroke="#231F20" stroke-width="7" stroke-linecap="round" stroke-miterlimit="10" d="M200.05,165.749
				c-2.748,2.975-6.68,4.836-11.047,4.836c-4.557,0-8.639-2.027-11.395-5.229"/>
			<path fill="#FF6B32" d="M261.308,62.312c-20.514-37.648-65.313-55.42-70.918-57.498c0-0.132,0,0,0,0s-50.982,19.85-71.5,57.498
				c-11.316,20.767,0,66.435,0,66.435s9.723-45.757,29.838-46.091c24.615-0.409,11.779,20.72,41.082,21.806
				c0,0.007,0.58,0.007,0.58,0c29.303-1.086,16.465-22.215,41.082-21.806c20.113,0.334,29.836,46.091,29.836,46.091
				S272.625,83.079,261.308,62.312z"/>
			<path fill="#231F20" d="M119.228,148.813l-4.705-18.984c-0.479-1.934-11.6-47.62,0.416-69.67
				C136,21.512,186.615,1.456,188.757,0.621L190.351,0l1.604,0.595c5.24,1.942,51.809,20.115,73.307,59.564
				c12.016,22.05,0.895,67.736,0.416,69.67l-4.697,18.954l-4.072-19.099c-2.338-10.963-12.041-42.305-25.512-42.529
				c-0.211-0.004-0.416-0.005-0.623-0.005c-8.873,0-10.785,2.919-13.953,7.755c-3.912,5.973-8.779,13.406-26.262,14.054v-0.008
				c-0.297,0.021-0.619,0.021-0.916,0v0.008c-17.482-0.648-22.35-8.082-26.262-14.054c-3.166-4.836-5.078-7.755-13.953-7.755
				c-0.205,0-0.414,0.002-0.623,0.005c-6.232,0.104-12.77,7.367-18.404,20.451c-4.715,10.945-7.084,21.966-7.107,22.076
				L119.228,148.813z M190.453,9.659c-8.602,3.671-50.115,22.703-67.611,54.806c-4.182,7.674-5.471,20.914-3.729,38.288
				c0.23,2.302,0.502,4.539,0.795,6.665c5.271-14.112,14.543-31.026,28.746-31.262c0.262-0.004,0.52-0.006,0.773-0.006
				c13.74,0,18.033,6.557,21.482,11.825c3.344,5.105,6.23,9.514,19.066,9.99l0.125,0.002l0.123-0.002
				c12.836-0.476,15.723-4.885,19.068-9.991c3.514-5.366,7.867-12.052,22.254-11.818c14.203,0.236,23.475,17.149,28.746,31.262
				c0.291-2.127,0.563-4.363,0.795-6.665c1.742-17.374,0.451-30.614-3.73-38.288C238.853,30.507,199.867,13.391,190.453,9.659z"/>
			<path fill="#231F20" d="M133.375,96.72c0,0,10.021-47.21,24.705-59.939c-7.938,13.021-11.58,41.828-11.58,41.828L133.375,96.72z"
				/>
			<path fill="#231F20" d="M245.722,96.72c0,0-10.023-47.21-24.707-59.939c7.939,13.021,11.58,41.828,11.58,41.828L245.722,96.72z"
				/>
		</g>
		<g>
			<g>
				<path fill="#FFFFFF" d="M151.046,304.459c-1.072-2.376-1.607-3.563-2.68-5.939c0.646-0.293,0.973-0.435,1.623-0.716
					c-3.326-7.702-4.994-11.555-8.32-19.257c-0.777,0.336-1.164,0.507-1.938,0.855c-1.072-2.376-1.609-3.563-2.682-5.939
					c4.959-2.238,7.482-3.228,12.588-4.947c0.832,2.471,1.248,3.702,2.08,6.173c-0.797,0.269-1.193,0.407-1.986,0.688
					c2.807,7.907,4.209,11.862,7.016,19.77c0.666-0.236,0.998-0.351,1.666-0.575c0.832,2.471,1.246,3.705,2.078,6.176
					C156.66,302.038,154.767,302.78,151.046,304.459z"/>
				<path fill="#FFFFFF" d="M165.826,299.111c-0.695-2.512-1.043-3.767-1.738-6.278c0.693-0.192,1.041-0.287,1.736-0.468
					c-2.105-8.122-3.16-12.183-5.266-20.305c-0.83,0.216-1.244,0.326-2.072,0.556c-0.697-2.512-1.045-3.769-1.74-6.28
					c5.172-1.433,7.787-2.02,13.045-2.933c0.447,2.568,0.67,3.851,1.117,6.419c-0.82,0.143-1.23,0.217-2.049,0.373
					c1.568,8.242,2.354,12.366,3.924,20.608c2.631-0.501,3.955-0.71,6.607-1.048c-0.188-1.473-0.281-2.213-0.469-3.686
					c2.916-0.371,4.377-0.508,7.307-0.688c0.252,4.084,0.377,6.126,0.627,10.21C178.353,296.114,174.103,296.819,165.826,299.111z"
					/>
				<path fill="#FFFFFF" d="M214.011,273.318c-3.254-0.547-4.889-0.768-8.164-1.1c0.148-1.46,0.223-2.191,0.371-3.651
					c-0.826-0.084-1.24-0.123-2.068-0.193c-0.713,8.36-1.07,12.543-1.783,20.903c0.693,0.06,1.041,0.092,1.732,0.162
					c-0.262,2.594-0.393,3.89-0.656,6.483c-3.977-0.403-5.975-0.508-9.967-0.521c0.01-2.606,0.012-3.91,0.021-6.517
					c0.695,0.002,1.043,0.008,1.738,0.021c0.162-8.389,0.244-12.585,0.406-20.974c-0.828-0.016-1.242-0.022-2.072-0.025
					c-0.004,1.468-0.008,2.203-0.012,3.671c-3.289-0.012-4.934,0.035-8.217,0.238c-0.252-4.066-0.379-6.099-0.629-10.165
					c10.35-0.638,20.762-0.095,30.986,1.623C215.023,267.292,214.685,269.3,214.011,273.318z"/>
				<path fill="#FFFFFF" d="M215.505,297.878c0.57-2.543,0.857-3.815,1.428-6.358c0.682,0.153,1.021,0.234,1.701,0.398
					c1.967-8.156,2.953-12.237,4.92-20.394c-0.811-0.196-1.219-0.291-2.033-0.474c0.57-2.543,0.857-3.814,1.43-6.357
					c10.74,2.409,16.047,4.164,26.248,8.77c-1.527,3.383-2.291,5.074-3.818,8.457c-3.088-1.394-4.646-2.036-7.799-3.214
					c0.387-1.035,0.578-1.556,0.965-2.591c-2.666-0.996-4.008-1.455-6.713-2.301c-0.859,2.752-1.291,4.13-2.152,6.882
					c1.104,0.345,1.656,0.524,2.752,0.896c0.227-0.67,0.342-1.008,0.568-1.678c3.111,1.054,4.654,1.633,7.707,2.898
					c-1.539,3.716-2.311,5.575-3.85,9.291c-2.807-1.163-4.227-1.695-7.086-2.664c0.227-0.67,0.342-1.006,0.57-1.676
					c-1.039-0.352-1.561-0.523-2.605-0.85c-0.865,2.769-1.299,4.153-2.164,6.922c0.67,0.21,1.008,0.319,1.676,0.54
					c-0.816,2.475-1.225,3.71-2.043,6.185C221.371,299.292,219.423,298.757,215.505,297.878z"/>
			</g>
		</g>
		<g>
			<circle fill="#BF4B13" stroke="#231F20" stroke-width="8" stroke-miterlimit="10" cx="76.297" cy="307.759" r="61.51"/>
			<path fill="#231F20" d="M132.328,288.221c-0.58-1.672-1.242-3.334-1.963-4.939l-0.432-0.964l-0.725,0.424
				c-3.35-0.966-7.246-1.506-11.594-1.606l-0.578-0.009c-4.738-0.08-12.172,0.159-20.668,1.751c-2.883,0.541-5.746,1.211-8.49,1.985
				c-7.935,2.097-14.665,4.932-19.97,8.402c-7.041,4.128-10.648,10.481-12.135,13.776c-3.051-1.313-6.051-2.664-8.938-4.029
				c0.344-0.845,0.682-1.653,1.012-2.425c4.6-10.711,8.775-18.632,16.506-27.418c8.475-9.636,16.655-14.267,22.028-16.456
				l0.795-0.329c0.742-0.312,1.668-0.698,2.16-0.867c2.293-0.784,3.912-1.246,5.25-1.496c0.727-0.137,1.402-0.217,2.195-0.26
				c0.295-0.018,0.551-0.025,0.77-0.03l0.342-1.825c-0.516-0.209-1.033-0.415-1.557-0.612c-1.693-0.637-3.457-1.211-5.248-1.706
				l-1.51-0.419l0.174,0.808c-0.168,0.028-0.334,0.058-0.496,0.089c-1.75,0.328-3.268,0.764-4.777,1.369
				c-8.646,3.462-16.827,9.535-24.315,18.05c-8.184,9.305-12.742,17.956-17.443,28.901c-0.299,0.696-0.604,1.424-0.91,2.178
				c-2.412-1.21-4.76-2.443-7.042-3.699c2.314-6.747,4.208-14.257,6.107-24.199c1.004-5.238,2.293-9.73,3.832-13.351l0.188-0.444
				c0.24-0.575,0.449-1.072,0.703-1.494c0.133-0.215,0.26-0.402,0.385-0.579l-1.246-1.369c-2.074,1.183-4.102,2.508-6.035,3.94
				l-0.617,0.459l0.244,0.537c-1.146,3.293-2.134,7.078-2.933,11.253c-1.752,9.16-3.475,16.124-5.547,22.363
				c-5.218-3.278-8.207-5.957-9.809-7.658c-0.009-0.009-0.037-0.051-0.069-0.115l-0.961-1.944l-0.774,2.026l-0.186,0.47
				c-0.44,1.172-0.847,2.367-1.241,3.656l-0.315,1.032l0.957,0.162c2.709,2.549,6.228,5.149,10.465,7.735
				c-1.462,3.749-3.178,7.528-5.229,11.523c-1.627,3.168-3.898,6.622-6.409,9.749l-0.813,0.159l0.221,0.955
				c0.362,1.572,0.782,3.121,1.246,4.602l0.709,2.255l1.047-2.117c0.027-0.057,0.055-0.106,0.075-0.134
				c3.403-3.843,6.643-8.551,8.888-12.917c2.016-3.927,3.708-7.623,5.162-11.267c2.248,1.226,4.593,2.45,6.996,3.647
				c-3.514,9.84-5.456,19.155-5.764,27.694c-0.312,8.531,1.033,16.043,3.997,22.331l-0.24,0.479l0.633,0.474
				c2.561,1.921,5.283,3.644,8.09,5.121l1.135-1.487c-0.232-0.249-0.416-0.47-0.563-0.645c-5.355-6.456-7.869-15.227-7.475-26.071
				c0.283-7.807,2.047-16.364,5.24-25.451c2.982,1.404,6.061,2.786,9.172,4.12c-1.156,5.108-2.15,14.424,2.27,24.385
				c3.152,7.105,10.396,15.345,18.902,21.505c3.002,2.175,7.708,5.192,13.081,7.213c0.725,0.272,1.457,0.526,2.193,0.757
				l0.111,0.676l1.025-0.293c2.568-0.736,5.125-1.656,7.598-2.734l-0.406-1.816c-0.295,0.009-0.545,0-0.689-0.009
				c-5.832-0.41-12.805-3.362-19.638-8.313c-7.758-5.617-14.301-12.992-17.078-19.247c-3.506-7.897-2.947-15.51-2.107-19.923
				c3.102,1.267,6.264,2.506,9.408,3.688c17.741,6.681,33.415,11.095,39.329,12.684c9.727,2.61,16.783,3.01,21.016,2.883
				l0.813,0.358l0.389-0.855c0.57-1.265,1.096-2.524,1.557-3.748l0.85-2.235l-1.99,0.771c-0.051,0.019-0.098,0.032-0.133,0.039
				c-3.25,0.269-10.309,0.285-21.053-2.601c-7.65-2.058-27.529-7.725-48.479-16.312c1.354-2.679,4.414-7.652,9.822-11.21
				c5.07-2.95,10.626-5.368,16.499-7.184c2.992-0.864,6.184-1.615,9.486-2.234c7.15-1.34,14.689-2.03,20.684-1.894
				c1.359,0.03,2.699,0.112,3.979,0.239c3.086,0.313,5.793,0.903,8.043,1.755c0.404,0.153,0.77,0.306,1.1,0.452
				c0.078,0.037,0.188,0.091,0.303,0.167l2.328,1.512L132.328,288.221z"/>
		</g>
		<g>
			<polygon fill="#F1F2F2" points="289.75,323.427 295.847,353.83 353.593,339.065 344.195,308.959 			"/>
			
				<line fill="none" stroke="#ED5F70" stroke-width="9" stroke-linejoin="round" stroke-miterlimit="10" x1="292.531" y1="337.297" x2="348.66" y2="323.265"/>
			<path fill="#231F20" d="M295.466,358.313c-0.709-0.06-1.4-0.288-2.016-0.674c-1.045-0.656-1.773-1.714-2.016-2.925l-6.096-30.402
				c-0.469-2.331,0.959-4.624,3.256-5.234l54.443-14.467c2.328-0.617,4.732,0.707,5.451,3.009l9.398,30.104
				c0.367,1.178,0.236,2.455-0.365,3.533s-1.619,1.861-2.814,2.167l-57.748,14.765C296.468,358.315,295.962,358.356,295.466,358.313
				z M294.994,326.69l4.332,21.605l48.559-12.416l-6.701-21.463L294.994,326.69z"/>
		</g>
		<g>
			<g>
				
					<line fill="#FFC7AC" stroke="#231F20" stroke-width="7" stroke-miterlimit="10" x1="16.688" y1="319.742" x2="10.906" y2="324.407"/>
				<path fill="#FFC7AC" stroke="#231F20" stroke-width="7" stroke-miterlimit="10" d="M7.924,331.187
					c-1.052-0.459-2.01-1.174-2.781-2.128c-2.569-3.183-2.072-7.847,1.111-10.416l5.782-4.665c3.182-2.568,7.843-2.068,10.414,1.111
					c2.567,3.183,2.07,7.845-1.114,10.416l-5.778,4.666C13.33,331.968,10.376,332.264,7.924,331.187z"/>
			</g>
			<g>
				
					<line fill="#FFC7AC" stroke="#231F20" stroke-width="7" stroke-miterlimit="10" x1="48.391" y1="355.737" x2="44.128" y2="359.809"/>
				<path fill="#FFC7AC" stroke="#231F20" stroke-width="7" stroke-miterlimit="10" d="M42.219,365.368
					c-0.861-0.293-1.666-0.794-2.34-1.498c-2.242-2.347-2.158-6.067,0.189-8.311l4.262-4.071c2.347-2.243,6.065-2.156,8.31,0.188
					c2.241,2.347,2.157,6.065-0.19,8.311l-4.26,4.072C46.545,365.627,44.229,366.057,42.219,365.368z"/>
			</g>
			<g>
				
					<line fill="#FFC7AC" stroke="#231F20" stroke-width="7" stroke-miterlimit="10" x1="34.479" y1="348.7" x2="28.696" y2="353.365"/>
				<path fill="#FFC7AC" stroke="#231F20" stroke-width="7" stroke-miterlimit="10" d="M25.716,360.146
					c-1.052-0.461-2.011-1.174-2.781-2.128c-2.569-3.183-2.072-7.846,1.112-10.416l5.781-4.665
					c3.183-2.568,7.842-2.069,10.415,1.111c2.568,3.182,2.07,7.845-1.113,10.417l-5.78,4.664
					C31.12,360.928,28.168,361.223,25.716,360.146z"/>
			</g>
			<g>
				
					<line fill="#FFC7AC" stroke="#231F20" stroke-width="7" stroke-miterlimit="10" x1="25.479" y1="334.499" x2="16.797" y2="341.784"/>
				<path fill="#FFC7AC" stroke="#231F20" stroke-width="7" stroke-miterlimit="10" d="M13.814,348.565
					c-1.051-0.461-2.011-1.174-2.78-2.129c-2.57-3.182-2.073-7.846,1.111-10.416l8.681-7.285c3.185-2.568,7.846-2.068,10.415,1.112
					c2.57,3.182,2.071,7.845-1.113,10.416l-8.68,7.284C19.22,349.346,16.267,349.642,13.814,348.565z"/>
			</g>
		</g>
	</g>
</g>
<g id="Warstwa_2">
	<circle display="inline" fill="#231F20" cx="153.54" cy="140.405" r="12.308" opacity="0">
            <animate attributeName="opacity" values="0;1;0;0;0;0;0;0;0;0;0;0;0;0;0" dur="3s" repeatCount="indefinite" calcMode="discrete"/>
        </circle>
	<circle display="inline" fill="#231F20" cx="228.073" cy="140.405" r="12.308" opacity="0">
            <animate attributeName="opacity" values="0;1;0;0;0;0;0;0;0;0;0;0;0;0;0" dur="3s" repeatCount="indefinite" calcMode="discrete"/>
        </circle>
</g>
</svg>
