<?xml version="1.0" encoding="utf-8"?>
<!-- Generator: Adobe Illustrator 18.1.1, SVG Export Plug-In . SVG Version: 6.00 Build 0)  -->
<svg version="1.1" id="Layer_1" xmlns="http://www.w3.org/2000/svg" xmlns:xlink="http://www.w3.org/1999/xlink" x="0px" y="0px"
	 width="306.1px" height="573.7px" viewBox="189.5 -120.7 306.1 573.7" enable-background="new 189.5 -120.7 306.1 573.7"
	 xml:space="preserve">
<g>
	<path fill="#EFBCAE" d="M357.7,423.3h33.2c0-105.7-8.6-167.6-9-170.2l-33,2.9C349.1,256.6,357.7,319.2,357.7,423.3"/>
	<polygon fill="#FFFFFF" points="387.2,345 390.4,421.4 387.2,424.8 357.4,424.8 357.4,382.8 357.4,345 	"/>
	<path fill="#19181C" d="M353.2,423.3c0-103.8-8.6-166.1-8.7-166.7l-0.7-4.7l42-3.6l0.6,4.2c0.4,2.6,9,64.8,9,170.9v4.5h-42.2V423.3
		z M378,257.9l-24,2.1c1.9,16.1,8,72.9,8.2,158.8h24.2C386.2,330.2,380,273.5,378,257.9"/>
	<rect x="345.9" y="437.5" fill="#E8E7EB" width="54.8" height="12"/>
	<path fill="#19181C" d="M400.7,453h-54.8c-1.9,0-3.5-1.6-3.5-3.5v-12c0-1.9,1.6-3.5,3.5-3.5h54.8c1.9,0,3.5,1.6,3.5,3.5v12
		C404.2,451.4,402.6,453,400.7,453 M349.4,446h47.8v-5h-47.8V446z"/>
	<rect x="345.9" y="398.8" fill="#F16674" width="54.8" height="38.7"/>
	<path fill="#19181C" d="M400.7,441h-54.8c-1.9,0-3.5-1.6-3.5-3.5v-38.7c0-1.9,1.6-3.5,3.5-3.5h54.8c1.9,0,3.5,1.6,3.5,3.5v38.7
		C404.2,439.4,402.6,441,400.7,441 M349.4,434h47.8v-31.7h-47.8V434z"/>
	<path fill="#F16674" d="M358.7,413.1v-11c0-7.7,6.2-13.9,13.9-13.9c7.7,0,13.9,6.2,13.9,13.9v11"/>
	
		<rect x="370.1" y="400.2" transform="matrix(0.4063 0.9137 -0.9137 0.4063 600.7502 -93.8543)" fill="#FFFFFF" width="5" height="30.4"/>
	
		<rect x="357.4" y="412.9" transform="matrix(0.9138 0.4062 -0.4062 0.9138 200.8476 -115.5457)" fill="#FFFFFF" width="30.4" height="5"/>
	
		<rect x="370.1" y="388" transform="matrix(0.4063 0.9137 -0.9137 0.4063 589.6016 -101.0977)" fill="#FFFFFF" width="5" height="30.4"/>
	
		<rect x="357.4" y="400.7" transform="matrix(0.9138 0.4062 -0.4062 0.9138 195.8915 -116.5975)" fill="#FFFFFF" width="30.4" height="5"/>
	<path fill="#19181C" d="M347.6,435l-3.5-6.1l11.1-6.4V397h7v27.5c0,1.3-0.7,2.4-1.8,3L347.6,435z"/>
	<path fill="#19181C" d="M397.2,434.9l-12.5-7.4c-1.1-0.6-1.7-1.8-1.7-3V397h7v25.5l10.8,6.4L397.2,434.9z"/>
	<rect x="358.7" y="421" fill="#19181C" width="27.7" height="7"/>
	<path fill="#19181C" d="M390,413.1h-7v-11c0-5.7-4.7-10.4-10.4-10.4c-5.7,0-10.4,4.7-10.4,10.4v11h-7v-11c0-9.6,7.8-17.4,17.4-17.4
		s17.4,7.8,17.4,17.4V413.1z"/>
	<path fill="#EFBCAE" d="M306.2,423.3H273c0-105.7,8.6-167.6,9-170.2l33,2.9C314.9,256.6,306.2,319.2,306.2,423.3"/>
	<polygon fill="#FFFFFF" points="276.7,345 273.5,421.4 276.7,424.8 306.5,424.8 306.5,382.8 306.5,345 	"/>
	<path fill="#19181C" d="M310.7,427.8h-42.2v-4.5c0-106,8.6-168.3,9-170.9l0.6-4.2l42,3.6l-0.7,4.7c-0.1,0.6-8.7,62.9-8.7,166.7
		L310.7,427.8L310.7,427.8z M277.6,418.8h24.2c0.2-85.9,6.2-142.7,8.2-158.8l-24-2.1C284,273.5,277.8,330.2,277.6,418.8"/>
	<polygon fill="#FAA949" points="399,304.9 389,221.8 335.2,221.8 327.9,221.8 274.1,221.8 264.2,304.9 325.3,304.9 331.6,252.4 
		337.9,304.9 	"/>
	<path fill="#19181C" d="M404,309.4h-70.2l-2.3-19.1l-2.3,19.1h-70.2l11-92h61.1l0.3-2.8l0.3,2.8H393L404,309.4z M341.9,300.4h52
		l-8.9-74h-52L341.9,300.4z M269.3,300.4h52l8.9-74h-52L269.3,300.4z"/>
	<path fill="#F5C9B9" d="M297.7,102c0,0-0.6,0.4-1.6,1c-1.1,0.7-2.7,1.7-4.7,3.1c-2,1.4-4.5,3.1-7.3,5c-2.8,2-5.9,4.3-9.2,6.8
		c-3.3,2.5-6.9,5.4-10.5,8.4c-3.7,3-7.4,6.3-11.1,9.9c-3.7,3.5-7.4,7.2-10.7,11c-0.8,1-1.6,1.9-2.4,2.9c-0.8,1-1.5,1.9-2.3,2.9
		c-0.7,1-1.4,1.9-2.1,2.9l-0.9,1.4l-0.5,0.7l-0.4,0.7c-8.8,19.4,31.7,30.8,34.6,33.8c0.5,0.1,0.8,0.1,1,0.1c0.2,0,0.3,0,0.3,0
		l-18,48.6c0,0-0.9-0.5-2.6-1.4c-1.6-0.9-3.8-2.2-6.5-3.9c-2.7-1.7-5.7-3.8-9.2-6.3c-3.4-2.5-7.2-5.5-11.2-9
		c-4-3.5-8.2-7.6-12.4-12.5c-4.2-5-8.5-10.9-11.8-18.4c-1.6-3.8-3-8-3.8-12.5c-0.4-2.3-0.6-4.6-0.7-7c0-2.4,0.1-4.8,0.4-7.2
		c0.3-2.4,0.8-4.7,1.5-6.9c0.7-2.2,1.5-4.4,2.4-6.4c0.2-0.5,0.5-1.1,0.8-1.7l0.4-0.9l0.1-0.2l0.1-0.1l0.1-0.2l0.5-0.9l0.1-0.1
		c0,0.1,0.4-0.7,0.2-0.4l0-0.1l0.2-0.3l0.4-0.6l1.5-2.5l1.6-2.3l0.8-1.1l0.8-1.1l1.6-2.1c1.1-1.3,2.2-2.7,3.3-3.9
		c1.1-1.2,2.2-2.5,3.4-3.7c1.1-1.2,2.3-2.3,3.4-3.4c4.6-4.4,9.1-8.5,13.5-12.2c4.5-3.7,8.8-7.1,12.9-10.3c4.1-3.2,8.1-6,11.8-8.7
		c3.7-2.6,7-5,10.1-7.1c3-2.1,5.6-3.9,7.8-5.3c2.2-1.5,3.9-2.6,5.1-3.4c1.2-0.8,1.9-1.2,1.9-1.2L297.7,102z"/>
	<path fill="#19181C" d="M252.2,245.7c-0.7,0-1.5-0.2-2.2-0.6l-2.6-1.4c-2-1.2-4.2-2.4-6.8-4.1c-3-1.9-6.2-4.1-9.4-6.5
		c-3.8-2.7-7.6-5.9-11.5-9.3c-4.9-4.3-9.1-8.5-12.9-13c-3.8-4.6-8.7-10.9-12.5-19.5c-2-4.6-3.4-9.2-4.2-13.6
		c-0.4-2.5-0.7-5.1-0.8-7.7c-0.1-2.6,0.1-5.3,0.4-7.9c0.3-2.5,0.9-5,1.6-7.6c0.7-2.4,1.6-4.8,2.6-7c0.2-0.5,0.5-1.1,0.8-1.6l0.7-1.4
		c0-0.1,0.1-0.1,0.1-0.2l0.8-1.4c0-0.1,0.1-0.1,0.1-0.2c0,0,0-0.1,0.1-0.1l0,0c0.1-0.1,0.1-0.2,0.2-0.3l0,0l2.2-3.6
		c0-0.1,0.1-0.1,0.1-0.2l2.4-3.5c0,0,0.1-0.1,0.1-0.1l2.5-3.2c0,0,0.1-0.1,0.1-0.1l0.8-1c0.8-1,1.7-2.1,2.6-3.1l0.7-0.8
		c0.9-1,1.8-2,2.8-3c1.3-1.4,2.4-2.5,3.5-3.5c4.6-4.5,9.2-8.7,13.8-12.4c4.9-4.1,9.5-7.7,13.1-10.4c3.5-2.7,6.8-5.1,10-7.4l1.9-1.4
		c3.7-2.7,7-5,10.1-7.1c2.5-1.8,5-3.5,7.9-5.4c2.2-1.5,3.9-2.6,5.1-3.4l1.9-1.2c1-0.7,2.2-0.9,3.4-0.6c1.2,0.3,2.2,1,2.8,2
		l16.9,26.6c1.3,2.1,0.7,4.9-1.4,6.2l-1.6,1c-1,0.7-2.6,1.7-4.6,3c-2.2,1.5-4.6,3.2-7.2,5c-2.6,1.8-5.5,4-9.1,6.7
		c-3.6,2.7-7.4,5.9-10.4,8.3c-3.8,3.1-7.4,6.4-10.9,9.7c-3.2,3.1-7,6.8-10.4,10.7c-0.7,0.8-1.4,1.7-2.3,2.8c0,0,0,0.1-0.1,0.1
		c-0.5,0.6-1,1.2-1.5,1.9c-0.2,0.3-0.4,0.6-0.7,0.9c-0.4,0.5-0.8,1.1-1.2,1.7c-0.2,0.3-0.5,0.7-0.7,1l-1.4,2.3
		c-0.9,2.2-1,4.2-0.2,6.2c3.1,8.2,18.3,14.8,26.5,18.4c2.9,1.3,4.7,2.1,6,2.8c1.4,0.1,2.7,0.8,3.5,2c0.8,1.2,1,2.7,0.5,4l-18,48.6
		c-0.5,1.2-1.4,2.2-2.6,2.7C253.2,245.7,252.7,245.7,252.2,245.7 M203.6,148.9L203,150c-0.2,0.5-0.5,0.9-0.6,1.3
		c-0.9,1.9-1.6,3.9-2.2,5.9c-0.6,2.1-1.1,4.2-1.3,6.3c-0.3,2.1-0.4,4.3-0.4,6.5c0.1,2.1,0.3,4.2,0.6,6.3c0.6,3.8,1.8,7.5,3.5,11.5
		c3.4,7.6,7.7,13.2,11.1,17.3c3.5,4.1,7.4,8.1,12,12.1c3.7,3.2,7.3,6.2,10.9,8.8c3.1,2.3,6.1,4.3,8.9,6.2c1.6,1,3,1.9,4.2,2.6
		l14.6-39.6c-1-0.5-2.4-1.1-3.6-1.6c-10-4.4-26.8-11.7-31.3-23.4c-1.7-4.4-1.5-8.9,0.5-13.3c0.1-0.1,0.1-0.2,0.2-0.4l0.4-0.7
		c0-0.1,0.1-0.2,0.1-0.2l1.3-2.1c0-0.1,0.1-0.1,0.1-0.2c0.2-0.3,0.5-0.6,0.7-1c0.5-0.7,0.9-1.3,1.4-2l0.6-0.8
		c0.5-0.7,1.1-1.4,1.7-2.2c1-1.2,1.7-2.1,2.5-3c3.6-4.1,7.5-8,10.9-11.3c3.6-3.4,7.4-6.8,11.3-10.1c3-2.5,6.9-5.7,10.7-8.6
		c3.6-2.8,6.7-5,9.3-6.9c2.6-1.8,5.1-3.6,7.4-5.1c1-0.7,1.9-1.2,2.7-1.8l-12-19c-0.9,0.6-1.9,1.3-3.1,2.1c-2.8,1.9-5.3,3.6-7.8,5.3
		c-3.1,2.1-6.4,4.4-10,7l-1.9,1.4c-3.1,2.3-6.4,4.6-9.8,7.2c-3.5,2.7-8,6.2-12.8,10.2c-4.4,3.6-8.8,7.7-13.3,12c-1,1-2,2-3.3,3.3
		c-0.9,0.9-1.7,1.8-2.5,2.7l-0.8,0.8c-0.8,0.9-1.5,1.8-2.4,2.8l-0.8,1l-2.3,3l-2.3,3.2l-2.1,3.5c0,0,0,0,0,0c0,0,0,0,0,0
		c0,0.1-0.1,0.1-0.1,0.2l0,0L203.6,148.9z"/>
	<path fill="#F5C9B9" d="M379.2,91.4c0,0-2.1,11.3-2.2,11.3l0,0c0,0,0.1,0,0.1,0.1c0.1,0.1,0.3,0.1,0.4,0.2c0.7,0.4,1.8,1,3.2,2
		c1.4,0.9,3.2,2.2,5.2,3.8c2,1.6,4.2,3.5,6.4,5.8c2.3,2.2,4.6,4.9,7,7.8c2.4,2.9,4.7,6.1,6.9,9.6c2.2,3.5,4.4,7.2,6.4,11.1
		c0.5,1,1,2,1.5,2.9c0.5,1,0.9,2,1.4,3c1,2,1.8,4.1,2.6,6.2c1.7,4.2,3.2,8.4,4.5,12.7c1.3,4.3,2.5,8.5,3.5,12.7
		c0.2,1,0.5,2.1,0.7,3.1c0.2,1,0.4,2.1,0.6,3.1c0.4,2,0.9,4,1.2,6c0.3,2,0.6,3.9,1,5.7c0.3,1.8,0.5,3.7,0.7,5.4
		c0.2,1.7,0.5,3.4,0.6,4.9c0.2,1.6,0.3,3.1,0.4,4.5c0.1,1.4,0.3,2.7,0.4,4c0.1,1.2,0.2,2.4,0.2,3.4c0.3,4.1,0.4,6.4,0.4,6.4
		l49.9-5.9c0,0-0.5-2.7-1.4-7.4c-0.2-1.2-0.5-2.5-0.8-3.9c-0.3-1.4-0.7-2.9-1.1-4.6c-0.4-1.6-0.8-3.4-1.2-5.2
		c-0.4-1.8-1-3.7-1.5-5.7c-0.5-2-1.1-4.1-1.7-6.2c-0.7-2.1-1.3-4.3-2-6.6c-0.7-2.3-1.5-4.6-2.3-6.9c-0.4-1.2-0.8-2.4-1.2-3.6
		c-0.4-1.2-0.9-2.4-1.4-3.6c-1.8-4.9-3.9-9.9-6.2-14.9c-2.3-5-4.9-10-7.6-14.9c-1.4-2.4-2.8-4.9-4.3-7.3c-0.8-1.2-1.5-2.4-2.2-3.6
		c-0.8-1.2-1.6-2.3-2.4-3.5c-3.1-4.6-6.6-9-10-13.1c-3.5-4.1-7.1-7.9-10.7-11.3c-3.6-3.4-7.2-6.5-10.7-9.1c-3.5-2.7-6.8-4.9-9.9-6.8
		c-3.1-1.9-5.9-3.4-8.4-4.6c-2.4-1.2-4.5-2-6-2.6c-0.9-0.3-1.5-0.6-2-0.7c-0.7-0.2-0.7-0.2-0.7-0.2L379.2,91.4z"/>
	<path fill="#19181C" d="M428.3,232l-0.9-14.5l-0.8-8.4c-0.1-1-0.2-2-0.4-3c-0.1-0.6-0.2-1.2-0.2-1.8c-0.1-0.6-0.2-1.2-0.2-1.9
		c-0.1-1.1-0.3-2.2-0.5-3.3l-1-5.7c-0.2-1.2-0.4-2.4-0.7-3.7c-0.2-0.7-0.3-1.5-0.4-2.2l-0.6-3c-0.1-0.5-0.3-1.2-0.4-1.8l-0.3-1.1
		c-0.9-3.7-2-7.8-3.4-12.4c-1.4-4.5-2.9-8.5-4.4-12.3l-0.6-1.4c-0.7-1.6-1.3-3.1-2-4.5l-1.7-3.7l-1.1-2.2c-1.7-3.3-3.6-6.7-6.2-10.7
		c-2.2-3.4-4.5-6.5-6.6-9.2c-2.6-3.2-4.7-5.5-6.6-7.4c-2.3-2.2-4.3-4.1-6.1-5.5c-1.9-1.5-3.5-2.7-4.9-3.6c-1.6-1-2.6-1.6-3-1.8
		l-0.5-0.3l-4.7-2.5l2.7-3.4c0.3-1.7,1-5.3,1.4-7.2c0.4-1.9,0.6-3.1,0.9-4l0,0l9.3-20.5l3.8,1.6c0.1,0,0.4,0.1,0.7,0.2l2,0.7
		c1.9,0.7,4.1,1.7,6.4,2.8c2.6,1.2,5.6,2.8,8.8,4.8c3.2,1.9,6.7,4.3,10.3,7.1c3.3,2.5,6.9,5.6,11.1,9.4c3.6,3.4,7.3,7.4,11,11.7
		c4,4.8,7.4,9.2,10.3,13.5l2.5,3.6l2.2,3.6c1.3,2,2.5,4.2,3.7,6.2l0.7,1.2c2.7,4.7,5.2,9.7,7.8,15.3c2.5,5.5,4.6,10.5,6.4,15.2
		l0.4,1.1c0.3,0.9,0.7,1.7,1,2.5l1.3,3.6c0.3,0.8,0.5,1.6,0.8,2.3c0.5,1.6,1.1,3.2,1.6,4.8l2,6.5c0.5,1.5,0.8,2.9,1.2,4.3
		c0.2,0.7,0.4,1.4,0.5,2c0.2,0.7,0.4,1.3,0.5,1.9c0.4,1.4,0.7,2.7,1,3.9l2.6,11.4l2.9,14.5L428.3,232z M382,100.5
		c0.4,0.2,0.7,0.5,1.2,0.8c1.6,1,3.5,2.4,5.5,4.1c2,1.6,4.3,3.7,6.8,6.1c2.1,2.1,4.4,4.6,7.3,8.1c2.4,2.9,4.8,6.3,7.2,10
		c2.7,4.3,4.8,8,6.6,11.5l1.6,3.1l1.4,3c0.8,1.6,1.5,3.3,2.1,4.9l0.6,1.4c1.6,4.1,3.2,8.3,4.7,13.1c1.5,4.9,2.7,9.1,3.6,13l0.3,1
		c0.2,0.7,0.3,1.4,0.5,2.1l0.6,3.2c0.1,0.7,0.3,1.4,0.4,2.1c0.3,1.3,0.6,2.7,0.8,4.1l0.9,5.6c0.2,1.3,0.4,2.5,0.5,3.7
		c0.1,0.6,0.2,1.2,0.2,1.8c0.1,0.7,0.2,1.2,0.2,1.8c0.2,1.1,0.3,2.2,0.4,3.3l0.8,8.6l0.3,5.1l40.4-4.8l-1.3-6.4l-2.2-9.7
		c-0.3-1.2-0.6-2.4-0.9-3.6c-0.2-0.6-0.4-1.3-0.5-1.9c-0.2-0.7-0.4-1.4-0.6-2.1c-0.3-1.3-0.7-2.6-1.1-4l-2-6.6
		c-0.4-1.5-0.9-2.9-1.5-4.4c-0.3-0.8-0.6-1.6-0.8-2.4l-1.2-3.5c-0.3-0.7-0.6-1.5-0.9-2.3l-0.5-1.2c-1.7-4.5-3.7-9.3-6.1-14.6
		c-2.5-5.3-4.9-10.1-7.5-14.6l-0.7-1.2c-1.2-2-2.3-4-3.5-5.9l-2.2-3.6l-2.3-3.4c-2.8-4-5.9-8.2-9.8-12.8c-3.5-4-7-7.7-10.3-10.9
		c-3.9-3.6-7.2-6.5-10.3-8.8c-3.4-2.6-6.7-4.8-9.6-6.6c-2.9-1.8-5.6-3.2-8-4.4c-1.8-0.9-3.2-1.5-4.3-1.9l-5.5,12.3
		c-0.1,0.5-0.3,1.4-0.5,2.4C382.7,96.8,382.3,98.9,382,100.5"/>
	<path fill="#FAA949" d="M341.9,46.7c-2.1-2.2-3.8-3.7-5.1-2.6l-0.7,0.3l-0.7-0.3c-1.3-1.2-3,0.3-5.1,2.6l-64.1,25v200H406v-200
		L341.9,46.7z"/>
	<path fill="#19181C" d="M410.5,276.1H261.6V68.6l66-25.7c1.8-1.8,5-4.5,8.4-3.4c3.4-1.1,6.6,1.7,8.4,3.4l66,25.7V276.1L410.5,276.1
		z M270.6,267.1h130.9V74.7l-62.1-24.2l-0.7-0.7c-0.5-0.5-0.8-0.9-1.1-1.1l-1.5,0.6l-1.5-0.6c-0.3,0.3-0.7,0.6-1.1,1.1l-0.7,0.7
		l-62.1,24.2L270.6,267.1L270.6,267.1z"/>
	<path fill="#F5C9B9" d="M369.4,51.4c0,32.8-14.9,67.5-33.4,67.5c-18.4,0-33.4-34.7-33.4-67.5s15-59.4,33.4-59.4
		S369.4,18.6,369.4,51.4"/>
	<path fill="#19181C" d="M336,123.5c-22.3,0-37.9-38-37.9-72c0-35.8,16.6-63.9,37.9-63.9c21.2,0,37.9,28.1,37.9,63.9
		C373.9,85.5,358.4,123.5,336,123.5 M336-3.4c-15.7,0-28.9,25.1-28.9,54.9c0,31.8,14.3,63,28.9,63s28.9-31.2,28.9-63
		C364.9,21.7,351.7-3.4,336-3.4"/>
	<path fill="#F5C9B9" d="M416-13.1c0,13.2-8.5,23.9-18.9,23.9c-10.4,0-18.9-10.7-18.9-23.9S386.7-37,397.1-37
		C407.6-37,416-26.3,416-13.1"/>
	<path fill="#19181C" d="M397.1,14.7c-12.6,0-22.9-12.5-22.9-27.9c0-15.4,10.3-27.9,22.9-27.9S420-28.5,420-13.1
		C420,2.2,409.7,14.7,397.1,14.7 M397.1-33c-8.2,0-14.9,8.9-14.9,19.9c0,11,6.7,19.9,14.9,19.9S412-2.2,412-13.1
		C412-24.1,405.3-33,397.1-33"/>
	<path fill="#F5C9B9" d="M256.8-13.1c0-13.2,8.5-23.9,18.9-23.9c10.4,0,18.9,10.7,18.9,23.9s-8.5,23.9-18.9,23.9
		C265.3,10.7,256.8,0.1,256.8-13.1"/>
	<path fill="#19181C" d="M275.7,14.7c-12.6,0-22.9-12.5-22.9-27.9c0-15.4,10.3-27.9,22.9-27.9c12.6,0,22.9,12.5,22.9,27.9
		C298.6,2.2,288.3,14.7,275.7,14.7 M275.7-33c-8.2,0-14.9,8.9-14.9,19.9c0,11,6.7,19.9,14.9,19.9s14.9-8.9,14.9-19.9
		C290.6-24.1,283.9-33,275.7-33"/>
	<path fill="#F5C9B9" d="M334.3-115.4l-49.7,25.2l-14.6,43.4l0.6,50l14.2,33.2l37.4,41.2h20.2l30.9-24.8c0,0,24.8-43.2,25.3-43.9
		c0.5-0.7,0-62.4,0-62.4s-6-25.6-7.2-27.3c-1.1-1.7-23.7-21.9-23.7-21.9L334.3-115.4z"/>
	<rect x="264.2" y="437.5" fill="#E8E7EB" width="53.2" height="12"/>
	<path fill="#19181C" d="M317.4,453h-53.2c-1.9,0-3.5-1.6-3.5-3.5v-12c0-1.9,1.6-3.5,3.5-3.5h53.2c1.9,0,3.5,1.6,3.5,3.5v12
		C320.9,451.4,319.4,453,317.4,453 M267.7,446h46.2v-5h-46.2V446z"/>
	<rect x="264.2" y="398.8" fill="#F16674" width="53.2" height="38.7"/>
	<path fill="#19181C" d="M317.4,441h-53.2c-1.9,0-3.5-1.6-3.5-3.5v-38.7c0-1.9,1.6-3.5,3.5-3.5h53.2c1.9,0,3.5,1.6,3.5,3.5v38.7
		C320.9,439.4,319.4,441,317.4,441 M267.7,434h46.2v-31.7h-46.2V434z"/>
	<path fill="#F16674" d="M305.2,413.1v-11c0-7.7-6.2-13.9-13.9-13.9c-7.7,0-13.9,6.2-13.9,13.9v11"/>
	
		<rect x="276.2" y="412.9" transform="matrix(0.9138 0.4062 -0.4062 0.9138 193.844 -82.5432)" fill="#FFFFFF" width="30.4" height="5"/>
	
		<rect x="288.9" y="400.2" transform="matrix(0.4062 0.9138 -0.9138 0.4062 552.5698 -19.5789)" fill="#FFFFFF" width="5" height="30.4"/>
	
		<rect x="276.2" y="400.7" transform="matrix(0.9138 0.4062 -0.4062 0.9138 188.8879 -83.595)" fill="#FFFFFF" width="30.4" height="5"/>
	
		<rect x="288.8" y="388" transform="matrix(0.4062 0.9138 -0.9138 0.4062 541.4203 -26.8231)" fill="#FFFFFF" width="5" height="30.4"/>
	<path fill="#19181C" d="M315.6,434.9l-12.2-7.4c-1-0.6-1.7-1.8-1.7-3V397h7v25.6l10.5,6.4L315.6,434.9z"/>
	<path fill="#19181C" d="M267.8,434.9L264,429l9.9-6.4V397h7v27.5c0,1.2-0.6,2.3-1.6,2.9L267.8,434.9z"/>
	<rect x="277.5" y="421" fill="#19181C" width="27.7" height="7"/>
	<path fill="#19181C" d="M274,413.1h7v-11c0-5.7,4.7-10.4,10.4-10.4s10.4,4.7,10.4,10.4v11h7v-11c0-9.6-7.8-17.4-17.4-17.4
		c-9.6,0-17.4,7.8-17.4,17.4V413.1z"/>
	<polygon fill="#FFFFFF" points="317.7,31.2 335.5,33.6 352.1,33.6 348.4,39.7 340.5,44.9 328.4,42.8 321.7,38.5 	"/>
	<path fill="#19181C" d="M335.5,45.5c-7.8,0-15.1-4.2-19-11.1l-4.6-8l43.9,5.6l-1.4,2.4C350.6,41.3,343.4,45.5,335.5,45.5 M321.6,33
		c3.3,3.8,8.8,8.5,14,8.5c5.1,0,10-2.2,13.3-6L321.6,33z"/>
	<path fill="#19181C" d="M335.7,19c-4.5,0-8.7-2.5-11.5-6.8c-1-1.6-0.6-3.8,1.1-4.8c1.6-1,3.8-0.6,4.8,1.1c1.5,2.3,3.5,3.6,5.6,3.6
		c2.7,0,4.5-2.1,5.4-3.3c1.1-1.6,3.3-2,4.9-0.9c1.6,1.1,2,3.3,0.9,4.9C344,16.7,339.9,19,335.7,19"/>
	<path fill="#BE5427" d="M462.3,244.9c5.2,27.8-13.1,54.5-40.9,59.7s-54.5-13.1-59.7-40.9c-5.2-27.8,13.1-54.5,40.9-59.7
		C430.4,198.9,457.1,217.2,462.3,244.9"/>
	<path fill="#19181C" d="M411.9,309.6c-11,0-21.8-3.3-31-9.7c-12.2-8.3-20.4-20.9-23.1-35.4c-5.6-29.9,14.2-58.8,44.1-64.4
		c14.5-2.7,29.2,0.4,41.3,8.7c12.2,8.3,20.4,20.9,23.1,35.4v0c2.7,14.5-0.4,29.2-8.7,41.3c-8.3,12.2-20.9,20.4-35.4,23.1
		C418.7,309.2,415.3,309.6,411.9,309.6 M412.1,207.2c-2.9,0-5.9,0.3-8.8,0.8c-25.6,4.8-42.5,29.5-37.7,55
		c2.3,12.4,9.3,23.1,19.7,30.2c10.4,7.1,22.9,9.8,35.3,7.4c12.4-2.3,23.1-9.3,30.2-19.7c7.1-10.4,9.8-22.9,7.4-35.3v0
		c-2.3-12.4-9.3-23.1-19.7-30.2C430.7,210,421.5,207.2,412.1,207.2"/>
	<path fill="#19181C" d="M458.6,238.1c-0.5-1.4-1-2.8-1.6-4.1l-0.4-0.8l-0.6,0.4c-2.8-0.8-6-1.3-9.6-1.3l-0.5,0
		c-3.9-0.1-10.1,0.1-17.2,1.5c-2.4,0.4-4.8,1-7.1,1.6c-6.6,1.7-12.2,4.1-16.6,7c-5.9,3.4-8.9,8.7-10.1,11.5c-2.5-1.1-5-2.2-7.4-3.4
		c0.3-0.7,0.6-1.4,0.8-2c3.8-8.9,7.3-15.5,13.7-22.8c7.1-8,13.9-11.9,18.3-13.7l0.7-0.3c0.6-0.3,1.4-0.6,1.8-0.7
		c1.9-0.7,3.3-1,4.4-1.2c0.6-0.1,1.2-0.2,1.8-0.2c0.2,0,0.5,0,0.6,0l0.3-1.5c-0.4-0.2-0.9-0.3-1.3-0.5c-1.4-0.5-2.9-1-4.4-1.4
		l-1.3-0.4l0.1,0.7c-0.1,0-0.3,0-0.4,0.1c-1.5,0.3-2.7,0.6-4,1.1c-7.2,2.9-14,7.9-20.2,15c-6.8,7.7-10.6,14.9-14.5,24
		c-0.2,0.6-0.5,1.2-0.8,1.8c-2-1-4-2-5.9-3.1c1.9-5.6,3.5-11.9,5.1-20.1c0.8-4.4,1.9-8.1,3.2-11.1l0.2-0.4c0.2-0.5,0.4-0.9,0.6-1.2
		c0.1-0.2,0.2-0.3,0.3-0.5l-1-1.1c-1.7,1-3.4,2.1-5,3.3l-0.5,0.4l0.2,0.4c-1,2.7-1.8,5.9-2.4,9.4c-1.5,7.6-2.9,13.4-4.6,18.6
		c-4.3-2.7-6.8-5-8.2-6.4c0,0,0,0-0.1-0.1l-0.8-1.6l-0.6,1.7l-0.2,0.4c-0.4,1-0.7,2-1,3l-0.3,0.9l0.8,0.1c2.3,2.1,5.2,4.3,8.7,6.4
		c-1.2,3.1-2.6,6.3-4.4,9.6c-1.4,2.6-3.2,5.5-5.3,8.1l-0.7,0.1l0.2,0.8c0.3,1.3,0.6,2.6,1,3.8l0.6,1.9l0.9-1.8c0,0,0-0.1,0.1-0.1
		c2.8-3.2,5.5-7.1,7.4-10.7c1.7-3.3,3.1-6.3,4.3-9.4c1.9,1,3.8,2,5.8,3c-2.9,8.2-4.5,15.9-4.8,23c-0.3,7.1,0.9,13.3,3.3,18.6
		l-0.2,0.4l0.5,0.4c2.1,1.6,4.4,3,6.7,4.3l0.9-1.2c-0.2-0.2-0.3-0.4-0.5-0.5c-4.5-5.4-6.5-12.7-6.2-21.7c0.2-6.5,1.7-13.6,4.4-21.2
		c2.5,1.2,5,2.3,7.6,3.4c-1,4.2-1.8,12,1.9,20.3c2.6,5.9,8.6,12.8,15.7,17.9c2.5,1.8,6.4,4.3,10.9,6c0.6,0.2,1.2,0.4,1.8,0.6
		l0.1,0.6l0.9-0.2c2.1-0.6,4.3-1.4,6.3-2.3l-0.3-1.5c-0.2,0-0.5,0-0.6,0c-4.9-0.3-10.7-2.8-16.3-6.9c-6.5-4.7-11.9-10.8-14.2-16
		c-2.9-6.6-2.5-12.9-1.8-16.6c2.6,1.1,5.2,2.1,7.8,3.1c14.8,5.6,27.8,9.2,32.7,10.6c8.1,2.2,14,2.5,17.5,2.4l0.7,0.3l0.3-0.7
		c0.5-1.1,0.9-2.1,1.3-3.1l0.7-1.9l-1.7,0.6c0,0-0.1,0-0.1,0c-2.7,0.2-8.6,0.2-17.5-2.2c-6.4-1.7-22.9-6.4-40.3-13.6
		c1.1-2.2,3.7-6.4,8.2-9.3c4.2-2.5,8.8-4.5,13.7-6c2.5-0.7,5.1-1.3,7.9-1.9c5.9-1.1,12.2-1.7,17.2-1.6c1.1,0,2.2,0.1,3.3,0.2
		c2.6,0.3,4.8,0.8,6.7,1.5c0.3,0.1,0.6,0.3,0.9,0.4c0.1,0,0.2,0.1,0.3,0.1l1.9,1.3L458.6,238.1z"/>
	<path fill="#19181C" d="M378.4-28.8c0,8.2-6.6,14.8-14.8,14.8c-8.2,0-14.8-6.6-14.8-14.8c0-8.2,6.6-14.8,14.8-14.8
		C371.8-43.5,378.4-36.9,378.4-28.8"/>
	<path fill="#19181C" d="M363.7-12.5c-9,0-16.3-7.3-16.3-16.3S354.7-45,363.7-45c9,0,16.3,7.3,16.3,16.3
		C379.9-19.8,372.6-12.5,363.7-12.5 M363.7-42c-7.3,0-13.3,6-13.3,13.3c0,7.3,6,13.3,13.3,13.3c7.3,0,13.3-6,13.3-13.3
		C376.9-36.1,371-42,363.7-42"/>
	<path fill="#FFFFFF" d="M373.5-28.8c0,5.4-4.3,9.7-9.7,9.7c-5.4,0-9.7-4.3-9.7-9.7c0-5.4,4.3-9.7,9.7-9.7
		C369.1-38.5,373.5-34.1,373.5-28.8"/>
	<path fill="#19181C" d="M366-34.2c-1.9-0.8-4-0.5-5.7,0.4c0.3,0,0.6,0.1,1,0.2c2,0.8,2.9,3,2.1,5c-0.8,2-3,2.9-5,2.1
		c-0.5-0.2-0.9-0.5-1.3-0.9c0.3,2.3,1.8,4.3,4.1,5.2c3.3,1.3,7.1-0.3,8.5-3.7C371-29.1,369.4-32.9,366-34.2"/>
	<path fill="#F5C9B9" d="M345.2-22.4c0,0,28.2,0,33,3.3c4.8,3.3,0,15.2,0,15.2h-15.4L345.2-22.4z"/>
	<path fill="#19181C" d="M382.2-30.6c-0.9,0-1.9-0.3-2.7-0.9c-0.2-0.1-9.3-6.7-24.1-5.8c-2.5,0.1-4.6-1.7-4.8-4.2
		c-0.1-2.5,1.7-4.6,4.2-4.8c18.3-1.1,29.6,7.3,30,7.6c2,1.5,2.4,4.3,0.9,6.3C384.9-31.3,383.5-30.6,382.2-30.6"/>
	<path fill="#19181C" d="M292.7-28.8c0,8.2,6.6,14.8,14.8,14.8c8.2,0,14.8-6.6,14.8-14.8c0-8.2-6.6-14.8-14.8-14.8
		C299.4-43.5,292.7-36.9,292.7-28.8"/>
	<path fill="#19181C" d="M307.5-12.5c-9,0-16.3-7.3-16.3-16.3S298.6-45,307.5-45c9,0,16.3,7.3,16.3,16.3S316.5-12.5,307.5-12.5
		 M307.5-42c-7.3,0-13.3,6-13.3,13.3c0,7.3,6,13.3,13.3,13.3c7.3,0,13.3-6,13.3-13.3C320.8-36.1,314.8-42,307.5-42"/>
	<path fill="#FFFFFF" d="M297.7-28.8c0,5.4,4.3,9.7,9.7,9.7c5.4,0,9.7-4.3,9.7-9.7c0-5.4-4.3-9.7-9.7-9.7
		C302.1-38.5,297.7-34.1,297.7-28.8"/>
	<path fill="#19181C" d="M302.8-23.1c-1.6-1.3-2.5-3.2-2.5-5.1c0.2,0.3,0.4,0.5,0.7,0.7c1.7,1.3,4.1,1,5.4-0.6
		c1.3-1.7,1-4.1-0.6-5.4c-0.4-0.3-0.9-0.6-1.4-0.7c2.1-0.9,4.6-0.6,6.5,0.9c2.8,2.2,3.3,6.3,1.1,9.2
		C309.8-21.4,305.7-20.9,302.8-23.1"/>
	<path fill="#F5C9B9" d="M325.9-22.4c0,0-28.2,0-33,3.3c-4.8,3.3,0,15.2,0,15.2h15.4L325.9-22.4z"/>
	<path fill="#19181C" d="M289-30.7c-1.4,0-2.7-0.6-3.6-1.8c-1.5-2-1.1-4.8,0.9-6.3c0.5-0.4,11.7-8.7,30-7.6c2.5,0.1,4.4,2.3,4.2,4.8
		c-0.1,2.5-2.3,4.4-4.8,4.2c-14.9-0.9-24,5.8-24.1,5.8C290.9-30.9,290-30.7,289-30.7"/>
	<g>
		<polygon fill="#19181C" points="340.5,85.1 340.5,85.1 340.5,85.1 		"/>
		<path fill="#19181C" d="M400.7-72.5c-10.6-29.8-46.8-43.2-60.1-47.2l-1.9-0.5c-2.1-0.6-4.4-0.6-6.5,0l-1.9,0.5
			c-13.3,4-49.5,17.4-60.1,47.2c-5,13.9-4.8,47.7-4.7,64c0,1.6,0,3,0,4.2c0,15.1,6.6,26.4,11.8,35.4c0.7,1.2,1.4,2.4,2.1,3.6
			c10.7,18.9,23.1,30.7,31.7,37.3c7.4,5.7,14.3,9.4,19.2,11.2l0,2l0.2,0l0,0l4.9-0.6l4.9,0.6v0l0.2,0h0v-2
			c4.9-1.8,11.8-5.5,19.2-11.2c8.6-6.6,21-18.5,31.7-37.3c0.7-1.2,1.4-2.4,2.1-3.6c5.3-9,11.8-20.3,11.8-35.4c0-1.1,0-2.5,0-4.2
			C405.5-24.8,405.7-58.6,400.7-72.5z M396.4-8.6c0,1.6,0,3.1,0,4.2c0,12.7-5.4,21.9-10.6,30.9c-0.7,1.2-1.4,2.5-2.1,3.7
			c-18.6,33-43.2,44-48.2,45.2c-5-1.2-29.6-12.2-48.2-45.2c-0.7-1.2-1.4-2.4-2.1-3.7c-5.2-9-10.6-18.2-10.6-30.9c0-1.1,0-2.6,0-4.2
			c-0.1-14.5-0.3-48.5,4.2-60.9c8.9-25.1,40.8-37.4,53-41.2c2.4-0.8,5-0.8,7.4,0c12.2,3.9,44.1,16.1,53,41.2
			C396.7-57.1,396.5-23.1,396.4-8.6z"/>
	</g>
	<path fill="#19181C" d="M386.1,32.4c-3.8,7.9-12.4,14.4-17.9,19.2c-2.6,2.3-5.7,4.1-8.5,4.1c-6.9,0-10.8-6.5-12.6-14.6
		c-3,1.5-6.1,2.8-9.7,2.9c-0.4,0-0.8,0.1-1.2,0.1c-0.2,0-0.5,0-0.7,0c0,0,0,0,0,0h0c-0.2,0-0.5,0-0.7,0c-0.4,0-0.8,0-1.2-0.1
		c-3.6-0.1-6.7-1.3-9.7-2.9c-1.8,8.1-5.7,14.6-12.6,14.6c-2.7,0-5.9-1.9-8.5-4.1c-5.5-4.8-14-11.4-17.9-19.2
		c-8.6-17.7-17.9-29.2-17.9-29.2c0,39.1,68.3,95.1,68.4,95.2v0l0,0l0,0v0c0.1-0.1,68.4-58.9,68.4-95.2
		C404,3.2,394.7,14.7,386.1,32.4"/>
	<path fill="#F5C9B9" d="M491.8,259.7c-0.1-0.4-2.2-7.9-8.9-13.7c3.8-11.3-0.1-24.2-10.3-31.3c-12.5-8.7-29.6-5.7-38.3,6.8
		c-1.7,2.4-2.9,5-3.7,7.6c-4.3,1.7-9,4.7-12.6,10.1c-2.2,3.2-1.4,7.5,1.8,9.7c0,0,0.1,0,0.1,0.1c3.2,2.2,7.6,1.3,9.7-1.9
		c0.4-0.5,0.7-1,1.1-1.4c0.6,1.9,1.5,3.8,2.5,5.6c-1.8,5-6.1,7.5-6.4,7.6c-3.4,1.8-4.7,6-2.9,9.4c0.1,0.3,0.3,0.5,0.5,0.7
		c2,2.9,5.8,3.9,9,2.2c0.4-0.2,6.2-3.3,10.4-9.9c0.6,0.3,1.1,0.6,1.7,0.9c1.6,7.5-3.7,12.7-4,13c-2.5,2.4-2.9,6.2-1,9
		c0.2,0.3,0.4,0.6,0.7,0.8c2.6,2.9,7,3.1,9.9,0.4c0.4-0.4,9.1-8.5,8.8-21c0.6-0.1,1.1-0.1,1.6-0.2c1.3,4.5,0.1,8.4-0.1,8.8
		c-0.9,2.6-0.3,5.3,1.5,7.2c0.7,0.8,1.6,1.4,2.7,1.8c3.6,1.3,7.7-0.5,9-4.1c0.2-0.5,3.4-9.5-0.3-19.3c0.3-0.2,0.6-0.5,0.9-0.7
		c2.3,2.5,3.2,5.3,3.3,5.5c0.7,2.6,2.9,4.5,5.4,5c1,0.2,2.1,0.2,3.2-0.1C490.7,267.3,492.9,263.5,491.8,259.7"/>
	<path fill="#19181C" d="M446.2,291c-0.2,0-0.3,0-0.5,0c-2.8-0.1-5.4-1.3-7.3-3.4c-0.4-0.4-0.7-0.8-1-1.2c-2.9-4.3-2.2-10,1.6-13.5
		c0.1-0.1,1.1-1.1,1.9-2.7c-3,2.7-5.6,4.1-6,4.4c-4.7,2.5-10.5,1-13.5-3.3c-0.2-0.4-0.5-0.7-0.7-1.1c-2.7-5.1-0.7-11.4,4.3-14.1l0,0
		c0,0,2-1.1,3.5-3.4c-0.9,0.5-1.9,0.8-2.9,1c-2.8,0.5-5.5-0.1-7.9-1.6l-0.2-0.1c-4.6-3.2-5.8-9.8-2.6-14.5
		c3.3-4.8,7.5-8.4,12.7-10.8c0.9-2.5,2.1-4.8,3.7-7c4.7-6.8,11.9-11.3,20-12.8c8.2-1.4,16.4,0.4,23.2,5.1
		c10.6,7.4,15.4,20.7,12.3,33.1c6.1,6.1,8.1,13,8.3,13.8c0.7,2.7,0.4,5.5-1,8s-3.6,4.2-6.4,4.9c-1.6,0.4-3.2,0.5-4.8,0.2
		c-1.3-0.3-2.6-0.8-3.7-1.5c-0.3,4.8-1.4,8.2-1.7,8.8c-2,5.4-8.1,8.2-13.5,6.2c-1.5-0.6-2.9-1.5-4-2.6c-0.5-0.6-1-1.2-1.4-1.8
		c-2.4,4.2-5.1,6.8-5.6,7.3C451.3,290.1,448.8,291,446.2,291 M442.5,256.9l2.9,1.6c0.5,0.3,1,0.5,1.5,0.7l1.6,0.7l0.4,1.7
		c2,9.2-4.3,15.6-5,16.3c-1.3,1.2-1.5,3.1-0.6,4.5c0.1,0.1,0.2,0.3,0.3,0.4c0.6,0.7,1.5,1.1,2.4,1.1c0.9,0,1.8-0.3,2.5-0.9
		c0.3-0.3,7.9-7.4,7.7-18.3l-0.1-3.2l3.2-0.3c0.5-0.1,1-0.1,1.4-0.2l3.1-0.5l0.9,3c1.6,5.3,0.2,10-0.1,10.9
		c-0.5,1.3-0.2,2.7,0.7,3.7c0.4,0.4,0.8,0.7,1.3,0.9c1.8,0.7,3.8-0.3,4.5-2.1c0-0.1,3-8.2-0.3-16.9l-0.9-2.4l1.9-1.6
		c0.3-0.2,0.5-0.4,0.8-0.6l2.6-2.3l2.3,2.5c2.8,3.1,3.9,6.3,4.1,6.9c0.4,1.3,1.4,2.3,2.7,2.5c0.5,0.1,1.1,0.1,1.6-0.1
		c0.9-0.2,1.7-0.8,2.1-1.6c0.5-0.8,0.6-1.8,0.3-2.7v0c0-0.1-1.9-6.8-7.8-11.9l-1.8-1.5l0.8-2.2c3.4-10-0.3-21.3-9-27.3
		c-5.3-3.7-11.6-5.1-18-4c-6.3,1.1-11.8,4.6-15.5,9.9c-1.4,2-2.5,4.3-3.3,6.7l-0.5,1.6l-1.6,0.6c-4.5,1.8-8.2,4.8-11,8.8
		c-1.1,1.6-0.7,3.7,0.9,4.8c0.8,0.6,1.7,0.7,2.7,0.6c0.9-0.2,1.7-0.7,2.2-1.5c0.4-0.6,0.9-1.2,1.4-1.8l4.1-4.6l1.9,5.8
		c0.5,1.7,1.3,3.3,2.2,4.9l0.8,1.4l-0.6,1.6c-2.2,6.1-7.4,9.2-8,9.5c-1.7,0.9-2.4,3.1-1.5,4.7c0.1,0.1,0.1,0.3,0.2,0.4
		c1,1.4,2.9,1.9,4.5,1.1c0.1,0,5.3-2.8,9-8.6L442.5,256.9z"/>
	<polygon fill="#EBECEB" points="424.6,199.2 427,230.2 486.1,222.5 480.4,191.5 	"/>
	
		<rect x="449.9" y="180.9" transform="matrix(0.1226 0.9925 -0.9925 0.1226 606.8975 -266.8882)" fill="#F16674" width="9" height="57.9"/>
	<path fill="#19181C" d="M426,234.6c-0.7-0.1-1.4-0.5-1.9-0.9c-1-0.8-1.6-1.9-1.6-3.1l-2.4-30.9c-0.2-2.4,1.5-4.5,3.9-4.8l55.8-7.7
		c2.4-0.3,4.6,1.3,5,3.6l5.7,31c0.2,1.2-0.1,2.5-0.8,3.5c-0.7,1-1.8,1.6-3.1,1.8l-59.1,7.6C427,234.7,426.5,234.7,426,234.6
		 M429.4,203.1l1.7,22l49.7-6.4l-4-22.1L429.4,203.1z"/>
	<path fill="#F5C9B9" d="M244.8,191.5c4.3-2.8,9.4-4.5,14.9-4.7c3-0.1,6,0.3,8.7,1.1c4-2.8,9.2-5.1,16-5.2c4-0.1,7.3,3.1,7.4,7.1
		c0,0,0,0.1,0,0.1c0.1,4-3.1,7.3-7.2,7.4c-0.7,0-1.3,0.1-1.9,0.2c1.3,1.7,2.5,3.5,3.4,5.4c5.4,1.3,9.9-1,10.3-1.2
		c3.5-1.9,7.9-0.6,9.8,2.9c0.1,0.3,0.3,0.5,0.4,0.8c1.4,3.4,0,7.3-3.2,9.1c-0.4,0.2-6.4,3.5-14.5,3.4c-0.1,0.7-0.1,1.3-0.2,2
		c5.6,5.6,13.2,4.1,13.6,4c3.5-0.9,7.1,1,8.4,4.2c0.1,0.3,0.3,0.7,0.4,1c1,3.9-1.4,7.9-5.3,8.8c-0.6,0.1-12.5,3-23.3-4.3
		c-0.4,0.4-0.7,0.9-1.1,1.3c3.1,3.7,7.3,4.9,7.6,5c2.7,0.7,4.8,2.8,5.4,5.4c0.3,1.1,0.3,2.2,0,3.3c-0.9,3.9-4.8,6.3-8.7,5.4
		c-0.5-0.1-10.2-2.5-16.6-11.3c-0.4,0.1-0.8,0.2-1.1,0.3c0.9,3.5,2.8,5.8,2.9,6c1.8,2.1,2.2,5.1,1.2,7.5c-0.4,1-1.1,1.9-1.9,2.7
		c-3,2.7-7.6,2.4-10.3-0.7c-0.3-0.4-5.6-6.5-6.8-15.5c-6.6-1.7-15.4-7.7-17.4-14.3"/>
	<path fill="#19181C" d="M314.5,228.2c-0.1-0.5-0.3-1.1-0.5-1.5c-2.1-4.9-7.3-7.5-12.4-6.3c-0.1,0-2,0.4-4.3,0
		c4.5-1,7.4-2.6,7.9-2.9c4.8-2.6,6.8-8.4,4.8-13.4c-0.2-0.4-0.4-0.8-0.6-1.2c-2.9-5.1-9.4-7.1-14.5-4.3c0,0-2.5,1.2-5.6,1.2
		c1.1-0.5,2.1-1.3,3-2.2c2-2.1,3.1-4.8,3-7.6l0-0.3c-0.2-5.8-5.1-10.5-10.9-10.4c-6,0.1-11.6,1.7-16.6,4.9c-2.7-0.6-5.4-0.9-8.2-0.8
		c-6,0.2-11.7,2-16.7,5.2c-1.6,1.1-2.1,3.2-1,4.8c1.1,1.6,3.2,2.1,4.8,1c3.9-2.5,8.4-4,13.1-4.1c2.6-0.1,5.2,0.3,7.7,1l1.6,0.5
		l1.4-1c4.2-2.9,8.9-4.5,14-4.5c2,0,3.8,1.6,3.8,3.7c0,1-0.4,2-1.1,2.7c-0.7,0.7-1.6,1.1-2.6,1.1c-0.7,0-1.5,0.1-2.3,0.2l-6.1,0.9
		l3.8,4.8c1.2,1.5,2.2,3,3,4.7l0.7,1.5l1.6,0.4c6.5,1.5,12.1-1.2,12.8-1.5c1.8-1,4.1-0.3,5.1,1.5c0.1,0.1,0.1,0.3,0.2,0.4
		c0.7,1.8,0,3.8-1.7,4.7c-0.1,0-5.5,3-12.7,2.9l-3.3,0l-0.3,3.3c0,0.6-0.1,1.1-0.2,1.7L285,221l1.2,1.3c6.8,6.9,15.8,5.2,16.9,4.9
		c1.8-0.4,3.6,0.5,4.4,2.2c0.1,0.2,0.1,0.4,0.2,0.5c0.2,1,0.1,2-0.4,2.9c-0.5,0.9-1.3,1.5-2.3,1.7c-0.4,0.1-11,2.7-20.4-3.8
		l-2.6-1.8l-2,2.5c-0.3,0.4-0.6,0.8-1,1.1l-2.1,2.3l2,2.4c3.8,4.5,8.9,5.9,9.5,6.1c1.4,0.3,2.5,1.4,2.8,2.8c0.1,0.6,0.1,1.1,0,1.7
		c-0.5,2-2.5,3.3-4.5,2.8c-0.1,0-8.9-2.1-14.6-9.9l-1.5-2l-2.4,0.8c-0.3,0.1-0.7,0.2-1,0.3l-3.3,0.9l0.8,3.3c1,4.1,3.2,6.9,3.7,7.5
		c0.9,1.1,1.2,2.6,0.6,3.9c-0.2,0.5-0.6,1-1,1.4c-0.8,0.7-1.7,1-2.7,0.9c-1-0.1-1.9-0.5-2.6-1.3c0-0.1-4.9-5.6-5.9-13.7l-0.3-2.3
		l-2.3-0.6c-5.7-1.5-13.1-7.2-14.8-12.2c-1.4-0.7-3.6-2-4.8-3c-0.2,0,0.5,0.9,0.3,1c-1.8,0.6-2.9,2.5-2.3,4.4
		c2.2,7.1,10.2,13.4,17.6,16c1.8,8.8,6.6,14.5,7.2,15.2c1.9,2.2,4.5,3.4,7.4,3.6c0.2,0,0.5,0,0.7,0c2.6,0,5.1-0.9,7.1-2.7
		c1.2-1.1,2.2-2.5,2.9-4c0.6-1.4,0.8-2.8,0.8-4.2c4.4,2.6,8.1,3.6,8.8,3.7c5.8,1.3,11.6-2.3,12.9-8.1c0.4-1.6,0.4-3.3,0-4.9
		c-0.2-0.8-0.5-1.6-0.9-2.4c5.2,0.3,9-0.5,9.7-0.7c2.8-0.7,5.1-2.5,6.6-4.9C314.8,233.9,315.2,231,314.5,228.2"/>
	<g>
		<g>
			<path fill="#FFFFFF" d="M311,172.1c-2.8,0.4-4.2,0.6-7.1,1.1c0-6.1,0-9.1,0-15.2c-1.6,5-2.4,7.5-4,12.5
				c-1.6-4.4-2.4-6.5-3.9-10.9c0,6.1,0,9.1,0,15.2c-2.8,0.6-4.2,1-7,1.8c0-14.9,0-22.4,0-37.3c2.8-0.8,4.2-1.1,7-1.8
				c1.6,4.3,2.3,6.5,3.9,10.9c1.6-5,2.4-7.5,4-12.5c2.8-0.5,4.2-0.7,7.1-1.1C311,149.8,311,157.2,311,172.1z"/>
			<path fill="#FFFFFF" d="M338.1,164.6c-2.4,2.3-3.5,3.5-5.9,5.9c-4.3,0.1-6.4,0.2-10.6,0.5c-2.4-2.1-3.6-3.2-5.9-5.3
				c0-10.2,0-15.4,0-25.6c2.4-2.6,3.5-3.9,5.9-6.4c4.2-0.3,6.4-0.4,10.6-0.5c2.4,2.3,3.5,3.5,5.9,5.8c0,2.4,0,3.6,0,5.9
				c-2.8,0-4.3,0-7.1,0c0-1.1,0-1.6,0-2.7c-0.8-0.8-1.2-1.2-2-2c-1.6,0.1-2.4,0.1-4.1,0.2c-0.8,0.9-1.2,1.3-2,2.2
				c0,7.6,0,11.5,0,19.1c0.8,0.8,1.2,1.1,2,1.9c1.6-0.1,2.4-0.1,4.1-0.2c0.8-0.8,1.2-1.3,2-2.1c0-1.2,0-1.9,0-3.1
				c-2,0.1-3,0.1-4.9,0.2c0-2.8,0-4.2,0-7.1c4.8-0.3,7.2-0.3,12.1-0.2C338.1,156.6,338.1,159.2,338.1,164.6z"/>
			<path fill="#FFFFFF" d="M353.5,171.3c-3-0.3-4.5-0.4-7.5-0.6c0-10.5,0-15.8,0-26.3c-1.2-0.1-1.8-0.1-3.1-0.2c0-1.7,0-2.6,0-4.4
				c0.1,0,0.2-0.1,0.3-0.1c1.7-0.4,3-1.1,3.9-2.2c0.9-1.1,1.5-2.3,1.7-3.7c0-0.1,0-0.2,0-0.4c1.9,0.1,2.8,0.2,4.7,0.4
				C353.5,149,353.5,156.4,353.5,171.3z"/>
			<path fill="#FFFFFF" d="M376.2,175.1c-4.7-1.1-7.1-1.6-11.9-2.4c-2.5-2.9-3.7-4.3-6.2-7.1c0-2.1,0-3.2,0-5.3
				c3,0.4,4.5,0.6,7.5,1.1c0,0.9,0,1.3,0,2.2c0.7,0.9,1.1,1.3,1.8,2.2c2.3,0.4,3.4,0.6,5.7,1.1c0.7-0.6,1.1-0.9,1.8-1.4
				c0-1.6,0-2.4,0-4c-0.7-0.8-1-1.2-1.6-2.1c-3.1-0.7-4.6-1-7.7-1.5c0-3,0-4.5,0-7.4c3.1,0.5,4.6,0.8,7.7,1.5c0.7-0.5,1-0.8,1.6-1.3
				c0-1.6,0-2.4,0-4c-0.7-0.9-1.1-1.3-1.8-2.2c-2.3-0.5-3.4-0.7-5.7-1.1c-0.7,0.6-1.1,0.9-1.8,1.5c0,0.9,0,1.4,0,2.3
				c-3-0.5-4.5-0.7-7.5-1.1c0-2.1,0-3.2,0-5.3c2.5-2.2,3.7-3.2,6.2-5.3c4.8,0.8,7.2,1.3,11.9,2.4c2.4,3.1,3.6,4.6,6,7.7
				c0,4,0,6.1,0,10.1c-0.9,0.7-1.4,1-2.3,1.7c0.9,1.2,1.4,1.7,2.3,2.9c0,4.1,0,6.1,0,10.2C379.9,172.3,378.6,173.2,376.2,175.1z"/>
		</g>
	</g>
</g>
</svg>
