<?xml version="1.0" encoding="utf-8"?>
<!-- Generator: Adobe Illustrator 16.0.0, SVG Export Plug-In . SVG Version: 6.00 Build 0)  -->
<!DOCTYPE svg PUBLIC "-//W3C//DTD SVG 1.1//EN" "http://www.w3.org/Graphics/SVG/1.1/DTD/svg11.dtd">
<svg version="1.1" id="Warstwa_1" xmlns="http://www.w3.org/2000/svg" xmlns:xlink="http://www.w3.org/1999/xlink" x="0px" y="0px"
	 width="47.497px" height="78.375px" viewBox="0 0 47.497 78.375" enable-background="new 0 0 47.497 78.375" xml:space="preserve">
<g>
	<path fill="#E0BC75" d="M4.629,72.156c-0.053,0-0.106-0.014-0.159-0.039c-0.199-0.094-0.292-0.332-0.199-0.531l0.636-1.418
		c0.093-0.199,0.332-0.292,0.53-0.199c0.199,0.093,0.292,0.332,0.199,0.53L5,71.917C4.934,72.063,4.788,72.156,4.629,72.156z"/>
	<path fill="#E0BC75" d="M15.409,72.712c-0.027,0-0.04,0-0.066,0c-0.212-0.039-0.358-0.238-0.332-0.45l0.478-2.903
		c0.04-0.213,0.238-0.358,0.451-0.332c0.212,0.04,0.358,0.238,0.332,0.451l-0.478,2.903C15.767,72.58,15.594,72.712,15.409,72.712z"
		/>
	<path fill="#E0BC75" d="M20.261,69.809H19.32c-0.225,0-0.397-0.173-0.397-0.397c0-0.226,0.172-0.398,0.397-0.398h0.941
		c0.226,0,0.398,0.173,0.398,0.398C20.659,69.636,20.487,69.809,20.261,69.809z"/>
	<path fill="#E0BC75" d="M18.233,69.809h-2.347c-0.225,0-0.397-0.173-0.397-0.397c0-0.226,0.172-0.398,0.397-0.398h2.347
		c0.225,0,0.397,0.173,0.397,0.398C18.63,69.636,18.445,69.809,18.233,69.809z"/>
	<path fill="#D3AA4C" d="M17.331,27.977c0,0,0.093-1.525,0.106-1.525l0,0c0,0-0.013,0-0.013-0.013c-0.013,0-0.04-0.013-0.053-0.026
		c-0.093-0.04-0.252-0.106-0.451-0.212c-0.199-0.106-0.464-0.238-0.742-0.424c-0.292-0.172-0.61-0.397-0.941-0.663
		c-0.345-0.252-0.689-0.57-1.048-0.915c-0.358-0.345-0.716-0.729-1.061-1.153c-0.345-0.425-0.689-0.875-1.021-1.353
		c-0.08-0.12-0.159-0.239-0.239-0.358c-0.08-0.12-0.159-0.252-0.225-0.372c-0.159-0.252-0.305-0.517-0.451-0.769
		c-0.292-0.517-0.557-1.061-0.796-1.591c-0.239-0.544-0.464-1.074-0.663-1.618c-0.053-0.133-0.106-0.265-0.146-0.398
		c-0.04-0.132-0.093-0.265-0.133-0.398c-0.08-0.265-0.186-0.517-0.252-0.769c-0.08-0.252-0.146-0.504-0.212-0.729
		c-0.066-0.239-0.12-0.478-0.186-0.689c-0.053-0.226-0.12-0.438-0.159-0.636c-0.04-0.212-0.093-0.398-0.133-0.583
		c-0.04-0.186-0.08-0.358-0.119-0.517c-0.026-0.159-0.053-0.305-0.08-0.438c-0.106-0.531-0.159-0.835-0.159-0.835l-6.47,1.591
		c0,0,0.106,0.345,0.305,0.941c0.053,0.146,0.106,0.318,0.159,0.504c0.066,0.186,0.133,0.372,0.212,0.583
		c0.08,0.212,0.159,0.424,0.239,0.663s0.186,0.477,0.292,0.729c0.106,0.252,0.199,0.517,0.318,0.782
		c0.12,0.266,0.239,0.544,0.372,0.835c0.119,0.292,0.278,0.583,0.411,0.875c0.066,0.146,0.146,0.305,0.225,0.451
		c0.08,0.146,0.159,0.305,0.239,0.451c0.318,0.61,0.676,1.233,1.061,1.856c0.385,0.623,0.796,1.246,1.247,1.843
		c0.225,0.305,0.451,0.597,0.689,0.889c0.119,0.146,0.239,0.292,0.358,0.438c0.119,0.146,0.252,0.278,0.371,0.424
		c0.491,0.557,1.008,1.074,1.525,1.565c0.53,0.477,1.061,0.928,1.591,1.313c0.53,0.385,1.047,0.743,1.551,1.034
		c0.504,0.292,0.981,0.543,1.418,0.743c0.438,0.199,0.835,0.358,1.18,0.464c0.345,0.12,0.623,0.199,0.822,0.239
		c0.119,0.026,0.212,0.053,0.265,0.066c0.093,0.013,0.093,0.013,0.093,0.013L17.331,27.977z"/>
	<path fill="#B78E3D" d="M16.496,30.854c-0.026,0-0.053-0.014-0.106-0.027l-0.278-0.066c-0.265-0.066-0.557-0.146-0.875-0.252
		c-0.372-0.12-0.782-0.292-1.233-0.491c-0.451-0.199-0.941-0.464-1.472-0.769c-0.477-0.278-1.008-0.623-1.618-1.074
		c-0.53-0.397-1.074-0.849-1.644-1.366c-0.61-0.57-1.114-1.087-1.564-1.604l-0.372-0.424l-0.358-0.451
		c-0.212-0.252-0.411-0.518-0.597-0.77l-0.106-0.146C5.849,22.832,5.424,22.222,5,21.533s-0.769-1.299-1.074-1.883l-0.08-0.146
		c-0.053-0.106-0.12-0.212-0.172-0.332l-0.226-0.451c-0.04-0.093-0.093-0.199-0.146-0.292c-0.093-0.199-0.199-0.398-0.278-0.597
		l-0.371-0.835c-0.08-0.186-0.159-0.371-0.226-0.543c-0.04-0.093-0.066-0.172-0.106-0.266c-0.026-0.079-0.066-0.159-0.093-0.238
		c-0.066-0.172-0.133-0.345-0.199-0.504L1.579,14.2l-0.676-2.068l7.717-1.883l0.358,1.883l0.238,1.087
		c0.027,0.132,0.066,0.252,0.093,0.384c0.026,0.08,0.04,0.159,0.066,0.226c0.027,0.08,0.04,0.172,0.066,0.252
		c0.04,0.146,0.066,0.292,0.119,0.424l0.226,0.742c0.04,0.146,0.093,0.305,0.146,0.464c0.026,0.093,0.066,0.186,0.093,0.278
		l0.132,0.385c0.027,0.08,0.053,0.159,0.093,0.239l0.053,0.146c0.172,0.478,0.385,0.981,0.65,1.578
		c0.265,0.57,0.517,1.074,0.769,1.551l0.106,0.172c0.106,0.199,0.212,0.384,0.332,0.57l0.225,0.372l0.239,0.358
		c0.265,0.411,0.583,0.822,0.981,1.299c0.345,0.411,0.689,0.782,1.021,1.101c0.397,0.384,0.716,0.649,0.994,0.875
		c0.332,0.252,0.623,0.464,0.888,0.623c0.266,0.159,0.504,0.305,0.703,0.398c0.225,0.106,0.358,0.172,0.411,0.186l0.716,0.292
		l-0.292,0.491c-0.013,0.226-0.053,0.716-0.066,0.968l-0.013,0.292c0,0.093-0.027,0.186-0.04,0.252h0.013l-0.888,2.851
		L16.496,30.854z M16.761,27.526c0.014-0.212,0.027-0.491,0.053-0.703c-0.053-0.026-0.106-0.053-0.159-0.079
		c-0.225-0.106-0.49-0.266-0.795-0.451c-0.292-0.186-0.636-0.411-0.995-0.689c-0.318-0.238-0.663-0.543-1.1-0.955
		c-0.358-0.345-0.729-0.743-1.114-1.193c-0.424-0.517-0.756-0.968-1.048-1.405l-0.199-0.305l-0.278-0.451
		c-0.133-0.212-0.252-0.424-0.372-0.623l-0.106-0.172c-0.278-0.504-0.543-1.034-0.822-1.644c-0.279-0.61-0.491-1.154-0.676-1.645
		l-0.053-0.132c-0.04-0.093-0.066-0.172-0.106-0.278l-0.133-0.398c-0.026-0.093-0.053-0.172-0.093-0.265
		c-0.053-0.172-0.119-0.345-0.172-0.517L8.381,14.89c-0.053-0.159-0.093-0.318-0.133-0.477c-0.026-0.08-0.04-0.159-0.066-0.252
		c-0.013-0.08-0.04-0.159-0.053-0.226c-0.04-0.146-0.08-0.292-0.106-0.424l-0.252-1.1l-0.133-0.677L2.401,13.02l0.265,0.822
		l0.451,1.233c0.053,0.146,0.12,0.305,0.186,0.464c0.027,0.08,0.066,0.159,0.093,0.239c0.04,0.093,0.08,0.186,0.106,0.278
		c0.066,0.159,0.132,0.332,0.212,0.504l0.372,0.849c0.079,0.172,0.159,0.358,0.265,0.557c0.053,0.106,0.093,0.199,0.146,0.292
		l0.212,0.438c0.053,0.093,0.106,0.199,0.159,0.292l0.08,0.146c0.292,0.557,0.636,1.153,1.034,1.816
		c0.411,0.663,0.809,1.247,1.22,1.803l0.106,0.146c0.186,0.252,0.358,0.491,0.557,0.716l0.238,0.292l0.464,0.544
		c0.424,0.49,0.915,0.981,1.485,1.512c0.53,0.477,1.047,0.915,1.538,1.272c0.57,0.411,1.061,0.743,1.499,0.995
		c0.49,0.292,0.955,0.53,1.366,0.703c0.411,0.186,0.795,0.332,1.127,0.451c0.252,0.08,0.451,0.146,0.597,0.186l0.53-1.697
		C16.748,27.791,16.761,27.671,16.761,27.526z"/>
	<path fill="#D3AA4C" d="M5.106,6.099c0,0,1.578-3.792,2.651-0.65c0.424,1.233-1.551,1.896-2.042,2.228"/>
	<path fill="#B78E3D" d="M5.716,8.141c0.093,0,0.186-0.027,0.265-0.08c0.066-0.053,0.225-0.12,0.371-0.212
		C7.095,7.465,8.66,6.656,8.196,5.29C8.063,4.906,7.679,3.765,6.777,3.726c-0.53-0.013-1.034,0.358-1.551,1.154
		c-0.318,0.503-0.53,1.007-0.543,1.034c-0.093,0.238,0.013,0.504,0.252,0.61c0.238,0.093,0.503-0.013,0.61-0.252l0,0
		c0.345-0.835,0.928-1.604,1.193-1.604l0,0c0.093,0,0.331,0.199,0.57,0.928c0.186,0.557-0.583,1.021-1.392,1.432
		C5.716,7.133,5.557,7.213,5.438,7.292C5.226,7.438,5.172,7.73,5.318,7.942C5.424,8.075,5.57,8.141,5.716,8.141z"/>
	<circle fill="#D3AA4C" cx="4.457" cy="9.268" r="3.991"/>
	<path fill="#B78E3D" d="M0.863,11.907c-1.458-1.976-1.021-4.773,0.955-6.232c0.769-0.57,1.684-0.862,2.639-0.862
		c1.418,0,2.758,0.676,3.593,1.816c0.703,0.955,0.994,2.135,0.809,3.315c-0.186,1.18-0.809,2.214-1.763,2.917
		c-0.769,0.57-1.684,0.862-2.639,0.862C3.051,13.723,1.712,13.047,0.863,11.907z M2.375,6.417C0.81,7.571,0.465,9.785,1.619,11.35
		c0.663,0.902,1.724,1.445,2.851,1.445c0.756,0,1.472-0.239,2.082-0.689c0.756-0.557,1.26-1.379,1.406-2.307
		c0.146-0.928-0.08-1.87-0.65-2.625C6.644,6.271,5.583,5.728,4.457,5.728C3.701,5.741,2.985,5.979,2.375,6.417z"/>
	<path fill="#D3AA4C" d="M3.25,5.914c0,0,1.578-3.792,2.652-0.65C6.326,6.497,4.351,7.16,3.86,7.491"/>
	<path fill="#B78E3D" d="M3.86,7.955c0.093,0,0.186-0.026,0.265-0.08c0.066-0.053,0.226-0.119,0.371-0.212
		C5.305,7.252,6.803,6.47,6.339,5.104C6.207,4.72,5.822,3.58,4.92,3.54C4.39,3.527,3.886,3.898,3.369,4.693
		c-0.318,0.504-0.53,1.008-0.543,1.034c-0.093,0.239,0.013,0.504,0.252,0.61c0.239,0.093,0.504-0.013,0.61-0.251l0,0
		C4.032,5.25,4.616,4.481,4.881,4.481l0,0c0.093,0,0.332,0.199,0.57,0.928c0.186,0.557-0.583,1.021-1.393,1.432
		C3.86,6.948,3.701,7.027,3.582,7.107c-0.212,0.146-0.265,0.438-0.12,0.649C3.568,7.889,3.701,7.955,3.86,7.955z"/>
	<path fill="#D3AA4C" d="M1.619,6.55c0,0,1.578-3.792,2.652-0.65C4.695,7.133,2.72,7.796,2.229,8.127"/>
	<path fill="#B78E3D" d="M2.229,8.605c0.093,0,0.186-0.026,0.265-0.08C2.561,8.472,2.72,8.406,2.865,8.313
		c0.743-0.385,2.307-1.18,1.843-2.559C4.576,5.37,4.191,4.229,3.29,4.19c-0.53-0.014-1.034,0.358-1.551,1.153
		C1.42,5.847,1.208,6.351,1.195,6.377c-0.093,0.239,0.013,0.504,0.252,0.61c0.239,0.093,0.504-0.013,0.61-0.252
		C2.401,5.9,2.985,5.131,3.25,5.131l0,0c0.093,0,0.332,0.199,0.57,0.928C4.006,6.616,3.237,7.08,2.428,7.491
		C2.229,7.597,2.07,7.677,1.951,7.756c-0.212,0.146-0.265,0.438-0.12,0.65C1.938,8.525,2.083,8.605,2.229,8.605z"/>
	<path fill="#D3AA4C" d="M0.505,8.764c0,0,0.093-4.11,2.228-1.564c0.835,0.994-0.769,2.333-1.101,2.811"/>
	<path fill="#B78E3D" d="M1.632,10.488c0.146,0,0.292-0.066,0.384-0.199c0.053-0.066,0.159-0.199,0.279-0.332
		c0.557-0.637,1.724-1.936,0.795-3.05C2.839,6.603,2.057,5.675,1.195,5.966C0.691,6.139,0.359,6.683,0.174,7.597
		C0.055,8.181,0.041,8.738,0.041,8.751c0,0.252,0.199,0.464,0.451,0.477c0.252,0,0.464-0.199,0.477-0.451l0,0
		c0.027-0.902,0.278-1.843,0.544-1.936c0.08-0.026,0.384,0.066,0.875,0.663c0.384,0.451-0.172,1.154-0.769,1.83
		C1.473,9.506,1.354,9.639,1.274,9.758c-0.146,0.212-0.093,0.504,0.119,0.65C1.46,10.461,1.553,10.488,1.632,10.488z"/>
	<path fill="#D3AA4C" d="M7.135,6.311C6.048,5.158,4.868,6.351,4.337,7.16c-0.292,0.438-0.583,1.379-0.08,1.79
		c0.438,0.358,1.061,0.013,1.445-0.265"/>
	<path fill="#B78E3D" d="M4.708,9.573c0.332,0,0.756-0.132,1.273-0.517C6.193,8.91,6.233,8.618,6.074,8.406
		c-0.146-0.212-0.438-0.252-0.65-0.093C5.106,8.539,4.722,8.738,4.536,8.592c-0.212-0.172-0.08-0.795,0.172-1.167
		c0.345-0.517,0.888-1.074,1.379-1.114C6.326,6.285,6.551,6.404,6.79,6.643c0.172,0.186,0.464,0.199,0.65,0.013
		c0.186-0.172,0.199-0.464,0.013-0.649c-0.543-0.57-1.087-0.65-1.445-0.61C5,5.489,4.218,6.497,3.939,6.934
		c-0.424,0.637-0.703,1.817,0.013,2.4C4.112,9.44,4.351,9.573,4.708,9.573z"/>
	<polygon fill="#D3AA4C" points="9.614,14.519 8.806,10.488 1.155,12.437 2.401,16.428 	"/>
	<path fill="#B78E3D" d="M8.858,9.891c0.093,0.013,0.186,0.04,0.265,0.093c0.133,0.093,0.239,0.226,0.265,0.385l0.809,4.031
		c0.066,0.305-0.133,0.61-0.438,0.689l-7.213,1.922c-0.305,0.08-0.624-0.093-0.729-0.397l-1.246-3.991
		c-0.053-0.159-0.027-0.332,0.053-0.464c0.08-0.146,0.212-0.252,0.372-0.292l7.65-1.962C8.726,9.891,8.792,9.878,8.858,9.891z
		 M8.925,14.081l-0.57-2.864l-6.444,1.644l0.889,2.851L8.925,14.081z"/>
	<path fill="#D3AA4C" d="M28.548,59.228h6.1c0-9.188-1.645-13.523-1.711-13.869l-5.966,1.233l2.983-0.623l-2.983,0.61
		C26.971,46.685,28.548,50.703,28.548,59.228z"/>
	<path fill="#B78E3D" d="M35.244,59.825h-7.292v-0.597c0-8.445-1.564-12.437-1.578-12.517l-0.119-0.583l7.146-1.472l0.119,0.583
		c0.066,0.345,1.724,4.747,1.724,13.988V59.825z M29.132,58.632h4.906c-0.054-7.585-1.207-10.582-1.578-12.557l-4.813,0.994
		C28.005,48.992,29.079,51.658,29.132,58.632z"/>
	<path fill="#D3AA4C" d="M23.841,41.474h1.287l8.552,0.478c0,0,1.485,2.439,1.485,8.274c-2.4,0-9.136,0-9.136,0l-0.451-4.43
		l-1.259,0.385l-0.146-0.039C24.306,43.343,24.187,44.272,23.841,41.474z"/>
	<path fill="#B78E3D" d="M24.187,45.519l0.119,0.039l1.736-0.518l0.465,4.588h8.088c-0.08-4.641-1.048-5.675-1.365-7.094
		l-8.129-0.45h-1.193c-0.04-0.397-0.093-0.796-0.146-1.193h1.353l8.977,0.49l0.105,0.425c0.066,0.252,1.498,2.572,1.498,8.419v0.597
		H25.525l-0.425-4.27c0,0-0.385,0.119-0.795,0.119c-0.066,0-0.119,0-0.186-0.013C24.159,46.288,24.173,45.903,24.187,45.519z"/>
	<rect x="27.515" y="61.032" fill="#D3AA4C" width="8.313" height="1.591"/>
	<path fill="#B78E3D" d="M35.814,63.087h-8.313c-0.252,0-0.465-0.213-0.465-0.465v-1.591c0-0.252,0.213-0.464,0.465-0.464h8.313
		c0.252,0,0.464,0.212,0.464,0.464v1.591C36.278,62.875,36.079,63.087,35.814,63.087z M27.978,62.159h7.386v-0.663h-7.386V62.159z"
		/>
	<rect x="27.515" y="55.9" fill="#D3AA4C" width="8.313" height="5.132"/>
	<path fill="#B78E3D" d="M35.814,61.496h-8.313c-0.252,0-0.465-0.212-0.465-0.464V55.9c0-0.252,0.213-0.464,0.465-0.464h8.313
		c0.252,0,0.464,0.212,0.464,0.464v5.132C36.278,61.284,36.079,61.496,35.814,61.496z M27.978,60.568h7.386v-4.203h-7.386V60.568z"
		/>
	<path fill="#D3AA4C" d="M29.716,57.796v-1.459c0-1.021,0.821-1.843,1.842-1.843l0,0c1.021,0,1.844,0.822,1.844,1.843v1.459"/>
	<path fill="#B78E3D" d="M27.7,60.713l-0.371-0.849l1.922-0.861v-3.342h0.928v3.646c0,0.186-0.105,0.345-0.277,0.424L27.7,60.713z"
		/>
	<path fill="#B78E3D" d="M35.403,60.713l-2.201-0.981c-0.172-0.079-0.278-0.238-0.278-0.424v-3.646h0.929v3.354l1.922,0.862
		L35.403,60.713z"/>
	<rect x="29.716" y="58.843" fill="#B78E3D" width="3.672" height="0.929"/>
	<path fill="#B78E3D" d="M33.853,57.796h-0.929v-1.459c0-0.756-0.623-1.379-1.379-1.379s-1.379,0.623-1.379,1.379v1.459h-0.929
		v-1.459c0-1.272,1.035-2.307,2.308-2.307s2.308,1.034,2.308,2.307V57.796z"/>
	<path fill="#D3AA4C" d="M20.036,59.228h-6.1c0-9.188,1.645-13.523,1.71-13.869l5.967,1.233l-2.983-0.623l2.983,0.61
		C21.614,46.685,20.036,50.703,20.036,59.228z"/>
	<path fill="#B78E3D" d="M13.34,59.228c0-9.241,1.657-13.644,1.724-13.988l0.119-0.583l7.146,1.472l-0.119,0.583
		c-0.013,0.08-1.578,4.071-1.578,12.517v0.597H13.34V59.228z M20.924,47.07l-4.813-0.994c-0.371,1.988-1.525,4.972-1.578,12.557
		h4.906C19.506,51.658,20.58,48.992,20.924,47.07z"/>
	<path fill="#D3AA4C" d="M24.743,41.474h-1.286l-8.552,0.478c0,0-1.485,2.439-1.485,8.274c2.399,0,9.135,0,9.135,0l0.451-4.43
		l1.26,0.385l0.146-0.039C24.278,43.343,24.385,44.272,24.743,41.474z"/>
	<path fill="#B78E3D" d="M24.385,45.519l-0.119,0.039l-1.737-0.518l-0.464,4.588h-8.088c0.08-4.641,1.047-5.675,1.366-7.094
		l8.128-0.45h1.193c0.04-0.397,0.094-0.796,0.146-1.193h-1.353l-8.977,0.49l-0.106,0.425c-0.066,0.252-1.499,2.572-1.499,8.419
		v0.597h10.17l0.424-4.27c0,0,0.384,0.119,0.795,0.119c0.066,0,0.119,0,0.186-0.013C24.425,46.288,24.398,45.903,24.385,45.519z"/>
	<rect x="12.757" y="61.032" fill="#D3AA4C" width="8.313" height="1.591"/>
	<path fill="#B78E3D" d="M21.07,63.087h-8.313c-0.252,0-0.464-0.213-0.464-0.465v-1.591c0-0.252,0.212-0.464,0.464-0.464h8.313
		c0.252,0,0.464,0.212,0.464,0.464v1.591C21.534,62.875,21.322,63.087,21.07,63.087z M13.221,62.159h7.385v-0.663h-7.385V62.159z"/>
	<rect x="12.757" y="55.9" fill="#D3AA4C" width="8.313" height="5.132"/>
	<path fill="#B78E3D" d="M21.07,61.496h-8.313c-0.252,0-0.464-0.212-0.464-0.464V55.9c0-0.252,0.212-0.464,0.464-0.464h8.313
		c0.252,0,0.464,0.212,0.464,0.464v5.132C21.534,61.284,21.322,61.496,21.07,61.496z M13.221,60.568h7.385v-4.203h-7.385V60.568z"/>
	<path fill="#D3AA4C" d="M18.869,57.796v-1.459c0-1.021-0.822-1.843-1.843-1.843l0,0c-1.021,0-1.843,0.822-1.843,1.843v1.459"/>
	<path fill="#B78E3D" d="M20.885,60.713l-2.201-0.981c-0.172-0.079-0.278-0.238-0.278-0.424v-3.646h0.928v3.354l1.923,0.862
		L20.885,60.713z"/>
	<path fill="#B78E3D" d="M13.181,60.713l-0.372-0.849l1.923-0.861v-3.342h0.928v3.646c0,0.186-0.106,0.345-0.279,0.424
		L13.181,60.713z"/>
	<rect x="15.196" y="58.843" fill="#B78E3D" width="3.673" height="0.929"/>
	<path fill="#B78E3D" d="M14.732,57.796h0.928v-1.459c0-0.756,0.623-1.379,1.379-1.379s1.379,0.623,1.379,1.379v1.459h0.928v-1.459
		c0-1.272-1.034-2.307-2.307-2.307s-2.307,1.034-2.307,2.307V57.796z"/>
	<path fill="#D3AA4C" d="M30.179,27.977c0,0-0.092-1.525-0.105-1.525l0,0c0,0,0.014,0,0.014-0.013c0.013,0,0.039-0.013,0.053-0.026
		c0.093-0.04,0.252-0.106,0.451-0.212c0.198-0.106,0.463-0.238,0.742-0.424c0.291-0.172,0.609-0.397,0.941-0.663
		c0.344-0.252,0.689-0.57,1.047-0.915c0.358-0.345,0.717-0.729,1.061-1.153c0.346-0.425,0.689-0.875,1.021-1.353
		c0.08-0.12,0.159-0.239,0.238-0.358c0.08-0.12,0.16-0.252,0.226-0.372c0.159-0.252,0.306-0.517,0.451-0.769
		c0.292-0.517,0.557-1.061,0.796-1.591c0.238-0.544,0.463-1.074,0.662-1.618c0.053-0.133,0.106-0.265,0.146-0.398
		c0.039-0.132,0.092-0.265,0.133-0.398c0.079-0.265,0.186-0.517,0.252-0.769c0.079-0.252,0.146-0.504,0.211-0.729
		c0.066-0.239,0.12-0.478,0.186-0.689c0.054-0.226,0.12-0.438,0.16-0.636c0.039-0.212,0.092-0.398,0.133-0.583
		c0.039-0.186,0.079-0.358,0.119-0.517c0.026-0.159,0.053-0.305,0.079-0.438c0.106-0.531,0.159-0.835,0.159-0.835l6.471,1.591
		c0,0-0.106,0.345-0.305,0.941c-0.054,0.146-0.106,0.318-0.16,0.504c-0.066,0.186-0.132,0.372-0.211,0.583
		c-0.08,0.212-0.16,0.424-0.239,0.663s-0.186,0.477-0.292,0.729c-0.105,0.252-0.199,0.517-0.318,0.782
		c-0.119,0.266-0.238,0.544-0.371,0.835c-0.119,0.292-0.278,0.583-0.41,0.875c-0.066,0.146-0.146,0.305-0.227,0.451
		c-0.079,0.146-0.158,0.305-0.238,0.451c-0.318,0.61-0.676,1.233-1.061,1.856c-0.385,0.623-0.795,1.246-1.246,1.843
		c-0.226,0.305-0.451,0.597-0.689,0.889c-0.119,0.146-0.239,0.292-0.358,0.438c-0.119,0.146-0.252,0.278-0.371,0.424
		c-0.491,0.557-1.008,1.074-1.524,1.565c-0.531,0.477-1.061,0.928-1.592,1.313c-0.53,0.385-1.047,0.743-1.551,1.034
		c-0.504,0.292-0.981,0.543-1.419,0.743c-0.438,0.199-0.835,0.358-1.181,0.464c-0.344,0.12-0.623,0.199-0.822,0.239
		c-0.119,0.026-0.211,0.053-0.265,0.066c-0.093,0.013-0.093,0.013-0.093,0.013L30.179,27.977z"/>
	<path fill="#B78E3D" d="M30.484,31l-0.889-2.851h0.013c-0.025-0.066-0.039-0.159-0.039-0.252l-0.014-0.292
		c-0.013-0.265-0.053-0.743-0.066-0.968l-0.291-0.49l0.716-0.292c0.054-0.026,0.198-0.08,0.411-0.186
		c0.199-0.093,0.438-0.226,0.703-0.397c0.265-0.159,0.557-0.372,0.888-0.624c0.278-0.212,0.597-0.491,0.995-0.875
		c0.331-0.318,0.676-0.689,1.021-1.101c0.397-0.477,0.702-0.901,0.981-1.299l0.238-0.358l0.226-0.372
		c0.119-0.186,0.226-0.371,0.331-0.57l0.106-0.172c0.265-0.464,0.517-0.981,0.769-1.551c0.266-0.583,0.478-1.101,0.65-1.578
		l0.053-0.146c0.026-0.08,0.066-0.159,0.093-0.239l0.133-0.385c0.026-0.093,0.065-0.186,0.093-0.278
		c0.053-0.159,0.105-0.318,0.146-0.464l0.226-0.743c0.039-0.146,0.08-0.278,0.119-0.424c0.027-0.093,0.04-0.172,0.066-0.252
		c0.014-0.066,0.04-0.146,0.066-0.226c0.039-0.132,0.066-0.265,0.093-0.384l0.239-1.087l0.357-1.883l7.717,1.883l-0.676,2.068
		l-0.451,1.247c-0.066,0.159-0.133,0.332-0.199,0.504c-0.026,0.08-0.066,0.159-0.093,0.239c-0.04,0.093-0.065,0.172-0.106,0.265
		c-0.066,0.172-0.146,0.358-0.225,0.543l-0.371,0.835c-0.08,0.199-0.186,0.398-0.279,0.597c-0.053,0.093-0.092,0.186-0.146,0.292
		l-0.226,0.451c-0.053,0.119-0.119,0.225-0.172,0.331l-0.08,0.146c-0.305,0.583-0.662,1.207-1.074,1.883
		c-0.424,0.689-0.848,1.299-1.272,1.883l-0.106,0.146c-0.186,0.252-0.384,0.517-0.596,0.769l-0.358,0.451l-0.371,0.424
		c-0.451,0.517-0.968,1.034-1.565,1.604c-0.557,0.518-1.113,0.968-1.644,1.366c-0.61,0.451-1.14,0.795-1.618,1.074
		c-0.529,0.305-1.021,0.57-1.471,0.769c-0.451,0.199-0.862,0.371-1.233,0.491c-0.318,0.106-0.623,0.199-0.875,0.252l-0.278,0.066
		c-0.053,0.014-0.08,0.014-0.106,0.027L30.484,31z M30.763,27.857l0.53,1.697c0.146-0.04,0.358-0.106,0.597-0.186
		c0.332-0.106,0.703-0.265,1.127-0.451c0.411-0.186,0.875-0.424,1.365-0.703c0.438-0.252,0.929-0.583,1.499-0.995
		c0.49-0.371,1.007-0.795,1.538-1.273c0.57-0.53,1.061-1.034,1.484-1.511l0.465-0.544l0.238-0.292
		c0.199-0.239,0.371-0.478,0.557-0.716l0.106-0.146c0.411-0.543,0.809-1.14,1.22-1.803c0.398-0.663,0.742-1.247,1.034-1.816
		l0.079-0.146c0.054-0.093,0.106-0.199,0.16-0.292l0.211-0.438c0.041-0.093,0.094-0.199,0.146-0.292
		c0.093-0.199,0.186-0.371,0.266-0.557l0.371-0.849c0.079-0.172,0.146-0.332,0.212-0.504c0.04-0.093,0.079-0.186,0.106-0.278
		c0.025-0.08,0.066-0.159,0.092-0.239c0.066-0.159,0.133-0.318,0.186-0.464l0.451-1.233l0.266-0.822l-5.237-1.286l-0.133,0.676
		l-0.252,1.101c-0.026,0.146-0.066,0.278-0.106,0.424c-0.013,0.08-0.039,0.146-0.053,0.226c-0.026,0.093-0.039,0.172-0.066,0.252
		c-0.039,0.146-0.079,0.305-0.133,0.477l-0.212,0.729c-0.053,0.172-0.106,0.345-0.173,0.517c-0.025,0.08-0.053,0.172-0.092,0.265
		l-0.133,0.397c-0.04,0.106-0.066,0.186-0.105,0.279l-0.054,0.132c-0.186,0.491-0.397,1.034-0.677,1.645
		c-0.277,0.61-0.543,1.14-0.821,1.644l-0.106,0.172c-0.119,0.212-0.238,0.424-0.371,0.623l-0.278,0.451l-0.199,0.305
		c-0.292,0.438-0.623,0.888-1.048,1.405c-0.384,0.451-0.756,0.849-1.113,1.193c-0.438,0.411-0.782,0.716-1.101,0.955
		c-0.358,0.279-0.689,0.517-0.994,0.689c-0.306,0.186-0.57,0.332-0.796,0.451c-0.053,0.027-0.105,0.053-0.158,0.08
		c0.013,0.225,0.025,0.49,0.053,0.703C30.749,27.671,30.763,27.791,30.763,27.857z"/>
	<path fill="#D3AA4C" d="M33.202,35.136l0.133-10.965l-7.797-3.991c-0.305-0.397-0.822,1.419-1.684,1.578
		c-0.862-0.146-1.379-1.976-1.684-1.578l-7.796,4.455l0.504,10.501c0,0-2.506,8.128-2.506,12.186c3.951,0,19.65,0,23.615,0
		C35.974,43.251,33.202,35.136,33.202,35.136z"/>
	<path fill="#B78E3D" d="M36.57,47.918H11.762v-0.597c0-3.912,2.201-11.271,2.506-12.265l-0.517-10.767l8.048-4.588
		c0.133-0.119,0.292-0.172,0.464-0.172c0.451,0,0.703,0.384,0.981,0.822c0.133,0.212,0.398,0.623,0.61,0.769
		c0.199-0.146,0.465-0.557,0.609-0.769c0.279-0.438,0.531-0.822,0.982-0.822c0.158,0,0.318,0.053,0.45,0.159l8.048,4.124
		l-0.133,11.23c0.332,0.981,2.771,8.366,2.771,12.278v0.597H36.57z M12.982,46.725h22.382c-0.239-4.084-2.705-11.323-2.732-11.403
		l-0.039-0.093v-0.106l0.133-10.594l-7.188-3.673c-0.025,0.04-0.053,0.093-0.079,0.132c-0.331,0.518-0.782,1.233-1.512,1.353
		l-0.106,0.013l-0.106-0.013c-0.716-0.132-1.167-0.835-1.512-1.353c-0.026-0.04-0.053-0.079-0.08-0.119l-7.187,4.097l0.491,10.25
		l-0.026,0.106C15.422,35.388,13.194,42.641,12.982,46.725z"/>
	<path fill="#D3AA4C" d="M29.052,20.697c0,4.349-2.359,8.95-5.264,8.95c-2.903,0-5.264-4.601-5.264-8.95s2.36-7.876,5.264-7.876
		C26.692,12.821,29.052,16.348,29.052,20.697z"/>
	<path fill="#B78E3D" d="M23.788,30.244c-1.591,0-3.103-1.113-4.243-3.155c-1.034-1.83-1.618-4.164-1.618-6.404
		c0-2.214,0.583-4.309,1.644-5.9c1.114-1.657,2.612-2.572,4.216-2.572c1.604,0,3.116,0.915,4.217,2.572
		c1.061,1.578,1.645,3.673,1.645,5.9c0,2.241-0.584,4.574-1.618,6.404C26.878,29.13,25.38,30.244,23.788,30.244z M23.788,13.418
		c-2.572,0-4.667,3.262-4.667,7.279c0,2.042,0.53,4.164,1.458,5.821c0.902,1.618,2.068,2.546,3.195,2.546
		c1.126,0,2.294-0.928,3.196-2.546c0.928-1.657,1.458-3.779,1.458-5.821C28.456,16.68,26.36,13.418,23.788,13.418z"/>
	<path fill="#D3AA4C" d="M42.404,6.099c0,0-1.578-3.792-2.651-0.65c-0.425,1.233,1.551,1.896,2.041,2.228"/>
	<path fill="#B78E3D" d="M41.794,8.141c-0.093,0-0.186-0.027-0.266-0.08c-0.065-0.053-0.225-0.12-0.371-0.212
		c-0.742-0.384-2.307-1.193-1.842-2.559c0.132-0.384,0.517-1.525,1.418-1.564c0.53-0.013,1.034,0.358,1.551,1.154
		c0.318,0.503,0.531,1.007,0.545,1.034c0.092,0.238-0.014,0.504-0.252,0.61c-0.239,0.093-0.504-0.013-0.611-0.252l0,0
		c-0.344-0.835-0.928-1.604-1.192-1.604l0,0c-0.093,0-0.331,0.199-0.57,0.928c-0.186,0.557,0.583,1.021,1.392,1.432
		c0.199,0.106,0.358,0.186,0.479,0.265c0.211,0.146,0.265,0.438,0.119,0.649C42.086,8.075,41.94,8.141,41.794,8.141z"/>
	<circle fill="#D3AA4C" cx="43.04" cy="9.268" r="3.991"/>
	<path fill="#B78E3D" d="M43.04,13.723c-0.954,0-1.869-0.305-2.639-0.862c-0.954-0.703-1.59-1.737-1.763-2.917
		c-0.186-1.18,0.106-2.36,0.809-3.315c0.835-1.14,2.175-1.816,3.593-1.816c0.955,0,1.87,0.305,2.639,0.862
		c1.977,1.458,2.414,4.243,0.955,6.232C45.798,13.047,44.46,13.723,43.04,13.723z M43.054,5.741c-1.127,0-2.188,0.543-2.851,1.445
		c-0.558,0.756-0.782,1.697-0.649,2.625c0.146,0.928,0.637,1.75,1.405,2.307c0.61,0.451,1.325,0.689,2.081,0.689
		c1.127,0,2.188-0.543,2.852-1.445c1.153-1.564,0.809-3.779-0.756-4.932C44.525,5.979,43.81,5.741,43.054,5.741z"/>
	<path fill="#D3AA4C" d="M44.261,5.914c0,0-1.578-3.792-2.652-0.65c-0.424,1.233,1.551,1.896,2.042,2.228"/>
	<path fill="#B78E3D" d="M43.65,7.955c-0.093,0-0.186-0.026-0.265-0.08c-0.066-0.053-0.227-0.119-0.371-0.212
		c-0.81-0.411-2.308-1.193-1.844-2.559C41.304,4.72,41.688,3.58,42.59,3.54c0.53-0.013,1.034,0.358,1.552,1.153
		c0.318,0.504,0.529,1.008,0.543,1.034c0.093,0.239-0.014,0.504-0.252,0.61c-0.238,0.093-0.504-0.013-0.609-0.251l0,0
		c-0.346-0.835-0.929-1.604-1.193-1.604l0,0c-0.094,0-0.332,0.199-0.57,0.928c-0.186,0.557,0.583,1.021,1.393,1.432
		c0.198,0.106,0.357,0.186,0.477,0.266c0.213,0.146,0.266,0.438,0.119,0.649C43.942,7.889,43.796,7.955,43.65,7.955z"/>
	<path fill="#D3AA4C" d="M45.892,6.55c0,0-1.578-3.792-2.652-0.65c-0.424,1.233,1.551,1.896,2.042,2.228"/>
	<path fill="#B78E3D" d="M45.281,8.605c-0.093,0-0.186-0.026-0.265-0.08c-0.066-0.053-0.226-0.119-0.371-0.212
		c-0.743-0.385-2.308-1.18-1.844-2.559c0.133-0.385,0.518-1.525,1.419-1.564c0.53-0.014,1.034,0.358,1.552,1.153
		c0.318,0.504,0.529,1.008,0.543,1.034c0.093,0.239-0.014,0.504-0.252,0.61c-0.238,0.093-0.504-0.013-0.609-0.252
		c-0.346-0.835-0.929-1.604-1.193-1.604l0,0c-0.094,0-0.332,0.199-0.57,0.928c-0.186,0.557,0.583,1.021,1.393,1.432
		c0.198,0.106,0.357,0.186,0.477,0.265c0.213,0.146,0.266,0.438,0.119,0.65C45.573,8.525,45.427,8.605,45.281,8.605z"/>
	<path fill="#D3AA4C" d="M47.005,8.764c0,0-0.093-4.11-2.228-1.564c-0.835,0.994,0.769,2.333,1.101,2.811"/>
	<path fill="#B78E3D" d="M45.878,10.488c-0.146,0-0.291-0.066-0.385-0.199c-0.053-0.066-0.158-0.199-0.278-0.332
		c-0.557-0.637-1.724-1.936-0.796-3.05c0.252-0.305,1.035-1.233,1.896-0.941c0.504,0.172,0.836,0.716,1.021,1.631
		c0.119,0.583,0.133,1.141,0.133,1.154c0,0.252-0.199,0.464-0.451,0.477c-0.252,0-0.465-0.199-0.478-0.451l0,0
		c-0.026-0.902-0.278-1.843-0.544-1.936c-0.079-0.026-0.385,0.066-0.875,0.663c-0.385,0.451,0.172,1.154,0.77,1.83
		c0.146,0.172,0.265,0.305,0.344,0.424c0.146,0.212,0.094,0.504-0.119,0.65C46.05,10.461,45.958,10.488,45.878,10.488z"/>
	<path fill="#D3AA4C" d="M40.376,6.311c1.087-1.153,2.267,0.04,2.797,0.849c0.292,0.438,0.584,1.379,0.08,1.79
		c-0.438,0.358-1.061,0.013-1.445-0.265"/>
	<path fill="#B78E3D" d="M42.802,9.573c-0.332,0-0.756-0.132-1.273-0.517c-0.211-0.146-0.251-0.438-0.092-0.649
		c0.146-0.212,0.438-0.252,0.649-0.093c0.318,0.225,0.702,0.424,0.888,0.278c0.213-0.172,0.08-0.795-0.172-1.167
		c-0.345-0.517-0.889-1.074-1.379-1.114c-0.238-0.026-0.464,0.093-0.703,0.332c-0.172,0.186-0.463,0.199-0.649,0.013
		c-0.186-0.172-0.198-0.464-0.013-0.649c0.543-0.57,1.087-0.65,1.445-0.61c1.008,0.093,1.789,1.101,2.068,1.538
		c0.424,0.637,0.702,1.817-0.014,2.4C43.398,9.44,43.146,9.573,42.802,9.573z"/>
	<polygon fill="#D3AA4C" points="37.896,14.519 38.705,10.488 46.355,12.437 45.108,16.428 	"/>
	<path fill="#B78E3D" d="M38.851,9.904l7.65,1.962c0.159,0.04,0.292,0.146,0.371,0.292c0.08,0.146,0.094,0.318,0.053,0.464
		l-1.246,3.991c-0.092,0.305-0.41,0.477-0.729,0.397l-7.213-1.922c-0.305-0.08-0.491-0.385-0.438-0.689l0.809-4.031
		c0.026-0.159,0.133-0.305,0.266-0.385c0.079-0.053,0.172-0.08,0.265-0.093C38.718,9.878,38.784,9.891,38.851,9.904z M44.712,15.712
		l0.888-2.851l-6.444-1.644l-0.57,2.864L44.712,15.712z"/>
	<rect x="2.401" y="73.083" fill="#D3AA4C" width="43.967" height="3.063"/>
	<polygon fill="#D3AA4C" points="41.728,62.623 24.106,62.623 23.854,62.623 7.029,62.623 2.401,73.083 23.854,73.083 
		24.106,73.083 46.355,73.083 	"/>
	<rect x="4.258" y="68.324" fill="#B78E3D" width="10.024" height="1.061"/>
	<path fill="#B78E3D" d="M46.952,73.111l-0.279-0.637l-4.6-10.395H6.684L2.083,72.474l-0.278,0.637v0.49v3.129h45.161v-3.129v-0.49
		H46.952z M45.759,75.55H2.985v-1.869h42.774V75.55z M7.374,63.153h34.01l4.137,9.335H3.25L7.374,63.153z"/>
	<g>
		<g>
			<polygon fill="#D3AA4C" points="34.979,77.778 12.969,77.778 14.666,68.125 33.043,68.125 			"/>
			<path fill="#B78E3D" d="M35.708,78.375H12.266l1.909-10.846h19.372L35.708,78.375z M13.671,77.181h20.565l-1.696-8.459H15.157
				L13.671,77.181z"/>
		</g>
		<g>
			<path fill="#B78E3D" d="M16.31,75.736l0.133-1.061h0.292l0.411-3.421h-0.278L17,70.194h1.658l-0.093,1.061h-0.279l-0.332,3.421
				h0.292l-0.093,1.061H16.31z"/>
			<path fill="#B78E3D" d="M18.962,75.736l0.08-1.061h0.305l0.238-3.421h-0.278l0.08-1.061h1.657l-0.053,1.061h-0.278l-0.172,3.421
				h1.14l0.013-0.609h1.193l-0.013,1.67H18.962z"/>
			<path fill="#B78E3D" d="M26.731,71.837h-1.14l-0.026-0.596h-0.279l0.133,3.42h0.292l0.054,1.061h-1.844l-0.013-1.061h0.292
				l-0.053-3.42h-0.279l0.014,0.596h-1.141l0.013-1.657h3.886L26.731,71.837z"/>
			<path fill="#B78E3D" d="M27.792,75.736l-0.079-1.061h0.292l-0.292-3.421h-0.278l-0.08-1.061h3.422l0.225,1.511H29.86l-0.053-0.45
				h-0.941l0.133,1.181h0.411l-0.04-0.293h1.154l0.225,1.645h-1.193l-0.039-0.291h-0.425l0.133,1.18h0.292l0.119,1.061H27.792
				L27.792,75.736z"/>
		</g>
	</g>
	<rect x="33.732" y="68.324" fill="#B78E3D" width="10.807" height="1.061"/>
	<path fill="#E0BC75" d="M17.357,46.022h-3.182c-0.106,0-0.212-0.053-0.292-0.132c-0.08-0.08-0.119-0.186-0.106-0.306
		c0.013-0.186,0.384-4.587,1.259-6.722c0.08-0.199,0.318-0.306,0.517-0.226c0.199,0.079,0.305,0.317,0.226,0.517
		c-0.663,1.645-1.034,4.893-1.153,6.06h2.745c0.225,0,0.397,0.173,0.397,0.397C17.769,45.836,17.57,46.022,17.357,46.022z"/>
	<path fill="#E0BC75" d="M12.73,27.552c-0.079,0-0.159-0.026-0.225-0.08c-2.665-1.922-4.72-4.654-5.967-6.616
		c-0.119-0.186-0.066-0.438,0.12-0.543c0.186-0.12,0.438-0.066,0.543,0.119c1.207,1.896,3.195,4.548,5.768,6.391
		c0.172,0.133,0.226,0.372,0.093,0.557C12.982,27.486,12.863,27.552,12.73,27.552z"/>
	<path fill="#E0BC75" d="M6.074,19.729c-0.133,0-0.278-0.066-0.345-0.199c-0.451-0.796-0.703-1.313-0.703-1.326
		c-0.093-0.199-0.014-0.438,0.186-0.53c0.199-0.093,0.438-0.013,0.53,0.186c0,0,0.239,0.504,0.676,1.273
		c0.106,0.186,0.04,0.438-0.146,0.543C6.207,19.716,6.141,19.729,6.074,19.729z"/>
	<path fill="#E0BC75" d="M3.25,15.049c-0.172,0-0.318-0.106-0.371-0.265l-0.464-1.379c-0.066-0.212,0.04-0.438,0.252-0.504
		c0.212-0.066,0.438,0.04,0.504,0.252l0.464,1.379c0.066,0.212-0.04,0.438-0.252,0.504C3.33,15.036,3.29,15.049,3.25,15.049z"/>
	<path fill="#E0BC75" d="M39.526,13.882c-0.025,0-0.053,0-0.079-0.014c-0.212-0.053-0.345-0.265-0.305-0.477l0.317-1.432
		c0.054-0.212,0.266-0.345,0.479-0.305c0.211,0.053,0.344,0.265,0.305,0.477l-0.318,1.432
		C39.872,13.763,39.712,13.882,39.526,13.882z"/>
	<path fill="#E0BC75" d="M37.419,21.731c-0.08,0-0.159-0.026-0.238-0.08c-0.173-0.132-0.213-0.384-0.08-0.557
		c0.861-1.154,2.042-4.336,2.055-4.362c0.08-0.212,0.305-0.305,0.518-0.239c0.212,0.08,0.305,0.305,0.238,0.517
		c-0.053,0.133-1.232,3.315-2.161,4.561C37.657,21.678,37.538,21.731,37.419,21.731z"/>
	<path fill="#E0BC75" d="M16.416,33.466c-0.212,0-0.384-0.159-0.397-0.371l-0.239-3.912c-0.013-0.226,0.159-0.411,0.371-0.424
		c0.212-0.013,0.411,0.159,0.424,0.372l0.239,3.911c0.013,0.226-0.159,0.411-0.371,0.424C16.43,33.466,16.416,33.466,16.416,33.466z
		"/>
	<path fill="#E0BC75" d="M15.528,54.071L15.528,54.071c-0.226,0-0.398-0.187-0.398-0.411c0.014-0.465,0.239-2.042,0.252-2.108
		c0.027-0.212,0.239-0.371,0.451-0.331c0.212,0.026,0.371,0.238,0.331,0.45c-0.066,0.438-0.238,1.671-0.238,2.016
		C15.926,53.898,15.74,54.071,15.528,54.071z"/>
	<path fill="#E0BC75" d="M29.596,53.156c-0.198,0-0.358-0.146-0.397-0.345c-0.106-0.703-0.159-0.995-0.186-1.101
		c-0.053-0.212,0.079-0.424,0.291-0.49c0.213-0.054,0.425,0.079,0.491,0.291c0.053,0.186,0.119,0.57,0.212,1.18
		c0.026,0.213-0.119,0.425-0.332,0.451C29.636,53.156,29.622,53.156,29.596,53.156z"/>
	<path fill="#E0BC75" d="M13.937,58.99c-0.225,0-0.397-0.172-0.397-0.398v-1.206c0-0.226,0.172-0.397,0.397-0.397
		c0.226,0,0.398,0.172,0.398,0.397v1.206C14.334,58.818,14.162,58.99,13.937,58.99z"/>
	<path fill="#E0BC75" d="M30.922,58.38c-0.226,0-0.397-0.173-0.397-0.398V57.16c0-0.225,0.172-0.397,0.397-0.397
		s0.397,0.173,0.397,0.397v0.822C31.319,58.208,31.147,58.38,30.922,58.38z"/>
	<path fill="#E0BC75" d="M6.644,67.687c-0.053,0-0.106-0.013-0.159-0.039c-0.199-0.093-0.292-0.332-0.199-0.53l1.445-3.222
		c0.066-0.146,0.212-0.239,0.358-0.239h10.899c0.226,0,0.398,0.173,0.398,0.397c0,0.226-0.172,0.398-0.398,0.398H8.354l-1.339,2.996
		C6.936,67.595,6.79,67.687,6.644,67.687z"/>
	<path fill="#E0BC75" d="M24.729,64.466h-3.792c-0.225,0-0.397-0.173-0.397-0.398s0.172-0.397,0.397-0.397h3.792
		c0.226,0,0.398,0.172,0.398,0.397S24.942,64.466,24.729,64.466z"/>
	<g>
		<circle fill="#D3AA4C" cx="14.838" cy="16.865" r="2.506"/>
		<path fill="#B78E3D" d="M14.838,19.968c-1.71,0-3.103-1.393-3.103-3.103s1.392-3.103,3.103-3.103s3.103,1.392,3.103,3.103
			S16.549,19.968,14.838,19.968z M14.838,14.956c-1.047,0-1.909,0.862-1.909,1.909c0,1.048,0.862,1.91,1.909,1.91
			s1.909-0.862,1.909-1.91C16.748,15.805,15.886,14.956,14.838,14.956z"/>
		<circle fill="#D3AA4C" cx="32.659" cy="16.865" r="2.506"/>
		<path fill="#B78E3D" d="M32.659,19.968c-1.711,0-3.104-1.393-3.104-3.103s1.393-3.103,3.104-3.103c1.71,0,3.102,1.392,3.102,3.103
			S34.369,19.968,32.659,19.968z M32.659,14.956c-1.048,0-1.91,0.862-1.91,1.909c0,1.048,0.862,1.91,1.91,1.91
			c1.047,0,1.908-0.862,1.908-1.91C34.567,15.805,33.706,14.956,32.659,14.956z"/>
		<path fill="#D3AA4C" d="M33.295,16.839c0,5.237-4.243,9.48-9.48,9.48l0,0c-5.237,0-9.48-4.243-9.48-9.48v-3.805
			c0-5.237,4.243-9.48,9.48-9.48l0,0c5.237,0,9.48,4.243,9.48,9.48v0.928v1.406V16.839z"/>
		<path fill="#B78E3D" d="M23.815,26.916c-5.556,0-10.077-4.521-10.077-10.077v-3.805c0-5.556,4.521-10.077,10.077-10.077
			c5.555,0,10.077,4.521,10.077,10.077v3.805C33.892,22.395,29.37,26.916,23.815,26.916z M23.815,4.137
			c-4.893,0-8.884,3.991-8.884,8.883v3.806c0,4.893,3.991,8.884,8.884,8.884c4.893,0,8.883-3.991,8.883-8.884V13.02
			C32.698,8.127,28.708,4.137,23.815,4.137z"/>
		<path fill="#B78E3D" d="M19.307,14.452c-0.305-0.119-0.636-0.093-0.915,0.066c0.053,0,0.106,0.013,0.159,0.04
			c0.318,0.12,0.464,0.478,0.345,0.796c-0.119,0.318-0.477,0.464-0.795,0.345c-0.08-0.026-0.146-0.08-0.212-0.146
			c0.053,0.358,0.278,0.689,0.649,0.835c0.53,0.212,1.14-0.053,1.353-0.583C20.102,15.261,19.837,14.665,19.307,14.452z"/>
		<path fill="#B78E3D" d="M29.185,14.452c-0.305-0.119-0.637-0.093-0.914,0.066c0.053,0,0.105,0.013,0.158,0.04
			c0.318,0.12,0.465,0.478,0.346,0.796c-0.12,0.318-0.479,0.464-0.797,0.345c-0.079-0.026-0.145-0.08-0.211-0.146
			c0.053,0.358,0.277,0.689,0.648,0.835c0.531,0.212,1.141-0.053,1.354-0.583C29.98,15.261,29.729,14.665,29.185,14.452z"/>
		<path fill="#B78E3D" d="M23.815,24.237c-1.75,0-3.381-0.955-4.243-2.479c-0.053-0.106-0.053-0.226,0-0.332
			c0.053-0.106,0.172-0.159,0.292-0.159h7.916c0.119,0,0.226,0.066,0.292,0.159c0.053,0.106,0.066,0.225,0,0.332
			C27.196,23.296,25.565,24.237,23.815,24.237z M20.474,21.93c0.795,1.034,2.028,1.645,3.341,1.645s2.545-0.624,3.341-1.645H20.474z
			"/>
		<path fill="#B78E3D" d="M20.42,12.569c-0.066,0-0.119-0.013-0.186-0.04c-0.026-0.013-1.22-0.517-2.506-0.146
			c-0.252,0.066-0.504-0.066-0.57-0.318c-0.066-0.251,0.066-0.503,0.318-0.57c1.631-0.478,3.076,0.159,3.142,0.186
			c0.239,0.106,0.345,0.371,0.239,0.61C20.765,12.463,20.593,12.569,20.42,12.569z"/>
		<path fill="#B78E3D" d="M27.023,12.569c-0.173,0-0.345-0.106-0.425-0.278c-0.105-0.239,0-0.504,0.239-0.61
			c0.066-0.026,1.512-0.65,3.143-0.186c0.252,0.066,0.384,0.332,0.317,0.57c-0.065,0.252-0.33,0.385-0.569,0.318
			c-1.3-0.384-2.493,0.133-2.506,0.146C27.144,12.556,27.09,12.569,27.023,12.569z"/>
		<path fill="#B78E3D" d="M23.629,19.809c-0.716,0-1.393-0.305-1.856-0.849c-0.172-0.199-0.146-0.491,0.053-0.65
			c0.199-0.172,0.49-0.146,0.649,0.053c0.292,0.345,0.716,0.53,1.154,0.53s0.834-0.172,1.127-0.491
			c0.172-0.186,0.463-0.199,0.648-0.026c0.187,0.172,0.199,0.464,0.027,0.65C24.968,19.517,24.319,19.809,23.629,19.809z"/>
		<path fill="#D3AA4C" d="M28.456,4.76c0,0,3.593,2.453,6.709-2.824c0.41,4.999-3.527,8.3-7.386,8.419
			c-4.27,0.12-4.548-3.195-8.367-2.585c-3.818,0.624-5.078,5.264-5.078,5.264c0-5.237,4.243-9.48,9.48-9.48l0,0
			C25.499,3.54,27.077,3.978,28.456,4.76z"/>
		<path fill="#B78E3D" d="M13.738,17.449V13.02c0-5.555,4.521-10.077,10.077-10.077c1.723,0,3.434,0.451,4.932,1.286l0.04,0.026
			c0,0,0.716,0.464,1.71,0.464c1.512,0,2.957-1.074,4.15-3.103L35.603,0l0.146,1.882c0.186,2.36-0.53,4.588-2.056,6.272
			c-1.498,1.684-3.712,2.718-5.913,2.784c-0.079,0-0.173,0-0.252,0l0,0c-2.147,0-3.341-0.822-4.415-1.551
			c-0.875-0.597-1.631-1.114-2.824-1.114c-0.252,0-0.531,0.027-0.809,0.066c-3.381,0.543-4.587,4.787-4.587,4.826L13.738,17.449z
			 M20.314,7.093c1.564,0,2.546,0.676,3.5,1.313c1.007,0.689,1.962,1.339,3.739,1.339c0.066,0,0.146,0,0.213,0
			c1.883-0.053,3.766-0.941,5.064-2.386c0.676-0.743,1.405-1.896,1.67-3.474c-1.444,1.644-2.916,2.042-3.99,2.042l0,0
			c-1.273,0-2.188-0.543-2.36-0.65C26.838,4.535,25.34,4.15,23.815,4.15c-3.514,0-6.55,2.042-7.996,4.999
			c0.995-1.087,2.175-1.75,3.487-1.962C19.651,7.12,19.996,7.093,20.314,7.093z"/>
	</g>
	<path fill="#E0BC75" d="M18.737,23.097c-0.093,0-0.172-0.026-0.252-0.093c-1.339-1.101-2.307-2.639-2.705-4.322
		c-0.053-0.212,0.08-0.424,0.292-0.478c0.212-0.053,0.424,0.08,0.478,0.292c0.358,1.524,1.233,2.903,2.439,3.898
		c0.172,0.146,0.199,0.384,0.053,0.557C18.962,23.058,18.843,23.097,18.737,23.097z"/>
	<path fill="#E0BC75" d="M15.939,17.263c-0.226,0-0.398-0.172-0.398-0.398v-1.644c0-0.225,0.172-0.397,0.398-0.397
		c0.225,0,0.398,0.172,0.398,0.397v1.644C16.337,17.078,16.164,17.263,15.939,17.263z"/>
</g>
</svg>
