<?xml version="1.0" encoding="utf-8"?>
<!-- Generator: Adobe Illustrator 16.0.0, SVG Export Plug-In . SVG Version: 6.00 Build 0)  -->
<!DOCTYPE svg PUBLIC "-//W3C//DTD SVG 1.1//EN" "http://www.w3.org/Graphics/SVG/1.1/DTD/svg11.dtd">
<svg version="1.1" id="Warstwa_1" xmlns="http://www.w3.org/2000/svg" xmlns:xlink="http://www.w3.org/1999/xlink" x="0px" y="0px"
	 width="47.483px" height="81.663px" viewBox="0 0 47.483 81.663" enable-background="new 0 0 47.483 81.663" xml:space="preserve">
<g>
	<path fill="#E0BC75" d="M4.628,75.444c-0.053,0-0.106-0.014-0.159-0.039c-0.199-0.094-0.292-0.332-0.199-0.531l0.636-1.418
		c0.093-0.199,0.332-0.292,0.53-0.199c0.199,0.093,0.292,0.332,0.199,0.53L5,75.206C4.92,75.352,4.774,75.444,4.628,75.444z"/>
	<path fill="#E0BC75" d="M15.395,76.001c-0.027,0-0.04,0-0.066,0c-0.212-0.039-0.358-0.238-0.332-0.45l0.477-2.903
		c0.04-0.213,0.239-0.358,0.451-0.332c0.212,0.04,0.358,0.238,0.332,0.451l-0.478,2.903C15.753,75.868,15.594,76.001,15.395,76.001z
		"/>
	<path fill="#E0BC75" d="M20.248,73.098h-0.941c-0.225,0-0.397-0.173-0.397-0.397c0-0.226,0.172-0.398,0.397-0.398h0.941
		c0.226,0,0.398,0.173,0.398,0.398C20.646,72.925,20.473,73.098,20.248,73.098z"/>
	<path fill="#E0BC75" d="M18.219,73.098h-2.347c-0.226,0-0.398-0.173-0.398-0.397c0-0.226,0.172-0.398,0.398-0.398h2.347
		c0.226,0,0.398,0.173,0.398,0.398C18.617,72.925,18.444,73.098,18.219,73.098z"/>
	<path fill="#D3AA4C" d="M17.331,31.265c0,0,0.093-1.525,0.106-1.525l0,0c0,0-0.013,0-0.013-0.013c-0.013,0-0.04-0.013-0.053-0.026
		c-0.093-0.04-0.252-0.106-0.451-0.212c-0.199-0.106-0.464-0.238-0.742-0.424c-0.292-0.172-0.61-0.397-0.941-0.663
		c-0.345-0.252-0.689-0.57-1.048-0.915c-0.358-0.345-0.716-0.729-1.061-1.153c-0.345-0.425-0.689-0.875-1.021-1.353
		c-0.08-0.12-0.159-0.239-0.239-0.358c-0.08-0.12-0.159-0.252-0.225-0.372c-0.159-0.252-0.305-0.517-0.451-0.769
		c-0.292-0.517-0.557-1.061-0.795-1.591c-0.239-0.544-0.464-1.074-0.663-1.618c-0.053-0.133-0.106-0.265-0.146-0.398
		c-0.04-0.132-0.093-0.265-0.133-0.398c-0.08-0.265-0.186-0.517-0.252-0.769c-0.08-0.252-0.146-0.504-0.212-0.729
		c-0.066-0.239-0.12-0.478-0.186-0.689c-0.053-0.226-0.12-0.438-0.159-0.636c-0.04-0.212-0.093-0.398-0.133-0.583
		c-0.04-0.186-0.08-0.358-0.119-0.517c-0.026-0.159-0.053-0.305-0.08-0.438c-0.106-0.531-0.159-0.835-0.159-0.835l-6.47,1.591
		c0,0,0.106,0.345,0.305,0.941c0.053,0.146,0.106,0.318,0.159,0.504c0.066,0.186,0.133,0.372,0.212,0.583
		c0.08,0.212,0.159,0.424,0.239,0.663s0.186,0.477,0.292,0.729c0.106,0.252,0.199,0.517,0.318,0.782
		c0.12,0.266,0.239,0.544,0.372,0.835c0.119,0.292,0.278,0.583,0.411,0.875c0.066,0.146,0.146,0.305,0.225,0.451
		c0.08,0.146,0.159,0.305,0.239,0.451c0.318,0.61,0.676,1.233,1.061,1.856c0.385,0.623,0.796,1.246,1.247,1.843
		c0.225,0.305,0.451,0.597,0.689,0.889c0.119,0.146,0.239,0.292,0.358,0.438c0.119,0.146,0.252,0.278,0.371,0.424
		c0.491,0.557,1.008,1.074,1.525,1.565c0.53,0.477,1.061,0.928,1.591,1.313c0.53,0.385,1.047,0.743,1.551,1.034
		c0.504,0.292,0.981,0.543,1.418,0.743c0.438,0.199,0.835,0.358,1.18,0.464c0.345,0.12,0.623,0.199,0.822,0.239
		c0.119,0.026,0.212,0.053,0.265,0.066c0.093,0.013,0.093,0.013,0.093,0.013L17.331,31.265z"/>
	<path fill="#B78E3D" d="M16.482,34.143c-0.026,0-0.053-0.014-0.106-0.027l-0.278-0.066c-0.265-0.066-0.557-0.146-0.875-0.252
		c-0.372-0.12-0.783-0.292-1.233-0.491s-0.941-0.464-1.472-0.769c-0.478-0.278-1.008-0.623-1.618-1.074
		c-0.53-0.397-1.074-0.849-1.644-1.366c-0.61-0.57-1.114-1.087-1.564-1.604L7.32,28.07l-0.358-0.451
		c-0.212-0.252-0.411-0.518-0.597-0.77l-0.106-0.146c-0.424-0.583-0.849-1.193-1.273-1.883s-0.769-1.299-1.074-1.883l-0.08-0.146
		c-0.053-0.106-0.12-0.212-0.172-0.332L3.435,22.01c-0.04-0.093-0.093-0.199-0.146-0.292c-0.093-0.199-0.199-0.398-0.278-0.597
		L2.64,20.287c-0.08-0.186-0.159-0.371-0.226-0.543c-0.04-0.093-0.066-0.172-0.106-0.266c-0.026-0.079-0.066-0.159-0.093-0.238
		c-0.066-0.172-0.133-0.345-0.199-0.504l-0.451-1.247L0.889,15.42l7.717-1.883l0.358,1.883l0.238,1.087
		c0.027,0.132,0.066,0.252,0.093,0.384c0.027,0.08,0.04,0.159,0.066,0.226c0.027,0.08,0.04,0.172,0.066,0.252
		c0.04,0.146,0.066,0.292,0.119,0.424l0.226,0.742c0.04,0.146,0.093,0.305,0.146,0.464c0.026,0.093,0.066,0.186,0.093,0.278
		l0.132,0.385c0.027,0.08,0.053,0.159,0.093,0.239l0.053,0.146c0.172,0.478,0.385,0.981,0.65,1.578
		c0.265,0.57,0.517,1.074,0.769,1.551l0.106,0.172c0.106,0.199,0.212,0.384,0.332,0.57l0.225,0.372l0.239,0.358
		c0.265,0.411,0.583,0.822,0.981,1.299c0.345,0.411,0.689,0.782,1.021,1.101c0.398,0.384,0.716,0.649,0.995,0.875
		c0.332,0.252,0.623,0.464,0.888,0.623c0.266,0.159,0.504,0.305,0.703,0.398c0.225,0.106,0.358,0.172,0.411,0.186l0.716,0.292
		l-0.292,0.491c-0.013,0.226-0.053,0.716-0.066,0.968l-0.013,0.292c0,0.093-0.027,0.186-0.04,0.252h0.013l-0.888,2.851
		L16.482,34.143z M16.76,30.814c0.014-0.212,0.027-0.491,0.053-0.703c-0.053-0.026-0.106-0.053-0.159-0.079
		c-0.225-0.106-0.49-0.266-0.795-0.451c-0.292-0.186-0.636-0.411-0.995-0.689c-0.318-0.238-0.663-0.543-1.101-0.955
		c-0.358-0.345-0.729-0.743-1.113-1.193c-0.424-0.517-0.756-0.968-1.048-1.405l-0.199-0.305l-0.278-0.451
		c-0.133-0.212-0.252-0.424-0.372-0.623l-0.106-0.172c-0.278-0.504-0.543-1.034-0.822-1.644c-0.279-0.61-0.491-1.154-0.676-1.645
		l-0.053-0.132c-0.04-0.093-0.066-0.172-0.106-0.278L8.858,19.69c-0.026-0.093-0.053-0.172-0.093-0.265
		c-0.053-0.172-0.119-0.345-0.172-0.517l-0.212-0.729c-0.053-0.159-0.093-0.318-0.133-0.477c-0.026-0.08-0.04-0.159-0.066-0.252
		c-0.013-0.08-0.04-0.159-0.053-0.226c-0.04-0.146-0.08-0.292-0.106-0.424l-0.252-1.1l-0.133-0.677l-5.237,1.286l0.265,0.822
		l0.451,1.233c0.053,0.146,0.12,0.305,0.186,0.464c0.027,0.08,0.066,0.159,0.093,0.239c0.04,0.093,0.079,0.186,0.106,0.278
		c0.066,0.159,0.132,0.332,0.212,0.504l0.372,0.849c0.079,0.172,0.159,0.358,0.265,0.557c0.053,0.106,0.093,0.199,0.146,0.292
		l0.212,0.438c0.053,0.093,0.106,0.199,0.159,0.292l0.08,0.146c0.292,0.557,0.636,1.153,1.034,1.816
		c0.411,0.663,0.809,1.247,1.22,1.803l0.106,0.146c0.186,0.252,0.358,0.491,0.557,0.716l0.238,0.292l0.464,0.544
		c0.424,0.49,0.915,0.981,1.485,1.512c0.53,0.477,1.047,0.915,1.538,1.272c0.57,0.411,1.061,0.743,1.499,0.995
		c0.49,0.292,0.955,0.53,1.366,0.703c0.411,0.186,0.795,0.332,1.127,0.451c0.252,0.08,0.451,0.146,0.597,0.186l0.53-1.697
		C16.747,31.08,16.747,30.96,16.76,30.814z"/>
	<path fill="#D3AA4C" d="M5.105,9.388c0,0,1.578-3.792,2.652-0.65c0.424,1.233-1.551,1.896-2.042,2.228"/>
	<path fill="#B78E3D" d="M5.702,11.43c0.093,0,0.186-0.027,0.266-0.08c0.066-0.053,0.225-0.12,0.371-0.212
		c0.743-0.384,2.307-1.193,1.843-2.559C8.049,8.194,7.665,7.054,6.763,7.014c-0.53-0.013-1.034,0.358-1.551,1.154
		c-0.318,0.503-0.53,1.007-0.544,1.034C4.575,9.44,4.682,9.706,4.92,9.812C5.159,9.905,5.424,9.799,5.53,9.56l0,0
		c0.345-0.835,0.928-1.604,1.193-1.604l0,0c0.093,0,0.332,0.199,0.57,0.928C7.479,9.44,6.71,9.905,5.901,10.316
		c-0.199,0.106-0.358,0.186-0.478,0.265c-0.212,0.146-0.265,0.438-0.119,0.649C5.411,11.363,5.557,11.43,5.702,11.43z"/>
	<circle fill="#D3AA4C" cx="4.456" cy="12.556" r="3.991"/>
	<path fill="#B78E3D" d="M0.863,15.195c-1.458-1.976-1.021-4.773,0.955-6.232c0.769-0.57,1.684-0.862,2.639-0.862
		c1.419,0,2.758,0.676,3.593,1.816c0.703,0.955,0.994,2.135,0.809,3.315c-0.186,1.18-0.809,2.214-1.763,2.917
		c-0.769,0.57-1.684,0.862-2.639,0.862C3.037,17.012,1.698,16.335,0.863,15.195z M2.361,9.706c-1.564,1.153-1.909,3.368-0.755,4.932
		c0.663,0.902,1.724,1.445,2.851,1.445c0.756,0,1.472-0.239,2.082-0.689c0.756-0.557,1.26-1.379,1.406-2.307
		c0.146-0.928-0.08-1.87-0.65-2.625C6.63,9.56,5.57,9.016,4.443,9.016C3.7,9.03,2.971,9.268,2.361,9.706z"/>
	<path fill="#D3AA4C" d="M3.236,9.202c0,0,1.578-3.792,2.652-0.65c0.424,1.233-1.551,1.896-2.042,2.228"/>
	<path fill="#B78E3D" d="M3.846,11.244c0.093,0,0.186-0.026,0.265-0.08c0.066-0.053,0.226-0.119,0.371-0.212
		c0.809-0.411,2.307-1.193,1.843-2.559C6.193,8.009,5.809,6.868,4.907,6.829c-0.53-0.013-1.034,0.358-1.551,1.153
		C3.037,8.486,2.825,8.99,2.812,9.016C2.719,9.255,2.825,9.52,3.064,9.626c0.238,0.093,0.504-0.013,0.61-0.251l0,0
		C4.019,8.539,4.602,7.77,4.867,7.77l0,0c0.093,0,0.332,0.199,0.57,0.928c0.186,0.557-0.583,1.021-1.392,1.432
		c-0.199,0.106-0.358,0.186-0.477,0.266c-0.212,0.146-0.266,0.438-0.12,0.649C3.554,11.178,3.7,11.244,3.846,11.244z"/>
	<path fill="#D3AA4C" d="M1.605,9.838c0,0,1.578-3.792,2.652-0.65c0.424,1.233-1.552,1.896-2.042,2.228"/>
	<path fill="#B78E3D" d="M2.215,11.894c0.093,0,0.186-0.026,0.265-0.08c0.066-0.053,0.226-0.119,0.371-0.212
		c0.743-0.385,2.307-1.18,1.843-2.559C4.562,8.658,4.178,7.518,3.276,7.479c-0.53-0.014-1.034,0.358-1.551,1.153
		C1.406,9.136,1.194,9.64,1.181,9.666c-0.093,0.239,0.013,0.504,0.252,0.61c0.238,0.093,0.504-0.013,0.61-0.252
		C2.388,9.188,2.971,8.42,3.236,8.42l0,0c0.093,0,0.332,0.199,0.57,0.928c0.186,0.557-0.583,1.021-1.392,1.432
		c-0.199,0.106-0.358,0.186-0.477,0.265c-0.212,0.146-0.266,0.438-0.12,0.65C1.923,11.814,2.069,11.894,2.215,11.894z"/>
	<path fill="#D3AA4C" d="M0.492,12.053c0,0,0.093-4.11,2.228-1.564c0.835,0.994-0.769,2.333-1.101,2.811"/>
	<path fill="#B78E3D" d="M1.632,13.776c0.146,0,0.292-0.066,0.384-0.199c0.053-0.066,0.159-0.199,0.279-0.332
		c0.557-0.637,1.724-1.936,0.795-3.05C2.838,9.892,2.056,8.963,1.194,9.255C0.69,9.427,0.359,9.971,0.173,10.886
		c-0.119,0.583-0.133,1.141-0.133,1.154c0,0.252,0.199,0.464,0.451,0.477c0.252,0,0.464-0.199,0.477-0.451l0,0
		c0.027-0.902,0.278-1.843,0.544-1.936c0.079-0.026,0.384,0.066,0.875,0.663c0.384,0.451-0.172,1.154-0.769,1.83
		c-0.146,0.172-0.265,0.305-0.345,0.424c-0.146,0.212-0.093,0.504,0.119,0.65C1.446,13.75,1.539,13.776,1.632,13.776z"/>
	<path fill="#D3AA4C" d="M7.134,9.6c-1.087-1.153-2.267,0.04-2.797,0.849c-0.292,0.438-0.583,1.379-0.08,1.79
		c0.438,0.358,1.061,0.013,1.445-0.265"/>
	<path fill="#B78E3D" d="M4.695,12.861c0.332,0,0.755-0.132,1.273-0.517c0.212-0.146,0.252-0.438,0.093-0.649
		c-0.146-0.212-0.438-0.252-0.65-0.093c-0.318,0.225-0.703,0.424-0.888,0.278c-0.212-0.172-0.08-0.795,0.172-1.167
		C5.04,10.196,5.583,9.64,6.074,9.6c0.239-0.026,0.464,0.093,0.703,0.332c0.172,0.186,0.464,0.199,0.65,0.013
		C7.612,9.772,7.625,9.48,7.439,9.295c-0.544-0.57-1.087-0.65-1.445-0.61c-1.008,0.093-1.79,1.101-2.068,1.538
		c-0.424,0.637-0.703,1.817,0.013,2.4C4.098,12.729,4.35,12.861,4.695,12.861z"/>
	<polygon fill="#D3AA4C" points="9.601,17.807 8.792,13.776 1.141,15.726 2.388,19.716 	"/>
	<path fill="#B78E3D" d="M8.845,13.18c0.093,0.013,0.186,0.04,0.265,0.093c0.133,0.093,0.239,0.226,0.265,0.385l0.809,4.031
		c0.066,0.305-0.133,0.61-0.438,0.689L2.533,20.3c-0.305,0.08-0.623-0.093-0.729-0.397l-1.247-3.991
		c-0.053-0.159-0.026-0.332,0.053-0.464c0.08-0.146,0.212-0.252,0.371-0.292l7.651-1.962C8.712,13.18,8.778,13.167,8.845,13.18z
		 M8.911,17.37l-0.57-2.864L1.897,16.15L2.785,19L8.911,17.37z"/>
	<path fill="#D3AA4C" d="M28.534,62.517h6.1c0-9.188-1.645-13.523-1.711-13.869l-5.967,1.233l2.984-0.623l-2.984,0.61
		C26.956,49.974,28.534,53.991,28.534,62.517z"/>
	<path fill="#B78E3D" d="M35.23,63.113h-7.292v-0.597c0-8.445-1.564-12.437-1.578-12.517l-0.119-0.583l7.146-1.472l0.119,0.583
		c0.066,0.345,1.724,4.747,1.724,13.988V63.113z M29.132,61.921h4.905c-0.054-7.585-1.206-10.582-1.577-12.557l-4.814,0.994
		C28.005,52.28,29.065,54.946,29.132,61.921z"/>
	<path fill="#D3AA4C" d="M23.828,44.763h1.287l8.552,0.478c0,0,1.485,2.439,1.485,8.274c-2.4,0-9.137,0-9.137,0l-0.45-4.43
		l-1.26,0.385l-0.146-0.039C24.292,46.632,24.186,47.561,23.828,44.763z"/>
	<path fill="#B78E3D" d="M24.186,48.808l0.119,0.039l1.737-0.518l0.464,4.588h8.089c-0.08-4.641-1.049-5.675-1.366-7.094
		l-8.128-0.45h-1.193c-0.04-0.397-0.093-0.796-0.146-1.193h1.353l8.977,0.49l0.105,0.425c0.066,0.252,1.498,2.572,1.498,8.419v0.597
		h-10.17l-0.424-4.27c0,0-0.385,0.119-0.796,0.119c-0.066,0-0.119,0-0.186-0.013C24.146,49.576,24.172,49.191,24.186,48.808z"/>
	<rect x="27.501" y="64.32" fill="#D3AA4C" width="8.313" height="1.591"/>
	<path fill="#B78E3D" d="M35.813,66.376h-8.313c-0.252,0-0.465-0.213-0.465-0.465V64.32c0-0.252,0.213-0.464,0.465-0.464h8.313
		c0.252,0,0.465,0.212,0.465,0.464v1.591C36.278,66.163,36.065,66.376,35.813,66.376z M27.964,65.447h7.386v-0.663h-7.386V65.447z"
		/>
	<rect x="27.501" y="59.188" fill="#D3AA4C" width="8.313" height="5.132"/>
	<path fill="#B78E3D" d="M35.813,64.784h-8.313c-0.252,0-0.465-0.212-0.465-0.464v-5.132c0-0.252,0.213-0.464,0.465-0.464h8.313
		c0.252,0,0.465,0.212,0.465,0.464v5.132C36.278,64.572,36.065,64.784,35.813,64.784z M27.964,63.856h7.386v-4.203h-7.386V63.856z"
		/>
	<path fill="#D3AA4C" d="M29.701,61.085v-1.459c0-1.021,0.822-1.843,1.843-1.843l0,0c1.021,0,1.844,0.822,1.844,1.843v1.459"/>
	<path fill="#B78E3D" d="M27.687,64.002l-0.371-0.849l1.922-0.861V58.95h0.928v3.646c0,0.186-0.105,0.345-0.277,0.424L27.687,64.002
		z"/>
	<path fill="#B78E3D" d="M35.39,64.002l-2.201-0.981c-0.172-0.079-0.278-0.238-0.278-0.424V58.95h0.929v3.354l1.922,0.862
		L35.39,64.002z"/>
	<rect x="29.701" y="62.132" fill="#B78E3D" width="3.673" height="0.929"/>
	<path fill="#B78E3D" d="M33.839,61.085H32.91v-1.459c0-0.756-0.623-1.379-1.379-1.379s-1.379,0.623-1.379,1.379v1.459h-0.929
		v-1.459c0-1.272,1.035-2.307,2.308-2.307s2.308,1.034,2.308,2.307V61.085z"/>
	<path fill="#D3AA4C" d="M20.022,62.517h-6.1c0-9.188,1.645-13.523,1.71-13.869l5.967,1.233l-2.983-0.623l2.983,0.61
		C21.6,49.974,20.022,53.991,20.022,62.517z"/>
	<path fill="#B78E3D" d="M13.326,62.517c0-9.241,1.658-13.644,1.724-13.988l0.119-0.583l7.146,1.472L22.197,50
		c-0.013,0.08-1.578,4.071-1.578,12.517v0.597h-7.292V62.517z M20.924,50.358l-4.813-0.994c-0.371,1.988-1.525,4.972-1.578,12.557
		h4.906C19.492,54.946,20.566,52.28,20.924,50.358z"/>
	<path fill="#D3AA4C" d="M24.729,44.763h-1.287l-8.552,0.478c0,0-1.485,2.439-1.485,8.274c2.4,0,9.136,0,9.136,0l0.451-4.43
		l1.26,0.385l0.146-0.039C24.265,46.632,24.384,47.561,24.729,44.763z"/>
	<path fill="#B78E3D" d="M24.384,48.808l-0.119,0.039l-1.737-0.518l-0.464,4.588h-8.088c0.08-4.641,1.047-5.675,1.366-7.094
		l8.128-0.45h1.193c0.039-0.397,0.093-0.796,0.146-1.193h-1.352l-8.977,0.49l-0.106,0.425c-0.066,0.252-1.499,2.572-1.499,8.419
		v0.597h10.17l0.424-4.27c0,0,0.384,0.119,0.795,0.119c0.066,0,0.119,0,0.186-0.013C24.411,49.576,24.398,49.191,24.384,48.808z"/>
	<rect x="12.756" y="64.32" fill="#D3AA4C" width="8.313" height="1.591"/>
	<path fill="#B78E3D" d="M21.057,66.376h-8.313c-0.252,0-0.464-0.213-0.464-0.465V64.32c0-0.252,0.212-0.464,0.464-0.464h8.313
		c0.252,0,0.464,0.212,0.464,0.464v1.591C21.521,66.163,21.322,66.376,21.057,66.376z M13.22,65.447h7.385v-0.663H13.22V65.447
		L13.22,65.447z"/>
	<rect x="12.756" y="59.188" fill="#D3AA4C" width="8.313" height="5.132"/>
	<path fill="#B78E3D" d="M21.057,64.784h-8.313c-0.252,0-0.464-0.212-0.464-0.464v-5.132c0-0.252,0.212-0.464,0.464-0.464h8.313
		c0.252,0,0.464,0.212,0.464,0.464v5.132C21.521,64.572,21.322,64.784,21.057,64.784z M13.22,63.856h7.385v-4.203H13.22V63.856
		L13.22,63.856z"/>
	<path fill="#D3AA4C" d="M18.855,61.085v-1.459c0-1.021-0.822-1.843-1.843-1.843l0,0c-1.021,0-1.843,0.822-1.843,1.843v1.459"/>
	<path fill="#B78E3D" d="M20.871,64.002l-2.201-0.981c-0.172-0.079-0.278-0.238-0.278-0.424V58.95h0.928v3.354l1.923,0.862
		L20.871,64.002z"/>
	<path fill="#B78E3D" d="M13.167,64.002l-0.372-0.849l1.923-0.861V58.95h0.928v3.646c0,0.186-0.106,0.345-0.278,0.424L13.167,64.002
		z"/>
	<rect x="15.183" y="62.132" fill="#B78E3D" width="3.673" height="0.929"/>
	<path fill="#B78E3D" d="M14.719,61.085h0.928v-1.459c0-0.756,0.624-1.379,1.379-1.379c0.755,0,1.379,0.623,1.379,1.379v1.459h0.928
		v-1.459c0-1.272-1.035-2.307-2.307-2.307c-1.273,0-2.307,1.034-2.307,2.307V61.085z"/>
	<path fill="#D3AA4C" d="M30.165,31.265c0,0-0.092-1.525-0.105-1.525l0,0c0,0,0.014,0,0.014-0.013c0.013,0,0.039-0.013,0.053-0.026
		c0.092-0.04,0.252-0.106,0.451-0.212c0.198-0.106,0.463-0.238,0.742-0.424c0.291-0.172,0.609-0.397,0.941-0.663
		c0.344-0.252,0.689-0.57,1.047-0.915c0.358-0.345,0.717-0.729,1.061-1.153c0.346-0.425,0.689-0.875,1.021-1.353
		c0.08-0.12,0.159-0.239,0.238-0.358c0.08-0.12,0.159-0.252,0.226-0.372c0.159-0.252,0.306-0.517,0.45-0.769
		c0.293-0.517,0.558-1.061,0.797-1.591c0.238-0.544,0.463-1.074,0.662-1.618c0.053-0.133,0.106-0.265,0.146-0.398
		c0.039-0.132,0.092-0.265,0.133-0.398c0.079-0.265,0.186-0.517,0.252-0.769c0.079-0.252,0.145-0.504,0.211-0.729
		c0.066-0.239,0.12-0.478,0.186-0.689c0.054-0.226,0.12-0.438,0.16-0.636c0.039-0.212,0.092-0.398,0.133-0.583
		c0.039-0.186,0.079-0.358,0.119-0.517c0.025-0.159,0.053-0.305,0.079-0.438c0.106-0.531,0.159-0.835,0.159-0.835l6.471,1.591
		c0,0-0.106,0.345-0.305,0.941c-0.054,0.146-0.106,0.318-0.16,0.504c-0.066,0.186-0.133,0.372-0.212,0.583
		c-0.079,0.212-0.159,0.424-0.238,0.663s-0.186,0.477-0.292,0.729c-0.105,0.252-0.199,0.517-0.318,0.782
		c-0.119,0.266-0.238,0.544-0.371,0.835c-0.119,0.292-0.278,0.583-0.411,0.875c-0.065,0.146-0.146,0.305-0.226,0.451
		c-0.079,0.146-0.158,0.305-0.238,0.451c-0.318,0.61-0.676,1.233-1.061,1.856c-0.385,0.623-0.796,1.246-1.246,1.843
		c-0.226,0.305-0.451,0.597-0.689,0.889c-0.119,0.146-0.239,0.292-0.358,0.438c-0.119,0.146-0.252,0.278-0.371,0.424
		c-0.491,0.557-1.008,1.074-1.524,1.565c-0.531,0.477-1.062,0.928-1.592,1.313c-0.53,0.385-1.047,0.743-1.551,1.034
		c-0.504,0.292-0.981,0.543-1.419,0.743c-0.438,0.199-0.835,0.358-1.181,0.464c-0.344,0.12-0.623,0.199-0.822,0.239
		c-0.119,0.026-0.211,0.053-0.265,0.066c-0.093,0.013-0.093,0.013-0.093,0.013L30.165,31.265z"/>
	<path fill="#B78E3D" d="M30.483,34.288l-0.889-2.851h0.014c-0.026-0.066-0.039-0.159-0.039-0.252l-0.014-0.292
		c-0.014-0.265-0.053-0.743-0.066-0.968l-0.291-0.49l0.715-0.292c0.054-0.026,0.199-0.08,0.412-0.186
		c0.198-0.093,0.438-0.226,0.702-0.397c0.265-0.159,0.557-0.372,0.888-0.624c0.279-0.212,0.598-0.491,0.995-0.875
		c0.331-0.318,0.677-0.689,1.021-1.101c0.398-0.477,0.703-0.901,0.981-1.299l0.239-0.358l0.225-0.372
		c0.119-0.186,0.226-0.371,0.332-0.57l0.105-0.172c0.266-0.464,0.518-0.981,0.77-1.551c0.266-0.583,0.477-1.101,0.649-1.578
		l0.054-0.146c0.025-0.08,0.066-0.159,0.092-0.239l0.133-0.385c0.027-0.093,0.066-0.186,0.094-0.278
		c0.053-0.159,0.105-0.318,0.145-0.464l0.227-0.743c0.039-0.146,0.079-0.278,0.119-0.424c0.026-0.093,0.039-0.172,0.066-0.252
		c0.013-0.066,0.039-0.146,0.066-0.226c0.039-0.132,0.066-0.265,0.092-0.384l0.239-1.087l0.358-1.883l7.717,1.883l-0.677,2.068
		l-0.45,1.247c-0.066,0.159-0.133,0.332-0.199,0.504c-0.027,0.08-0.066,0.159-0.094,0.239c-0.039,0.093-0.065,0.172-0.105,0.265
		c-0.066,0.172-0.146,0.358-0.225,0.543l-0.372,0.835c-0.079,0.199-0.186,0.398-0.278,0.597c-0.053,0.093-0.093,0.186-0.146,0.292
		l-0.225,0.451c-0.053,0.119-0.119,0.225-0.172,0.331l-0.08,0.146c-0.305,0.583-0.663,1.207-1.074,1.883
		c-0.424,0.689-0.849,1.299-1.273,1.883l-0.105,0.146c-0.186,0.252-0.385,0.517-0.597,0.769l-0.358,0.451l-0.371,0.424
		c-0.451,0.517-0.968,1.034-1.564,1.604c-0.557,0.518-1.113,0.968-1.645,1.366c-0.609,0.451-1.14,0.795-1.617,1.074
		c-0.53,0.305-1.021,0.57-1.472,0.769s-0.862,0.371-1.233,0.491c-0.318,0.106-0.623,0.199-0.875,0.252l-0.278,0.066
		c-0.053,0.014-0.079,0.014-0.106,0.027L30.483,34.288z M30.749,31.146l0.53,1.697c0.146-0.04,0.358-0.106,0.597-0.186
		c0.332-0.106,0.703-0.265,1.127-0.451c0.411-0.186,0.875-0.424,1.365-0.703c0.438-0.252,0.929-0.583,1.498-0.995
		c0.491-0.371,1.008-0.795,1.539-1.273c0.57-0.53,1.061-1.034,1.484-1.511l0.465-0.544l0.238-0.292
		c0.199-0.239,0.371-0.478,0.557-0.716l0.106-0.146c0.411-0.543,0.809-1.14,1.22-1.803c0.397-0.663,0.742-1.247,1.034-1.816
		l0.079-0.146c0.053-0.093,0.106-0.199,0.16-0.292l0.211-0.438c0.041-0.093,0.094-0.199,0.146-0.292
		c0.093-0.199,0.186-0.371,0.266-0.557l0.371-0.849c0.079-0.172,0.146-0.332,0.212-0.504c0.04-0.093,0.079-0.186,0.106-0.278
		c0.025-0.08,0.066-0.159,0.092-0.239c0.066-0.159,0.133-0.318,0.186-0.464l0.451-1.233l0.266-0.822l-5.237-1.286l-0.133,0.676
		l-0.252,1.101c-0.026,0.146-0.066,0.278-0.106,0.424c-0.013,0.08-0.039,0.146-0.053,0.226c-0.026,0.093-0.039,0.172-0.066,0.252
		c-0.039,0.146-0.08,0.305-0.133,0.477l-0.212,0.729c-0.053,0.172-0.106,0.345-0.173,0.517c-0.025,0.08-0.053,0.172-0.092,0.265
		l-0.133,0.397c-0.04,0.106-0.066,0.186-0.106,0.279l-0.053,0.132c-0.186,0.491-0.397,1.034-0.677,1.645
		c-0.277,0.61-0.543,1.14-0.822,1.644l-0.105,0.172c-0.119,0.212-0.238,0.424-0.371,0.623l-0.278,0.451l-0.199,0.305
		c-0.292,0.438-0.623,0.888-1.048,1.405c-0.385,0.451-0.756,0.849-1.113,1.193c-0.438,0.411-0.782,0.716-1.101,0.955
		c-0.358,0.279-0.689,0.517-0.994,0.689c-0.306,0.186-0.57,0.332-0.796,0.451c-0.053,0.027-0.105,0.053-0.159,0.08
		c0.014,0.225,0.026,0.49,0.054,0.703C30.735,30.96,30.749,31.08,30.749,31.146z"/>
	<path fill="#D3AA4C" d="M33.188,38.425l0.133-10.965l-7.797-3.991c-0.305-0.397-0.822,1.419-1.684,1.578
		c-0.862-0.146-1.379-1.976-1.684-1.578l-7.796,4.455l0.504,10.501c0,0-2.506,8.128-2.506,12.186c3.951,0,19.65,0,23.615,0
		C35.974,46.54,33.188,38.425,33.188,38.425z"/>
	<path fill="#B78E3D" d="M36.569,51.207H11.762V50.61c0-3.912,2.201-11.271,2.506-12.265L13.75,27.579l8.048-4.588
		c0.133-0.119,0.292-0.172,0.464-0.172c0.451,0,0.703,0.384,0.981,0.822c0.133,0.212,0.398,0.623,0.61,0.769
		c0.199-0.146,0.464-0.557,0.61-0.769c0.279-0.438,0.531-0.822,0.981-0.822c0.159,0,0.318,0.053,0.45,0.159l8.049,4.124
		l-0.133,11.23c0.332,0.981,2.771,8.366,2.771,12.278v0.597H36.569z M12.968,50.014H35.35c-0.238-4.084-2.704-11.323-2.731-11.403
		l-0.039-0.093v-0.106l0.133-10.594l-7.188-3.673c-0.026,0.04-0.053,0.093-0.079,0.132c-0.331,0.518-0.782,1.233-1.512,1.353
		l-0.106,0.013l-0.106-0.013c-0.716-0.132-1.167-0.835-1.512-1.353c-0.026-0.04-0.053-0.079-0.08-0.119l-7.187,4.097l0.491,10.25
		l-0.026,0.106C15.408,38.677,13.181,45.93,12.968,50.014z"/>
	<path fill="#D3AA4C" d="M29.038,23.986c0,4.349-2.359,8.95-5.264,8.95c-2.904,0-5.264-4.601-5.264-8.95s2.36-7.876,5.264-7.876
		C26.679,16.11,29.038,19.637,29.038,23.986z"/>
	<path fill="#B78E3D" d="M23.774,33.532c-1.591,0-3.103-1.113-4.243-3.155c-1.034-1.83-1.618-4.164-1.618-6.404
		c0-2.214,0.583-4.309,1.644-5.9c1.114-1.657,2.612-2.572,4.216-2.572c1.604,0,3.116,0.915,4.217,2.572
		c1.061,1.578,1.645,3.673,1.645,5.9c0,2.241-0.584,4.574-1.618,6.404C26.877,32.419,25.366,33.532,23.774,33.532z M23.774,16.707
		c-2.572,0-4.667,3.262-4.667,7.279c0,2.042,0.53,4.164,1.458,5.821c0.901,1.618,2.068,2.546,3.195,2.546
		c1.126,0,2.294-0.928,3.195-2.546c0.929-1.657,1.459-3.779,1.459-5.821C28.442,19.968,26.347,16.707,23.774,16.707z"/>
	<circle fill="#D3AA4C" cx="14.864" cy="20.154" r="2.506"/>
	<path fill="#B78E3D" d="M14.864,23.257c-1.71,0-3.103-1.393-3.103-3.103s1.392-3.103,3.103-3.103s3.103,1.392,3.103,3.103
		S16.575,23.257,14.864,23.257z M14.864,18.245c-1.047,0-1.909,0.862-1.909,1.909c0,1.048,0.862,1.91,1.909,1.91
		c1.048,0,1.91-0.862,1.91-1.91C16.774,19.106,15.912,18.245,14.864,18.245z"/>
	<circle fill="#D3AA4C" cx="32.685" cy="20.154" r="2.506"/>
	<path fill="#B78E3D" d="M32.685,23.257c-1.711,0-3.103-1.393-3.103-3.103s1.392-3.103,3.103-3.103s3.103,1.392,3.103,3.103
		S34.396,23.257,32.685,23.257z M32.685,18.245c-1.047,0-1.909,0.862-1.909,1.909c0,1.048,0.862,1.91,1.909,1.91
		s1.91-0.862,1.91-1.91C34.595,19.106,33.731,18.245,32.685,18.245z"/>
	<path fill="#D3AA4C" d="M33.321,20.127c0,5.237-4.243,9.48-9.48,9.48l0,0c-5.237,0-9.48-4.243-9.48-9.48v-3.805
		c0-5.237,4.243-9.48,9.48-9.48l0,0c5.237,0,9.48,4.243,9.48,9.48v0.928v1.406V20.127z"/>
	<path fill="#B78E3D" d="M23.841,30.205c-5.556,0-10.077-4.521-10.077-10.077v-3.805c0-5.556,4.521-10.077,10.077-10.077
		s10.077,4.521,10.077,10.077v3.805C33.918,25.683,29.396,30.205,23.841,30.205z M23.841,7.438c-4.893,0-8.884,3.991-8.884,8.884
		v3.805c0,4.893,3.991,8.884,8.884,8.884s8.884-3.991,8.884-8.884v-3.805C32.725,11.416,28.747,7.438,23.841,7.438z"/>
	<circle fill="#D3AA4C" cx="18.975" cy="18.616" r="1.551"/>
	<path fill="#B78E3D" d="M19.333,17.741c-0.305-0.119-0.636-0.08-0.915,0.066c0.053,0,0.106,0.013,0.159,0.04
		c0.318,0.12,0.464,0.478,0.345,0.796c-0.12,0.318-0.478,0.464-0.796,0.345c-0.08-0.026-0.146-0.08-0.212-0.146
		c0.053,0.358,0.278,0.689,0.649,0.835c0.531,0.212,1.141-0.053,1.353-0.583C20.128,18.563,19.863,17.953,19.333,17.741z"/>
	<circle fill="#D3AA4C" cx="28.853" cy="18.616" r="1.551"/>
	<path fill="#B78E3D" d="M29.224,17.741c-0.305-0.119-0.637-0.08-0.914,0.066c0.053,0,0.105,0.013,0.158,0.04
		c0.318,0.12,0.465,0.478,0.346,0.796s-0.478,0.464-0.796,0.345c-0.079-0.026-0.146-0.08-0.212-0.146
		c0.053,0.358,0.278,0.689,0.649,0.835c0.53,0.212,1.14-0.053,1.353-0.583C30.007,18.563,29.755,17.953,29.224,17.741z"/>
	<path fill="#D3AA4C" d="M21.003,25.471c0.557,0.995,1.618,1.658,2.837,1.658s2.281-0.663,2.838-1.658H21.003z"/>
	<path fill="#B78E3D" d="M23.841,27.46c-1.286,0-2.493-0.703-3.129-1.83l-0.279-0.49h6.802l-0.279,0.49
		C26.333,26.757,25.127,27.46,23.841,27.46z M21.653,25.802c0.543,0.624,1.352,0.995,2.188,0.995c0.849,0,1.645-0.371,2.188-0.995
		H21.653z"/>
	<path fill="#B78E3D" d="M16.19,18.311c-0.106,0-0.199-0.026-0.292-0.093c-0.199-0.159-0.238-0.451-0.079-0.65
		c0.079-0.093,1.882-2.36,4.733-1.578c0.252,0.066,0.397,0.318,0.318,0.57s-0.318,0.398-0.57,0.318
		c-2.241-0.61-3.699,1.18-3.752,1.26C16.469,18.245,16.336,18.311,16.19,18.311z"/>
	<path fill="#B78E3D" d="M31.663,18.311c-0.132,0-0.277-0.066-0.371-0.172c-0.066-0.08-1.512-1.87-3.752-1.26
		c-0.252,0.066-0.504-0.08-0.57-0.318c-0.066-0.252,0.08-0.504,0.318-0.57c2.852-0.782,4.654,1.485,4.733,1.578
		c0.159,0.199,0.12,0.491-0.079,0.65C31.862,18.285,31.757,18.311,31.663,18.311z"/>
	<path fill="#B78E3D" d="M23.655,23.071c-0.716,0-1.392-0.305-1.856-0.849c-0.172-0.199-0.146-0.491,0.053-0.65
		c0.199-0.172,0.491-0.146,0.649,0.053c0.292,0.331,0.716,0.53,1.154,0.53s0.835-0.172,1.127-0.491
		c0.172-0.186,0.464-0.199,0.65-0.026c0.186,0.172,0.198,0.464,0.025,0.649C24.995,22.792,24.345,23.071,23.655,23.071z"/>
	<path fill="#D3AA4C" d="M33.241,8.261c-2.718-4.985-8.658-7.346-9.4-7.624c0-0.014,0,0,0,0s-6.762,2.639-9.48,7.624
		c-1.498,2.758,0,8.804,0,8.804s1.286-6.072,3.952-6.112c3.262-0.053,1.564,2.745,5.449,2.891h0.08
		c3.885-0.146,2.188-2.943,5.449-2.891c2.666,0.04,3.951,6.112,3.951,6.112S34.739,11.005,33.241,8.261z"/>
	<path fill="#B78E3D" d="M14.4,19.729l-0.623-2.519c-0.066-0.252-1.538-6.312,0.053-9.242c2.798-5.118,9.507-7.783,9.785-7.889
		L23.828,0l0.212,0.08c0.69,0.252,6.869,2.665,9.719,7.902c1.591,2.93,0.119,8.977,0.053,9.242l-0.623,2.52l-0.543-2.533
		c-0.306-1.458-1.592-5.608-3.382-5.635c-0.026,0-0.053,0-0.079,0c-1.18,0-1.432,0.385-1.856,1.034
		c-0.517,0.796-1.167,1.777-3.487,1.87l0,0c-0.04,0-0.08,0-0.119,0l0,0c-2.32-0.08-2.957-1.074-3.487-1.87
		c-0.424-0.636-0.676-1.034-1.856-1.034c-0.026,0-0.053,0-0.08,0c-0.822,0.014-1.697,0.981-2.439,2.718
		c-0.623,1.445-0.941,2.917-0.941,2.93L14.4,19.729z M23.854,1.273c-1.14,0.491-6.643,3.01-8.963,7.266
		c-0.557,1.021-0.729,2.771-0.491,5.078c0.026,0.305,0.066,0.597,0.106,0.889c0.703-1.87,1.923-4.11,3.806-4.15
		c0.04,0,0.066,0,0.106,0c1.816,0,2.387,0.875,2.851,1.564c0.438,0.676,0.822,1.26,2.533,1.326h0.013h0.013
		c1.697-0.066,2.082-0.65,2.533-1.326c0.464-0.716,1.047-1.604,2.957-1.564c1.883,0.026,3.115,2.268,3.805,4.15
		c0.04-0.279,0.08-0.583,0.106-0.889c0.226-2.307,0.065-4.057-0.491-5.078C30.271,4.044,25.101,1.764,23.854,1.273z"/>
	<path fill="#D3AA4C" d="M42.391,9.388c0,0-1.578-3.792-2.651-0.65c-0.425,1.233,1.551,1.896,2.041,2.228"/>
	<path fill="#B78E3D" d="M41.78,11.43c-0.093,0-0.186-0.027-0.266-0.08c-0.065-0.053-0.225-0.12-0.371-0.212
		c-0.742-0.384-2.307-1.193-1.843-2.559c0.133-0.384,0.518-1.525,1.419-1.564c0.53-0.013,1.034,0.358,1.551,1.154
		c0.318,0.503,0.531,1.007,0.544,1.034c0.093,0.238-0.013,0.504-0.252,0.61c-0.238,0.093-0.503-0.013-0.61-0.252l0,0
		c-0.344-0.835-0.928-1.604-1.193-1.604l0,0c-0.092,0-0.33,0.199-0.569,0.928c-0.186,0.557,0.583,1.021,1.392,1.432
		c0.199,0.106,0.358,0.186,0.479,0.265c0.211,0.146,0.265,0.438,0.119,0.649C42.072,11.363,41.927,11.43,41.78,11.43z"/>
	<circle fill="#D3AA4C" cx="43.04" cy="12.556" r="3.991"/>
	<path fill="#B78E3D" d="M43.026,17.012c-0.954,0-1.869-0.305-2.639-0.862c-0.954-0.703-1.59-1.737-1.763-2.917
		c-0.187-1.18,0.106-2.36,0.809-3.315c0.835-1.14,2.175-1.816,3.593-1.816c0.955,0,1.87,0.305,2.639,0.862
		c1.977,1.458,2.414,4.243,0.955,6.232C45.798,16.335,44.445,17.012,43.026,17.012z M43.04,9.03c-1.127,0-2.188,0.543-2.851,1.445
		c-0.558,0.756-0.782,1.697-0.649,2.625c0.146,0.928,0.637,1.75,1.405,2.307c0.61,0.451,1.325,0.689,2.081,0.689
		c1.127,0,2.188-0.543,2.852-1.445c1.153-1.564,0.809-3.779-0.756-4.932C44.512,9.268,43.796,9.03,43.04,9.03z"/>
	<path fill="#D3AA4C" d="M44.247,9.202c0,0-1.578-3.792-2.652-0.65c-0.424,1.233,1.551,1.896,2.042,2.228"/>
	<path fill="#B78E3D" d="M43.649,11.244c-0.092,0-0.186-0.026-0.265-0.08c-0.066-0.053-0.226-0.119-0.371-0.212
		c-0.81-0.411-2.308-1.193-1.843-2.559c0.133-0.384,0.517-1.525,1.418-1.564c0.531-0.013,1.035,0.358,1.552,1.153
		c0.318,0.504,0.53,1.008,0.544,1.034c0.092,0.239-0.014,0.504-0.252,0.61c-0.239,0.093-0.504-0.013-0.61-0.251l0,0
		c-0.345-0.835-0.929-1.604-1.193-1.604l0,0c-0.093,0-0.331,0.199-0.569,0.928c-0.187,0.557,0.582,1.021,1.392,1.432
		c0.198,0.106,0.358,0.186,0.478,0.266c0.212,0.146,0.265,0.438,0.119,0.649C43.942,11.178,43.796,11.244,43.649,11.244z"/>
	<path fill="#D3AA4C" d="M45.878,9.838c0,0-1.578-3.792-2.652-0.65c-0.424,1.233,1.551,1.896,2.042,2.228"/>
	<path fill="#B78E3D" d="M45.268,11.894c-0.093,0-0.186-0.026-0.265-0.08c-0.066-0.053-0.227-0.119-0.371-0.212
		c-0.743-0.385-2.308-1.18-1.844-2.559c0.133-0.385,0.518-1.525,1.419-1.564c0.53-0.014,1.034,0.358,1.552,1.153
		c0.317,0.504,0.529,1.008,0.543,1.034c0.093,0.239-0.014,0.504-0.252,0.61c-0.238,0.093-0.504-0.013-0.609-0.252
		c-0.346-0.835-0.929-1.604-1.193-1.604l0,0c-0.094,0-0.332,0.199-0.57,0.928c-0.186,0.557,0.583,1.021,1.393,1.432
		c0.198,0.106,0.357,0.186,0.477,0.265c0.213,0.146,0.266,0.438,0.119,0.65C45.56,11.814,45.427,11.894,45.268,11.894z"/>
	<path fill="#D3AA4C" d="M47.005,12.053c0,0-0.094-4.11-2.229-1.564c-0.834,0.994,0.77,2.333,1.102,2.811"/>
	<path fill="#B78E3D" d="M45.864,13.776c-0.146,0-0.291-0.066-0.385-0.199c-0.053-0.066-0.158-0.199-0.278-0.332
		c-0.557-0.637-1.724-1.936-0.796-3.05c0.252-0.305,1.035-1.233,1.896-0.941c0.504,0.172,0.836,0.716,1.021,1.631
		c0.119,0.583,0.133,1.141,0.133,1.154c0,0.252-0.199,0.464-0.451,0.477c-0.252,0-0.465-0.199-0.478-0.451l0,0
		c-0.026-0.902-0.278-1.843-0.544-1.936c-0.079-0.026-0.385,0.066-0.875,0.663c-0.385,0.451,0.172,1.154,0.77,1.83
		c0.146,0.172,0.265,0.305,0.344,0.424c0.146,0.212,0.094,0.504-0.119,0.65C46.05,13.75,45.957,13.776,45.864,13.776z"/>
	<path fill="#D3AA4C" d="M40.362,9.6c1.087-1.153,2.267,0.04,2.797,0.849c0.292,0.438,0.584,1.379,0.08,1.79
		c-0.438,0.358-1.061,0.013-1.445-0.265"/>
	<path fill="#B78E3D" d="M42.802,12.861c-0.332,0-0.756-0.132-1.273-0.517c-0.212-0.146-0.252-0.438-0.093-0.649
		c0.146-0.212,0.438-0.252,0.649-0.093c0.318,0.225,0.703,0.424,0.889,0.278c0.213-0.172,0.08-0.795-0.172-1.167
		c-0.346-0.517-0.889-1.074-1.379-1.114c-0.239-0.026-0.465,0.093-0.703,0.332c-0.172,0.186-0.464,0.199-0.65,0.013
		c-0.186-0.172-0.198-0.464-0.013-0.649c0.544-0.57,1.087-0.65,1.445-0.61c1.008,0.093,1.79,1.101,2.068,1.538
		c0.425,0.637,0.702,1.817-0.013,2.4C43.385,12.729,43.146,12.861,42.802,12.861z"/>
	<polygon fill="#D3AA4C" points="37.882,17.807 38.69,13.776 46.354,15.726 45.108,19.716 	"/>
	<path fill="#B78E3D" d="M38.837,13.193l7.65,1.962c0.159,0.04,0.292,0.146,0.371,0.292c0.08,0.146,0.094,0.318,0.053,0.464
		l-1.246,3.991c-0.092,0.305-0.41,0.477-0.729,0.397l-7.213-1.922c-0.306-0.08-0.491-0.385-0.438-0.689l0.809-4.031
		c0.026-0.159,0.133-0.305,0.265-0.385c0.079-0.053,0.173-0.08,0.266-0.093C38.704,13.167,38.771,13.18,38.837,13.193z M44.711,19
		l0.888-2.851l-6.443-1.644l-0.57,2.864L44.711,19z"/>
	<rect x="2.388" y="76.372" fill="#D3AA4C" width="43.967" height="3.063"/>
	<polygon fill="#D3AA4C" points="41.714,65.911 24.093,65.911 23.841,65.911 7.015,65.911 2.388,76.372 23.841,76.372 
		24.093,76.372 46.342,76.372 	"/>
	<rect x="4.244" y="71.612" fill="#B78E3D" width="10.024" height="1.061"/>
	<path fill="#B78E3D" d="M46.938,76.399l-0.279-0.637l-4.6-10.395H6.67L2.069,75.763l-0.278,0.637v0.49v3.129h45.161V76.89v-0.49
		H46.938z M45.745,78.839H2.984V76.97h42.774v1.869H45.745z M7.36,66.441h34.01l4.137,9.335H3.236L7.36,66.441z"/>
	<g>
		<g>
			<polygon fill="#D3AA4C" points="34.966,81.066 12.955,81.066 14.652,71.414 33.029,71.414 			"/>
			<path fill="#B78E3D" d="M35.694,81.663H12.239l1.909-10.846h19.372L35.694,81.663z M13.671,80.47h20.564l-1.696-8.459H15.156
				L13.671,80.47z"/>
		</g>
		<g>
			<path fill="#B78E3D" d="M16.296,79.024l0.133-1.061h0.292l0.411-3.421h-0.278l0.132-1.061h1.657l-0.093,1.061h-0.278
				l-0.332,3.421h0.292l-0.093,1.061H16.296z"/>
			<path fill="#B78E3D" d="M18.948,79.024l0.08-1.061h0.305l0.239-3.421h-0.278l0.08-1.061h1.657l-0.053,1.061h-0.279l-0.172,3.421
				h1.141l0.013-0.609h1.193l-0.013,1.67H18.948z"/>
			<path fill="#B78E3D" d="M26.718,75.126h-1.141l-0.025-0.596h-0.279l0.133,3.42h0.292l0.053,1.061h-1.843l-0.013-1.061h0.292
				l-0.053-3.42h-0.278l0.013,0.596h-1.14l0.013-1.657h3.886L26.718,75.126z"/>
			<path fill="#B78E3D" d="M27.792,79.024l-0.08-1.061h0.293l-0.293-3.421h-0.277l-0.08-1.061h3.421l0.226,1.511H29.86l-0.053-0.45
				h-0.941l0.133,1.181h0.41l-0.039-0.293h1.153l0.226,1.645h-1.193l-0.04-0.291h-0.425l0.133,1.18h0.292l0.12,1.061H27.792
				L27.792,79.024z"/>
		</g>
	</g>
	<rect x="33.731" y="71.612" fill="#B78E3D" width="10.807" height="1.061"/>
	<path fill="#E0BC75" d="M17.344,49.311h-3.182c-0.106,0-0.212-0.053-0.292-0.132c-0.08-0.08-0.12-0.186-0.106-0.306
		c0.014-0.186,0.385-4.587,1.26-6.722c0.08-0.199,0.318-0.306,0.517-0.226c0.199,0.079,0.305,0.317,0.226,0.517
		c-0.663,1.645-1.034,4.893-1.154,6.06h2.745c0.226,0,0.398,0.173,0.398,0.397C17.755,49.125,17.569,49.311,17.344,49.311z"/>
	<path fill="#E0BC75" d="M12.729,30.841c-0.079,0-0.159-0.026-0.225-0.08c-2.665-1.922-4.72-4.654-5.967-6.616
		c-0.119-0.186-0.066-0.438,0.12-0.543c0.186-0.12,0.438-0.066,0.543,0.119c1.207,1.896,3.195,4.548,5.768,6.391
		c0.172,0.133,0.226,0.372,0.093,0.557C12.968,30.774,12.849,30.841,12.729,30.841z"/>
	<path fill="#E0BC75" d="M6.061,23.018c-0.133,0-0.279-0.066-0.345-0.199c-0.451-0.796-0.703-1.313-0.703-1.326
		C4.92,21.294,5,21.056,5.199,20.963c0.199-0.093,0.438-0.013,0.53,0.186c0,0,0.239,0.504,0.676,1.273
		c0.106,0.186,0.04,0.438-0.146,0.543C6.206,23.005,6.126,23.018,6.061,23.018z"/>
	<path fill="#E0BC75" d="M3.236,18.337c-0.172,0-0.318-0.106-0.372-0.265l-0.464-1.379c-0.066-0.212,0.04-0.438,0.252-0.504
		c0.212-0.066,0.438,0.04,0.504,0.252l0.464,1.379c0.066,0.212-0.04,0.438-0.252,0.504C3.329,18.324,3.276,18.337,3.236,18.337z"/>
	<path fill="#E0BC75" d="M39.513,17.171c-0.025,0-0.053,0-0.079-0.014c-0.212-0.053-0.345-0.265-0.306-0.477l0.318-1.432
		c0.054-0.212,0.266-0.345,0.479-0.305c0.211,0.053,0.344,0.265,0.305,0.477l-0.318,1.432
		C39.871,17.051,39.698,17.171,39.513,17.171z"/>
	<path fill="#E0BC75" d="M37.418,25.02c-0.079,0-0.159-0.026-0.238-0.08c-0.173-0.132-0.212-0.384-0.079-0.557
		c0.861-1.154,2.041-4.336,2.055-4.362c0.08-0.212,0.305-0.305,0.518-0.239c0.211,0.08,0.305,0.305,0.238,0.517
		c-0.053,0.133-1.233,3.315-2.162,4.561C37.657,24.967,37.538,25.02,37.418,25.02z"/>
	<path fill="#E0BC75" d="M16.402,36.754c-0.212,0-0.384-0.159-0.397-0.371l-0.239-3.912c-0.013-0.226,0.159-0.411,0.371-0.424
		c0.226-0.013,0.411,0.159,0.424,0.372L16.8,36.33c0.013,0.226-0.159,0.411-0.371,0.424C16.416,36.754,16.416,36.754,16.402,36.754z
		"/>
	<path fill="#E0BC75" d="M15.527,57.359C15.514,57.359,15.514,57.359,15.527,57.359c-0.226,0-0.398-0.187-0.398-0.411
		c0.014-0.465,0.239-2.042,0.252-2.108c0.027-0.212,0.239-0.371,0.451-0.331c0.212,0.026,0.371,0.238,0.332,0.45
		c-0.066,0.438-0.239,1.671-0.239,2.016C15.912,57.187,15.74,57.359,15.527,57.359z"/>
	<path fill="#E0BC75" d="M29.595,56.444c-0.198,0-0.357-0.146-0.396-0.345c-0.107-0.703-0.16-0.995-0.187-1.101
		c-0.053-0.212,0.079-0.424,0.292-0.49c0.212-0.054,0.424,0.079,0.49,0.291c0.053,0.186,0.119,0.57,0.213,1.18
		c0.025,0.213-0.119,0.425-0.332,0.451C29.636,56.444,29.608,56.444,29.595,56.444z"/>
	<path fill="#E0BC75" d="M13.923,62.278c-0.225,0-0.397-0.172-0.397-0.398v-1.206c0-0.226,0.172-0.397,0.397-0.397
		c0.226,0,0.398,0.172,0.398,0.397v1.206C14.321,62.106,14.148,62.278,13.923,62.278z"/>
	<path fill="#E0BC75" d="M30.908,61.669c-0.226,0-0.397-0.173-0.397-0.398v-0.822c0-0.225,0.172-0.397,0.397-0.397
		s0.397,0.173,0.397,0.397v0.822C31.306,61.496,31.134,61.669,30.908,61.669z"/>
	<path fill="#E0BC75" d="M6.63,70.976c-0.053,0-0.106-0.013-0.159-0.039c-0.199-0.093-0.292-0.332-0.199-0.53l1.445-3.222
		c0.066-0.146,0.212-0.239,0.358-0.239h10.899c0.226,0,0.398,0.173,0.398,0.397c0,0.226-0.172,0.398-0.398,0.398H8.341l-1.339,2.996
		C6.922,70.884,6.776,70.976,6.63,70.976z"/>
	<path fill="#E0BC75" d="M24.716,67.755h-3.792c-0.226,0-0.398-0.173-0.398-0.398s0.172-0.397,0.398-0.397h3.792
		c0.226,0,0.398,0.172,0.398,0.397S24.929,67.755,24.716,67.755z"/>
	<path fill="#E0BC75" d="M16.456,22.488c-0.186,0-0.345-0.12-0.385-0.305c-0.146-0.61-0.225-1.233-0.225-1.87
		c0-0.225,0.172-0.397,0.397-0.397c0.226,0,0.398,0.172,0.398,0.397c0,0.57,0.066,1.14,0.199,1.684
		c0.053,0.212-0.08,0.424-0.292,0.478C16.509,22.488,16.482,22.488,16.456,22.488z"/>
	<path fill="#E0BC75" d="M20.155,27.367c-0.066,0-0.132-0.014-0.199-0.053c-1.525-0.849-2.745-2.188-3.447-3.766
		c-0.093-0.199,0-0.438,0.199-0.53s0.438,0,0.53,0.199c0.636,1.432,1.737,2.639,3.103,3.395c0.186,0.106,0.265,0.345,0.159,0.543
		C20.433,27.288,20.301,27.367,20.155,27.367z"/>
	<path fill="#E0BC75" d="M20.42,4.946c-0.119,0-0.252-0.053-0.332-0.172c-0.119-0.186-0.08-0.424,0.106-0.557
		c0.397-0.279,0.822-0.557,1.272-0.849c0.186-0.12,0.438-0.066,0.544,0.119c0.119,0.186,0.066,0.438-0.12,0.543
		c-0.438,0.279-0.849,0.557-1.246,0.822C20.579,4.919,20.5,4.946,20.42,4.946z"/>
	<path fill="#E0BC75" d="M15.646,9.785c-0.04-0.186-0.331-1.856,3.5-4.8c0.172-0.132,0.424-0.106,0.557,0.066
		c0.132,0.172,0.106,0.424-0.066,0.557c-3.381,2.599-3.208,3.978-3.208,3.991c0-0.013,0-0.013,0-0.013L15.646,9.785z"/>
</g>
</svg>
