<?xml version="1.0" encoding="utf-8"?>
<!-- Generator: Adobe Illustrator 16.0.0, SVG Export Plug-In . SVG Version: 6.00 Build 0)  -->
<!DOCTYPE svg PUBLIC "-//W3C//DTD SVG 1.1//EN" "http://www.w3.org/Graphics/SVG/1.1/DTD/svg11.dtd">
<svg version="1.1" id="Warstwa_1" xmlns="http://www.w3.org/2000/svg" xmlns:xlink="http://www.w3.org/1999/xlink" x="0px" y="0px"
	 width="531.84px" height="462.061px" viewBox="0 0 531.84 462.061" enable-background="new 0 0 531.84 462.061"
	 xml:space="preserve">
<g>
	<g>
		<g>
			<path fill="#DB3F37" stroke="#231F20" stroke-width="8" d="M384.88,30.254c44.699,19.76,86.736,61.237,102.839,82.417
				c27.081,35.622,38.166,62.23,39.38,71.473c1.222,9.238,0.728,94.085,0,103.563c-0.729,9.483-8.021,18.229-16.045,24.065
				c-8.021,5.836-53.972,16.047-64.18,18.965l-103.562,26.986c0,0-148.058-0.732-155.35-2.191
				c-7.295-1.456-153.159-40.842-162.642-44.489c-9.479-3.644-17.504-20.418-20.422-26.981c-2.917-6.565,2.188-97,2.188-102.833
				c0-5.836,18.946-58.498,72.935-106.485c13.126-11.668,26.986-20.421,40.113-29.9C189.042,3.291,268.189,4.001,268.189,4.001
				S327.952,5.082,384.88,30.254z"/>
		</g>
		<path fill="#F1F2F2" d="M376.53,45.943c41.371,17.845,80.277,55.301,95.181,74.426c25.067,32.177,36.452,64.546,36.452,64.546
			s0.671,84.975,0,93.531c-0.679,8.563-7.432,16.468-14.854,21.732c-7.424,5.272-49.948,14.49-59.401,17.129l-95.854,24.371
			c0,0-137.033-0.664-143.784-1.979c-6.75-1.314-150.531-40.175-150.531-40.175c-9.45-5.27-18.9-24.367-18.9-24.367l2.025-92.874
			c0,0,17.532-52.829,67.5-96.161c12.148-10.538,24.977-18.441,37.129-27.006c63.78-37.521,137.029-36.882,137.029-36.882
			S323.839,23.214,376.53,45.943z"/>
		<path fill="#DB3F37" d="M165.937,153.005V307.09h201.589V153.005H165.937z M348.268,291.679H184.279v-120.7h163.988
			L348.268,291.679L348.268,291.679z"/>
	</g>
	<path display="none" fill="#231F20" d="M320.527,462.061c-0.99,0-1.904-0.4-2.574-1.129l-17.594-19.1l-13.57,15.973
		c-0.073,0.086-0.148,0.168-0.229,0.246l-0.053,0.048c-0.134,0.126-0.296,0.249-0.494,0.378l-0.087,0.059
		c-0.129,0.079-0.302,0.165-0.489,0.241l-0.105,0.041c-0.182,0.065-0.361,0.117-0.535,0.151c-0.316,0.052-0.504,0.069-0.671,0.069
		h-0.05c-0.186-0.003-0.389-0.026-0.605-0.067l-0.211-0.06c-0.133-0.034-0.279-0.072-0.422-0.129
		c-0.05-0.021-0.098-0.045-0.146-0.069c-0.205-0.1-0.324-0.162-0.44-0.236c-0.078-0.051-0.151-0.104-0.228-0.161
		c-0.055-0.041-0.104-0.076-0.153-0.109c-0.054-0.059-0.103-0.108-0.151-0.156c-0.068-0.063-0.14-0.126-0.213-0.185L265.921,441.2
		l-15.578,16.658c-0.071,0.059-0.134,0.112-0.194,0.173c-0.046,0.044-0.094,0.095-0.141,0.146c-0.044,0.025-0.101,0.066-0.157,0.109
		c-0.086,0.065-0.16,0.127-0.24,0.18c-0.117,0.075-0.236,0.135-0.356,0.193l-0.241,0.12c-0.138,0.055-0.285,0.093-0.434,0.13
		l-0.207,0.059c-0.211,0.043-0.416,0.066-0.604,0.069h-0.054c-0.17,0-0.359-0.019-0.578-0.056l-0.102-0.017
		c-0.155-0.029-0.336-0.08-0.522-0.149l-0.105-0.039c-0.175-0.07-0.343-0.154-0.501-0.25c-0.251-0.164-0.404-0.279-0.536-0.398
		l-0.06-0.06c-0.081-0.077-0.148-0.141-0.211-0.21l-12.714-14.379l-15.878,17.436c-0.662,0.728-1.605,1.145-2.59,1.145
		c-0.223,0-0.487-0.036-0.809-0.113l-0.476-0.113l-0.474,0.118c-0.292,0.073-0.568,0.108-0.843,0.108c-1.93,0-3.5-1.569-3.5-3.5
		v-94.689c0-42.864-31.246-59.433-31.562-59.595c-1.713-0.885-2.389-3-1.505-4.715c0.604-1.17,1.797-1.897,3.114-1.897
		c0.56,0,1.099,0.132,1.602,0.392c0.781,0.402,19.233,10.131,29.155,33.676l0.136,0.32l17.689,19.206L241.5,335.25l-0.146-0.962
		c-1.359-8.938-7.223-24.704-10.133-31.794c-0.733-1.785,0.123-3.834,1.908-4.566c0.426-0.175,0.872-0.264,1.326-0.264
		c1.427,0,2.698,0.853,3.241,2.172c0.827,2.017,8.149,20.045,10.339,32.039l0.188,1.026l0.95,0.436
		c0.422,0.191,0.793,0.458,1.104,0.789l16.944,18.119l16.111-17.229l0.081-0.645c1.476-11.756,9.786-32.24,10.729-34.538
		c0.541-1.317,1.813-2.17,3.237-2.17c0.455,0,0.901,0.088,1.327,0.264c1.786,0.732,2.643,2.781,1.909,4.567
		c-2.91,7.088-8.773,22.854-10.134,31.793l-0.146,0.962l15.824,16.823l14.379-15.788c0.173-0.191,0.396-0.371,0.704-0.57l0.559-0.36
		l0.231-0.623c9.54-25.703,29.498-36.24,30.343-36.676c0.503-0.261,1.041-0.393,1.601-0.393c1.317,0,2.513,0.729,3.115,1.896
		c0.881,1.711,0.21,3.822-1.497,4.711c-1.296,0.681-31.568,17.072-31.568,59.6v91.669c0,0.326-0.05,0.659-0.146,0.987l-0.159,0.547
		l0.152,0.55c0.356,1.282-0.018,2.628-0.978,3.512C322.25,461.731,321.407,462.061,320.527,462.061z M214.814,452.377l12.905-14.171
		l-12.905-14.595V452.377z M237.124,438.275l10.665,12.062l13.338-14.263l-11.145-11.918L237.124,438.275z M270.712,436.074
		l13.285,14.206l11.585-13.637l-12.605-13.686L270.712,436.074z M304.925,436.458l12.103,13.137v-27.38L304.925,436.458z
		 M217.31,415.867l15.15,17.135l12.726-13.976l-15.415-16.483L217.31,415.867z M287.771,417.834l12.377,13.438l14.941-17.589
		l-11.719-12.531L287.771,417.834z M254.711,418.964l11.208,11.985l12.302-13.153l-11.285-12.253L254.711,418.964z M234.563,397.418
		l15.353,16.416l12.258-13.459L247.1,384.013L234.563,397.418z M271.664,400.349l11.35,12.321l15.564-16.646l-11.641-12.446
		L271.664,400.349z M214.814,408.286l10.163-10.868l-10.163-10.867V408.286z M308.163,396.024l8.863,9.479v-18.956L308.163,396.024z
		 M251.894,378.885l15.01,16.296l15.236-16.73l-14.92-15.955L251.894,378.885z M214.814,373.837v2.464l14.956,15.992l12.573-13.444
		l-15.952-17.318L214.814,373.837z M291.666,378.385l11.705,12.517l13.655-14.604v-2.458l-10.781-11.463L291.666,378.385z
		 M231.198,356.418l15.939,17.304l15.291-16.352l-16.017-17.126L231.198,356.418z M272.014,357.37l14.856,15.886l14.563-15.991
		l-14.703-15.633L272.014,357.37z M310.973,357.188l5.953,6.326l0.246-4.674c0.062-1.142,0.131-2.271,0.231-3.378l0.538-5.933
		L310.973,357.188z M214.235,353.664c0.203,1.817,0.345,3.511,0.434,5.176l0.249,4.673l6.719-7.146l-8.08-8.771L214.235,353.664z"/>
	<path display="none" fill="#C9312D" stroke="#231F20" stroke-width="7" d="M368.487,307.203H163.354
		c-6.373,0-11.539-5.167-11.539-11.54s5.166-11.54,11.539-11.54h205.134c6.373,0,11.539,5.167,11.539,11.54
		S374.86,307.203,368.487,307.203z"/>
</g>
</svg>
