<?xml version="1.0" encoding="utf-8"?>
<!-- Generator: Adobe Illustrator 16.0.0, SVG Export Plug-In . SVG Version: 6.00 Build 0)  -->
<!DOCTYPE svg PUBLIC "-//W3C//DTD SVG 1.1//EN" "http://www.w3.org/Graphics/SVG/1.1/DTD/svg11.dtd">
<svg version="1.1" id="Warstwa_1" xmlns="http://www.w3.org/2000/svg" xmlns:xlink="http://www.w3.org/1999/xlink" x="0px" y="0px"
	 width="25.364px" height="47.189px" viewBox="0 0 25.364 47.189" enable-background="new 0 0 25.364 47.189" xml:space="preserve">
<g>
	<path fill="#FFAD3B" d="M3.381,34.407L3.248,23.442l7.797-3.991c0.305-0.397,0.822,1.419,1.684,1.578
		c0.862-0.146,1.379-1.976,1.685-1.578l7.796,4.455l-0.504,10.501c0,0,2.506,8.128,2.506,12.186c-3.951,0-19.649,0-23.614,0
		C0.597,42.535,3.381,34.407,3.381,34.407z"/>
	<path fill="#231F20" d="M24.808,47.189H0v-0.597c0-3.925,2.439-11.297,2.771-12.278l-0.133-11.23l8.048-4.123
		c0.133-0.106,0.278-0.159,0.451-0.159c0.45,0,0.702,0.384,0.981,0.822c0.132,0.212,0.397,0.623,0.609,0.769
		c0.199-0.146,0.464-0.557,0.61-0.769c0.278-0.438,0.53-0.822,0.98-0.822c0.173,0,0.332,0.066,0.465,0.172l8.048,4.588
		l-0.517,10.767c0.305,0.994,2.506,8.354,2.506,12.265v0.597H24.808z M1.22,45.996h22.382c-0.213-4.084-2.44-11.337-2.467-11.416
		l-0.026-0.106l0.49-10.249l-7.186-4.097c-0.027,0.039-0.054,0.079-0.08,0.119c-0.331,0.517-0.782,1.22-1.512,1.353l-0.105,0.013
		L12.609,21.6c-0.716-0.133-1.167-0.836-1.512-1.353c-0.026-0.04-0.053-0.093-0.079-0.133l-7.187,3.673l0.133,10.7l-0.04,0.093
		C3.911,34.673,1.458,41.926,1.22,45.996z"/>
</g>
<g>
	<path fill="#FFFFFF" d="M13.948,33.864h2.068v3.103H8.791v-2.082l4.349-4.044c0.212-0.186,0.358-0.345,0.478-0.451
		c0.106-0.119,0.186-0.212,0.238-0.291c0.054-0.08,0.08-0.146,0.093-0.199c0.014-0.053,0.014-0.106,0.014-0.159
		c0-0.292-0.106-0.53-0.305-0.729c-0.199-0.198-0.451-0.305-0.729-0.305h-1.034c-0.292,0-0.53,0.106-0.729,0.305
		c-0.199,0.199-0.305,0.451-0.305,0.729H8.791c0-0.424,0.079-0.822,0.238-1.206c0.159-0.385,0.385-0.703,0.663-0.995
		c0.278-0.278,0.61-0.504,0.981-0.663s0.782-0.238,1.206-0.238h1.034c0.425,0,0.822,0.079,1.207,0.238s0.702,0.385,0.994,0.663
		c0.278,0.278,0.504,0.61,0.663,0.995c0.159,0.384,0.238,0.782,0.238,1.206c0,0.266-0.026,0.504-0.093,0.729
		c-0.065,0.226-0.159,0.438-0.278,0.637c-0.119,0.198-0.278,0.397-0.45,0.609c-0.186,0.199-0.398,0.411-0.637,0.637
		c-0.08,0.079-0.199,0.198-0.371,0.357c-0.173,0.159-0.385,0.345-0.623,0.57c-0.239,0.226-0.504,0.478-0.81,0.756
		c-0.291,0.278-0.609,0.57-0.941,0.875h2.148v-1.047H13.948z"/>
</g>
<g>
	<g>
		<path fill="#6F3F33" d="M7.292,13.127c0,1.816-1.472,3.288-3.288,3.288s-3.288-1.472-3.288-3.288s1.472-3.288,3.288-3.288
			S7.292,11.311,7.292,13.127z"/>
		<path fill="#231F20" d="M4.004,17.012c-2.147,0-3.885-1.737-3.885-3.885c0-2.148,1.737-3.885,3.885-3.885
			c2.148,0,3.885,1.736,3.885,3.885C7.889,15.274,6.152,17.012,4.004,17.012z M4.004,10.436c-1.484,0-2.691,1.206-2.691,2.691
			c0,1.484,1.207,2.691,2.691,2.691c1.485,0,2.692-1.207,2.692-2.691C6.695,11.642,5.489,10.436,4.004,10.436z"/>
	</g>
	<g>
		<path fill="#6F3F33" d="M24.768,13.127c0,1.816-1.472,3.288-3.288,3.288s-3.288-1.472-3.288-3.288s1.472-3.288,3.288-3.288
			S24.768,11.311,24.768,13.127z"/>
		<path fill="#231F20" d="M21.479,17.012c-2.147,0-3.885-1.737-3.885-3.885c0-2.148,1.737-3.885,3.885-3.885
			c2.148,0,3.885,1.736,3.885,3.885C25.364,15.274,23.614,17.012,21.479,17.012z M21.479,10.436c-1.484,0-2.691,1.206-2.691,2.691
			c0,1.484,1.207,2.691,2.691,2.691c1.485,0,2.691-1.207,2.691-2.691C24.171,11.642,22.965,10.436,21.479,10.436z"/>
	</g>
	<g>
		<path fill="#6F3F33" d="M22.262,13.883c0,5.237-4.242,9.479-9.479,9.479l0,0c-5.238,0-9.48-4.242-9.48-9.479v-3.806
			c0-5.237,4.242-9.48,9.48-9.48l0,0c5.237,0,9.479,4.243,9.479,9.48v0.928v1.406V13.883z"/>
		<path fill="#231F20" d="M12.782,23.959c-5.556,0-10.077-4.521-10.077-10.076v-3.806C2.705,4.521,7.227,0,12.782,0
			c5.555,0,10.076,4.521,10.076,10.077v3.806C22.858,19.438,18.337,23.959,12.782,23.959z M12.782,1.193
			c-4.894,0-8.884,3.991-8.884,8.884v3.806c0,4.893,3.99,8.883,8.884,8.883c4.893,0,8.883-3.99,8.883-8.883v-3.806
			C21.665,5.171,17.675,1.193,12.782,1.193z"/>
	</g>
	<path fill="#231F20" d="M21.931,7.584l-0.663-1.736l-1.286-1.937l-2.466-2.055l-4.747-1.272L8.021,1.856L5.556,3.911L4.27,5.848
		L3.606,7.584l-0.332,4.138c0,0,2.348,1.232,4.23,5.369c2.028,4.455,5.25,4.243,5.25,4.243s3.209,0.212,5.251-4.243
		c1.883-4.137,4.229-5.369,4.229-5.369L21.931,7.584z"/>
</g>
</svg>
