<?xml version="1.0" encoding="utf-8"?>
<!-- Generator: Adobe Illustrator 16.0.0, SVG Export Plug-In . SVG Version: 6.00 Build 0)  -->
<!DOCTYPE svg PUBLIC "-//W3C//DTD SVG 1.1//EN" "http://www.w3.org/Graphics/SVG/1.1/DTD/svg11.dtd">
<svg version="1.1" id="Warstwa_1" xmlns="http://www.w3.org/2000/svg" xmlns:xlink="http://www.w3.org/1999/xlink" x="0px" y="0px"
	 width="47.497px" height="76.399px" viewBox="0 0 47.497 76.399" enable-background="new 0 0 47.497 76.399" xml:space="preserve">
<g>
	<path fill="#E0BC75" d="M4.628,70.18c-0.053,0-0.106-0.014-0.159-0.039C4.27,70.047,4.178,69.809,4.27,69.61l0.637-1.418
		C5,67.993,5.239,67.9,5.437,67.993c0.199,0.093,0.292,0.332,0.199,0.53L5,69.942C4.92,70.087,4.774,70.18,4.628,70.18z"/>
	<path fill="#E0BC75" d="M15.395,70.737c-0.026,0-0.04,0-0.066,0c-0.212-0.039-0.358-0.238-0.331-0.45l0.477-2.903
		c0.04-0.213,0.239-0.358,0.451-0.332c0.212,0.04,0.358,0.238,0.331,0.451l-0.477,2.903C15.752,70.604,15.594,70.737,15.395,70.737z
		"/>
	<path fill="#E0BC75" d="M20.248,67.833h-0.941c-0.226,0-0.397-0.173-0.397-0.397c0-0.226,0.172-0.398,0.397-0.398h0.941
		c0.226,0,0.398,0.173,0.398,0.398C20.646,67.661,20.473,67.833,20.248,67.833z"/>
	<path fill="#E0BC75" d="M18.219,67.833h-2.347c-0.226,0-0.398-0.173-0.398-0.397c0-0.226,0.173-0.398,0.398-0.398h2.347
		c0.226,0,0.397,0.173,0.397,0.398C18.617,67.661,18.445,67.833,18.219,67.833z"/>
	<path fill="#D3AA4C" d="M17.331,26.001c0,0,0.093-1.525,0.106-1.525l0,0c0,0-0.014,0-0.014-0.013c-0.013,0-0.04-0.013-0.053-0.026
		c-0.093-0.04-0.252-0.106-0.451-0.212c-0.198-0.106-0.464-0.238-0.742-0.424c-0.292-0.172-0.61-0.397-0.941-0.663
		c-0.345-0.252-0.689-0.57-1.048-0.915c-0.357-0.345-0.716-0.729-1.061-1.153c-0.345-0.425-0.689-0.875-1.021-1.353
		c-0.08-0.12-0.159-0.239-0.239-0.358c-0.079-0.12-0.159-0.252-0.225-0.372c-0.159-0.252-0.306-0.517-0.451-0.769
		c-0.292-0.517-0.557-1.061-0.796-1.591c-0.238-0.544-0.464-1.074-0.663-1.618c-0.053-0.133-0.105-0.265-0.146-0.398
		c-0.04-0.132-0.093-0.265-0.133-0.398c-0.079-0.265-0.186-0.517-0.252-0.769c-0.079-0.252-0.146-0.504-0.212-0.729
		c-0.066-0.239-0.119-0.478-0.186-0.689C8.752,11.8,8.686,11.588,8.646,11.39c-0.04-0.212-0.093-0.398-0.133-0.583
		c-0.039-0.186-0.079-0.358-0.119-0.517C8.368,10.13,8.341,9.984,8.315,9.852C8.208,9.321,8.156,9.016,8.156,9.016l-6.471,1.591
		c0,0,0.106,0.345,0.305,0.941c0.054,0.146,0.106,0.318,0.159,0.504c0.066,0.186,0.133,0.372,0.212,0.583
		c0.08,0.212,0.159,0.424,0.239,0.663c0.079,0.239,0.186,0.477,0.291,0.729c0.106,0.252,0.199,0.517,0.318,0.782
		c0.12,0.266,0.239,0.544,0.372,0.835c0.119,0.292,0.278,0.583,0.41,0.875c0.066,0.146,0.146,0.305,0.226,0.451
		c0.08,0.146,0.159,0.305,0.239,0.451c0.317,0.61,0.676,1.233,1.061,1.856c0.385,0.623,0.796,1.246,1.246,1.843
		c0.226,0.305,0.451,0.597,0.689,0.889c0.119,0.146,0.239,0.292,0.358,0.438c0.119,0.146,0.252,0.278,0.371,0.424
		c0.49,0.557,1.008,1.074,1.524,1.565c0.53,0.477,1.061,0.928,1.592,1.313c0.53,0.385,1.047,0.743,1.551,1.034
		c0.504,0.292,0.981,0.543,1.419,0.743c0.438,0.199,0.835,0.358,1.18,0.464c0.345,0.12,0.623,0.199,0.822,0.239
		c0.119,0.026,0.212,0.053,0.266,0.066c0.093,0.013,0.093,0.013,0.093,0.013L17.331,26.001z"/>
	<path fill="#B78E3D" d="M16.482,28.878c-0.026,0-0.053-0.014-0.105-0.027l-0.278-0.066c-0.266-0.066-0.558-0.146-0.876-0.252
		c-0.371-0.12-0.782-0.292-1.232-0.491c-0.451-0.199-0.941-0.464-1.472-0.769c-0.478-0.278-1.008-0.623-1.618-1.074
		c-0.53-0.397-1.074-0.849-1.644-1.366c-0.61-0.57-1.114-1.087-1.565-1.604L7.32,22.806l-0.357-0.451
		c-0.213-0.252-0.411-0.518-0.597-0.77L6.259,21.44c-0.424-0.583-0.849-1.193-1.272-1.883c-0.425-0.689-0.77-1.299-1.074-1.883
		l-0.08-0.146c-0.053-0.106-0.119-0.212-0.172-0.332l-0.226-0.451c-0.04-0.093-0.093-0.199-0.146-0.292
		c-0.093-0.199-0.199-0.398-0.278-0.597l-0.372-0.835c-0.079-0.186-0.158-0.371-0.225-0.543c-0.04-0.093-0.066-0.172-0.106-0.266
		c-0.026-0.079-0.066-0.159-0.093-0.238c-0.066-0.172-0.133-0.345-0.199-0.504l-0.45-1.247l-0.677-2.068l7.717-1.883l0.358,1.883
		l0.238,1.087c0.026,0.132,0.066,0.252,0.093,0.384c0.026,0.08,0.04,0.159,0.066,0.226c0.026,0.08,0.04,0.172,0.066,0.252
		c0.04,0.146,0.066,0.292,0.119,0.424l0.226,0.742c0.04,0.146,0.093,0.305,0.146,0.464c0.027,0.093,0.066,0.186,0.093,0.278
		l0.133,0.385c0.026,0.08,0.053,0.159,0.093,0.239l0.053,0.146c0.173,0.478,0.385,0.981,0.65,1.578
		c0.265,0.57,0.517,1.074,0.769,1.551l0.106,0.172c0.105,0.199,0.212,0.384,0.331,0.57l0.226,0.372l0.238,0.358
		c0.266,0.411,0.584,0.822,0.981,1.299c0.345,0.411,0.689,0.782,1.021,1.101c0.397,0.384,0.716,0.649,0.994,0.875
		c0.331,0.252,0.623,0.464,0.889,0.623c0.265,0.159,0.504,0.305,0.702,0.398c0.226,0.106,0.358,0.172,0.411,0.186l0.716,0.292
		l-0.291,0.491c-0.014,0.226-0.054,0.716-0.066,0.968l-0.014,0.292c0,0.093-0.026,0.186-0.04,0.252h0.014l-0.889,2.851
		L16.482,28.878z M16.76,25.55c0.014-0.212,0.027-0.491,0.054-0.703c-0.054-0.026-0.106-0.053-0.159-0.079
		c-0.226-0.106-0.491-0.266-0.796-0.451c-0.292-0.186-0.637-0.411-0.994-0.689c-0.318-0.238-0.663-0.543-1.101-0.955
		c-0.358-0.345-0.729-0.743-1.114-1.193c-0.424-0.517-0.755-0.968-1.047-1.405l-0.199-0.305l-0.278-0.451
		c-0.133-0.212-0.252-0.424-0.371-0.623l-0.106-0.172c-0.278-0.504-0.544-1.034-0.822-1.644s-0.49-1.154-0.676-1.645l-0.053-0.132
		c-0.04-0.093-0.066-0.172-0.106-0.278l-0.133-0.398c-0.026-0.093-0.053-0.172-0.093-0.265c-0.053-0.172-0.119-0.345-0.172-0.517
		l-0.212-0.729c-0.054-0.159-0.094-0.318-0.133-0.477c-0.026-0.08-0.04-0.159-0.066-0.252c-0.014-0.08-0.04-0.159-0.053-0.226
		c-0.04-0.146-0.08-0.292-0.106-0.424l-0.252-1.1L7.638,9.758l-5.237,1.286l0.266,0.822l0.45,1.233
		c0.054,0.146,0.119,0.305,0.186,0.464c0.026,0.08,0.066,0.159,0.093,0.239c0.04,0.093,0.08,0.186,0.106,0.278
		c0.066,0.159,0.133,0.332,0.212,0.504l0.371,0.849c0.08,0.172,0.159,0.358,0.266,0.557c0.053,0.106,0.093,0.199,0.146,0.292
		l0.213,0.438c0.053,0.093,0.105,0.199,0.159,0.292l0.079,0.146c0.292,0.557,0.637,1.153,1.034,1.816
		c0.411,0.663,0.809,1.247,1.22,1.803l0.106,0.146c0.186,0.252,0.357,0.491,0.557,0.716l0.238,0.292l0.465,0.544
		c0.424,0.49,0.914,0.981,1.484,1.512c0.53,0.477,1.048,0.915,1.538,1.272c0.57,0.411,1.061,0.743,1.499,0.995
		c0.49,0.292,0.954,0.53,1.365,0.703c0.411,0.186,0.796,0.332,1.127,0.451c0.252,0.08,0.451,0.146,0.597,0.186l0.53-1.697
		C16.748,25.815,16.748,25.696,16.76,25.55z"/>
	<path fill="#D3AA4C" d="M5.106,4.124c0,0,1.578-3.792,2.651-0.65C8.182,4.707,6.207,5.37,5.715,5.701"/>
	<path fill="#B78E3D" d="M5.703,6.166c0.093,0,0.186-0.027,0.265-0.08c0.066-0.053,0.226-0.12,0.372-0.212
		C7.082,5.489,8.646,4.68,8.182,3.314C8.049,2.93,7.665,1.79,6.763,1.75c-0.53-0.013-1.034,0.358-1.552,1.154
		c-0.317,0.503-0.53,1.007-0.543,1.034C4.576,4.176,4.681,4.442,4.92,4.548C5.159,4.641,5.424,4.535,5.53,4.296l0,0
		C5.875,3.46,6.458,2.691,6.723,2.691l0,0c0.093,0,0.332,0.199,0.57,0.928C7.479,4.176,6.71,4.641,5.902,5.052
		C5.703,5.158,5.543,5.237,5.424,5.317C5.211,5.462,5.159,5.754,5.305,5.966C5.411,6.099,5.557,6.166,5.703,6.166z"/>
	<circle fill="#D3AA4C" cx="4.457" cy="7.292" r="3.991"/>
	<path fill="#B78E3D" d="M0.863,9.931c-1.458-1.976-1.021-4.773,0.955-6.232c0.769-0.57,1.684-0.862,2.639-0.862
		c1.418,0,2.758,0.676,3.593,1.816c0.703,0.955,0.994,2.135,0.809,3.315c-0.186,1.18-0.809,2.214-1.764,2.917
		c-0.769,0.57-1.684,0.862-2.638,0.862C3.038,11.748,1.699,11.071,0.863,9.931z M2.361,4.442C0.796,5.595,0.452,7.81,1.606,9.374
		c0.662,0.902,1.724,1.445,2.851,1.445c0.755,0,1.472-0.239,2.081-0.689c0.756-0.557,1.26-1.379,1.406-2.307
		c0.146-0.928-0.08-1.87-0.65-2.625C6.63,4.296,5.57,3.752,4.443,3.752C3.701,3.766,2.971,4.004,2.361,4.442z"/>
	<path fill="#D3AA4C" d="M3.237,3.938c0,0,1.577-3.792,2.651-0.65c0.424,1.233-1.552,1.896-2.042,2.228"/>
	<path fill="#B78E3D" d="M3.846,5.979c0.093,0,0.186-0.026,0.266-0.08c0.066-0.053,0.225-0.119,0.371-0.212
		C5.292,5.277,6.79,4.495,6.326,3.129C6.193,2.745,5.809,1.604,4.907,1.564c-0.53-0.013-1.034,0.358-1.551,1.153
		c-0.318,0.504-0.53,1.008-0.544,1.034c-0.093,0.239,0.014,0.504,0.252,0.61c0.238,0.093,0.504-0.013,0.61-0.251l0,0
		c0.345-0.835,0.928-1.604,1.193-1.604l0,0c0.093,0,0.331,0.199,0.569,0.928c0.186,0.557-0.583,1.021-1.392,1.432
		C3.846,4.972,3.687,5.052,3.568,5.131C3.356,5.277,3.302,5.569,3.449,5.781C3.554,5.914,3.701,5.979,3.846,5.979z"/>
	<path fill="#D3AA4C" d="M1.619,4.574c0,0,1.578-3.792,2.651-0.65c0.425,1.233-1.551,1.896-2.041,2.228"/>
	<path fill="#B78E3D" d="M2.215,6.629c0.093,0,0.186-0.026,0.266-0.08c0.066-0.053,0.225-0.119,0.371-0.212
		c0.742-0.385,2.307-1.18,1.843-2.559C4.562,3.394,4.178,2.254,3.276,2.214c-0.53-0.014-1.034,0.358-1.551,1.153
		c-0.318,0.504-0.53,1.008-0.544,1.034c-0.093,0.239,0.014,0.504,0.252,0.61c0.238,0.093,0.504-0.013,0.61-0.252
		c0.345-0.835,0.928-1.604,1.193-1.604l0,0c0.092,0,0.331,0.199,0.569,0.928c0.186,0.557-0.583,1.021-1.392,1.432
		C2.215,5.622,2.056,5.701,1.937,5.781c-0.212,0.146-0.266,0.438-0.119,0.65C1.923,6.55,2.07,6.629,2.215,6.629z"/>
	<path fill="#D3AA4C" d="M0.492,6.789c0,0,0.093-4.11,2.228-1.564c0.835,0.994-0.77,2.333-1.101,2.811"/>
	<path fill="#B78E3D" d="M1.632,8.512c0.146,0,0.291-0.066,0.384-0.199C2.07,8.247,2.175,8.114,2.295,7.982
		c0.557-0.637,1.724-1.936,0.795-3.05C2.838,4.627,2.056,3.699,1.195,3.991C0.691,4.163,0.359,4.707,0.173,5.622
		C0.054,6.205,0.041,6.762,0.041,6.775c0,0.252,0.199,0.464,0.451,0.477c0.252,0,0.464-0.199,0.478-0.451l0,0
		C0.996,5.9,1.248,4.958,1.512,4.866c0.08-0.026,0.385,0.066,0.876,0.663c0.384,0.451-0.173,1.154-0.77,1.83
		C1.473,7.531,1.354,7.664,1.274,7.783c-0.146,0.212-0.093,0.504,0.119,0.65C1.447,8.486,1.54,8.512,1.632,8.512z"/>
	<path fill="#D3AA4C" d="M7.134,4.335c-1.087-1.153-2.267,0.04-2.798,0.849c-0.291,0.438-0.583,1.379-0.079,1.79
		c0.438,0.358,1.061,0.013,1.445-0.265"/>
	<path fill="#B78E3D" d="M4.695,7.597c0.331,0,0.756-0.132,1.272-0.517C6.18,6.935,6.219,6.643,6.06,6.431
		C5.915,6.218,5.623,6.179,5.411,6.338C5.092,6.563,4.708,6.762,4.522,6.616C4.31,6.444,4.443,5.821,4.695,5.449
		C5.04,4.932,5.583,4.375,6.074,4.335c0.238-0.026,0.464,0.093,0.703,0.332C6.949,4.853,7.241,4.866,7.426,4.68
		C7.612,4.508,7.625,4.216,7.44,4.031c-0.544-0.57-1.088-0.65-1.445-0.61c-1.008,0.093-1.79,1.101-2.068,1.538
		c-0.425,0.637-0.703,1.817,0.013,2.4C4.098,7.465,4.35,7.597,4.695,7.597z"/>
	<polygon fill="#D3AA4C" points="9.601,12.543 8.792,8.512 1.141,10.461 2.388,14.452 	"/>
	<path fill="#B78E3D" d="M8.845,7.916c0.093,0.013,0.186,0.04,0.265,0.093c0.133,0.093,0.239,0.226,0.266,0.385l0.809,4.031
		c0.066,0.305-0.133,0.61-0.438,0.689l-7.213,1.922c-0.305,0.08-0.623-0.093-0.729-0.397l-1.246-3.991
		c-0.053-0.159-0.026-0.332,0.053-0.464c0.08-0.133,0.212-0.252,0.371-0.292l7.651-1.962C8.712,7.916,8.779,7.902,8.845,7.916z
		 M8.912,12.105l-0.57-2.864l-6.444,1.644l0.889,2.851L8.912,12.105z"/>
	<path fill="#D3AA4C" d="M28.535,57.252h6.1c0-9.188-1.645-13.523-1.711-13.869l-5.967,1.233l2.983-0.623l-2.983,0.61
		C26.97,44.709,28.535,48.727,28.535,57.252z"/>
	<path fill="#B78E3D" d="M35.231,57.849h-7.293v-0.597c0-8.445-1.564-12.437-1.578-12.517l-0.119-0.583l7.146-1.472l0.12,0.583
		c0.065,0.345,1.724,4.747,1.724,13.988V57.849z M29.131,56.657h4.906c-0.054-7.585-1.207-10.582-1.578-12.557l-4.813,0.994
		C28.004,47.016,29.065,49.682,29.131,56.657z"/>
	<path fill="#D3AA4C" d="M23.828,39.499h1.286l8.553,0.478c0,0,1.484,2.439,1.484,8.274c-2.399,0-9.136,0-9.136,0l-0.45-4.43
		l-1.26,0.385l-0.146-0.039C24.292,41.368,24.186,42.296,23.828,39.499z"/>
	<path fill="#B78E3D" d="M24.186,43.543l0.119,0.039l1.736-0.518l0.465,4.588h8.088c-0.08-4.641-1.048-5.675-1.366-7.094
		l-8.128-0.45h-1.192c-0.04-0.397-0.093-0.796-0.146-1.193h1.353l8.977,0.49l0.106,0.425c0.065,0.252,1.498,2.572,1.498,8.419v0.597
		h-10.17l-0.425-4.27c0,0-0.384,0.119-0.795,0.119c-0.066,0-0.119,0-0.186-0.013C24.146,44.312,24.172,43.927,24.186,43.543z"/>
	<rect x="27.5" y="59.056" fill="#D3AA4C" width="8.313" height="1.591"/>
	<path fill="#B78E3D" d="M35.814,61.112H27.5c-0.252,0-0.464-0.213-0.464-0.465v-1.591c0-0.252,0.212-0.464,0.464-0.464h8.313
		c0.252,0,0.464,0.212,0.464,0.464v1.591C36.278,60.899,36.066,61.112,35.814,61.112z M27.964,60.183h7.386V59.52h-7.386V60.183z"/>
	<rect x="27.5" y="53.924" fill="#D3AA4C" width="8.313" height="5.132"/>
	<path fill="#B78E3D" d="M35.814,59.52H27.5c-0.252,0-0.464-0.212-0.464-0.464v-5.132c0-0.252,0.212-0.464,0.464-0.464h8.313
		c0.252,0,0.464,0.212,0.464,0.464v5.132C36.278,59.308,36.066,59.52,35.814,59.52z M27.964,58.592h7.386v-4.203h-7.386V58.592z"/>
	<path fill="#D3AA4C" d="M29.702,55.821v-1.459c0-1.021,0.822-1.843,1.843-1.843l0,0c1.021,0,1.843,0.822,1.843,1.843v1.459"/>
	<path fill="#B78E3D" d="M27.686,58.738l-0.371-0.849l1.923-0.861v-3.342h0.928v3.646c0,0.186-0.106,0.345-0.278,0.424
		L27.686,58.738z"/>
	<path fill="#B78E3D" d="M35.39,58.738l-2.201-0.981c-0.173-0.079-0.278-0.238-0.278-0.424v-3.646h0.928v3.354l1.923,0.862
		L35.39,58.738z"/>
	<rect x="29.702" y="56.868" fill="#B78E3D" width="3.673" height="0.929"/>
	<path fill="#B78E3D" d="M33.852,55.821h-0.929v-1.459c0-0.756-0.623-1.379-1.379-1.379s-1.379,0.623-1.379,1.379v1.459h-0.928
		v-1.459c0-1.272,1.034-2.307,2.307-2.307c1.273,0,2.308,1.034,2.308,2.307V55.821z"/>
	<path fill="#D3AA4C" d="M20.022,57.252h-6.099c0-9.188,1.644-13.523,1.71-13.869l5.967,1.233l-2.983-0.623l2.983,0.61
		C21.6,44.709,20.022,48.727,20.022,57.252z"/>
	<path fill="#B78E3D" d="M13.327,57.252c0-9.241,1.657-13.644,1.724-13.988l0.119-0.583l7.146,1.472l-0.119,0.583
		c-0.013,0.08-1.578,4.071-1.578,12.517v0.597h-7.292V57.252z M20.924,45.094L16.111,44.1c-0.371,1.988-1.524,4.972-1.578,12.557
		h4.906C19.492,49.682,20.566,47.016,20.924,45.094z"/>
	<path fill="#D3AA4C" d="M24.743,39.499h-1.286l-8.552,0.478c0,0-1.485,2.439-1.485,8.274c2.399,0,9.136,0,9.136,0l0.45-4.43
		l1.26,0.385l0.146-0.039C24.279,41.368,24.384,42.296,24.743,39.499z"/>
	<path fill="#B78E3D" d="M24.384,43.543l-0.119,0.039l-1.737-0.518l-0.464,4.588h-8.088c0.08-4.641,1.048-5.675,1.366-7.094
		l8.127-0.45h1.193c0.04-0.397,0.094-0.796,0.146-1.193h-1.353l-8.977,0.49l-0.106,0.425c-0.065,0.252-1.498,2.572-1.498,8.419
		v0.597h10.17l0.424-4.27c0,0,0.385,0.119,0.796,0.119c0.066,0,0.119,0,0.186-0.013C24.411,44.312,24.398,43.927,24.384,43.543z"/>
	<rect x="12.756" y="59.056" fill="#D3AA4C" width="8.313" height="1.591"/>
	<path fill="#B78E3D" d="M21.056,61.112h-8.3c-0.252,0-0.464-0.213-0.464-0.465v-1.591c0-0.252,0.212-0.464,0.464-0.464h8.313
		c0.252,0,0.464,0.212,0.464,0.464v1.591C21.521,60.899,21.322,61.112,21.056,61.112z M13.22,60.183h7.386V59.52H13.22V60.183z"/>
	<rect x="12.756" y="53.924" fill="#D3AA4C" width="8.313" height="5.132"/>
	<path fill="#B78E3D" d="M21.056,59.52h-8.3c-0.252,0-0.464-0.212-0.464-0.464v-5.132c0-0.252,0.212-0.464,0.464-0.464h8.313
		c0.252,0,0.464,0.212,0.464,0.464v5.132C21.521,59.308,21.322,59.52,21.056,59.52z M13.22,58.592h7.386v-4.203H13.22V58.592z"/>
	<path fill="#D3AA4C" d="M18.856,55.821v-1.459c0-1.021-0.822-1.843-1.844-1.843l0,0c-1.021,0-1.843,0.822-1.843,1.843v1.459"/>
	<path fill="#B78E3D" d="M20.871,58.738l-2.2-0.981c-0.173-0.079-0.279-0.238-0.279-0.424v-3.646h0.929v3.354l1.923,0.862
		L20.871,58.738z"/>
	<path fill="#B78E3D" d="M13.167,58.738l-0.371-0.849l1.923-0.861v-3.342h0.928v3.646c0,0.186-0.106,0.345-0.278,0.424
		L13.167,58.738z"/>
	<rect x="15.183" y="56.868" fill="#B78E3D" width="3.673" height="0.929"/>
	<path fill="#B78E3D" d="M14.719,55.821h0.928v-1.459c0-0.756,0.623-1.379,1.379-1.379s1.379,0.623,1.379,1.379v1.459h0.928v-1.459
		c0-1.272-1.034-2.307-2.307-2.307c-1.273,0-2.307,1.034-2.307,2.307V55.821z"/>
	<path fill="#D3AA4C" d="M30.166,26.001c0,0-0.093-1.525-0.106-1.525l0,0c0,0,0.014,0,0.014-0.013c0.014,0,0.04-0.013,0.053-0.026
		c0.093-0.04,0.252-0.106,0.451-0.212c0.199-0.106,0.464-0.238,0.742-0.424c0.292-0.172,0.61-0.397,0.941-0.663
		c0.345-0.252,0.689-0.57,1.048-0.915s0.716-0.729,1.061-1.153c0.345-0.425,0.689-0.875,1.021-1.353
		c0.079-0.12,0.159-0.239,0.238-0.358c0.079-0.12,0.159-0.252,0.226-0.372c0.159-0.252,0.305-0.517,0.45-0.769
		c0.292-0.517,0.558-1.061,0.796-1.591c0.238-0.544,0.464-1.074,0.663-1.618c0.053-0.133,0.106-0.265,0.146-0.398
		c0.04-0.132,0.093-0.265,0.133-0.398c0.08-0.265,0.186-0.517,0.252-0.769c0.079-0.252,0.146-0.504,0.212-0.729
		c0.066-0.239,0.119-0.478,0.186-0.689c0.054-0.226,0.12-0.438,0.159-0.636c0.04-0.212,0.093-0.398,0.133-0.583
		s0.08-0.358,0.119-0.517c0.026-0.159,0.053-0.305,0.08-0.438c0.105-0.531,0.159-0.835,0.159-0.835l6.47,1.591
		c0,0-0.105,0.345-0.305,0.941c-0.053,0.146-0.106,0.318-0.159,0.504c-0.066,0.186-0.133,0.372-0.212,0.583
		c-0.08,0.212-0.159,0.424-0.238,0.663c-0.08,0.239-0.187,0.477-0.292,0.729c-0.106,0.252-0.199,0.517-0.318,0.782
		c-0.119,0.266-0.238,0.544-0.371,0.835c-0.119,0.292-0.278,0.583-0.411,0.875c-0.066,0.146-0.146,0.305-0.226,0.451
		c-0.079,0.146-0.159,0.305-0.238,0.451c-0.318,0.61-0.677,1.233-1.062,1.856c-0.384,0.623-0.795,1.246-1.246,1.843
		c-0.226,0.305-0.45,0.597-0.689,0.889c-0.119,0.146-0.238,0.292-0.357,0.438c-0.12,0.146-0.252,0.278-0.372,0.424
		c-0.49,0.557-1.007,1.074-1.524,1.565c-0.53,0.477-1.061,0.928-1.591,1.313c-0.53,0.385-1.048,0.743-1.552,1.034
		c-0.504,0.292-0.98,0.543-1.419,0.743c-0.438,0.199-0.835,0.358-1.18,0.464c-0.345,0.12-0.623,0.199-0.822,0.239
		c-0.119,0.026-0.212,0.053-0.265,0.066c-0.093,0.013-0.093,0.013-0.093,0.013L30.166,26.001z"/>
	<path fill="#B78E3D" d="M30.484,29.024l-0.889-2.851h0.014c-0.026-0.066-0.04-0.159-0.04-0.252l-0.014-0.292
		c-0.013-0.265-0.053-0.743-0.065-0.968l-0.292-0.49l0.716-0.292c0.053-0.026,0.199-0.08,0.411-0.186
		c0.199-0.093,0.438-0.226,0.703-0.397c0.265-0.159,0.557-0.372,0.888-0.624c0.278-0.212,0.597-0.491,0.995-0.875
		c0.331-0.318,0.676-0.689,1.021-1.101c0.397-0.477,0.703-0.901,0.981-1.299l0.238-0.358l0.226-0.372
		c0.119-0.186,0.226-0.371,0.331-0.57l0.106-0.172c0.266-0.464,0.517-0.981,0.769-1.551c0.266-0.583,0.478-1.101,0.65-1.578
		l0.053-0.146c0.026-0.08,0.066-0.159,0.093-0.239l0.133-0.385c0.026-0.093,0.066-0.186,0.093-0.278
		c0.053-0.159,0.106-0.318,0.146-0.464l0.226-0.743c0.04-0.146,0.08-0.278,0.119-0.424c0.026-0.093,0.04-0.172,0.066-0.252
		c0.014-0.066,0.04-0.146,0.066-0.226c0.04-0.132,0.066-0.265,0.093-0.384l0.239-1.087l0.357-1.883l7.717,1.883l-0.676,2.068
		l-0.451,1.247c-0.066,0.159-0.133,0.332-0.199,0.504c-0.026,0.08-0.066,0.159-0.093,0.239c-0.039,0.093-0.066,0.172-0.105,0.265
		c-0.066,0.172-0.146,0.358-0.226,0.543l-0.371,0.835c-0.08,0.199-0.186,0.398-0.278,0.597c-0.054,0.093-0.093,0.186-0.146,0.292
		l-0.226,0.451c-0.053,0.119-0.119,0.225-0.172,0.331l-0.08,0.146c-0.305,0.583-0.662,1.207-1.073,1.883
		c-0.425,0.689-0.849,1.299-1.273,1.883l-0.105,0.146c-0.187,0.252-0.385,0.517-0.597,0.769l-0.358,0.451l-0.371,0.424
		c-0.451,0.517-0.968,1.034-1.564,1.604c-0.558,0.518-1.114,0.968-1.645,1.366c-0.609,0.451-1.141,0.795-1.617,1.074
		c-0.53,0.305-1.021,0.57-1.472,0.769c-0.451,0.199-0.862,0.371-1.233,0.491c-0.318,0.106-0.623,0.199-0.875,0.252l-0.278,0.066
		c-0.054,0.014-0.08,0.014-0.106,0.027L30.484,29.024z M30.749,25.882l0.531,1.697c0.146-0.04,0.357-0.106,0.597-0.186
		c0.331-0.106,0.702-0.265,1.127-0.451c0.411-0.186,0.875-0.424,1.365-0.703c0.438-0.252,0.929-0.583,1.498-0.995
		c0.491-0.371,1.008-0.795,1.538-1.273c0.57-0.53,1.061-1.034,1.485-1.511l0.464-0.544l0.239-0.292
		c0.198-0.239,0.371-0.478,0.557-0.716l0.105-0.146c0.411-0.543,0.81-1.14,1.221-1.803c0.397-0.663,0.742-1.247,1.034-1.816
		l0.079-0.146c0.053-0.093,0.106-0.199,0.159-0.292l0.212-0.438c0.04-0.093,0.093-0.199,0.146-0.292
		c0.093-0.199,0.186-0.371,0.265-0.557l0.371-0.849c0.08-0.172,0.146-0.332,0.213-0.504c0.039-0.093,0.079-0.186,0.105-0.278
		c0.026-0.08,0.066-0.159,0.093-0.239c0.066-0.159,0.133-0.318,0.186-0.464l0.451-1.233l0.265-0.822l-5.237-1.286l-0.132,0.676
		l-0.252,1.101c-0.026,0.146-0.066,0.278-0.106,0.424c-0.013,0.08-0.04,0.146-0.053,0.226c-0.026,0.093-0.04,0.172-0.066,0.252
		c-0.04,0.146-0.08,0.305-0.133,0.477l-0.212,0.729c-0.053,0.172-0.106,0.345-0.173,0.517c-0.026,0.08-0.053,0.172-0.093,0.265
		l-0.132,0.397c-0.04,0.106-0.066,0.186-0.106,0.279l-0.053,0.132c-0.186,0.491-0.398,1.034-0.677,1.645
		c-0.278,0.61-0.544,1.14-0.822,1.644l-0.105,0.172c-0.119,0.212-0.239,0.424-0.371,0.623l-0.279,0.451l-0.198,0.305
		c-0.292,0.438-0.623,0.888-1.048,1.405c-0.385,0.451-0.756,0.849-1.113,1.193c-0.438,0.411-0.782,0.716-1.101,0.955
		c-0.358,0.279-0.689,0.517-0.994,0.689c-0.306,0.186-0.57,0.332-0.796,0.451c-0.053,0.027-0.106,0.053-0.159,0.08
		c0.014,0.225,0.026,0.49,0.053,0.703C30.736,25.696,30.749,25.815,30.749,25.882z"/>
	<path fill="#D3AA4C" d="M33.189,33.161l0.132-10.965l-7.796-3.991c-0.305-0.397-0.822,1.419-1.684,1.578
		c-0.862-0.146-1.379-1.976-1.685-1.578l-7.796,4.455l0.504,10.501c0,0-2.506,8.128-2.506,12.186c3.951,0,19.649,0,23.614,0
		C35.973,41.276,33.189,33.161,33.189,33.161z"/>
	<path fill="#B78E3D" d="M36.57,45.943H11.762v-0.597c0-3.912,2.201-11.271,2.506-12.265L13.75,22.315l8.049-4.588
		c0.133-0.119,0.291-0.172,0.464-0.172c0.451,0,0.703,0.384,0.981,0.822c0.132,0.212,0.397,0.623,0.609,0.769
		c0.199-0.146,0.464-0.557,0.61-0.769c0.278-0.438,0.53-0.822,0.981-0.822c0.158,0,0.317,0.053,0.45,0.159l8.049,4.124l-0.133,11.23
		c0.331,0.981,2.771,8.366,2.771,12.278v0.597H36.57z M12.968,44.75H35.35c-0.239-4.084-2.705-11.323-2.731-11.403l-0.04-0.093
		v-0.106l0.133-10.594l-7.187-3.673c-0.026,0.04-0.053,0.093-0.079,0.132c-0.332,0.518-0.783,1.233-1.512,1.353l-0.106,0.013
		l-0.106-0.013c-0.716-0.132-1.166-0.835-1.511-1.353c-0.026-0.04-0.054-0.079-0.08-0.119l-7.187,4.097l0.491,10.25l-0.026,0.106
		C15.409,33.413,13.18,40.666,12.968,44.75z"/>
	<path fill="#D3AA4C" d="M29.039,18.722c0,4.349-2.36,8.95-5.264,8.95c-2.904,0-5.264-4.601-5.264-8.95s2.359-7.876,5.264-7.876
		C26.678,10.846,29.039,14.373,29.039,18.722z"/>
	<path fill="#B78E3D" d="M23.775,28.268c-1.591,0-3.103-1.113-4.243-3.155c-1.034-1.83-1.617-4.164-1.617-6.404
		c0-2.214,0.583-4.309,1.644-5.9c1.114-1.657,2.612-2.572,4.217-2.572s3.116,0.915,4.216,2.572c1.062,1.578,1.645,3.673,1.645,5.9
		c0,2.241-0.583,4.574-1.617,6.404C26.877,27.155,25.366,28.268,23.775,28.268z M23.775,11.442c-2.572,0-4.667,3.262-4.667,7.279
		c0,2.042,0.53,4.164,1.458,5.821c0.901,1.618,2.068,2.546,3.195,2.546s2.294-0.928,3.195-2.546
		c0.929-1.657,1.459-3.779,1.459-5.821C28.442,14.704,26.347,11.442,23.775,11.442z"/>
	<path fill="#D3AA4C" d="M42.39,4.124c0,0-1.577-3.792-2.651-0.65c-0.425,1.233,1.551,1.896,2.042,2.228"/>
	<path fill="#B78E3D" d="M41.781,6.166c-0.093,0-0.186-0.027-0.266-0.08c-0.066-0.053-0.226-0.12-0.371-0.212
		c-0.742-0.384-2.307-1.193-1.843-2.559C39.434,2.93,39.818,1.79,40.72,1.75c0.53-0.013,1.034,0.358,1.551,1.154
		c0.318,0.503,0.53,1.007,0.544,1.034c0.093,0.238-0.014,0.504-0.252,0.61c-0.238,0.093-0.504-0.013-0.61-0.252l0,0
		c-0.345-0.835-0.928-1.604-1.193-1.604l0,0c-0.093,0-0.331,0.199-0.569,0.928c-0.186,0.557,0.583,1.021,1.392,1.432
		c0.199,0.106,0.358,0.186,0.478,0.265c0.212,0.146,0.266,0.438,0.119,0.649C42.073,6.099,41.926,6.166,41.781,6.166z"/>
	<circle fill="#D3AA4C" cx="43.041" cy="7.292" r="3.991"/>
	<path fill="#B78E3D" d="M43.041,11.748c-0.955,0-1.87-0.305-2.639-0.862c-0.955-0.703-1.591-1.737-1.764-2.917
		c-0.186-1.18,0.106-2.36,0.809-3.315c0.836-1.14,2.175-1.816,3.594-1.816c0.954,0,1.869,0.305,2.639,0.862
		c1.976,1.458,2.413,4.243,0.954,6.232C45.798,11.071,44.446,11.748,43.041,11.748z M43.041,3.766c-1.127,0-2.188,0.543-2.851,1.445
		c-0.558,0.756-0.783,1.697-0.65,2.625c0.146,0.928,0.637,1.75,1.406,2.307c0.609,0.451,1.325,0.689,2.081,0.689
		c1.127,0,2.188-0.543,2.851-1.445c1.154-1.564,0.809-3.779-0.756-4.932C44.512,4.004,43.796,3.766,43.041,3.766z"/>
	<path fill="#D3AA4C" d="M44.247,3.938c0,0-1.577-3.792-2.651-0.65c-0.425,1.233,1.551,1.896,2.042,2.228"/>
	<path fill="#B78E3D" d="M43.65,5.979c-0.093,0-0.186-0.026-0.265-0.08c-0.066-0.053-0.226-0.119-0.371-0.212
		c-0.81-0.411-2.308-1.193-1.844-2.559c0.133-0.384,0.518-1.525,1.419-1.564c0.53-0.013,1.034,0.358,1.552,1.153
		c0.317,0.504,0.53,1.008,0.543,1.034c0.093,0.239-0.013,0.504-0.252,0.61c-0.238,0.093-0.504-0.013-0.609-0.251l0,0
		c-0.345-0.835-0.929-1.604-1.193-1.604l0,0c-0.093,0-0.332,0.199-0.57,0.928c-0.186,0.557,0.583,1.021,1.393,1.432
		c0.198,0.106,0.357,0.186,0.477,0.266c0.213,0.146,0.266,0.438,0.12,0.649C43.942,5.914,43.796,5.979,43.65,5.979z"/>
	<path fill="#D3AA4C" d="M45.877,4.574c0,0-1.577-3.792-2.651-0.65c-0.425,1.233,1.551,1.896,2.042,2.228"/>
	<path fill="#B78E3D" d="M45.268,6.629c-0.093,0-0.186-0.026-0.266-0.08c-0.066-0.053-0.226-0.119-0.371-0.212
		c-0.742-0.385-2.307-1.18-1.843-2.559c0.132-0.385,0.517-1.525,1.419-1.564c0.53-0.014,1.033,0.358,1.551,1.153
		c0.318,0.504,0.53,1.008,0.544,1.034c0.093,0.239-0.014,0.504-0.252,0.61c-0.239,0.093-0.504-0.013-0.61-0.252
		c-0.345-0.835-0.928-1.604-1.193-1.604l0,0c-0.093,0-0.331,0.199-0.57,0.928c-0.186,0.557,0.584,1.021,1.393,1.432
		c0.199,0.106,0.358,0.186,0.478,0.265c0.212,0.146,0.265,0.438,0.119,0.65C45.573,6.55,45.427,6.629,45.268,6.629z"/>
	<path fill="#D3AA4C" d="M47.004,6.789c0,0-0.093-4.11-2.228-1.564c-0.835,0.994,0.77,2.333,1.101,2.811"/>
	<path fill="#B78E3D" d="M45.865,8.512c-0.146,0-0.292-0.066-0.385-0.199c-0.053-0.066-0.159-0.199-0.278-0.332
		c-0.557-0.637-1.724-1.936-0.796-3.05c0.252-0.305,1.034-1.233,1.896-0.941c0.504,0.172,0.835,0.716,1.021,1.631
		c0.119,0.583,0.133,1.141,0.133,1.154c0,0.252-0.199,0.464-0.451,0.477c-0.252,0-0.464-0.199-0.477-0.451l0,0
		C46.5,5.9,46.249,4.958,45.984,4.866c-0.08-0.026-0.385,0.066-0.875,0.663c-0.385,0.451,0.172,1.154,0.769,1.83
		c0.146,0.172,0.266,0.305,0.345,0.424c0.146,0.212,0.093,0.504-0.119,0.65C46.05,8.486,45.958,8.512,45.865,8.512z"/>
	<path fill="#D3AA4C" d="M40.362,4.335c1.087-1.153,2.268,0.04,2.798,0.849c0.292,0.438,0.583,1.379,0.079,1.79
		c-0.438,0.358-1.061,0.013-1.445-0.265"/>
	<path fill="#B78E3D" d="M42.801,7.597c-0.331,0-0.756-0.132-1.272-0.517c-0.212-0.146-0.252-0.438-0.093-0.649
		c0.146-0.212,0.438-0.252,0.649-0.093c0.318,0.225,0.703,0.424,0.889,0.278c0.212-0.172,0.079-0.795-0.173-1.167
		c-0.345-0.517-0.888-1.074-1.379-1.114c-0.238-0.026-0.464,0.093-0.702,0.332c-0.173,0.186-0.465,0.199-0.65,0.013
		c-0.186-0.172-0.198-0.464-0.013-0.649c0.543-0.57,1.087-0.65,1.445-0.61c1.008,0.093,1.79,1.101,2.068,1.538
		c0.424,0.637,0.702,1.817-0.014,2.4C43.385,7.465,43.146,7.597,42.801,7.597z"/>
	<polygon fill="#D3AA4C" points="37.882,12.543 38.691,8.512 46.355,10.461 45.109,14.452 	"/>
	<path fill="#B78E3D" d="M38.837,7.929l7.65,1.962c0.159,0.04,0.292,0.146,0.371,0.292c0.079,0.146,0.093,0.318,0.053,0.464
		l-1.246,3.991c-0.093,0.305-0.411,0.477-0.729,0.397l-7.213-1.922c-0.305-0.08-0.49-0.385-0.438-0.689l0.809-4.031
		c0.027-0.159,0.133-0.305,0.266-0.385c0.079-0.053,0.172-0.08,0.265-0.093C38.705,7.902,38.771,7.916,38.837,7.929z M44.71,13.736
		l0.889-2.851l-6.444-1.644l-0.569,2.864L44.71,13.736z"/>
	<rect x="2.388" y="71.108" fill="#D3AA4C" width="43.967" height="3.063"/>
	<polygon fill="#D3AA4C" points="41.714,60.647 24.093,60.647 23.841,60.647 7.015,60.647 2.388,71.108 23.841,71.108 
		24.093,71.108 46.355,71.108 	"/>
	<rect x="4.244" y="66.348" fill="#B78E3D" width="10.024" height="1.061"/>
	<path fill="#B78E3D" d="M46.952,71.135l-0.278-0.637l-4.601-10.395H6.684L2.083,70.499l-0.278,0.637v0.49v3.129h45.161v-3.129
		v-0.49H46.952z M45.758,73.575H2.985v-1.869h42.773V73.575z M7.36,61.177h34.01l4.137,9.335H3.237L7.36,61.177z"/>
	<g>
		<g>
			<polygon fill="#D3AA4C" points="34.965,75.802 12.956,75.802 14.666,66.15 33.042,66.15 			"/>
			<path fill="#B78E3D" d="M35.695,76.399H12.252l1.909-10.846h19.372L35.695,76.399z M13.671,75.206h20.564l-1.697-8.459H15.157
				L13.671,75.206z"/>
		</g>
		<g>
			<path fill="#B78E3D" d="M16.296,73.76l0.133-1.061h0.292l0.411-3.421h-0.279l0.133-1.061h1.657l-0.093,1.061h-0.278L17.941,72.7
				h0.291l-0.093,1.061H16.296z"/>
			<path fill="#B78E3D" d="M18.961,73.76l0.08-1.061h0.305l0.238-3.421h-0.278l0.08-1.061h1.657l-0.053,1.061h-0.279L20.54,72.7
				h1.141l0.013-0.609h1.193l-0.013,1.67H18.961z"/>
			<path fill="#B78E3D" d="M26.718,69.862h-1.141l-0.026-0.596h-0.278l0.133,3.42h0.292l0.053,1.061h-1.843l-0.014-1.061h0.292
				l-0.054-3.42h-0.278l0.014,0.596h-1.141l0.014-1.657h3.885L26.718,69.862z"/>
			<path fill="#B78E3D" d="M27.792,73.76l-0.08-1.061h0.292l-0.292-3.421h-0.278l-0.079-1.061h3.421L31,69.729h-1.14l-0.054-0.45
				h-0.941l0.133,1.181h0.411l-0.04-0.293h1.154l0.225,1.645h-1.193l-0.039-0.291h-0.425l0.133,1.18h0.292l0.119,1.061H27.792
				L27.792,73.76z"/>
		</g>
	</g>
	<rect x="33.732" y="66.348" fill="#B78E3D" width="10.807" height="1.061"/>
	<path fill="#E0BC75" d="M17.344,44.046h-3.183c-0.105,0-0.212-0.053-0.291-0.132c-0.08-0.08-0.12-0.186-0.106-0.306
		c0.014-0.186,0.385-4.587,1.26-6.722c0.079-0.199,0.318-0.305,0.517-0.225c0.199,0.079,0.306,0.318,0.226,0.517
		c-0.663,1.645-1.034,4.893-1.153,6.06h2.744c0.226,0,0.398,0.173,0.398,0.397C17.755,43.861,17.57,44.046,17.344,44.046z"/>
	<path fill="#E0BC75" d="M12.73,25.577c-0.08,0-0.159-0.026-0.226-0.08c-2.665-1.922-4.721-4.654-5.967-6.616
		c-0.119-0.186-0.066-0.438,0.119-0.543c0.186-0.106,0.438-0.066,0.544,0.119c1.207,1.896,3.195,4.548,5.768,6.391
		c0.173,0.133,0.226,0.372,0.093,0.557C12.968,25.51,12.849,25.577,12.73,25.577z"/>
	<path fill="#E0BC75" d="M6.06,17.754c-0.132,0-0.278-0.066-0.345-0.199c-0.45-0.796-0.702-1.313-0.702-1.326
		C4.92,16.03,5,15.792,5.199,15.699s0.438-0.013,0.53,0.186c0,0,0.238,0.504,0.676,1.273c0.106,0.186,0.04,0.438-0.146,0.543
		C6.207,17.741,6.126,17.754,6.06,17.754z"/>
	<path fill="#E0BC75" d="M3.237,13.073c-0.173,0-0.318-0.106-0.372-0.265l-0.464-1.379c-0.066-0.212,0.04-0.438,0.252-0.504
		s0.438,0.04,0.504,0.252l0.464,1.379c0.066,0.212-0.04,0.438-0.252,0.504C3.329,13.06,3.276,13.073,3.237,13.073z"/>
	<path fill="#E0BC75" d="M39.513,11.907c-0.026,0-0.053,0-0.079-0.014c-0.213-0.053-0.345-0.265-0.306-0.477l0.318-1.432
		c0.054-0.212,0.266-0.345,0.478-0.305c0.212,0.053,0.345,0.265,0.305,0.477l-0.318,1.432
		C39.872,11.787,39.699,11.907,39.513,11.907z"/>
	<path fill="#E0BC75" d="M37.418,19.756c-0.08,0-0.159-0.026-0.238-0.08c-0.173-0.132-0.213-0.384-0.08-0.557
		c0.862-1.154,2.042-4.336,2.055-4.362c0.08-0.212,0.306-0.305,0.518-0.239c0.212,0.08,0.305,0.305,0.238,0.517
		c-0.053,0.133-1.232,3.315-2.161,4.561C37.657,19.703,37.538,19.756,37.418,19.756z"/>
	<path fill="#E0BC75" d="M16.403,31.49c-0.212,0-0.385-0.159-0.398-0.371l-0.238-3.912c-0.014-0.226,0.159-0.411,0.371-0.424
		c0.213-0.013,0.411,0.159,0.425,0.372l0.238,3.911c0.014,0.226-0.159,0.411-0.371,0.424C16.416,31.49,16.416,31.49,16.403,31.49z"
		/>
	<path fill="#E0BC75" d="M15.528,52.095C15.514,52.095,15.514,52.095,15.528,52.095c-0.226,0-0.398-0.187-0.398-0.411
		c0.014-0.465,0.239-2.042,0.252-2.108c0.026-0.212,0.239-0.371,0.451-0.331c0.212,0.026,0.371,0.238,0.331,0.45
		c-0.065,0.438-0.238,1.671-0.238,2.016C15.912,51.922,15.74,52.095,15.528,52.095z"/>
	<path fill="#E0BC75" d="M29.595,51.18c-0.198,0-0.357-0.146-0.397-0.345c-0.106-0.703-0.159-0.995-0.186-1.101
		c-0.053-0.212,0.079-0.424,0.292-0.49c0.212-0.054,0.424,0.079,0.49,0.291c0.053,0.186,0.119,0.57,0.212,1.18
		c0.026,0.213-0.119,0.425-0.331,0.451C29.635,51.18,29.609,51.18,29.595,51.18z"/>
	<path fill="#E0BC75" d="M13.923,57.014c-0.226,0-0.397-0.172-0.397-0.398V55.41c0-0.226,0.172-0.397,0.397-0.397
		s0.397,0.172,0.397,0.397v1.206C14.321,56.842,14.149,57.014,13.923,57.014z"/>
	<path fill="#E0BC75" d="M30.921,56.405c-0.226,0-0.397-0.173-0.397-0.398v-0.822c0-0.225,0.172-0.397,0.397-0.397
		s0.397,0.173,0.397,0.397v0.822C31.319,56.232,31.133,56.405,30.921,56.405z"/>
	<path fill="#E0BC75" d="M6.63,65.711c-0.053,0-0.105-0.013-0.159-0.039c-0.198-0.093-0.291-0.332-0.198-0.53l1.445-3.222
		c0.065-0.146,0.212-0.239,0.357-0.239h10.899c0.226,0,0.397,0.173,0.397,0.397c0,0.226-0.172,0.398-0.397,0.398H8.341l-1.34,2.996
		C6.922,65.62,6.79,65.711,6.63,65.711z"/>
	<path fill="#E0BC75" d="M24.716,62.491h-3.792c-0.226,0-0.398-0.173-0.398-0.398s0.173-0.397,0.398-0.397h3.792
		c0.226,0,0.397,0.172,0.397,0.397S24.928,62.491,24.716,62.491z"/>
	<g>
		<path fill="#D3AA4C" d="M18.139,13.126c0,1.816-1.472,3.288-3.288,3.288s-3.288-1.472-3.288-3.288s1.472-3.288,3.288-3.288
			S18.139,11.31,18.139,13.126z"/>
		<path fill="#B78E3D" d="M14.851,17.011c-2.147,0-3.885-1.737-3.885-3.885s1.737-3.885,3.885-3.885
			c2.148,0,3.885,1.737,3.885,3.885S17,17.011,14.851,17.011z M14.851,10.435c-1.484,0-2.691,1.206-2.691,2.691
			c0,1.485,1.207,2.691,2.691,2.691c1.485,0,2.691-1.207,2.691-2.691C17.542,11.641,16.336,10.435,14.851,10.435z"/>
		<path fill="#D3AA4C" d="M35.615,13.126c0,1.816-1.472,3.288-3.288,3.288s-3.288-1.472-3.288-3.288s1.472-3.288,3.288-3.288
			C34.13,9.838,35.615,11.31,35.615,13.126z"/>
		<path fill="#B78E3D" d="M32.327,17.011c-2.147,0-3.885-1.737-3.885-3.885s1.737-3.885,3.885-3.885
			c2.148,0,3.885,1.737,3.885,3.885S34.461,17.011,32.327,17.011z M32.327,10.435c-1.484,0-2.691,1.206-2.691,2.691
			c0,1.485,1.207,2.691,2.691,2.691c1.485,0,2.691-1.207,2.691-2.691C35.018,11.641,33.798,10.435,32.327,10.435z"/>
		<path fill="#D3AA4C" d="M33.109,13.882c0,5.237-4.243,9.48-9.48,9.48l0,0c-5.237,0-9.479-4.243-9.479-9.48v-3.806
			c0-5.237,4.242-9.48,9.479-9.48l0,0c5.237,0,9.48,4.243,9.48,9.48v0.928v1.406V13.882z"/>
		<path fill="#B78E3D" d="M23.628,23.959c-5.555,0-10.076-4.521-10.076-10.077v-3.806C13.552,4.521,18.074,0,23.628,0
			c5.556,0,10.077,4.521,10.077,10.077v3.806C33.706,19.438,29.184,23.959,23.628,23.959z M23.628,1.193
			c-4.893,0-8.883,3.991-8.883,8.883v3.806c0,4.893,3.99,8.883,8.883,8.883c4.894,0,8.884-3.991,8.884-8.883v-3.806
			C32.512,5.171,28.522,1.193,23.628,1.193z"/>
		<path fill="#B78E3D" d="M23.628,20.75c-1.79,0-3.46-0.676-4.375-1.777c-0.133-0.159-0.159-0.384-0.066-0.57
			c0.093-0.186,0.278-0.305,0.478-0.305h7.916c0.198,0,0.397,0.119,0.477,0.305c0.093,0.186,0.066,0.411-0.066,0.57
			C27.089,20.074,25.418,20.75,23.628,20.75z M21.215,19.172c0.689,0.332,1.525,0.517,2.4,0.517s1.724-0.186,2.399-0.517H21.215z"/>
		<path fill="#B78E3D" d="M29.065,11.336c-0.371-0.146-0.756-0.106-1.074,0.08c0.066,0.013,0.12,0.013,0.186,0.04
			c0.372,0.146,0.558,0.57,0.411,0.941c-0.146,0.372-0.569,0.557-0.941,0.411c-0.093-0.04-0.186-0.093-0.252-0.159
			c0.054,0.424,0.332,0.809,0.77,0.981c0.637,0.252,1.353-0.053,1.604-0.689C30.006,12.304,29.702,11.588,29.065,11.336z"/>
		<path fill="#B78E3D" d="M30.736,8.751c-0.066,0-0.133-0.013-0.199-0.053c-1.883-0.915-3.858-0.438-3.885-0.438
			c-0.252,0.066-0.504-0.093-0.557-0.345c-0.066-0.252,0.093-0.504,0.331-0.557c0.093-0.027,2.308-0.557,4.509,0.503
			c0.225,0.106,0.331,0.385,0.212,0.624C31.067,8.658,30.908,8.751,30.736,8.751z"/>
		<path fill="#B78E3D" d="M19.028,11.336c-0.371-0.146-0.756-0.106-1.074,0.08c0.066,0.013,0.119,0.013,0.186,0.04
			c0.372,0.146,0.558,0.57,0.411,0.941c-0.146,0.372-0.569,0.557-0.941,0.411c-0.093-0.04-0.186-0.093-0.252-0.159
			c0.054,0.424,0.332,0.809,0.77,0.981c0.637,0.252,1.353-0.053,1.604-0.689C19.969,12.304,19.665,11.588,19.028,11.336z"/>
		<path fill="#B78E3D" d="M16.469,8.751c-0.173,0-0.332-0.093-0.425-0.265c-0.105-0.226-0.013-0.504,0.212-0.624
			c2.201-1.061,4.416-0.53,4.509-0.503c0.252,0.066,0.397,0.318,0.331,0.557c-0.066,0.252-0.318,0.398-0.557,0.332l0,0
			c-0.014,0-1.989-0.478-3.885,0.438C16.601,8.738,16.536,8.751,16.469,8.751z"/>
		<path fill="#B78E3D" d="M23.457,17.263c-0.994,0-1.949-0.318-2.612-0.862c-0.198-0.159-0.226-0.451-0.066-0.65
			c0.159-0.199,0.451-0.225,0.65-0.066c0.504,0.411,1.246,0.649,2.028,0.649c0.756,0,1.472-0.225,1.962-0.61
			c0.199-0.159,0.491-0.119,0.65,0.08s0.119,0.491-0.08,0.65C25.313,16.972,24.424,17.263,23.457,17.263z"/>
		<path fill="#B78E3D" d="M20.792,4.548c0.345,0.477,1.617,1.246,2.891,1.246c1.272,0,2.546-0.769,2.891-1.246
			c0.689-0.915,2.996-2.108,5.476,1.207c0.093,0.119,0.173,0.199,0.252,0.252c-1.524-3.195-4.786-5.41-8.565-5.41
			c-3.673,0-6.854,2.095-8.433,5.145C17.808,2.453,20.115,3.62,20.792,4.548z"/>
	</g>
	<path fill="#E0BC75" d="M18.736,20.193c-0.093,0-0.172-0.026-0.252-0.093c-1.339-1.101-2.307-2.639-2.704-4.322
		c-0.054-0.212,0.079-0.424,0.291-0.478c0.213-0.053,0.425,0.08,0.478,0.292c0.358,1.524,1.233,2.904,2.439,3.898
		c0.173,0.146,0.199,0.385,0.054,0.557C18.975,20.141,18.856,20.193,18.736,20.193z"/>
	<path fill="#E0BC75" d="M15.952,14.359c-0.226,0-0.397-0.172-0.397-0.398v-1.644c0-0.225,0.172-0.397,0.397-0.397
		s0.398,0.172,0.398,0.397v1.644C16.35,14.174,16.164,14.359,15.952,14.359z"/>
</g>
</svg>
